<svg width="95" height="11" viewBox="0 0 95 11" fill="none" xmlns="http://www.w3.org/2000/svg">
<path d="M5.6 10.917C4.9 10.917 4.25133 10.791 3.654 10.539C3.05667 10.287 2.534 9.937 2.086 9.489C1.638 9.03167 1.288 8.50433 1.036 7.907C0.793333 7.30967 0.672 6.66567 0.672 5.975C0.672 5.28433 0.798 4.64033 1.05 4.043C1.302 3.44567 1.652 2.923 2.1 2.475C2.548 2.01767 3.07067 1.663 3.668 1.411C4.27467 1.159 4.928 1.033 5.628 1.033C6.328 1.033 6.97667 1.159 7.574 1.411C8.18067 1.65367 8.70333 1.999 9.142 2.447C9.59 2.895 9.93533 3.41767 10.178 4.015C10.43 4.603 10.556 5.247 10.556 5.947C10.556 6.647 10.43 7.30033 10.178 7.907C9.926 8.50433 9.57133 9.03167 9.114 9.489C8.666 9.937 8.14333 10.287 7.546 10.539C6.94867 10.791 6.3 10.917 5.6 10.917ZM5.6 10.287C6.20667 10.287 6.77133 10.175 7.294 9.951C7.81667 9.727 8.274 9.419 8.666 9.027C9.058 8.635 9.36133 8.17767 9.576 7.655C9.79067 7.123 9.898 6.55367 9.898 5.947C9.898 5.34033 9.79067 4.77567 9.576 4.253C9.36133 3.73033 9.06267 3.27767 8.68 2.895C8.29733 2.51233 7.84467 2.21367 7.322 1.999C6.80867 1.775 6.244 1.663 5.628 1.663C5.012 1.663 4.438 1.775 3.906 1.999C3.38333 2.21367 2.93067 2.52167 2.548 2.923C2.16533 3.315 1.86667 3.77233 1.652 4.295C1.43733 4.80833 1.33 5.36833 1.33 5.975C1.33 6.58167 1.43733 7.14633 1.652 7.669C1.86667 8.19167 2.16533 8.649 2.548 9.041C2.93067 9.433 3.38333 9.741 3.906 9.965C4.42867 10.1797 4.99333 10.287 5.6 10.287ZM5.754 8.859C5.18467 8.859 4.676 8.73767 4.228 8.495C3.78 8.25233 3.43 7.91633 3.178 7.487C2.926 7.04833 2.8 6.54433 2.8 5.975C2.8 5.40567 2.926 4.90633 3.178 4.477C3.43 4.03833 3.78 3.69767 4.228 3.455C4.676 3.21233 5.18467 3.091 5.754 3.091C6.24867 3.091 6.692 3.19367 7.084 3.399C7.48533 3.595 7.798 3.87033 8.022 4.225L7.224 4.799C7.04667 4.53767 6.82733 4.34633 6.566 4.225C6.314 4.10367 6.03867 4.043 5.74 4.043C5.376 4.043 5.054 4.127 4.774 4.295C4.50333 4.45367 4.284 4.67767 4.116 4.967C3.948 5.247 3.864 5.583 3.864 5.975C3.864 6.367 3.948 6.70767 4.116 6.997C4.284 7.277 4.50333 7.501 4.774 7.669C5.054 7.82767 5.376 7.907 5.74 7.907C6.03867 7.907 6.314 7.84633 6.566 7.725C6.82733 7.60367 7.04667 7.41233 7.224 7.151L8.022 7.711C7.798 8.06567 7.48533 8.34567 7.084 8.551C6.692 8.75633 6.24867 8.859 5.754 8.859ZM16.4544 10.875V1.075H20.5844C21.6297 1.075 22.549 1.28033 23.3424 1.691C24.145 2.10167 24.7657 2.67567 25.2044 3.413C25.6524 4.15033 25.8764 5.00433 25.8764 5.975C25.8764 6.94567 25.6524 7.79967 25.2044 8.537C24.7657 9.27433 24.145 9.84833 23.3424 10.259C22.549 10.6697 21.6297 10.875 20.5844 10.875H16.4544ZM17.8544 9.657H20.5004C21.3124 9.657 22.0124 9.503 22.6004 9.195C23.1977 8.887 23.6597 8.45767 23.9864 7.907C24.313 7.347 24.4764 6.703 24.4764 5.975C24.4764 5.23767 24.313 4.59367 23.9864 4.043C23.6597 3.49233 23.1977 3.063 22.6004 2.755C22.0124 2.447 21.3124 2.293 20.5004 2.293H17.8544V9.657ZM31.0028 10.959C30.2561 10.959 29.5934 10.7957 29.0148 10.469C28.4361 10.1423 27.9788 9.69433 27.6428 9.125C27.3068 8.54633 27.1388 7.893 27.1388 7.165C27.1388 6.42767 27.3068 5.77433 27.6428 5.205C27.9788 4.63567 28.4361 4.19233 29.0148 3.875C29.5934 3.54833 30.2561 3.385 31.0028 3.385C31.7401 3.385 32.3981 3.54833 32.9768 3.875C33.5648 4.19233 34.0221 4.63567 34.3488 5.205C34.6848 5.765 34.8528 6.41833 34.8528 7.165C34.8528 7.90233 34.6848 8.55567 34.3488 9.125C34.0221 9.69433 33.5648 10.1423 32.9768 10.469C32.3981 10.7957 31.7401 10.959 31.0028 10.959ZM31.0028 9.783C31.4788 9.783 31.9034 9.67567 32.2768 9.461C32.6594 9.24633 32.9581 8.943 33.1728 8.551C33.3874 8.14967 33.4948 7.68767 33.4948 7.165C33.4948 6.633 33.3874 6.17567 33.1728 5.793C32.9581 5.401 32.6594 5.09767 32.2768 4.883C31.9034 4.66833 31.4788 4.561 31.0028 4.561C30.5268 4.561 30.1021 4.66833 29.7288 4.883C29.3554 5.09767 29.0568 5.401 28.8328 5.793C28.6088 6.17567 28.4968 6.633 28.4968 7.165C28.4968 7.68767 28.6088 8.14967 28.8328 8.551C29.0568 8.943 29.3554 9.24633 29.7288 9.461C30.1021 9.67567 30.5268 9.783 31.0028 9.783ZM36.7115 10.875V0.486999H38.0555V10.875H36.7115ZM43.7997 10.959C43.053 10.959 42.3903 10.7957 41.8117 10.469C41.233 10.1423 40.7757 9.69433 40.4397 9.125C40.1037 8.54633 39.9357 7.893 39.9357 7.165C39.9357 6.42767 40.1037 5.77433 40.4397 5.205C40.7757 4.63567 41.233 4.19233 41.8117 3.875C42.3903 3.54833 43.053 3.385 43.7997 3.385C44.537 3.385 45.195 3.54833 45.7737 3.875C46.3617 4.19233 46.819 4.63567 47.1457 5.205C47.4817 5.765 47.6497 6.41833 47.6497 7.165C47.6497 7.90233 47.4817 8.55567 47.1457 9.125C46.819 9.69433 46.3617 10.1423 45.7737 10.469C45.195 10.7957 44.537 10.959 43.7997 10.959ZM43.7997 9.783C44.2757 9.783 44.7003 9.67567 45.0737 9.461C45.4563 9.24633 45.755 8.943 45.9697 8.551C46.1843 8.14967 46.2917 7.68767 46.2917 7.165C46.2917 6.633 46.1843 6.17567 45.9697 5.793C45.755 5.401 45.4563 5.09767 45.0737 4.883C44.7003 4.66833 44.2757 4.561 43.7997 4.561C43.3237 4.561 42.899 4.66833 42.5257 4.883C42.1523 5.09767 41.8537 5.401 41.6297 5.793C41.4057 6.17567 41.2937 6.633 41.2937 7.165C41.2937 7.68767 41.4057 8.14967 41.6297 8.551C41.8537 8.943 42.1523 9.24633 42.5257 9.461C42.899 9.67567 43.3237 9.783 43.7997 9.783ZM53.4704 3.385C54.077 3.385 54.609 3.50167 55.0664 3.735C55.533 3.96833 55.897 4.323 56.1584 4.799C56.4197 5.275 56.5504 5.877 56.5504 6.605V10.875H55.2064V6.759C55.2064 6.04033 55.029 5.499 54.6744 5.135C54.329 4.771 53.839 4.589 53.2044 4.589C52.7284 4.589 52.313 4.68233 51.9584 4.869C51.6037 5.05567 51.3284 5.331 51.1324 5.695C50.9457 6.059 50.8524 6.51167 50.8524 7.053V10.875H49.5084V3.455H50.7964V5.457L50.5864 4.925C50.829 4.43967 51.2024 4.06167 51.7064 3.791C52.2104 3.52033 52.7984 3.385 53.4704 3.385ZM62.0414 10.875V9.923L66.0314 6.073C66.3861 5.737 66.6474 5.443 66.8154 5.191C66.9928 4.92967 67.1094 4.69167 67.1654 4.477C67.2308 4.253 67.2634 4.03833 67.2634 3.833C67.2634 3.329 67.0861 2.93233 66.7314 2.643C66.3768 2.35367 65.8588 2.209 65.1774 2.209C64.6548 2.209 64.1834 2.29767 63.7634 2.475C63.3434 2.643 62.9794 2.909 62.6714 3.273L61.7194 2.447C62.0928 1.971 62.5921 1.607 63.2174 1.355C63.8521 1.09367 64.5474 0.963 65.3034 0.963C65.9848 0.963 66.5774 1.075 67.0814 1.299C67.5854 1.51367 67.9728 1.82633 68.2434 2.237C68.5234 2.64767 68.6634 3.133 68.6634 3.693C68.6634 4.01033 68.6214 4.323 68.5374 4.631C68.4534 4.939 68.2948 5.26567 68.0614 5.611C67.8281 5.95633 67.4921 6.34367 67.0534 6.773L63.4974 10.203L63.1614 9.657H69.0834V10.875H62.0414ZM74.2248 10.987C73.4595 10.987 72.7735 10.791 72.1668 10.399C71.5695 10.007 71.0935 9.43767 70.7388 8.691C70.3935 7.94433 70.2208 7.039 70.2208 5.975C70.2208 4.911 70.3935 4.00567 70.7388 3.259C71.0935 2.51233 71.5695 1.943 72.1668 1.551C72.7735 1.159 73.4595 0.963 74.2248 0.963C74.9808 0.963 75.6622 1.159 76.2688 1.551C76.8755 1.943 77.3515 2.51233 77.6968 3.259C78.0422 4.00567 78.2148 4.911 78.2148 5.975C78.2148 7.039 78.0422 7.94433 77.6968 8.691C77.3515 9.43767 76.8755 10.007 76.2688 10.399C75.6622 10.791 74.9808 10.987 74.2248 10.987ZM74.2248 9.741C74.7382 9.741 75.1862 9.601 75.5688 9.321C75.9608 9.041 76.2642 8.621 76.4788 8.061C76.7028 7.501 76.8148 6.80567 76.8148 5.975C76.8148 5.14433 76.7028 4.449 76.4788 3.889C76.2642 3.329 75.9608 2.909 75.5688 2.629C75.1862 2.349 74.7382 2.209 74.2248 2.209C73.7115 2.209 73.2588 2.349 72.8668 2.629C72.4748 2.909 72.1668 3.329 71.9428 3.889C71.7282 4.449 71.6208 5.14433 71.6208 5.975C71.6208 6.80567 71.7282 7.501 71.9428 8.061C72.1668 8.621 72.4748 9.041 72.8668 9.321C73.2588 9.601 73.7115 9.741 74.2248 9.741ZM79.4047 10.875V9.923L83.3947 6.073C83.7494 5.737 84.0107 5.443 84.1787 5.191C84.3561 4.92967 84.4727 4.69167 84.5287 4.477C84.5941 4.253 84.6267 4.03833 84.6267 3.833C84.6267 3.329 84.4494 2.93233 84.0947 2.643C83.7401 2.35367 83.2221 2.209 82.5407 2.209C82.0181 2.209 81.5467 2.29767 81.1267 2.475C80.7067 2.643 80.3427 2.909 80.0347 3.273L79.0827 2.447C79.4561 1.971 79.9554 1.607 80.5807 1.355C81.2154 1.09367 81.9107 0.963 82.6667 0.963C83.3481 0.963 83.9407 1.075 84.4447 1.299C84.9487 1.51367 85.3361 1.82633 85.6067 2.237C85.8867 2.64767 86.0267 3.133 86.0267 3.693C86.0267 4.01033 85.9847 4.323 85.9007 4.631C85.8167 4.939 85.6581 5.26567 85.4247 5.611C85.1914 5.95633 84.8554 6.34367 84.4167 6.773L80.8607 10.203L80.5247 9.657H86.4467V10.875H79.4047ZM90.5938 10.987C89.9031 10.987 89.2311 10.8797 88.5778 10.665C87.9338 10.4503 87.4064 10.161 86.9958 9.797L87.6398 8.691C87.9664 8.999 88.3911 9.251 88.9138 9.447C89.4364 9.643 89.9964 9.741 90.5938 9.741C91.3218 9.741 91.8864 9.587 92.2878 9.279C92.6984 8.96167 92.9038 8.537 92.9038 8.005C92.9038 7.49167 92.7078 7.081 92.3158 6.773C91.9331 6.45567 91.3218 6.297 90.4818 6.297H89.6978V5.317L92.6098 1.733L92.8058 2.293H87.4438V1.075H93.9118V2.027L91.0138 5.597L90.2858 5.163H90.7478C91.9331 5.163 92.8198 5.429 93.4078 5.961C94.0051 6.493 94.3038 7.16967 94.3038 7.991C94.3038 8.54167 94.1684 9.04567 93.8978 9.503C93.6271 9.96033 93.2164 10.3243 92.6658 10.595C92.1244 10.8563 91.4338 10.987 90.5938 10.987Z" fill="black"/>
</svg>
