<svg width="20" height="20" viewBox="0 0 20 20" fill="none" xmlns="http://www.w3.org/2000/svg">
<path d="M18.0951 0.500133H1.90493C1.72294 0.49762 1.54223 0.530768 1.37313 0.597681C1.20402 0.664595 1.04984 0.763964 0.919374 0.890114C0.788911 1.01626 0.684726 1.16672 0.612769 1.3329C0.540812 1.49908 0.502493 1.67772 0.5 1.85861V18.1414C0.502493 18.3223 0.540812 18.5009 0.612769 18.6671C0.684726 18.8333 0.788911 18.9837 0.919374 19.1099C1.04984 19.236 1.20402 19.3354 1.37313 19.4023C1.54223 19.4692 1.72294 19.5024 1.90493 19.4999H18.0951C18.2771 19.5024 18.4578 19.4692 18.6269 19.4023C18.796 19.3354 18.9502 19.236 19.0806 19.1099C19.2111 18.9837 19.3153 18.8333 19.3872 18.6671C19.4592 18.5009 19.4975 18.3223 19.5 18.1414V1.85861C19.4975 1.67772 19.4592 1.49908 19.3872 1.3329C19.3153 1.16672 19.2111 1.01626 19.0806 0.890114C18.9502 0.763964 18.796 0.664595 18.6269 0.597681C18.4578 0.530768 18.2771 0.49762 18.0951 0.500133ZM6.26308 16.4029H3.39588V7.85303H6.26308V16.4029ZM4.82948 6.65605C4.43405 6.65605 4.05483 6.49991 3.77522 6.22198C3.49561 5.94406 3.33853 5.56711 3.33853 5.17407C3.33853 4.78102 3.49561 4.40407 3.77522 4.12615C4.05483 3.84822 4.43405 3.69209 4.82948 3.69209C5.03945 3.66842 5.25208 3.6891 5.45345 3.75278C5.65482 3.81645 5.84039 3.92169 5.99801 4.0616C6.15563 4.2015 6.28174 4.37292 6.36809 4.56463C6.45443 4.75634 6.49907 4.96402 6.49907 5.17407C6.49907 5.38411 6.45443 5.59179 6.36809 5.7835C6.28174 5.97521 6.15563 6.14663 5.99801 6.28654C5.84039 6.42645 5.65482 6.53168 5.45345 6.59536C5.25208 6.65904 5.03945 6.67972 4.82948 6.65605ZM16.6041 16.4029H13.7369V11.8145C13.7369 10.665 13.326 9.9145 12.2842 9.9145C11.9618 9.91685 11.6479 10.0174 11.3847 10.2025C11.1215 10.3877 10.9218 10.6485 10.8124 10.95C10.7376 11.1733 10.7052 11.4084 10.7168 11.6435V16.3934H7.8496C7.8496 16.3934 7.8496 8.62252 7.8496 7.84353H10.7168V9.05001C10.9773 8.60077 11.3561 8.23067 11.8125 7.97957C12.2689 7.72847 12.7856 7.60589 13.3068 7.62503C15.2183 7.62503 16.6041 8.85052 16.6041 11.482V16.4029Z" fill="#535354"/>
</svg>
