<svg width="24" height="16" viewBox="0 0 24 16" fill="none" xmlns="http://www.w3.org/2000/svg">
<path d="M23.001 5.7095C23.0505 4.27815 22.7374 2.85751 22.091 1.5795C21.6524 1.05509 21.0437 0.701206 20.371 0.579496C17.5885 0.327021 14.7945 0.22354 12.001 0.269496C9.21765 0.221454 6.43371 0.321596 3.661 0.569496C3.11282 0.669213 2.60552 0.926338 2.201 1.3095C1.301 2.1395 1.201 3.5595 1.101 4.7595C0.955916 6.91706 0.955916 9.08193 1.101 11.2395C1.12993 11.9149 1.2305 12.5853 1.401 13.2395C1.52158 13.7446 1.76553 14.2118 2.111 14.5995C2.51827 15.003 3.03739 15.2747 3.601 15.3795C5.75692 15.6456 7.92922 15.7559 10.101 15.7095C13.601 15.7595 16.671 15.7095 20.301 15.4295C20.8785 15.3311 21.4122 15.059 21.831 14.6495C22.111 14.3694 22.3201 14.0266 22.441 13.6495C22.7986 12.5521 22.9743 11.4036 22.961 10.2495C23.001 9.6895 23.001 6.3095 23.001 5.7095ZM9.741 10.8495V4.6595L15.661 7.7695C14.001 8.6895 11.811 9.7295 9.741 10.8495Z" fill="#535354"/>
</svg>
