<svg width="94" height="94" viewBox="0 0 94 94" fill="none" xmlns="http://www.w3.org/2000/svg">
<g clip-path="url(#clip0_1886_30766)">
<path d="M47.1994 47.8713L52.0394 45.0813L47.1994 42.2812L42.3594 45.0813L47.1994 47.8713Z" fill="#72B5E8"/>
<path d="M42.3594 50.6681L47.1994 53.4581V47.8681L42.3594 45.0781V50.6681Z" fill="#578CF4"/>
<path d="M47.1992 53.4581L52.0392 50.6681V45.0781L47.1992 47.8681V53.4581Z" fill="#67D4B4"/>
<path d="M54.3009 51.9728L59.1409 49.1728L54.3009 46.3828L49.4609 49.1728L54.3009 51.9728Z" fill="#72B5E8"/>
<path d="M49.4609 54.7619L54.3009 57.5619V51.9719L49.4609 49.1719V54.7619Z" fill="#578CF4"/>
<path d="M54.3008 57.5619L59.1408 54.7619V49.1719L54.3008 51.9719V57.5619Z" fill="#67D4B4"/>
<path d="M61.4005 56.0705L66.2405 53.2705L61.4005 50.4805L56.5605 53.2705L61.4005 56.0705Z" fill="#72B5E8"/>
<path d="M56.5605 58.8595L61.4005 61.6495V56.0695L56.5605 53.2695V58.8595Z" fill="#578CF4"/>
<path d="M61.4004 61.6495L66.2404 58.8595V53.2695L61.4004 56.0695V61.6495Z" fill="#67D4B4"/>
<path d="M68.4904 60.1581L73.3304 57.3681L68.4904 54.5781L63.6504 57.3681L68.4904 60.1581Z" fill="#72B5E8"/>
<path d="M63.6504 62.9572L68.4904 65.7472V60.1572L63.6504 57.3672V62.9572Z" fill="#578CF4"/>
<path d="M68.4902 65.7472L73.3302 62.9572V57.3672L68.4902 60.1572V65.7472Z" fill="#67D4B4"/>
<path d="M75.59 64.2619L80.43 61.4719L75.59 58.6719L70.75 61.4719L75.59 64.2619Z" fill="#72B5E8"/>
<path d="M70.75 67.0587L75.59 69.8487V64.2588L70.75 61.4688V67.0587Z" fill="#578CF4"/>
<path d="M75.5898 69.8487L80.4298 67.0587V61.4688L75.5898 64.2588V69.8487Z" fill="#67D4B4"/>
<path d="M82.6896 68.3595L87.5296 65.5595L82.6896 62.7695L77.8496 65.5595L82.6896 68.3595Z" fill="#72B5E8"/>
<path d="M77.8496 71.1525L82.6896 73.9525V68.3625L77.8496 65.5625V71.1525Z" fill="#578CF4"/>
<path d="M82.6895 73.9525L87.5294 71.1525V65.5625L82.6895 68.3625V73.9525Z" fill="#67D4B4"/>
<path d="M40.1095 51.9628L44.9495 49.1728L40.1095 46.3828L35.2695 49.1728L40.1095 51.9628Z" fill="#72B5E8"/>
<path d="M35.2695 54.7619L40.1095 57.5519V51.9619L35.2695 49.1719V54.7619Z" fill="#578CF4"/>
<path d="M40.1094 57.5519L44.9494 54.7619V49.1719L40.1094 51.9619V57.5519Z" fill="#67D4B4"/>
<path d="M47.1994 56.0588L52.0394 53.2687L47.1994 50.4688L42.3594 53.2687L47.1994 56.0588Z" fill="#72B5E8"/>
<path d="M42.3594 58.8495L47.1994 61.6495V56.0595L42.3594 53.2695V58.8495Z" fill="#578CF4"/>
<path d="M47.1992 61.6495L52.0392 58.8495V53.2695L47.1992 56.0595V61.6495Z" fill="#67D4B4"/>
<path d="M54.3009 60.1603L59.1409 57.3603L54.3009 54.5703L49.4609 57.3603L54.3009 60.1603Z" fill="#72B5E8"/>
<path d="M49.4609 62.9494L54.3009 65.7494V60.1594L49.4609 57.3594V62.9494Z" fill="#578CF4"/>
<path d="M54.3008 65.7494L59.1408 62.9494V57.3594L54.3008 60.1594V65.7494Z" fill="#67D4B4"/>
<path d="M61.4005 64.2619L66.2305 61.4619L61.4005 58.6719L56.5605 61.4619L61.4005 64.2619Z" fill="#72B5E8"/>
<path d="M56.5605 67.0509L61.4005 69.8409V64.2609L56.5605 61.4609V67.0509Z" fill="#578CF4"/>
<path d="M61.4004 69.8409L66.2304 67.0509V61.4609L61.4004 64.2609V69.8409Z" fill="#67D4B4"/>
<path d="M68.4904 68.3495L73.3304 65.5595L68.4904 62.7695L63.6504 65.5595L68.4904 68.3495Z" fill="#72B5E8"/>
<path d="M63.6504 71.1525L68.4904 73.9425V68.3525L63.6504 65.5625V71.1525Z" fill="#578CF4"/>
<path d="M68.4902 73.9425L73.3302 71.1525V65.5625L68.4902 68.3525V73.9425Z" fill="#67D4B4"/>
<path d="M75.59 72.4494L80.43 69.6594L75.59 66.8594L70.75 69.6594L75.59 72.4494Z" fill="#72B5E8"/>
<path d="M70.75 75.2402L75.59 78.0402V72.4501L70.75 69.6602V75.2402Z" fill="#578CF4"/>
<path d="M75.5898 78.0402L80.4298 75.2402V69.6602L75.5898 72.4501V78.0402Z" fill="#67D4B4"/>
<path d="M33.0099 56.0705L37.8499 53.2705L33.0099 50.4805L28.1699 53.2705L33.0099 56.0705Z" fill="#72B5E8"/>
<path d="M28.1699 58.8595L33.0099 61.6595V56.0695L28.1699 53.2695V58.8595Z" fill="#578CF4"/>
<path d="M33.0098 61.6595L37.8498 58.8595V53.2695L33.0098 56.0695V61.6595Z" fill="#67D4B4"/>
<path d="M40.1095 60.1581L44.9495 57.3681L40.1095 54.5781L35.2695 57.3681L40.1095 60.1581Z" fill="#72B5E8"/>
<path d="M35.2695 62.9572L40.1095 65.7472V60.1572L35.2695 57.3672V62.9572Z" fill="#578CF4"/>
<path d="M40.1094 65.7472L44.9494 62.9572V57.3672L40.1094 60.1572V65.7472Z" fill="#67D4B4"/>
<path d="M47.2011 64.2619L52.0511 61.4719L47.2011 58.6719L42.3711 61.4719L47.2011 64.2619Z" fill="#72B5E8"/>
<path d="M42.3711 67.0587L47.2011 69.8487V64.2588L42.3711 61.4688V67.0587Z" fill="#578CF4"/>
<path d="M47.1992 69.8487L52.0492 67.0587V61.4688L47.1992 64.2588V69.8487Z" fill="#67D4B4"/>
<path d="M54.3009 68.3595L59.1409 65.5595L54.3009 62.7695L49.4609 65.5595L54.3009 68.3595Z" fill="#72B5E8"/>
<path d="M49.4609 71.1525L54.3009 73.9525V68.3625L49.4609 65.5625V71.1525Z" fill="#578CF4"/>
<path d="M54.3008 73.9525L59.1408 71.1525V65.5625L54.3008 68.3625V73.9525Z" fill="#67D4B4"/>
<path d="M61.4005 72.4572L66.2405 69.6572L61.4005 66.8672L56.5605 69.6572L61.4005 72.4572Z" fill="#72B5E8"/>
<path d="M56.5605 75.2502L61.4005 78.0402V72.4602L56.5605 69.6602V75.2502Z" fill="#578CF4"/>
<path d="M61.4004 78.0402L66.2404 75.2502V69.6602L61.4004 72.4602V78.0402Z" fill="#67D4B4"/>
<path d="M68.5002 76.5488L73.3302 73.7588L68.5002 70.9688L63.6602 73.7588L68.5002 76.5488Z" fill="#72B5E8"/>
<path d="M63.6602 79.3478L68.5002 82.1378V76.5478L63.6602 73.7578V79.3478Z" fill="#578CF4"/>
<path d="M68.5 82.1378L73.33 79.3478V73.7578L68.5 76.5478V82.1378Z" fill="#67D4B4"/>
<path d="M25.9101 60.1581L30.7501 57.3681L25.9101 54.5781L21.0801 57.3681L25.9101 60.1581Z" fill="#72B5E8"/>
<path d="M21.0801 62.9572L25.9101 65.7472V60.1572L21.0801 57.3672V62.9572Z" fill="#578CF4"/>
<path d="M25.9102 65.7472L30.7502 62.9572V57.3672L25.9102 60.1572V65.7472Z" fill="#67D4B4"/>
<path d="M33.0099 64.2619L37.8499 61.4719L33.0099 58.6719L28.1699 61.4719L33.0099 64.2619Z" fill="#72B5E8"/>
<path d="M28.1699 67.0587L33.0099 69.8487V64.2588L28.1699 61.4688V67.0587Z" fill="#578CF4"/>
<path d="M33.0098 69.8487L37.8498 67.0587V61.4688L33.0098 64.2588V69.8487Z" fill="#67D4B4"/>
<path d="M40.1095 68.3595L44.9495 65.5595L40.1095 62.7695L35.2695 65.5595L40.1095 68.3595Z" fill="#72B5E8"/>
<path d="M35.2695 71.1525L40.1095 73.9525V68.3625L35.2695 65.5625V71.1525Z" fill="#578CF4"/>
<path d="M40.1094 73.9525L44.9494 71.1525V65.5625L40.1094 68.3625V73.9525Z" fill="#67D4B4"/>
<path d="M47.2011 72.4572L52.0411 69.6572L47.2011 66.8672L42.3711 69.6572L47.2011 72.4572Z" fill="#72B5E8"/>
<path d="M42.3711 75.2502L47.2011 78.0402V72.4602L42.3711 69.6602V75.2502Z" fill="#578CF4"/>
<path d="M47.1992 78.0402L52.0392 75.2502V69.6602L47.1992 72.4602V78.0402Z" fill="#67D4B4"/>
<path d="M54.3009 76.5488L59.1409 73.7588L54.3009 70.9688L49.4609 73.7588L54.3009 76.5488Z" fill="#72B5E8"/>
<path d="M49.4609 79.3478L54.3009 82.1378V76.5478L49.4609 73.7578V79.3478Z" fill="#578CF4"/>
<path d="M54.3008 82.1378L59.1408 79.3478V73.7578L54.3008 76.5478V82.1378Z" fill="#67D4B4"/>
<path d="M61.4005 80.6525L66.2405 77.8625L61.4005 75.0625L56.5605 77.8625L61.4005 80.6525Z" fill="#72B5E8"/>
<path d="M56.5605 83.4394L61.4005 86.2394V80.6494L56.5605 77.8594V83.4394Z" fill="#578CF4"/>
<path d="M61.4004 86.2394L66.2404 83.4394V77.8594L61.4004 80.6494V86.2394Z" fill="#67D4B4"/>
<path d="M18.8205 64.2619L23.6605 61.4719L18.8205 58.6719L13.9805 61.4719L18.8205 64.2619Z" fill="#72B5E8"/>
<path d="M13.9805 67.0587L18.8205 69.8487V64.2588L13.9805 61.4688V67.0587Z" fill="#578CF4"/>
<path d="M18.8203 69.8487L23.6603 67.0587V61.4688L18.8203 64.2588V69.8487Z" fill="#67D4B4"/>
<path d="M25.9101 68.3595L30.7501 65.5595L25.9101 62.7695L21.0801 65.5595L25.9101 68.3595Z" fill="#72B5E8"/>
<path d="M21.0801 71.1525L25.9101 73.9525V68.3625L21.0801 65.5625V71.1525Z" fill="#578CF4"/>
<path d="M25.9102 73.9525L30.7502 71.1525V65.5625L25.9102 68.3625V73.9525Z" fill="#67D4B4"/>
<path d="M33.0099 72.4572L37.8499 69.6572L33.0099 66.8672L28.1699 69.6572L33.0099 72.4572Z" fill="#72B5E8"/>
<path d="M28.1699 75.2502L33.0099 78.0402V72.4602L28.1699 69.6602V75.2502Z" fill="#578CF4"/>
<path d="M33.0098 78.0402L37.8498 75.2502V69.6602L33.0098 72.4602V78.0402Z" fill="#67D4B4"/>
<path d="M40.1095 76.5488L44.9495 73.7588L40.1095 70.9688L35.2695 73.7588L40.1095 76.5488Z" fill="#72B5E8"/>
<path d="M35.2695 79.3478L40.1095 82.1378V76.5478L35.2695 73.7578V79.3478Z" fill="#578CF4"/>
<path d="M40.1094 82.1378L44.9494 79.3478V73.7578L40.1094 76.5478V82.1378Z" fill="#67D4B4"/>
<path d="M47.2011 80.6525L52.0511 77.8625L47.2011 75.0625L42.3711 77.8625L47.2011 80.6525Z" fill="#72B5E8"/>
<path d="M42.3711 83.4394L47.2011 86.2394V80.6494L42.3711 77.8594V83.4394Z" fill="#578CF4"/>
<path d="M47.1992 86.2394L52.0492 83.4394V77.8594L47.1992 80.6494V86.2394Z" fill="#67D4B4"/>
<path d="M54.3009 84.7502L59.1409 81.9501L54.3009 79.1602L49.4609 81.9501L54.3009 84.7502Z" fill="#72B5E8"/>
<path d="M49.4609 87.5392L54.3009 90.3392V84.7492L49.4609 81.9492V87.5392Z" fill="#578CF4"/>
<path d="M54.3008 90.3392L59.1408 87.5392V81.9492L54.3008 84.7492V90.3392Z" fill="#67D4B4"/>
<path d="M11.7189 68.3595L16.5589 65.5595L11.7189 62.7695L6.87891 65.5595L11.7189 68.3595Z" fill="#72B5E8"/>
<path d="M6.87891 71.1525L11.7189 73.9525V68.3625L6.87891 65.5625V71.1525Z" fill="#578CF4"/>
<path d="M11.7207 73.9525L16.5607 71.1525V65.5625L11.7207 68.3625V73.9525Z" fill="#67D4B4"/>
<path d="M18.8205 72.4572L23.6605 69.6572L18.8205 66.8672L13.9805 69.6572L18.8205 72.4572Z" fill="#72B5E8"/>
<path d="M13.9805 75.2502L18.8205 78.0402V72.4602L13.9805 69.6602V75.2502Z" fill="#578CF4"/>
<path d="M18.8203 78.0402L23.6603 75.2502V69.6602L18.8203 72.4602V78.0402Z" fill="#67D4B4"/>
<path d="M25.9101 76.5488L30.7501 73.7588L25.9101 70.9688L21.0801 73.7588L25.9101 76.5488Z" fill="#72B5E8"/>
<path d="M21.0801 79.3478L25.9101 82.1378V76.5478L21.0801 73.7578V79.3478Z" fill="#578CF4"/>
<path d="M25.9102 82.1378L30.7502 79.3478V73.7578L25.9102 76.5478V82.1378Z" fill="#67D4B4"/>
<path d="M33.0099 80.6525L37.8499 77.8625L33.0099 75.0625L28.1699 77.8625L33.0099 80.6525Z" fill="#72B5E8"/>
<path d="M28.1699 83.4394L33.0099 86.2394V80.6494L28.1699 77.8594V83.4394Z" fill="#578CF4"/>
<path d="M33.0098 86.2394L37.8498 83.4394V77.8594L33.0098 80.6494V86.2394Z" fill="#67D4B4"/>
<path d="M35.2306 87.5705L40.0606 84.7705L35.2306 81.9805L30.3906 84.7705L35.2306 87.5705Z" fill="#898989"/>
<path d="M30.3906 90.3595L35.2306 93.1495V87.5695L30.3906 84.7695V90.3595Z" fill="#262D30"/>
<path d="M35.2305 93.1495L40.0605 90.3595V84.7695L35.2305 87.5695V93.1495Z" fill="#DCF4F4"/>
<path d="M47.2011 88.8378L52.0511 86.0478L47.2011 83.2578L42.3711 86.0478L47.2011 88.8378Z" fill="#72B5E8"/>
<path d="M42.3711 91.6408L47.2011 94.4308V88.8408L42.3711 86.0508V91.6408Z" fill="#578CF4"/>
<path d="M47.1992 94.4308L52.0492 91.6408V86.0508L47.1992 88.8408V94.4308Z" fill="#67D4B4"/>
<path d="M47.1994 39.4081L52.0394 36.6181L47.1994 33.8281L42.3594 36.6181L47.1994 39.4081Z" fill="#72B5E8"/>
<path d="M42.3594 42.2072L47.1994 44.9972V39.4072L42.3594 36.6172V42.2072Z" fill="#578CF4"/>
<path d="M47.1992 44.9972L52.0392 42.2072V36.6172L47.1992 39.4072V44.9972Z" fill="#67D4B4"/>
<path d="M54.3009 43.5119L59.1409 40.7219L54.3009 37.9219L49.4609 40.7219L54.3009 43.5119Z" fill="#72B5E8"/>
<path d="M49.4609 46.3088L54.3009 49.0987V43.5087L49.4609 40.7188V46.3088Z" fill="#578CF4"/>
<path d="M54.3008 49.0987L59.1408 46.3088V40.7188L54.3008 43.5087V49.0987Z" fill="#67D4B4"/>
<path d="M61.4005 47.6095L66.2405 44.8195L61.4005 42.0195L56.5605 44.8195L61.4005 47.6095Z" fill="#72B5E8"/>
<path d="M56.5605 50.4003L61.4005 53.2003V47.6103L56.5605 44.8203V50.4003Z" fill="#578CF4"/>
<path d="M61.4004 53.2003L66.2404 50.4003V44.8203L61.4004 47.6103V53.2003Z" fill="#67D4B4"/>
<path d="M68.4904 51.7072L73.3304 48.9072L68.4904 46.1172L63.6504 48.9072L68.4904 51.7072Z" fill="#72B5E8"/>
<path d="M63.6504 54.5002L68.4904 57.3002V51.7102L63.6504 48.9102V54.5002Z" fill="#578CF4"/>
<path d="M68.4902 57.3002L73.3302 54.5002V48.9102L68.4902 51.7102V57.3002Z" fill="#67D4B4"/>
<path d="M75.59 55.7987L80.43 53.0087L75.59 50.2188L70.75 53.0087L75.59 55.7987Z" fill="#72B5E8"/>
<path d="M70.75 58.5978L75.59 61.3878V55.7978L70.75 53.0078V58.5978Z" fill="#578CF4"/>
<path d="M75.5898 61.3878L80.4298 58.5978V53.0078L75.5898 55.7978V61.3878Z" fill="#67D4B4"/>
<path d="M87.5705 62.7228L92.4105 59.9328L87.5705 57.1328L82.7305 59.9328L87.5705 62.7228Z" fill="#898989"/>
<path d="M82.7305 65.5097L87.5705 68.3097V62.7197L82.7305 59.9297V65.5097Z" fill="#262D30"/>
<path d="M87.5703 68.3097L92.4103 65.5097V59.9297L87.5703 62.7197V68.3097Z" fill="#DCF4F4"/>
<path d="M40.1095 43.5119L44.9495 40.7119L40.1095 37.9219L35.2695 40.7119L40.1095 43.5119Z" fill="#72B5E8"/>
<path d="M35.2695 46.3009L40.1095 49.0909V43.5109L35.2695 40.7109V46.3009Z" fill="#578CF4"/>
<path d="M40.1094 49.0909L44.9494 46.3009V40.7109L40.1094 43.5109V49.0909Z" fill="#67D4B4"/>
<path d="M47.1994 47.5995L52.0394 44.8095L47.1994 42.0195L42.3594 44.8095L47.1994 47.5995Z" fill="#72B5E8"/>
<path d="M42.3594 50.4025L47.1994 53.1925V47.6025L42.3594 44.8125V50.4025Z" fill="#578CF4"/>
<path d="M47.1992 53.1925L52.0392 50.4025V44.8125L47.1992 47.6025V53.1925Z" fill="#67D4B4"/>
<path d="M54.3009 51.6994L59.1409 48.9094L54.3009 46.1094L49.4609 48.9094L54.3009 51.6994Z" fill="#72B5E8"/>
<path d="M49.4609 54.4902L54.3009 57.2902V51.7002L49.4609 48.9102V54.4902Z" fill="#578CF4"/>
<path d="M54.3008 57.2902L59.1408 54.4902V48.9102L54.3008 51.7002V57.2902Z" fill="#67D4B4"/>
<path d="M61.4005 55.8009L66.2305 53.0109L61.4005 50.2109L56.5605 53.0109L61.4005 55.8009Z" fill="#72B5E8"/>
<path d="M56.5605 58.5878L61.4005 61.3878V55.7978L56.5605 53.0078V58.5878Z" fill="#578CF4"/>
<path d="M61.4004 61.3878L66.2304 58.5878V53.0078L61.4004 55.7978V61.3878Z" fill="#67D4B4"/>
<path d="M68.4904 59.9025L73.3304 57.1025L68.4904 54.3125L63.6504 57.1025L68.4904 59.9025Z" fill="#72B5E8"/>
<path d="M63.6504 62.6916L68.4904 65.4816V59.9016L63.6504 57.1016V62.6916Z" fill="#578CF4"/>
<path d="M68.4902 65.4816L73.3302 62.6916V57.1016L68.4902 59.9016V65.4816Z" fill="#67D4B4"/>
<path d="M75.59 63.9902L80.43 61.2002L75.59 58.4102L70.75 61.2002L75.59 63.9902Z" fill="#72B5E8"/>
<path d="M70.75 66.7892L75.59 69.5792V63.9892L70.75 61.1992V66.7892Z" fill="#578CF4"/>
<path d="M75.5898 69.5792L80.4298 66.7892V61.1992L75.5898 63.9892V69.5792Z" fill="#67D4B4"/>
<path d="M33.0099 47.6095L37.8499 44.8195L33.0099 42.0195L28.1699 44.8195L33.0099 47.6095Z" fill="#72B5E8"/>
<path d="M28.1699 50.4003L33.0099 53.2003V47.6103L28.1699 44.8203V50.4003Z" fill="#578CF4"/>
<path d="M33.0098 53.2003L37.8498 50.4003V44.8203L33.0098 47.6103V53.2003Z" fill="#67D4B4"/>
<path d="M40.1095 51.7072L44.9495 48.9072L40.1095 46.1172L35.2695 48.9072L40.1095 51.7072Z" fill="#72B5E8"/>
<path d="M35.2695 54.5002L40.1095 57.3002V51.7102L35.2695 48.9102V54.5002Z" fill="#578CF4"/>
<path d="M40.1094 57.3002L44.9494 54.5002V48.9102L40.1094 51.7102V57.3002Z" fill="#67D4B4"/>
<path d="M47.2011 55.7987L52.0511 53.0087L47.2011 50.2188L42.3711 53.0087L47.2011 55.7987Z" fill="#72B5E8"/>
<path d="M42.3711 58.5978L47.2011 61.3878V55.7978L42.3711 53.0078V58.5978Z" fill="#578CF4"/>
<path d="M47.1992 61.3878L52.0492 58.5978V53.0078L47.1992 55.7978V61.3878Z" fill="#67D4B4"/>
<path d="M54.3009 59.9025L59.1409 57.1125L54.3009 54.3125L49.4609 57.1125L54.3009 59.9025Z" fill="#72B5E8"/>
<path d="M49.4609 62.6994L54.3009 65.4894V59.8994L49.4609 57.1094V62.6994Z" fill="#578CF4"/>
<path d="M54.3008 65.4894L59.1408 62.6994V57.1094L54.3008 59.8994V65.4894Z" fill="#67D4B4"/>
<path d="M61.4005 64.0002L66.2405 61.2002L61.4005 58.4102L56.5605 61.2002L61.4005 64.0002Z" fill="#72B5E8"/>
<path d="M56.5605 66.7892L61.4005 69.5892V63.9992L56.5605 61.1992V66.7892Z" fill="#578CF4"/>
<path d="M61.4004 69.5892L66.2404 66.7892V61.1992L61.4004 63.9992V69.5892Z" fill="#67D4B4"/>
<path d="M68.5002 68.0978L73.3302 65.2978L68.5002 62.5078L63.6602 65.2978L68.5002 68.0978Z" fill="#72B5E8"/>
<path d="M63.6602 70.8908L68.5002 73.6808V68.1008L63.6602 65.3008V70.8908Z" fill="#578CF4"/>
<path d="M68.5 73.6808L73.33 70.8908V65.3008L68.5 68.1008V73.6808Z" fill="#67D4B4"/>
<path d="M25.9101 51.7072L30.7501 48.9072L25.9101 46.1172L21.0801 48.9072L25.9101 51.7072Z" fill="#72B5E8"/>
<path d="M21.0801 54.5002L25.9101 57.3002V51.7102L21.0801 48.9102V54.5002Z" fill="#578CF4"/>
<path d="M25.9102 57.3002L30.7502 54.5002V48.9102L25.9102 51.7102V57.3002Z" fill="#67D4B4"/>
<path d="M33.0099 55.7987L37.8499 53.0087L33.0099 50.2188L28.1699 53.0087L33.0099 55.7987Z" fill="#72B5E8"/>
<path d="M28.1699 58.5978L33.0099 61.3878V55.7978L28.1699 53.0078V58.5978Z" fill="#578CF4"/>
<path d="M33.0098 61.3878L37.8498 58.5978V53.0078L33.0098 55.7978V61.3878Z" fill="#67D4B4"/>
<path d="M40.1095 59.9025L44.9495 57.1125L40.1095 54.3125L35.2695 57.1125L40.1095 59.9025Z" fill="#72B5E8"/>
<path d="M35.2695 62.6994L40.1095 65.4894V59.8994L35.2695 57.1094V62.6994Z" fill="#578CF4"/>
<path d="M40.1094 65.4894L44.9494 62.6994V57.1094L40.1094 59.8994V65.4894Z" fill="#67D4B4"/>
<path d="M47.2011 64.0002L52.0411 61.2002L47.2011 58.4102L42.3711 61.2002L47.2011 64.0002Z" fill="#72B5E8"/>
<path d="M42.3711 66.7892L47.2011 69.5892V63.9992L42.3711 61.1992V66.7892Z" fill="#578CF4"/>
<path d="M47.1992 69.5892L52.0392 66.7892V61.1992L47.1992 63.9992V69.5892Z" fill="#67D4B4"/>
<path d="M54.3009 68.0978L59.1409 65.2978L54.3009 62.5078L49.4609 65.2978L54.3009 68.0978Z" fill="#72B5E8"/>
<path d="M49.4609 70.8908L54.3009 73.6808V68.1008L49.4609 65.3008V70.8908Z" fill="#578CF4"/>
<path d="M54.3008 73.6808L59.1408 70.8908V65.3008L54.3008 68.1008V73.6808Z" fill="#67D4B4"/>
<path d="M61.4005 72.1894L66.2405 69.3994L61.4005 66.6094L56.5605 69.3994L61.4005 72.1894Z" fill="#72B5E8"/>
<path d="M56.5605 74.9884L61.4005 77.7784V72.1884L56.5605 69.3984V74.9884Z" fill="#578CF4"/>
<path d="M61.4004 77.7784L66.2404 74.9884V69.3984L61.4004 72.1884V77.7784Z" fill="#67D4B4"/>
<path d="M18.8205 55.7987L23.6605 53.0087L18.8205 50.2188L13.9805 53.0087L18.8205 55.7987Z" fill="#72B5E8"/>
<path d="M13.9805 58.5978L18.8205 61.3878V55.7978L13.9805 53.0078V58.5978Z" fill="#578CF4"/>
<path d="M18.8203 61.3878L23.6603 58.5978V53.0078L18.8203 55.7978V61.3878Z" fill="#67D4B4"/>
<path d="M25.9101 59.9025L30.7501 57.1125L25.9101 54.3125L21.0801 57.1125L25.9101 59.9025Z" fill="#72B5E8"/>
<path d="M21.0801 62.6994L25.9101 65.4894V59.8994L21.0801 57.1094V62.6994Z" fill="#578CF4"/>
<path d="M25.9102 65.4894L30.7502 62.6994V57.1094L25.9102 59.8994V65.4894Z" fill="#67D4B4"/>
<path d="M33.0099 64.0002L37.8499 61.2002L33.0099 58.4102L28.1699 61.2002L33.0099 64.0002Z" fill="#72B5E8"/>
<path d="M28.1699 66.7892L33.0099 69.5892V63.9992L28.1699 61.1992V66.7892Z" fill="#578CF4"/>
<path d="M33.0098 69.5892L37.8498 66.7892V61.1992L33.0098 63.9992V69.5892Z" fill="#67D4B4"/>
<path d="M40.1095 68.0978L44.9495 65.2978L40.1095 62.5078L35.2695 65.2978L40.1095 68.0978Z" fill="#72B5E8"/>
<path d="M35.2695 70.8908L40.1095 73.6808V68.1008L35.2695 65.3008V70.8908Z" fill="#578CF4"/>
<path d="M40.1094 73.6808L44.9494 70.8908V65.3008L40.1094 68.1008V73.6808Z" fill="#67D4B4"/>
<path d="M47.2011 72.1894L52.0511 69.3994L47.2011 66.6094L42.3711 69.3994L47.2011 72.1894Z" fill="#72B5E8"/>
<path d="M42.3711 74.9884L47.2011 77.7784V72.1884L42.3711 69.3984V74.9884Z" fill="#578CF4"/>
<path d="M47.1992 77.7784L52.0492 74.9884V69.3984L47.1992 72.1884V77.7784Z" fill="#67D4B4"/>
<path d="M54.3009 76.2892L59.1409 73.4992L54.3009 70.6992L49.4609 73.4992L54.3009 76.2892Z" fill="#72B5E8"/>
<path d="M49.4609 79.08L54.3009 81.88V76.29L49.4609 73.5V79.08Z" fill="#578CF4"/>
<path d="M54.3008 81.88L59.1408 79.08V73.5L54.3008 76.29V81.88Z" fill="#67D4B4"/>
<path d="M11.7189 59.9025L16.5589 57.1125L11.7189 54.3125L6.87891 57.1125L11.7189 59.9025Z" fill="#72B5E8"/>
<path d="M6.87891 62.6994L11.7189 65.4894V59.8994L6.87891 57.1094V62.6994Z" fill="#578CF4"/>
<path d="M11.7207 65.4894L16.5607 62.6994V57.1094L11.7207 59.8994V65.4894Z" fill="#67D4B4"/>
<path d="M13.9396 66.8205L18.7796 64.0205L13.9396 61.2305L9.09961 64.0205L13.9396 66.8205Z" fill="#898989"/>
<path d="M9.09961 69.6095L13.9396 72.4095V66.8195L9.09961 64.0195V69.6095Z" fill="#262D30"/>
<path d="M13.9395 72.4095L18.7795 69.6095V64.0195L13.9395 66.8195V72.4095Z" fill="#DCF4F4"/>
<path d="M25.9101 68.0978L30.7501 65.2978L25.9101 62.5078L21.0801 65.2978L25.9101 68.0978Z" fill="#72B5E8"/>
<path d="M21.0801 70.8908L25.9101 73.6808V68.1008L21.0801 65.3008V70.8908Z" fill="#578CF4"/>
<path d="M25.9102 73.6808L30.7502 70.8908V65.3008L25.9102 68.1008V73.6808Z" fill="#67D4B4"/>
<path d="M33.0099 72.1894L37.8499 69.3994L33.0099 66.6094L28.1699 69.3994L33.0099 72.1894Z" fill="#72B5E8"/>
<path d="M28.1699 74.9884L33.0099 77.7784V72.1884L28.1699 69.3984V74.9884Z" fill="#578CF4"/>
<path d="M33.0098 77.7784L37.8498 74.9884V69.3984L33.0098 72.1884V77.7784Z" fill="#67D4B4"/>
<path d="M40.1095 76.2892L44.9495 73.4992L40.1095 70.6992L35.2695 73.4992L40.1095 76.2892Z" fill="#72B5E8"/>
<path d="M35.2695 79.08L40.1095 81.88V76.29L35.2695 73.5V79.08Z" fill="#578CF4"/>
<path d="M40.1094 81.88L44.9494 79.08V73.5L40.1094 76.29V81.88Z" fill="#67D4B4"/>
<path d="M47.2011 80.3908L52.0511 77.5908L47.2011 74.8008L42.3711 77.5908L47.2011 80.3908Z" fill="#72B5E8"/>
<path d="M42.3711 83.1798L47.2011 85.9799V80.3898L42.3711 77.5898V83.1798Z" fill="#578CF4"/>
<path d="M47.1992 85.9799L52.0492 83.1798V77.5898L47.1992 80.3898V85.9799Z" fill="#67D4B4"/>
<path d="M47.1994 30.9572L52.0394 28.1572L47.1994 25.3672L42.3594 28.1572L47.1994 30.9572Z" fill="#72B5E8"/>
<path d="M42.3594 33.7502L47.1994 36.5502V30.9602L42.3594 28.1602V33.7502Z" fill="#578CF4"/>
<path d="M47.1992 36.5502L52.0392 33.7502V28.1602L47.1992 30.9602V36.5502Z" fill="#67D4B4"/>
<path d="M54.3009 35.0588L59.1409 32.2587L54.3009 29.4688L49.4609 32.2587L54.3009 35.0588Z" fill="#72B5E8"/>
<path d="M49.4609 37.8478L54.3009 40.6378V35.0578L49.4609 32.2578V37.8478Z" fill="#578CF4"/>
<path d="M54.3008 40.6378L59.1408 37.8478V32.2578L54.3008 35.0578V40.6378Z" fill="#67D4B4"/>
<path d="M61.4005 39.1525L66.2405 36.3625L61.4005 33.5625L56.5605 36.3625L61.4005 39.1525Z" fill="#72B5E8"/>
<path d="M56.5605 41.9494L61.4005 44.7394V39.1494L56.5605 36.3594V41.9494Z" fill="#578CF4"/>
<path d="M61.4004 44.7394L66.2404 41.9494V36.3594L61.4004 39.1494V44.7394Z" fill="#67D4B4"/>
<path d="M68.4904 43.2502L73.3304 40.4602L68.4904 37.6602L63.6504 40.4602L68.4904 43.2502Z" fill="#72B5E8"/>
<path d="M63.6504 46.0409L68.4904 48.8409V43.2509L63.6504 40.4609V46.0409Z" fill="#578CF4"/>
<path d="M68.4902 48.8409L73.3302 46.0409V40.4609L68.4902 43.2509V48.8409Z" fill="#67D4B4"/>
<path d="M75.59 47.3478L80.43 44.5478L75.59 41.7578L70.75 44.5478L75.59 47.3478Z" fill="#72B5E8"/>
<path d="M70.75 50.1408L75.59 52.9408V47.3508L70.75 44.5508V50.1408Z" fill="#578CF4"/>
<path d="M75.5898 52.9408L80.4298 50.1408V44.5508L75.5898 47.3508V52.9408Z" fill="#67D4B4"/>
<path d="M82.6896 51.4494L87.5296 48.6494L82.6896 45.8594L77.8496 48.6494L82.6896 51.4494Z" fill="#72B5E8"/>
<path d="M77.8496 54.2384L82.6896 57.0284V51.4484L77.8496 48.6484V54.2384Z" fill="#578CF4"/>
<path d="M82.6895 57.0284L87.5294 54.2384V48.6484L82.6895 51.4484V57.0284Z" fill="#67D4B4"/>
<path d="M40.1095 35.0509L44.9495 32.2609L40.1095 29.4609L35.2695 32.2609L40.1095 35.0509Z" fill="#72B5E8"/>
<path d="M35.2695 37.8378L40.1095 40.6378V35.0478L35.2695 32.2578V37.8378Z" fill="#578CF4"/>
<path d="M40.1094 40.6378L44.9494 37.8378V32.2578L40.1094 35.0478V40.6378Z" fill="#67D4B4"/>
<path d="M47.1994 39.1525L52.0394 36.3525L47.1994 33.5625L42.3594 36.3525L47.1994 39.1525Z" fill="#72B5E8"/>
<path d="M42.3594 41.9416L47.1994 44.7416V39.1516L42.3594 36.3516V41.9416Z" fill="#578CF4"/>
<path d="M47.1992 44.7416L52.0392 41.9416V36.3516L47.1992 39.1516V44.7416Z" fill="#67D4B4"/>
<path d="M54.3009 43.2402L59.1409 40.4502L54.3009 37.6602L49.4609 40.4502L54.3009 43.2402Z" fill="#72B5E8"/>
<path d="M49.4609 46.0392L54.3009 48.8292V43.2392L49.4609 40.4492V46.0392Z" fill="#578CF4"/>
<path d="M54.3008 48.8292L59.1408 46.0392V40.4492L54.3008 43.2392V48.8292Z" fill="#67D4B4"/>
<path d="M61.4005 47.34L66.2305 44.55L61.4005 41.75L56.5605 44.55L61.4005 47.34Z" fill="#72B5E8"/>
<path d="M56.5605 50.1408L61.4005 52.9308V47.3408L56.5605 44.5508V50.1408Z" fill="#578CF4"/>
<path d="M61.4004 52.9308L66.2304 50.1408V44.5508L61.4004 47.3408V52.9308Z" fill="#67D4B4"/>
<path d="M68.4904 51.4416L73.3304 48.6516L68.4904 45.8516L63.6504 48.6516L68.4904 51.4416Z" fill="#72B5E8"/>
<path d="M63.6504 54.2284L68.4904 57.0284V51.4384L63.6504 48.6484V54.2284Z" fill="#578CF4"/>
<path d="M68.4902 57.0284L73.3302 54.2284V48.6484L68.4902 51.4384V57.0284Z" fill="#67D4B4"/>
<path d="M75.59 55.5392L80.43 52.7392L75.59 49.9492L70.75 52.7392L75.59 55.5392Z" fill="#72B5E8"/>
<path d="M70.75 58.3322L75.59 61.1322V55.5422L70.75 52.7422V58.3322Z" fill="#578CF4"/>
<path d="M75.5898 61.1322L80.4298 58.3322V52.7422L75.5898 55.5422V61.1322Z" fill="#67D4B4"/>
<path d="M33.0099 39.1525L37.8499 36.3625L33.0099 33.5625L28.1699 36.3625L33.0099 39.1525Z" fill="#72B5E8"/>
<path d="M28.1699 41.9494L33.0099 44.7394V39.1494L28.1699 36.3594V41.9494Z" fill="#578CF4"/>
<path d="M33.0098 44.7394L37.8498 41.9494V36.3594L33.0098 39.1494V44.7394Z" fill="#67D4B4"/>
<path d="M40.1095 43.2502L44.9495 40.4602L40.1095 37.6602L35.2695 40.4602L40.1095 43.2502Z" fill="#72B5E8"/>
<path d="M35.2695 46.0509L40.1095 48.8409V43.2509L35.2695 40.4609V46.0509Z" fill="#578CF4"/>
<path d="M40.1094 48.8409L44.9494 46.0509V40.4609L40.1094 43.2509V48.8409Z" fill="#67D4B4"/>
<path d="M47.2011 47.3478L52.0511 44.5478L47.2011 41.7578L42.3711 44.5478L47.2011 47.3478Z" fill="#72B5E8"/>
<path d="M42.3711 50.1408L47.2011 52.9408V47.3508L42.3711 44.5508V50.1408Z" fill="#578CF4"/>
<path d="M47.1992 52.9408L52.0492 50.1408V44.5508L47.1992 47.3508V52.9408Z" fill="#67D4B4"/>
<path d="M54.3009 51.4494L59.1409 48.6494L54.3009 45.8594L49.4609 48.6494L54.3009 51.4494Z" fill="#72B5E8"/>
<path d="M49.4609 54.2384L54.3009 57.0284V51.4484L49.4609 48.6484V54.2384Z" fill="#578CF4"/>
<path d="M54.3008 57.0284L59.1408 54.2384V48.6484L54.3008 51.4484V57.0284Z" fill="#67D4B4"/>
<path d="M61.4005 55.5392L66.2405 52.7492L61.4005 49.9492L56.5605 52.7492L61.4005 55.5392Z" fill="#72B5E8"/>
<path d="M56.5605 58.34L61.4005 61.13V55.54L56.5605 52.75V58.34Z" fill="#578CF4"/>
<path d="M61.4004 61.13L66.2404 58.34V52.75L61.4004 55.54V61.13Z" fill="#67D4B4"/>
<path d="M68.5002 59.6408L73.3302 56.8408L68.5002 54.0508L63.6602 56.8508L68.5002 59.6408Z" fill="#72B5E8"/>
<path d="M63.6602 62.4298L68.5002 65.2298V59.6398L63.6602 56.8398V62.4298Z" fill="#578CF4"/>
<path d="M68.5 65.2298L73.33 62.4298V56.8398L68.5 59.6398V65.2298Z" fill="#67D4B4"/>
<path d="M25.9101 43.2502L30.7501 40.4602L25.9101 37.6602L21.0801 40.4602L25.9101 43.2502Z" fill="#72B5E8"/>
<path d="M21.0801 46.0509L25.9101 48.8409V43.2509L21.0801 40.4609V46.0509Z" fill="#578CF4"/>
<path d="M25.9102 48.8409L30.7502 46.0509V40.4609L25.9102 43.2509V48.8409Z" fill="#67D4B4"/>
<path d="M33.0099 47.3478L37.8499 44.5478L33.0099 41.7578L28.1699 44.5478L33.0099 47.3478Z" fill="#72B5E8"/>
<path d="M28.1699 50.1408L33.0099 52.9408V47.3508L28.1699 44.5508V50.1408Z" fill="#578CF4"/>
<path d="M33.0098 52.9408L37.8498 50.1408V44.5508L33.0098 47.3508V52.9408Z" fill="#67D4B4"/>
<path d="M40.1095 51.4494L44.9495 48.6494L40.1095 45.8594L35.2695 48.6494L40.1095 51.4494Z" fill="#72B5E8"/>
<path d="M35.2695 54.2384L40.1095 57.0284V51.4484L35.2695 48.6484V54.2384Z" fill="#578CF4"/>
<path d="M40.1094 57.0284L44.9494 54.2384V48.6484L40.1094 51.4484V57.0284Z" fill="#67D4B4"/>
<path d="M47.2011 55.5392L52.0411 52.7492L47.2011 49.9492L42.3711 52.7492L47.2011 55.5392Z" fill="#72B5E8"/>
<path d="M42.3711 58.34L47.2011 61.13V55.54L42.3711 52.75V58.34Z" fill="#578CF4"/>
<path d="M47.1992 61.13L52.0392 58.34V52.75L47.1992 55.54V61.13Z" fill="#67D4B4"/>
<path d="M54.3009 59.6408L59.1409 56.8408L54.3009 54.0508L49.4609 56.8508L54.3009 59.6408Z" fill="#72B5E8"/>
<path d="M49.4609 62.4298L54.3009 65.2298V59.6398L49.4609 56.8398V62.4298Z" fill="#578CF4"/>
<path d="M54.3008 65.2298L59.1408 62.4298V56.8398L54.3008 59.6398V65.2298Z" fill="#67D4B4"/>
<path d="M61.4005 63.7384L66.2405 60.9384L61.4005 58.1484L56.5605 60.9384L61.4005 63.7384Z" fill="#72B5E8"/>
<path d="M56.5605 66.5275L61.4005 69.3275V63.7375L56.5605 60.9375V66.5275Z" fill="#578CF4"/>
<path d="M61.4004 69.3275L66.2404 66.5275V60.9375L61.4004 63.7375V69.3275Z" fill="#67D4B4"/>
<path d="M18.8205 47.3478L23.6605 44.5478L18.8205 41.7578L13.9805 44.5478L18.8205 47.3478Z" fill="#72B5E8"/>
<path d="M13.9805 50.1408L18.8205 52.9408V47.3508L13.9805 44.5508V50.1408Z" fill="#578CF4"/>
<path d="M18.8203 52.9408L23.6603 50.1408V44.5508L18.8203 47.3508V52.9408Z" fill="#67D4B4"/>
<path d="M25.9101 51.4494L30.7501 48.6494L25.9101 45.8594L21.0801 48.6494L25.9101 51.4494Z" fill="#72B5E8"/>
<path d="M21.0801 54.2384L25.9101 57.0284V51.4484L21.0801 48.6484V54.2384Z" fill="#578CF4"/>
<path d="M25.9102 57.0284L30.7502 54.2384V48.6484L25.9102 51.4484V57.0284Z" fill="#67D4B4"/>
<path d="M33.0099 55.5392L37.8499 52.7492L33.0099 49.9492L28.1699 52.7492L33.0099 55.5392Z" fill="#72B5E8"/>
<path d="M28.1699 58.34L33.0099 61.13V55.54L28.1699 52.75V58.34Z" fill="#578CF4"/>
<path d="M33.0098 61.13L37.8498 58.34V52.75L33.0098 55.54V61.13Z" fill="#67D4B4"/>
<path d="M40.1095 59.6408L44.9495 56.8408L40.1095 54.0508L35.2695 56.8508L40.1095 59.6408Z" fill="#72B5E8"/>
<path d="M35.2695 62.4298L40.1095 65.2298V59.6398L35.2695 56.8398V62.4298Z" fill="#578CF4"/>
<path d="M40.1094 65.2298L44.9494 62.4298V56.8398L40.1094 59.6398V65.2298Z" fill="#67D4B4"/>
<path d="M47.2011 63.7384L52.0511 60.9384L47.2011 58.1484L42.3711 60.9384L47.2011 63.7384Z" fill="#72B5E8"/>
<path d="M42.3711 66.5275L47.2011 69.3275V63.7375L42.3711 60.9375V66.5275Z" fill="#578CF4"/>
<path d="M47.1992 69.3275L52.0492 66.5275V60.9375L47.1992 63.7375V69.3275Z" fill="#67D4B4"/>
<path d="M59.1798 70.6525L64.0198 67.8625L59.1798 65.0625L54.3398 67.8625L59.1798 70.6525Z" fill="#898989"/>
<path d="M54.3398 73.4494L59.1798 76.2394V70.6494L54.3398 67.8594V73.4494Z" fill="#262D30"/>
<path d="M59.1797 76.2394L64.0197 73.4494V67.8594L59.1797 70.6494V76.2394Z" fill="#DCF4F4"/>
<path d="M11.7189 51.4494L16.5589 48.6494L11.7189 45.8594L6.87891 48.6494L11.7189 51.4494Z" fill="#72B5E8"/>
<path d="M6.87891 54.2384L11.7189 57.0284V51.4484L6.87891 48.6484V54.2384Z" fill="#578CF4"/>
<path d="M11.7207 57.0284L16.5607 54.2384V48.6484L11.7207 51.4484V57.0284Z" fill="#67D4B4"/>
<path d="M18.8205 55.5392L23.6605 52.7492L18.8205 49.9492L13.9805 52.7492L18.8205 55.5392Z" fill="#72B5E8"/>
<path d="M13.9805 58.34L18.8205 61.13V55.54L13.9805 52.75V58.34Z" fill="#578CF4"/>
<path d="M18.8203 61.13L23.6603 58.34V52.75L18.8203 55.54V61.13Z" fill="#67D4B4"/>
<path d="M25.9101 59.6408L30.7501 56.8408L25.9101 54.0508L21.0801 56.8508L25.9101 59.6408Z" fill="#72B5E8"/>
<path d="M21.0801 62.4298L25.9101 65.2298V59.6398L21.0801 56.8398V62.4298Z" fill="#578CF4"/>
<path d="M25.9102 65.2298L30.7502 62.4298V56.8398L25.9102 59.6398V65.2298Z" fill="#67D4B4"/>
<path d="M33.0099 63.7384L37.8499 60.9384L33.0099 58.1484L28.1699 60.9384L33.0099 63.7384Z" fill="#72B5E8"/>
<path d="M28.1699 66.5275L33.0099 69.3275V63.7375L28.1699 60.9375V66.5275Z" fill="#578CF4"/>
<path d="M33.0098 69.3275L37.8498 66.5275V60.9375L33.0098 63.7375V69.3275Z" fill="#67D4B4"/>
<path d="M40.1095 67.83L44.9495 65.04L40.1095 62.25L35.2695 65.04L40.1095 67.83Z" fill="#72B5E8"/>
<path d="M35.2695 70.6291L40.1095 73.4191V67.8291L35.2695 65.0391V70.6291Z" fill="#578CF4"/>
<path d="M40.1094 73.4191L44.9494 70.6291V65.0391L40.1094 67.8291V73.4191Z" fill="#67D4B4"/>
<path d="M47.2011 71.9298L52.0511 69.1398L47.2011 66.3398L42.3711 69.1398L47.2011 71.9298Z" fill="#72B5E8"/>
<path d="M42.3711 74.7206L47.2011 77.5206V71.9306L42.3711 69.1406V74.7206Z" fill="#578CF4"/>
<path d="M47.1992 77.5206L52.0492 74.7206V69.1406L47.1992 71.9306V77.5206Z" fill="#67D4B4"/>
<path d="M47.1994 22.5002L52.0394 19.7102L47.1994 16.9102L42.3594 19.7102L47.1994 22.5002Z" fill="#72B5E8"/>
<path d="M42.3594 25.3009L47.1994 28.0909V22.5009L42.3594 19.7109V25.3009Z" fill="#578CF4"/>
<path d="M47.1992 28.0909L52.0392 25.3009V19.7109L47.1992 22.5009V28.0909Z" fill="#67D4B4"/>
<path d="M54.3009 26.5978L59.1409 23.7978L54.3009 21.0078L49.4609 23.7978L54.3009 26.5978Z" fill="#72B5E8"/>
<path d="M49.4609 29.3908L54.3009 32.1908V26.6008L49.4609 23.8008V29.3908Z" fill="#578CF4"/>
<path d="M54.3008 32.1908L59.1408 29.3908V23.8008L54.3008 26.6008V32.1908Z" fill="#67D4B4"/>
<path d="M61.4005 30.6994L66.2405 27.8994L61.4005 25.1094L56.5605 27.8994L61.4005 30.6994Z" fill="#72B5E8"/>
<path d="M56.5605 33.4884L61.4005 36.2784V30.6984L56.5605 27.8984V33.4884Z" fill="#578CF4"/>
<path d="M61.4004 36.2784L66.2404 33.4884V27.8984L61.4004 30.6984V36.2784Z" fill="#67D4B4"/>
<path d="M68.4904 34.7892L73.3304 31.9992L68.4904 29.1992L63.6504 31.9992L68.4904 34.7892Z" fill="#72B5E8"/>
<path d="M63.6504 37.59L68.4904 40.38V34.79L63.6504 32V37.59Z" fill="#578CF4"/>
<path d="M68.4902 40.38L73.3302 37.59V32L68.4902 34.79V40.38Z" fill="#67D4B4"/>
<path d="M75.59 38.8908L80.43 36.1008L75.59 33.3008L70.75 36.1008L75.59 38.8908Z" fill="#72B5E8"/>
<path d="M70.75 41.6816L75.59 44.4816V38.8916L70.75 36.1016V41.6816Z" fill="#578CF4"/>
<path d="M75.5898 44.4816L80.4298 41.6816V36.1016L75.5898 38.8916V44.4816Z" fill="#67D4B4"/>
<path d="M82.6896 42.9884L87.5296 40.1884L82.6896 37.3984L77.8496 40.1884L82.6896 42.9884Z" fill="#72B5E8"/>
<path d="M77.8496 45.7775L82.6896 48.5775V42.9875L77.8496 40.1875V45.7775Z" fill="#578CF4"/>
<path d="M82.6895 48.5775L87.5294 45.7775V40.1875L82.6895 42.9875V48.5775Z" fill="#67D4B4"/>
<path d="M40.1095 26.5878L44.9495 23.7978L40.1095 21.0078L35.2695 23.7978L40.1095 26.5878Z" fill="#72B5E8"/>
<path d="M35.2695 29.3908L40.1095 32.1808V26.5908L35.2695 23.8008V29.3908Z" fill="#578CF4"/>
<path d="M40.1094 32.1808L44.9494 29.3908V23.8008L40.1094 26.5908V32.1808Z" fill="#67D4B4"/>
<path d="M47.1994 30.6916L52.0394 27.9016L47.1994 25.1016L42.3594 27.9016L47.1994 30.6916Z" fill="#72B5E8"/>
<path d="M42.3594 33.4784L47.1994 36.2784V30.6884L42.3594 27.8984V33.4784Z" fill="#578CF4"/>
<path d="M47.1992 36.2784L52.0392 33.4784V27.8984L47.1992 30.6884V36.2784Z" fill="#67D4B4"/>
<path d="M54.3009 34.7892L59.1409 31.9892L54.3009 29.1992L49.4609 31.9892L54.3009 34.7892Z" fill="#72B5E8"/>
<path d="M49.4609 37.5822L54.3009 40.3822V34.7922L49.4609 31.9922V37.5822Z" fill="#578CF4"/>
<path d="M54.3008 40.3822L59.1408 37.5822V31.9922L54.3008 34.7922V40.3822Z" fill="#67D4B4"/>
<path d="M61.4005 38.8808L66.2305 36.0908L61.4005 33.3008L56.5605 36.0908L61.4005 38.8808Z" fill="#72B5E8"/>
<path d="M56.5605 41.6798L61.4005 44.4698V38.8798L56.5605 36.0898V41.6798Z" fill="#578CF4"/>
<path d="M61.4004 44.4698L66.2304 41.6798V36.0898L61.4004 38.8798V44.4698Z" fill="#67D4B4"/>
<path d="M68.4904 42.9784L73.3304 40.1884L68.4904 37.3984L63.6504 40.1884L68.4904 42.9784Z" fill="#72B5E8"/>
<path d="M63.6504 45.7775L68.4904 48.5675V42.9775L63.6504 40.1875V45.7775Z" fill="#578CF4"/>
<path d="M68.4902 48.5675L73.3302 45.7775V40.1875L68.4902 42.9775V48.5675Z" fill="#67D4B4"/>
<path d="M75.59 47.0822L80.43 44.2922L75.59 41.4922L70.75 44.2922L75.59 47.0822Z" fill="#72B5E8"/>
<path d="M70.75 49.8691L75.59 52.6691V47.0791L70.75 44.2891V49.8691Z" fill="#578CF4"/>
<path d="M75.5898 52.6691L80.4298 49.8691V44.2891L75.5898 47.0791V52.6691Z" fill="#67D4B4"/>
<path d="M33.0099 30.6994L37.8499 27.8994L33.0099 25.1094L28.1699 27.8994L33.0099 30.6994Z" fill="#72B5E8"/>
<path d="M28.1699 33.4884L33.0099 36.2784V30.6984L28.1699 27.8984V33.4884Z" fill="#578CF4"/>
<path d="M33.0098 36.2784L37.8498 33.4884V27.8984L33.0098 30.6984V36.2784Z" fill="#67D4B4"/>
<path d="M40.1095 34.7909L44.9495 32.0009L40.1095 29.2109L35.2695 32.0009L40.1095 34.7909Z" fill="#72B5E8"/>
<path d="M35.2695 37.59L40.1095 40.38V34.79L35.2695 32V37.59Z" fill="#578CF4"/>
<path d="M40.1094 40.38L44.9494 37.59V32L40.1094 34.79V40.38Z" fill="#67D4B4"/>
<path d="M47.2011 38.8908L52.0511 36.1008L47.2011 33.3008L42.3711 36.1008L47.2011 38.8908Z" fill="#72B5E8"/>
<path d="M42.3711 41.6916L47.2011 44.4816V38.8916L42.3711 36.1016V41.6916Z" fill="#578CF4"/>
<path d="M47.1992 44.4816L52.0492 41.6916V36.1016L47.1992 38.8916V44.4816Z" fill="#67D4B4"/>
<path d="M54.3009 42.9884L59.1409 40.1884L54.3009 37.3984L49.4609 40.1884L54.3009 42.9884Z" fill="#72B5E8"/>
<path d="M49.4609 45.7775L54.3009 48.5775V42.9875L49.4609 40.1875V45.7775Z" fill="#578CF4"/>
<path d="M54.3008 48.5775L59.1408 45.7775V40.1875L54.3008 42.9875V48.5775Z" fill="#67D4B4"/>
<path d="M61.4005 47.09L66.2405 44.29L61.4005 41.5L56.5605 44.29L61.4005 47.09Z" fill="#72B5E8"/>
<path d="M56.5605 49.8791L61.4005 52.6691V47.0891L56.5605 44.2891V49.8791Z" fill="#578CF4"/>
<path d="M61.4004 52.6691L66.2404 49.8791V44.2891L61.4004 47.0891V52.6691Z" fill="#67D4B4"/>
<path d="M68.5002 51.1798L73.3302 48.3898L68.5002 45.5898L63.6602 48.3898L68.5002 51.1798Z" fill="#72B5E8"/>
<path d="M63.6602 53.9806L68.5002 56.7706V51.1806L63.6602 48.3906V53.9806Z" fill="#578CF4"/>
<path d="M68.5 56.7706L73.33 53.9806V48.3906L68.5 51.1806V56.7706Z" fill="#67D4B4"/>
<path d="M25.9101 34.7909L30.7501 32.0009L25.9101 29.2109L21.0801 32.0009L25.9101 34.7909Z" fill="#72B5E8"/>
<path d="M21.0801 37.59L25.9101 40.38V34.79L21.0801 32V37.59Z" fill="#578CF4"/>
<path d="M25.9102 40.38L30.7502 37.59V32L25.9102 34.79V40.38Z" fill="#67D4B4"/>
<path d="M33.0099 38.8908L37.8499 36.1008L33.0099 33.3008L28.1699 36.1008L33.0099 38.8908Z" fill="#72B5E8"/>
<path d="M28.1699 41.6916L33.0099 44.4816V38.8916L28.1699 36.1016V41.6916Z" fill="#578CF4"/>
<path d="M33.0098 44.4816L37.8498 41.6916V36.1016L33.0098 38.8916V44.4816Z" fill="#67D4B4"/>
<path d="M40.1095 42.9884L44.9495 40.1884L40.1095 37.3984L35.2695 40.1884L40.1095 42.9884Z" fill="#72B5E8"/>
<path d="M35.2695 45.7775L40.1095 48.5775V42.9875L35.2695 40.1875V45.7775Z" fill="#578CF4"/>
<path d="M40.1094 48.5775L44.9494 45.7775V40.1875L40.1094 42.9875V48.5775Z" fill="#67D4B4"/>
<path d="M47.2011 47.09L52.0411 44.29L47.2011 41.5L42.3711 44.29L47.2011 47.09Z" fill="#72B5E8"/>
<path d="M42.3711 49.8791L47.2011 52.6691V47.0891L42.3711 44.2891V49.8791Z" fill="#578CF4"/>
<path d="M47.1992 52.6691L52.0392 49.8791V44.2891L47.1992 47.0891V52.6691Z" fill="#67D4B4"/>
<path d="M54.3009 51.1798L59.1409 48.3898L54.3009 45.5898L49.4609 48.3898L54.3009 51.1798Z" fill="#72B5E8"/>
<path d="M49.4609 53.9806L54.3009 56.7706V51.1806L49.4609 48.3906V53.9806Z" fill="#578CF4"/>
<path d="M54.3008 56.7706L59.1408 53.9806V48.3906L54.3008 51.1806V56.7706Z" fill="#67D4B4"/>
<path d="M61.4005 55.2775L66.2405 52.4875L61.4005 49.6875L56.5605 52.4875L61.4005 55.2775Z" fill="#72B5E8"/>
<path d="M56.5605 58.0722L61.4005 60.8722V55.2822L56.5605 52.4922V58.0722Z" fill="#578CF4"/>
<path d="M61.4004 60.8722L66.2404 58.0722V52.4922L61.4004 55.2822V60.8722Z" fill="#67D4B4"/>
<path d="M18.8205 38.8908L23.6605 36.1008L18.8205 33.3008L13.9805 36.1008L18.8205 38.8908Z" fill="#72B5E8"/>
<path d="M13.9805 41.6916L18.8205 44.4816V38.8916L13.9805 36.1016V41.6916Z" fill="#578CF4"/>
<path d="M18.8203 44.4816L23.6603 41.6916V36.1016L18.8203 38.8916V44.4816Z" fill="#67D4B4"/>
<path d="M25.9101 42.9884L30.7501 40.1884L25.9101 37.3984L21.0801 40.1884L25.9101 42.9884Z" fill="#72B5E8"/>
<path d="M21.0801 45.7775L25.9101 48.5775V42.9875L21.0801 40.1875V45.7775Z" fill="#578CF4"/>
<path d="M25.9102 48.5775L30.7502 45.7775V40.1875L25.9102 42.9875V48.5775Z" fill="#67D4B4"/>
<path d="M33.0099 47.09L37.8499 44.29L33.0099 41.5L28.1699 44.29L33.0099 47.09Z" fill="#72B5E8"/>
<path d="M28.1699 49.8791L33.0099 52.6691V47.0891L28.1699 44.2891V49.8791Z" fill="#578CF4"/>
<path d="M33.0098 52.6691L37.8498 49.8791V44.2891L33.0098 47.0891V52.6691Z" fill="#67D4B4"/>
<path d="M40.1095 51.1798L44.9495 48.3898L40.1095 45.5898L35.2695 48.3898L40.1095 51.1798Z" fill="#72B5E8"/>
<path d="M35.2695 53.9806L40.1095 56.7706V51.1806L35.2695 48.3906V53.9806Z" fill="#578CF4"/>
<path d="M40.1094 56.7706L44.9494 53.9806V48.3906L40.1094 51.1806V56.7706Z" fill="#67D4B4"/>
<path d="M47.2011 55.2775L52.0511 52.4875L47.2011 49.6875L42.3711 52.4875L47.2011 55.2775Z" fill="#72B5E8"/>
<path d="M42.3711 58.0722L47.2011 60.8722V55.2822L42.3711 52.4922V58.0722Z" fill="#578CF4"/>
<path d="M47.1992 60.8722L52.0492 58.0722V52.4922L47.1992 55.2822V60.8722Z" fill="#67D4B4"/>
<path d="M54.3009 59.3791L59.1409 56.5791L54.3009 53.7891L49.4609 56.5791L54.3009 59.3791Z" fill="#72B5E8"/>
<path d="M49.4609 62.1681L54.3009 64.9681V59.3781L49.4609 56.5781V62.1681Z" fill="#578CF4"/>
<path d="M54.3008 64.9681L59.1408 62.1681V56.5781L54.3008 59.3781V64.9681Z" fill="#67D4B4"/>
<path d="M6.84 45.8088L11.68 43.0087L6.84 40.2188L2 43.0087L6.84 45.8088Z" fill="#898989"/>
<path d="M2 48.5978L6.84 51.3978V45.8078L2 43.0078V48.5978Z" fill="#262D30"/>
<path d="M6.83984 51.3978L11.6798 48.5978V43.0078L6.83984 45.8078V51.3978Z" fill="#DCF4F4"/>
<path d="M18.8205 47.09L23.6605 44.29L18.8205 41.5L13.9805 44.29L18.8205 47.09Z" fill="#72B5E8"/>
<path d="M13.9805 49.8791L18.8205 52.6691V47.0891L13.9805 44.2891V49.8791Z" fill="#578CF4"/>
<path d="M18.8203 52.6691L23.6603 49.8791V44.2891L18.8203 47.0891V52.6691Z" fill="#67D4B4"/>
<path d="M25.9101 51.1798L30.7501 48.3898L25.9101 45.5898L21.0801 48.3898L25.9101 51.1798Z" fill="#72B5E8"/>
<path d="M21.0801 53.9806L25.9101 56.7706V51.1806L21.0801 48.3906V53.9806Z" fill="#578CF4"/>
<path d="M25.9102 56.7706L30.7502 53.9806V48.3906L25.9102 51.1806V56.7706Z" fill="#67D4B4"/>
<path d="M33.0099 55.2775L37.8499 52.4875L33.0099 49.6875L28.1699 52.4875L33.0099 55.2775Z" fill="#72B5E8"/>
<path d="M28.1699 58.0722L33.0099 60.8722V55.2822L28.1699 52.4922V58.0722Z" fill="#578CF4"/>
<path d="M33.0098 60.8722L37.8498 58.0722V52.4922L33.0098 55.2822V60.8722Z" fill="#67D4B4"/>
<path d="M40.1095 59.3791L44.9495 56.5791L40.1095 53.7891L35.2695 56.5791L40.1095 59.3791Z" fill="#72B5E8"/>
<path d="M35.2695 62.1681L40.1095 64.9681V59.3781L35.2695 56.5781V62.1681Z" fill="#578CF4"/>
<path d="M40.1094 64.9681L44.9494 62.1681V56.5781L40.1094 59.3781V64.9681Z" fill="#67D4B4"/>
<path d="M47.2011 63.4706L52.0511 60.6806L47.2011 57.8906L42.3711 60.6806L47.2011 63.4706Z" fill="#72B5E8"/>
<path d="M42.3711 66.2697L47.2011 69.0597V63.4697L42.3711 60.6797V66.2697Z" fill="#578CF4"/>
<path d="M47.1992 69.0597L52.0492 66.2697V60.6797L47.1992 63.4697V69.0597Z" fill="#67D4B4"/>
<path d="M47.1994 14.0409L52.0394 11.2509L47.1994 8.46094L42.3594 11.2509L47.1994 14.0409Z" fill="#72B5E8"/>
<path d="M42.3594 16.84L47.1994 19.63V14.04L42.3594 11.25V16.84Z" fill="#578CF4"/>
<path d="M47.1992 19.63L52.0392 16.84V11.25L47.1992 14.04V19.63Z" fill="#67D4B4"/>
<path d="M54.3009 18.1408L59.1409 15.3508L54.3009 12.5508L49.4609 15.3508L54.3009 18.1408Z" fill="#72B5E8"/>
<path d="M49.4609 20.9416L54.3009 23.7316V18.1416L49.4609 15.3516V20.9416Z" fill="#578CF4"/>
<path d="M54.3008 23.7316L59.1408 20.9416V15.3516L54.3008 18.1416V23.7316Z" fill="#67D4B4"/>
<path d="M61.4005 22.2384L66.2405 19.4484L61.4005 16.6484L56.5605 19.4484L61.4005 22.2384Z" fill="#72B5E8"/>
<path d="M56.5605 25.0292L61.4005 27.8292V22.2392L56.5605 19.4492V25.0292Z" fill="#578CF4"/>
<path d="M61.4004 27.8292L66.2404 25.0292V19.4492L61.4004 22.2392V27.8292Z" fill="#67D4B4"/>
<path d="M68.4904 26.34L73.3304 23.54L68.4904 20.75L63.6504 23.54L68.4904 26.34Z" fill="#72B5E8"/>
<path d="M63.6504 29.1291L68.4904 31.9291V26.3391L63.6504 23.5391V29.1291Z" fill="#578CF4"/>
<path d="M68.4902 31.9291L73.3302 29.1291V23.5391L68.4902 26.3391V31.9291Z" fill="#67D4B4"/>
<path d="M75.59 30.4316L80.43 27.6416L75.59 24.8516L70.75 27.6416L75.59 30.4316Z" fill="#72B5E8"/>
<path d="M70.75 33.2306L75.59 36.0206V30.4306L70.75 27.6406V33.2306Z" fill="#578CF4"/>
<path d="M75.5898 36.0206L80.4298 33.2306V27.6406L75.5898 30.4306V36.0206Z" fill="#67D4B4"/>
<path d="M82.6896 34.5275L87.5296 31.7375L82.6896 28.9375L77.8496 31.7375L82.6896 34.5275Z" fill="#72B5E8"/>
<path d="M77.8496 37.3322L82.6896 40.1222V34.5322L77.8496 31.7422V37.3322Z" fill="#578CF4"/>
<path d="M82.6895 40.1222L87.5294 37.3322V31.7422L82.6895 34.5322V40.1222Z" fill="#67D4B4"/>
<path d="M40.1095 18.1408L44.9495 15.3408L40.1095 12.5508L35.2695 15.3408L40.1095 18.1408Z" fill="#72B5E8"/>
<path d="M35.2695 20.9298L40.1095 23.7298V18.1398L35.2695 15.3398V20.9298Z" fill="#578CF4"/>
<path d="M40.1094 23.7298L44.9494 20.9298V15.3398L40.1094 18.1398V23.7298Z" fill="#67D4B4"/>
<path d="M47.1994 22.2284L52.0394 19.4384L47.1994 16.6484L42.3594 19.4384L47.1994 22.2284Z" fill="#72B5E8"/>
<path d="M42.3594 25.0275L47.1994 27.8175V22.2275L42.3594 19.4375V25.0275Z" fill="#578CF4"/>
<path d="M47.1992 27.8175L52.0392 25.0275V19.4375L47.1992 22.2275V27.8175Z" fill="#67D4B4"/>
<path d="M54.3009 26.3322L59.1409 23.5422L54.3009 20.7422L49.4609 23.5422L54.3009 26.3322Z" fill="#72B5E8"/>
<path d="M49.4609 29.1291L54.3009 31.9191V26.3291L49.4609 23.5391V29.1291Z" fill="#578CF4"/>
<path d="M54.3008 31.9191L59.1408 29.1291V23.5391L54.3008 26.3291V31.9191Z" fill="#67D4B4"/>
<path d="M61.4005 30.4298L66.2305 27.6298L61.4005 24.8398L56.5605 27.6398L61.4005 30.4298Z" fill="#72B5E8"/>
<path d="M56.5605 33.2206L61.4005 36.0206V30.4306L56.5605 27.6406V33.2206Z" fill="#578CF4"/>
<path d="M61.4004 36.0206L66.2304 33.2206V27.6406L61.4004 30.4306V36.0206Z" fill="#67D4B4"/>
<path d="M68.4904 34.5275L73.3304 31.7275L68.4904 28.9375L63.6504 31.7275L68.4904 34.5275Z" fill="#72B5E8"/>
<path d="M63.6504 37.3205L68.4904 40.1105V34.5305L63.6504 31.7305V37.3205Z" fill="#578CF4"/>
<path d="M68.4902 40.1105L73.3302 37.3205V31.7305L68.4902 34.5305V40.1105Z" fill="#67D4B4"/>
<path d="M75.59 38.6213L80.43 35.8313L75.59 33.0312L70.75 35.8313L75.59 38.6213Z" fill="#72B5E8"/>
<path d="M70.75 41.4181L75.59 44.2081V38.6181L70.75 35.8281V41.4181Z" fill="#578CF4"/>
<path d="M75.5898 44.2081L80.4298 41.4181V35.8281L75.5898 38.6181V44.2081Z" fill="#67D4B4"/>
<path d="M33.0099 22.2384L37.8499 19.4484L33.0099 16.6484L28.1699 19.4484L33.0099 22.2384Z" fill="#72B5E8"/>
<path d="M28.1699 25.0292L33.0099 27.8292V22.2392L28.1699 19.4492V25.0292Z" fill="#578CF4"/>
<path d="M33.0098 27.8292L37.8498 25.0292V19.4492L33.0098 22.2392V27.8292Z" fill="#67D4B4"/>
<path d="M40.1095 26.34L44.9495 23.54L40.1095 20.75L35.2695 23.54L40.1095 26.34Z" fill="#72B5E8"/>
<path d="M35.2695 29.1291L40.1095 31.9291V26.3391L35.2695 23.5391V29.1291Z" fill="#578CF4"/>
<path d="M40.1094 31.9291L44.9494 29.1291V23.5391L40.1094 26.3391V31.9291Z" fill="#67D4B4"/>
<path d="M47.2011 30.4316L52.0511 27.6416L47.2011 24.8516L42.3711 27.6416L47.2011 30.4316Z" fill="#72B5E8"/>
<path d="M42.3711 33.2306L47.2011 36.0206V30.4306L42.3711 27.6406V33.2306Z" fill="#578CF4"/>
<path d="M47.1992 36.0206L52.0492 33.2306V27.6406L47.1992 30.4306V36.0206Z" fill="#67D4B4"/>
<path d="M54.3009 34.5275L59.1409 31.7375L54.3009 28.9375L49.4609 31.7375L54.3009 34.5275Z" fill="#72B5E8"/>
<path d="M49.4609 37.3322L54.3009 40.1222V34.5322L49.4609 31.7422V37.3322Z" fill="#578CF4"/>
<path d="M54.3008 40.1222L59.1408 37.3322V31.7422L54.3008 34.5322V40.1222Z" fill="#67D4B4"/>
<path d="M61.4005 38.6291L66.2405 35.8391L61.4005 33.0391L56.5605 35.8391L61.4005 38.6291Z" fill="#72B5E8"/>
<path d="M56.5605 41.4198L61.4005 44.2198V38.6298L56.5605 35.8398V41.4198Z" fill="#578CF4"/>
<path d="M61.4004 44.2198L66.2404 41.4198V35.8398L61.4004 38.6298V44.2198Z" fill="#67D4B4"/>
<path d="M73.3791 45.5509L78.2191 42.7509L73.3791 39.9609L68.5391 42.7509L73.3791 45.5509Z" fill="#898989"/>
<path d="M68.5391 48.34L73.3791 51.13V45.55L68.5391 42.75V48.34Z" fill="#262D30"/>
<path d="M73.3789 51.13L78.2189 48.34V42.75L73.3789 45.55V51.13Z" fill="#DCF4F4"/>
<path d="M25.9101 26.34L30.7501 23.54L25.9101 20.75L21.0801 23.54L25.9101 26.34Z" fill="#72B5E8"/>
<path d="M21.0801 29.1291L25.9101 31.9291V26.3391L21.0801 23.5391V29.1291Z" fill="#578CF4"/>
<path d="M25.9102 31.9291L30.7502 29.1291V23.5391L25.9102 26.3391V31.9291Z" fill="#67D4B4"/>
<path d="M33.0099 30.4316L37.8499 27.6416L33.0099 24.8516L28.1699 27.6416L33.0099 30.4316Z" fill="#72B5E8"/>
<path d="M28.1699 33.2306L33.0099 36.0206V30.4306L28.1699 27.6406V33.2306Z" fill="#578CF4"/>
<path d="M33.0098 36.0206L37.8498 33.2306V27.6406L33.0098 30.4306V36.0206Z" fill="#67D4B4"/>
<path d="M40.1095 34.5275L44.9495 31.7375L40.1095 28.9375L35.2695 31.7375L40.1095 34.5275Z" fill="#72B5E8"/>
<path d="M35.2695 37.3322L40.1095 40.1222V34.5322L35.2695 31.7422V37.3322Z" fill="#578CF4"/>
<path d="M40.1094 40.1222L44.9494 37.3322V31.7422L40.1094 34.5322V40.1222Z" fill="#67D4B4"/>
<path d="M47.2011 38.6291L52.0411 35.8391L47.2011 33.0391L42.3711 35.8391L47.2011 38.6291Z" fill="#72B5E8"/>
<path d="M42.3711 41.4198L47.2011 44.2198V38.6298L42.3711 35.8398V41.4198Z" fill="#578CF4"/>
<path d="M47.1992 44.2198L52.0392 41.4198V35.8398L47.1992 38.6298V44.2198Z" fill="#67D4B4"/>
<path d="M54.3009 42.7306L59.1409 39.9306L54.3009 37.1406L49.4609 39.9306L54.3009 42.7306Z" fill="#72B5E8"/>
<path d="M49.4609 45.5197L54.3009 48.3097V42.7297L49.4609 39.9297V45.5197Z" fill="#578CF4"/>
<path d="M54.3008 48.3097L59.1408 45.5197V39.9297L54.3008 42.7297V48.3097Z" fill="#67D4B4"/>
<path d="M61.4005 46.8205L66.2405 44.0305L61.4005 41.2305L56.5605 44.0305L61.4005 46.8205Z" fill="#72B5E8"/>
<path d="M56.5605 49.6213L61.4005 52.4113V46.8213L56.5605 44.0312V49.6213Z" fill="#578CF4"/>
<path d="M61.4004 52.4113L66.2404 49.6213V44.0312L61.4004 46.8213V52.4113Z" fill="#67D4B4"/>
<path d="M18.8205 30.4316L23.6605 27.6416L18.8205 24.8516L13.9805 27.6416L18.8205 30.4316Z" fill="#72B5E8"/>
<path d="M13.9805 33.2306L18.8205 36.0206V30.4306L13.9805 27.6406V33.2306Z" fill="#578CF4"/>
<path d="M18.8203 36.0206L23.6603 33.2306V27.6406L18.8203 30.4306V36.0206Z" fill="#67D4B4"/>
<path d="M25.9101 34.5275L30.7501 31.7375L25.9101 28.9375L21.0801 31.7375L25.9101 34.5275Z" fill="#72B5E8"/>
<path d="M21.0801 37.3322L25.9101 40.1222V34.5322L21.0801 31.7422V37.3322Z" fill="#578CF4"/>
<path d="M25.9102 40.1222L30.7502 37.3322V31.7422L25.9102 34.5322V40.1222Z" fill="#67D4B4"/>
<path d="M33.0099 38.6291L37.8499 35.8391L33.0099 33.0391L28.1699 35.8391L33.0099 38.6291Z" fill="#72B5E8"/>
<path d="M28.1699 41.4198L33.0099 44.2198V38.6298L28.1699 35.8398V41.4198Z" fill="#578CF4"/>
<path d="M33.0098 44.2198L37.8498 41.4198V35.8398L33.0098 38.6298V44.2198Z" fill="#67D4B4"/>
<path d="M40.1095 42.7306L44.9495 39.9306L40.1095 37.1406L35.2695 39.9306L40.1095 42.7306Z" fill="#72B5E8"/>
<path d="M35.2695 45.5197L40.1095 48.3097V42.7297L35.2695 39.9297V45.5197Z" fill="#578CF4"/>
<path d="M40.1094 48.3097L44.9494 45.5197V39.9297L40.1094 42.7297V48.3097Z" fill="#67D4B4"/>
<path d="M47.2011 46.8205L52.0511 44.0305L47.2011 41.2305L42.3711 44.0305L47.2011 46.8205Z" fill="#72B5E8"/>
<path d="M42.3711 49.6213L47.2011 52.4113V46.8213L42.3711 44.0312V49.6213Z" fill="#578CF4"/>
<path d="M47.1992 52.4113L52.0492 49.6213V44.0312L47.1992 46.8213V52.4113Z" fill="#67D4B4"/>
<path d="M54.3009 50.9181L59.1409 48.1281L54.3009 45.3281L49.4609 48.1281L54.3009 50.9181Z" fill="#72B5E8"/>
<path d="M49.4609 53.7128L54.3009 56.5128V50.9228L49.4609 48.1328V53.7128Z" fill="#578CF4"/>
<path d="M54.3008 56.5128L59.1408 53.7128V48.1328L54.3008 50.9228V56.5128Z" fill="#67D4B4"/>
<path d="M11.7189 34.5275L16.5589 31.7375L11.7189 28.9375L6.87891 31.7375L11.7189 34.5275Z" fill="#72B5E8"/>
<path d="M6.87891 37.3322L11.7189 40.1222V34.5322L6.87891 31.7422V37.3322Z" fill="#578CF4"/>
<path d="M11.7207 40.1222L16.5607 37.3322V31.7422L11.7207 34.5322V40.1222Z" fill="#67D4B4"/>
<path d="M18.8205 38.6291L23.6605 35.8391L18.8205 33.0391L13.9805 35.8391L18.8205 38.6291Z" fill="#72B5E8"/>
<path d="M13.9805 41.4198L18.8205 44.2198V38.6298L13.9805 35.8398V41.4198Z" fill="#578CF4"/>
<path d="M18.8203 44.2198L23.6603 41.4198V35.8398L18.8203 38.6298V44.2198Z" fill="#67D4B4"/>
<path d="M25.9101 42.7306L30.7501 39.9306L25.9101 37.1406L21.0801 39.9306L25.9101 42.7306Z" fill="#72B5E8"/>
<path d="M21.0801 45.5197L25.9101 48.3097V42.7297L21.0801 39.9297V45.5197Z" fill="#578CF4"/>
<path d="M25.9102 48.3097L30.7502 45.5197V39.9297L25.9102 42.7297V48.3097Z" fill="#67D4B4"/>
<path d="M33.0099 46.8205L37.8499 44.0305L33.0099 41.2305L28.1699 44.0305L33.0099 46.8205Z" fill="#72B5E8"/>
<path d="M28.1699 49.6213L33.0099 52.4113V46.8213L28.1699 44.0312V49.6213Z" fill="#578CF4"/>
<path d="M33.0098 52.4113L37.8498 49.6213V44.0312L33.0098 46.8213V52.4113Z" fill="#67D4B4"/>
<path d="M35.2306 53.7384L40.0606 50.9484L35.2306 48.1484L30.3906 50.9484L35.2306 53.7384Z" fill="#898989"/>
<path d="M30.3906 56.5292L35.2306 59.3292V53.7392L30.3906 50.9492V56.5292Z" fill="#262D30"/>
<path d="M35.2305 59.3292L40.0605 56.5292V50.9492L35.2305 53.7392V59.3292Z" fill="#DCF4F4"/>
<path d="M47.2011 55.0197L52.0511 52.2197L47.2011 49.4297L42.3711 52.2197L47.2011 55.0197Z" fill="#72B5E8"/>
<path d="M42.3711 57.8088L47.2011 60.6087V55.0187L42.3711 52.2188V57.8088Z" fill="#578CF4"/>
<path d="M47.1992 60.6087L52.0492 57.8088V52.2188L47.1992 55.0187V60.6087Z" fill="#67D4B4"/>
<path d="M47.1994 5.59L52.0394 2.79L47.1994 0L42.3594 2.79L47.1994 5.59Z" fill="#72B5E8"/>
<path d="M42.3594 8.37906L47.1994 11.1791V5.58906L42.3594 2.78906V8.37906Z" fill="#578CF4"/>
<path d="M47.1992 11.1791L52.0392 8.37906V2.78906L47.1992 5.58906V11.1791Z" fill="#67D4B4"/>
<path d="M54.3009 9.69156L59.1409 6.89156L54.3009 4.10156L49.4609 6.89156L54.3009 9.69156Z" fill="#72B5E8"/>
<path d="M49.4609 12.4806L54.3009 15.2706V9.69062L49.4609 6.89062V12.4806Z" fill="#578CF4"/>
<path d="M54.3008 15.2706L59.1408 12.4806V6.89062L54.3008 9.69062V15.2706Z" fill="#67D4B4"/>
<path d="M61.4005 13.7792L66.2405 10.9892L61.4005 8.19922L56.5605 10.9892L61.4005 13.7792Z" fill="#72B5E8"/>
<path d="M56.5605 16.5822L61.4005 19.3722V13.7822L56.5605 10.9922V16.5822Z" fill="#578CF4"/>
<path d="M61.4004 19.3722L66.2404 16.5822V10.9922L61.4004 13.7822V19.3722Z" fill="#67D4B4"/>
<path d="M68.4904 17.8791L73.3304 15.0891L68.4904 12.2891L63.6504 15.0891L68.4904 17.8791Z" fill="#72B5E8"/>
<path d="M63.6504 20.6698L68.4904 23.4698V17.8798L63.6504 15.0898V20.6698Z" fill="#578CF4"/>
<path d="M68.4902 23.4698L73.3302 20.6698V15.0898L68.4902 17.8798V23.4698Z" fill="#67D4B4"/>
<path d="M75.59 16.34L80.43 13.54L75.59 10.75L70.75 13.54L75.59 16.34Z" fill="#898989"/>
<path d="M70.75 19.1291L75.59 21.9291V16.3391L70.75 13.5391V19.1291Z" fill="#262D30"/>
<path d="M75.5898 21.9291L80.4298 19.1291V13.5391L75.5898 16.3391V21.9291Z" fill="#DCF4F4"/>
<path d="M82.6896 26.0722L87.5296 23.2822L82.6896 20.4922L77.8496 23.2822L82.6896 26.0722Z" fill="#72B5E8"/>
<path d="M77.8496 28.8713L82.6896 31.6612V26.0712L77.8496 23.2812V28.8713Z" fill="#578CF4"/>
<path d="M82.6895 31.6612L87.5294 28.8713V23.2812L82.6895 26.0712V31.6612Z" fill="#67D4B4"/>
<path d="M40.1095 9.67984L44.9495 6.88984L40.1095 4.08984L35.2695 6.88984L40.1095 9.67984Z" fill="#72B5E8"/>
<path d="M35.2695 12.4706L40.1095 15.2706V9.68063L35.2695 6.89062V12.4706Z" fill="#578CF4"/>
<path d="M40.1094 15.2706L44.9494 12.4706V6.89062L40.1094 9.68063V15.2706Z" fill="#67D4B4"/>
<path d="M47.1994 8.14078L52.0394 5.34078L47.1994 2.55078L42.3594 5.35078L47.1994 8.14078Z" fill="#898989"/>
<path d="M42.3594 10.9298L47.1994 13.7298V8.13984L42.3594 5.33984V10.9298Z" fill="#262D30"/>
<path d="M47.1992 13.7298L52.0392 10.9298V5.33984L47.1992 8.13984V13.7298Z" fill="#DCF4F4"/>
<path d="M54.3009 17.8691L59.1409 15.0791L54.3009 12.2891L49.4609 15.0791L54.3009 17.8691Z" fill="#72B5E8"/>
<path d="M49.4609 20.6681L54.3009 23.4581V17.8681L49.4609 15.0781V20.6681Z" fill="#578CF4"/>
<path d="M54.3008 23.4581L59.1408 20.6681V15.0781L54.3008 17.8681V23.4581Z" fill="#67D4B4"/>
<path d="M61.4005 21.9728L66.2305 19.1828L61.4005 16.3828L56.5605 19.1828L61.4005 21.9728Z" fill="#72B5E8"/>
<path d="M56.5605 24.7697L61.4005 27.5597V21.9697L56.5605 19.1797V24.7697Z" fill="#578CF4"/>
<path d="M61.4004 27.5597L66.2304 24.7697V19.1797L61.4004 21.9697V27.5597Z" fill="#67D4B4"/>
<path d="M68.4904 26.0705L73.3304 23.2705L68.4904 20.4805L63.6504 23.2705L68.4904 26.0705Z" fill="#72B5E8"/>
<path d="M63.6504 28.8595L68.4904 31.6595V26.0695L63.6504 23.2695V28.8595Z" fill="#578CF4"/>
<path d="M68.4902 31.6595L73.3302 28.8595V23.2695L68.4902 26.0695V31.6595Z" fill="#67D4B4"/>
<path d="M75.59 30.1681L80.43 27.3681L75.59 24.5781L70.75 27.3681L75.59 30.1681Z" fill="#72B5E8"/>
<path d="M70.75 32.9572L75.59 35.7472V30.1672L70.75 27.3672V32.9572Z" fill="#578CF4"/>
<path d="M75.5898 35.7472L80.4298 32.9572V27.3672L75.5898 30.1672V35.7472Z" fill="#67D4B4"/>
<path d="M33.0099 13.7792L37.8499 10.9892L33.0099 8.19922L28.1699 10.9892L33.0099 13.7792Z" fill="#72B5E8"/>
<path d="M28.1699 16.5822L33.0099 19.3722V13.7822L28.1699 10.9922V16.5822Z" fill="#578CF4"/>
<path d="M33.0098 19.3722L37.8498 16.5822V10.9922L33.0098 13.7822V19.3722Z" fill="#67D4B4"/>
<path d="M40.1095 17.8791L44.9495 15.0891L40.1095 12.2891L35.2695 15.0891L40.1095 17.8791Z" fill="#72B5E8"/>
<path d="M35.2695 20.6698L40.1095 23.4698V17.8798L35.2695 15.0898V20.6698Z" fill="#578CF4"/>
<path d="M40.1094 23.4698L44.9494 20.6698V15.0898L40.1094 17.8798V23.4698Z" fill="#67D4B4"/>
<path d="M47.2011 21.9806L52.0511 19.1806L47.2011 16.3906L42.3711 19.1806L47.2011 21.9806Z" fill="#72B5E8"/>
<path d="M42.3711 24.7697L47.2011 27.5697V21.9797L42.3711 19.1797V24.7697Z" fill="#578CF4"/>
<path d="M47.1992 27.5697L52.0492 24.7697V19.1797L47.1992 21.9797V27.5697Z" fill="#67D4B4"/>
<path d="M54.3009 26.0722L59.1409 23.2822L54.3009 20.4922L49.4609 23.2822L54.3009 26.0722Z" fill="#72B5E8"/>
<path d="M49.4609 28.8713L54.3009 31.6612V26.0712L49.4609 23.2812V28.8713Z" fill="#578CF4"/>
<path d="M54.3008 31.6612L59.1408 28.8713V23.2812L54.3008 26.0712V31.6612Z" fill="#67D4B4"/>
<path d="M61.4005 30.1681L66.2405 27.3781L61.4005 24.5781L56.5605 27.3781L61.4005 30.1681Z" fill="#72B5E8"/>
<path d="M56.5605 32.9728L61.4005 35.7628V30.1728L56.5605 27.3828V32.9728Z" fill="#578CF4"/>
<path d="M61.4004 35.7628L66.2404 32.9728V27.3828L61.4004 30.1728V35.7628Z" fill="#67D4B4"/>
<path d="M68.5002 34.2697L73.3302 31.4797L68.5002 28.6797L63.6602 31.4797L68.5002 34.2697Z" fill="#72B5E8"/>
<path d="M63.6602 37.0605L68.5002 39.8605V34.2705L63.6602 31.4805V37.0605Z" fill="#578CF4"/>
<path d="M68.5 39.8605L73.33 37.0605V31.4805L68.5 34.2705V39.8605Z" fill="#67D4B4"/>
<path d="M25.9101 17.8791L30.7501 15.0891L25.9101 12.2891L21.0801 15.0891L25.9101 17.8791Z" fill="#72B5E8"/>
<path d="M21.0801 20.6698L25.9101 23.4698V17.8798L21.0801 15.0898V20.6698Z" fill="#578CF4"/>
<path d="M25.9102 23.4698L30.7502 20.6698V15.0898L25.9102 17.8798V23.4698Z" fill="#67D4B4"/>
<path d="M33.0099 21.9806L37.8499 19.1806L33.0099 16.3906L28.1699 19.1806L33.0099 21.9806Z" fill="#72B5E8"/>
<path d="M28.1699 24.7697L33.0099 27.5697V21.9797L28.1699 19.1797V24.7697Z" fill="#578CF4"/>
<path d="M33.0098 27.5697L37.8498 24.7697V19.1797L33.0098 21.9797V27.5697Z" fill="#67D4B4"/>
<path d="M40.1095 26.0722L44.9495 23.2822L40.1095 20.4922L35.2695 23.2822L40.1095 26.0722Z" fill="#72B5E8"/>
<path d="M35.2695 28.8713L40.1095 31.6612V26.0712L35.2695 23.2812V28.8713Z" fill="#578CF4"/>
<path d="M40.1094 31.6612L44.9494 28.8713V23.2812L40.1094 26.0712V31.6612Z" fill="#67D4B4"/>
<path d="M47.2011 30.1681L52.0411 27.3781L47.2011 24.5781L42.3711 27.3781L47.2011 30.1681Z" fill="#72B5E8"/>
<path d="M42.3711 32.9728L47.2011 35.7628V30.1728L42.3711 27.3828V32.9728Z" fill="#578CF4"/>
<path d="M47.1992 35.7628L52.0392 32.9728V27.3828L47.1992 30.1728V35.7628Z" fill="#67D4B4"/>
<path d="M54.3009 34.2697L59.1409 31.4797L54.3009 28.6797L49.4609 31.4797L54.3009 34.2697Z" fill="#72B5E8"/>
<path d="M49.4609 37.0605L54.3009 39.8605V34.2705L49.4609 31.4805V37.0605Z" fill="#578CF4"/>
<path d="M54.3008 39.8605L59.1408 37.0605V31.4805L54.3008 34.2705V39.8605Z" fill="#67D4B4"/>
<path d="M61.4005 38.3713L66.2405 35.5713L61.4005 32.7812L56.5605 35.5713L61.4005 38.3713Z" fill="#72B5E8"/>
<path d="M56.5605 41.1603L61.4005 43.9503V38.3703L56.5605 35.5703V41.1603Z" fill="#578CF4"/>
<path d="M61.4004 43.9503L66.2404 41.1603V35.5703L61.4004 38.3703V43.9503Z" fill="#67D4B4"/>
<path d="M18.8205 21.9806L23.6605 19.1806L18.8205 16.3906L13.9805 19.1806L18.8205 21.9806Z" fill="#72B5E8"/>
<path d="M13.9805 24.7697L18.8205 27.5697V21.9797L13.9805 19.1797V24.7697Z" fill="#578CF4"/>
<path d="M18.8203 27.5697L23.6603 24.7697V19.1797L18.8203 21.9797V27.5697Z" fill="#67D4B4"/>
<path d="M25.9101 26.0722L30.7501 23.2822L25.9101 20.4922L21.0801 23.2822L25.9101 26.0722Z" fill="#72B5E8"/>
<path d="M21.0801 28.8713L25.9101 31.6612V26.0712L21.0801 23.2812V28.8713Z" fill="#578CF4"/>
<path d="M25.9102 31.6612L30.7502 28.8713V23.2812L25.9102 26.0712V31.6612Z" fill="#67D4B4"/>
<path d="M33.0099 24.5292L37.8499 21.7392L33.0099 18.9492L28.1699 21.7392L33.0099 24.5292Z" fill="#898989"/>
<path d="M28.1699 27.3322L33.0099 30.1222V24.5322L28.1699 21.7422V27.3322Z" fill="#262D30"/>
<path d="M33.0098 30.1222L37.8498 27.3322V21.7422L33.0098 24.5322V30.1222Z" fill="#DCF4F4"/>
<path d="M40.1095 34.2697L44.9495 31.4797L40.1095 28.6797L35.2695 31.4797L40.1095 34.2697Z" fill="#72B5E8"/>
<path d="M35.2695 37.0605L40.1095 39.8605V34.2705L35.2695 31.4805V37.0605Z" fill="#578CF4"/>
<path d="M40.1094 39.8605L44.9494 37.0605V31.4805L40.1094 34.2705V39.8605Z" fill="#67D4B4"/>
<path d="M47.2011 38.3713L52.0511 35.5713L47.2011 32.7812L42.3711 35.5713L47.2011 38.3713Z" fill="#72B5E8"/>
<path d="M42.3711 41.1603L47.2011 43.9503V38.3703L42.3711 35.5703V41.1603Z" fill="#578CF4"/>
<path d="M47.1992 43.9503L52.0492 41.1603V35.5703L47.1992 38.3703V43.9503Z" fill="#67D4B4"/>
<path d="M54.3009 42.4628L59.1409 39.6728L54.3009 36.8828L49.4609 39.6728L54.3009 42.4628Z" fill="#72B5E8"/>
<path d="M49.4609 45.2619L54.3009 48.0519V42.4619L49.4609 39.6719V45.2619Z" fill="#578CF4"/>
<path d="M54.3008 48.0519L59.1408 45.2619V39.6719L54.3008 42.4619V48.0519Z" fill="#67D4B4"/>
<path d="M11.7189 26.0722L16.5589 23.2822L11.7189 20.4922L6.87891 23.2822L11.7189 26.0722Z" fill="#72B5E8"/>
<path d="M6.87891 28.8713L11.7189 31.6612V26.0712L6.87891 23.2812V28.8713Z" fill="#578CF4"/>
<path d="M11.7207 31.6612L16.5607 28.8713V23.2812L11.7207 26.0712V31.6612Z" fill="#67D4B4"/>
<path d="M18.8205 30.1681L23.6605 27.3781L18.8205 24.5781L13.9805 27.3781L18.8205 30.1681Z" fill="#72B5E8"/>
<path d="M13.9805 32.9728L18.8205 35.7628V30.1728L13.9805 27.3828V32.9728Z" fill="#578CF4"/>
<path d="M18.8203 35.7628L23.6603 32.9728V27.3828L18.8203 30.1728V35.7628Z" fill="#67D4B4"/>
<path d="M25.9101 34.2697L30.7501 31.4797L25.9101 28.6797L21.0801 31.4797L25.9101 34.2697Z" fill="#72B5E8"/>
<path d="M21.0801 37.0605L25.9101 39.8605V34.2705L21.0801 31.4805V37.0605Z" fill="#578CF4"/>
<path d="M25.9102 39.8605L30.7502 37.0605V31.4805L25.9102 34.2705V39.8605Z" fill="#67D4B4"/>
<path d="M33.0099 38.3713L37.8499 35.5713L33.0099 32.7812L28.1699 35.5713L33.0099 38.3713Z" fill="#72B5E8"/>
<path d="M28.1699 41.1603L33.0099 43.9503V38.3703L28.1699 35.5703V41.1603Z" fill="#578CF4"/>
<path d="M33.0098 43.9503L37.8498 41.1603V35.5703L33.0098 38.3703V43.9503Z" fill="#67D4B4"/>
<path d="M40.1095 42.4628L44.9495 39.6728L40.1095 36.8828L35.2695 39.6728L40.1095 42.4628Z" fill="#72B5E8"/>
<path d="M35.2695 45.2619L40.1095 48.0519V42.4619L35.2695 39.6719V45.2619Z" fill="#578CF4"/>
<path d="M40.1094 48.0519L44.9494 45.2619V39.6719L40.1094 42.4619V48.0519Z" fill="#67D4B4"/>
<path d="M47.2011 46.5588L52.0511 43.7687L47.2011 40.9688L42.3711 43.7687L47.2011 46.5588Z" fill="#72B5E8"/>
<path d="M42.3711 49.3495L47.2011 52.1495V46.5595L42.3711 43.7695V49.3495Z" fill="#578CF4"/>
<path d="M47.1992 52.1495L52.0492 49.3495V43.7695L47.1992 46.5595V52.1495Z" fill="#67D4B4"/>
</g>
<defs>
<clipPath id="clip0_1886_30766">
<rect width="94" height="94" fill="white"/>
</clipPath>
</defs>
</svg>
