<svg width="63" height="47" viewBox="0 0 63 47" fill="none" xmlns="http://www.w3.org/2000/svg">
<g clip-path="url(#clip0_1886_31423)">
<g style="mix-blend-mode:multiply">
<path d="M8.34582 40.1261C8.09528 40.9597 7.58524 41.6916 6.88994 42.2153C6.19463 42.739 5.35035 43.0271 4.47996 43.0377H3.65803C3.16075 43.0435 2.66934 42.9299 2.225 42.7066C1.78067 42.4832 1.39638 42.1566 1.10436 41.754C0.812339 41.3515 0.621112 40.8848 0.546716 40.3931C0.472321 39.9013 0.516926 39.399 0.67679 38.928C2.67241 33.1919 7.62489 28.2395 15.691 24.1681C22.862 20.5356 31.0917 18.4494 40.2583 17.8086C41.1018 18.0207 41.979 18.0634 42.8391 17.934C43.2789 18.1314 43.6503 18.4549 43.9063 18.8634C44.1623 19.2719 44.2915 19.7472 44.2774 20.2291V20.2744C44.261 20.7748 44.0584 21.251 43.7092 21.6098C43.3601 21.9686 42.8895 22.1842 42.3898 22.2143C33.3834 22.667 25.5437 24.7358 18.9787 28.4972C13.1903 31.8093 9.6832 35.703 8.34582 40.1261ZM41.7455 29.2007C42.3604 29.1598 42.9384 28.8927 43.368 28.4509C43.7976 28.0091 44.0484 27.4238 44.072 26.808V26.7628C44.0795 26.4753 44.0276 26.1893 43.9195 25.9228C43.8115 25.6563 43.6495 25.415 43.4439 25.2139C43.2383 25.0128 42.9934 24.8564 42.7245 24.7544C42.4556 24.6523 42.1686 24.6069 41.8813 24.6209C35.3581 24.9935 29.4548 26.3622 24.2551 28.8385C18.2578 31.6839 14.4546 35.1632 12.762 39.2276C12.5922 39.6386 12.527 40.0853 12.572 40.5277C12.617 40.9701 12.7709 41.3945 13.02 41.7629C13.269 42.1313 13.6055 42.4323 13.9992 42.6389C14.393 42.8456 14.8318 42.9515 15.2765 42.9471H16.586C17.4226 42.9258 18.2339 42.6556 18.9162 42.1712C19.5986 41.6867 20.1211 41.0099 20.4171 40.2271C21.4619 37.629 23.7152 35.3095 27.2154 33.3104C31.332 30.949 36.194 29.6012 41.7455 29.2007ZM41.5992 33.3452V33.3034C41.6092 33.0113 41.557 32.7205 41.4463 32.4501C41.3355 32.1797 41.1686 31.9358 40.9566 31.7347C40.7446 31.5336 40.4923 31.3797 40.2165 31.2833C39.9406 31.1869 39.6474 31.1501 39.3563 31.1754C32.8331 31.6804 26.585 34.2681 23.5341 37.9912C23.1971 38.3965 22.9831 38.8898 22.9173 39.4128C22.8516 39.9359 22.937 40.4668 23.1633 40.9429C23.3896 41.4189 23.7475 41.8203 24.1946 42.0996C24.6417 42.3788 25.1594 42.5243 25.6865 42.5188H26.296C27.0195 42.5066 27.7276 42.3078 28.3517 41.9417C28.9759 41.5756 29.495 41.0546 29.8588 40.4291C30.4683 39.3843 31.5062 38.4265 32.9933 37.5872C35.0351 36.4617 37.2885 35.7726 39.6105 35.5637C40.1518 35.4909 40.6493 35.2276 41.0138 34.821C41.3783 34.4144 41.5858 33.8911 41.5992 33.3452ZM44.8242 40.7182C44.6884 39.945 44.1277 39.2032 43.0829 38.6285C41.7524 37.8588 39.9484 37.528 38.1791 37.6255C36.8176 37.6807 35.4863 38.0439 34.2854 38.6877C33.1187 39.3599 32.4883 40.2201 32.4047 41.0874C32.4047 41.1605 32.4047 41.2371 32.4047 41.3102C32.4047 42.2018 33.0003 43.0795 34.1461 43.7482C36.5388 45.1413 40.4812 45.0995 42.9435 43.682C44.3854 42.867 45.0088 41.77 44.8208 40.7182H44.8242Z" fill="#B5B5B5"/>
</g>
<path d="M46.4483 22.9163L48.8862 24.3094C48.5538 24.7631 48.1406 25.1516 47.6672 25.4552C47.6317 25.8654 47.503 26.2621 47.2911 26.615C47.1866 26.7926 47.0786 26.9633 46.9811 27.1409C46.6104 27.7609 46.0862 28.275 45.4592 28.6337C44.8321 28.9923 44.1232 29.1835 43.4008 29.1888C42.1888 29.1888 40.841 29.6171 39.3783 30.4704C37.3882 31.6718 35.6677 33.2713 34.3248 35.1686C34.1934 35.3436 34.036 35.4975 33.8581 35.6249V37.2304L31.4201 35.806L31.3818 35.7851C31.1214 35.6491 30.893 35.459 30.7119 35.2276C30.5308 34.9963 30.4011 34.7289 30.3315 34.4434C30.262 34.158 30.2541 33.8609 30.3085 33.5722C30.3629 33.2834 30.4783 33.0096 30.647 32.769C34.3457 27.3742 39.7022 23.2576 44.4526 22.474C44.994 22.3794 45.5514 22.4511 46.0512 22.6795C46.1895 22.7479 46.3223 22.8271 46.4483 22.9163ZM42.7113 33.6432C42.6473 33.6054 42.581 33.5717 42.5127 33.5422C41.7222 33.1939 40.6634 33.2949 39.4967 33.9706C38.3372 34.6868 37.3558 35.6575 36.6269 36.809C35.6552 38.2892 35.0387 40.0201 35.0387 41.556C35.0387 42.7228 35.387 43.5934 35.993 44.095C36.0767 44.1627 36.1652 44.2244 36.2577 44.2795H36.2786L36.3587 44.3248L38.9847 45.8329L38.8245 44.29C39.0555 44.1958 39.2801 44.0865 39.4967 43.9626C41.959 42.5382 43.9546 39.139 43.9546 36.3772C43.9546 36.2448 43.9546 36.1229 43.9546 35.9975L45.2293 35.0781L42.7113 33.6432ZM52.8879 12.0989C52.5451 11.867 52.1526 11.719 51.742 11.667C47.3712 11.1063 42.457 12.6596 36.996 16.4314C32.2595 19.7017 28.115 24.1248 24.5347 29.5858C24.3785 29.8276 24.274 30.0991 24.2276 30.3833C24.1813 30.6674 24.1942 30.9581 24.2655 31.237C24.3368 31.516 24.4649 31.7772 24.6419 32.0042C24.8189 32.2313 25.0409 32.4193 25.294 32.5566L25.3358 32.5775L27.8294 34.0228V32.473C28.1229 32.2882 28.3754 32.0452 28.5713 31.759C31.7057 27.1513 35.293 23.6163 39.3852 21.2272C42.868 19.1967 46.0025 18.4096 48.7887 18.7892C49.6164 18.924 50.4656 18.8088 51.2275 18.4583C51.9894 18.1077 52.6293 17.5378 53.0655 16.8215L53.7272 15.6931C54.0569 15.1367 54.1732 14.4795 54.0546 13.8437L55.6079 13.6835L52.8879 12.0989ZM60.9261 2.8173L58.6344 1.49386C58.298 1.27031 57.9203 1.11637 57.5234 1.0411C51.554 -0.0977643 44.8009 1.73765 37.2329 6.66227C30.1455 11.3048 23.9566 17.7932 18.6349 25.9881C18.4501 26.2712 18.3261 26.5896 18.271 26.9232C18.2158 27.2567 18.2306 27.5981 18.3144 27.9256C18.3983 28.2532 18.5493 28.5597 18.758 28.8257C18.9667 29.0917 19.2284 29.3114 19.5265 29.4709L22.0585 30.9371L22.2152 28.7917C27.112 21.2341 32.8098 15.4911 39.3365 11.6879C45.1004 8.33399 50.227 7.24389 54.7268 8.29568C55.5739 8.49505 56.4625 8.41919 57.2635 8.07911C58.0645 7.73903 58.7363 7.15244 59.1812 6.40455L59.5991 5.70799C59.8386 5.30652 59.9837 4.85588 60.0236 4.39011C60.0634 3.92434 59.9969 3.4556 59.829 3.0193L60.9261 2.8173Z" fill="#7AA7FF"/>
<path d="M58.6338 1.50948C58.2974 1.28594 57.9196 1.13199 57.5228 1.05672C51.5533 -0.0821393 44.8003 1.75327 37.2322 6.6779C30.8065 10.8746 25.1192 16.6107 20.1667 23.7434C20.1111 24.222 20.1985 24.7064 20.4179 25.1353C20.6373 25.5642 20.9789 25.9186 21.3996 26.1535L23.2698 27.1983C23.5311 26.8222 23.7923 26.446 24.0569 26.0769L24.1022 25.4569C28.999 17.9028 34.6968 12.1563 41.2235 8.35659C46.9874 5.00269 52.1141 3.91258 56.6138 4.96438C57.2019 5.10095 57.813 5.10557 58.4031 4.9779C58.9932 4.85024 59.5478 4.59347 60.0269 4.22603C60.0417 3.81173 59.9743 3.3986 59.8284 3.01055L60.9254 2.819L58.6338 1.50948Z" fill="#67D5B4"/>
<path d="M52.8869 12.0979C52.5442 11.866 52.1516 11.718 51.7411 11.666C47.3702 11.1053 42.4561 12.6586 36.9951 16.4304C32.9307 19.2375 29.3017 22.9014 26.0871 27.3349C26.0742 27.7191 26.1692 28.0993 26.3612 28.4323C26.5533 28.7653 26.8347 29.0378 27.1737 29.2191L27.2155 29.24L29.4375 30.5286C29.5281 30.4067 29.6151 30.2744 29.7092 30.149V29.1355C30.0019 28.957 30.2545 28.7199 30.451 28.439C33.589 23.8173 37.1727 20.2789 41.251 17.8932C44.7338 15.8627 47.8683 15.0756 50.6545 15.4552C51.2575 15.5464 51.8729 15.5091 52.4605 15.3459C53.0481 15.1826 53.5946 14.8971 54.0641 14.5079C54.0816 14.2857 54.071 14.0623 54.0327 13.8427L54.7293 13.7696C54.7955 13.6755 54.8686 13.5885 54.9278 13.4875L55.0114 13.3447L52.8869 12.0979Z" fill="#67D5B4"/>
<path d="M45.2032 35.0897L42.7095 33.6444C42.6455 33.6066 42.5792 33.5728 42.511 33.5434C41.7204 33.1951 40.6616 33.2961 39.4949 33.9718C38.3354 34.688 37.3541 35.6587 36.6251 36.8102C36.1261 37.5684 35.727 38.3878 35.4375 39.2481C35.5464 39.4035 35.6739 39.545 35.8171 39.6695C35.9008 39.7373 35.9893 39.799 36.0818 39.8541H36.1027L36.1828 39.8994L38.8088 41.4074L38.6486 39.8646C38.8796 39.7704 39.1042 39.6611 39.3208 39.5372C41.1736 38.4784 44.5345 37.2978 45.2032 35.0897Z" fill="#67D5B4"/>
<path d="M48.6172 24.165L46.4474 22.9147C46.3254 22.8321 46.1973 22.7588 46.0643 22.6953C45.5645 22.4669 45.0071 22.3952 44.4658 22.4898C40.3387 23.1864 35.7589 26.3766 32.1855 30.7474C32.1992 31.0983 32.3035 31.4397 32.4885 31.7382C32.6735 32.0367 32.9327 32.2821 33.2408 32.4505L33.2791 32.4714L35.4559 33.7356C35.5464 33.6311 35.6404 33.5371 35.731 33.4361V32.2903C35.9081 32.1619 36.0653 32.0082 36.1977 31.834C37.5386 29.932 39.2593 28.3287 41.2512 27.1254C42.7174 26.2686 44.0618 25.8507 45.2738 25.8437C45.9225 25.8391 46.5615 25.6854 47.1413 25.3943C47.721 25.1032 48.226 24.6826 48.6172 24.165Z" fill="#67D5B4"/>
<path d="M42.5771 29.2471L42.5353 29.2227C42.4721 29.1835 42.4056 29.1497 42.3368 29.1217C41.5462 28.7734 40.4874 28.8744 39.3207 29.5466C38.1604 30.2633 37.1789 31.2352 36.4509 32.3885C36.2768 32.6532 36.1026 32.9283 35.9668 33.207C36.9702 32.1352 38.1205 31.2112 39.3834 30.4625C40.3612 29.8584 41.445 29.4459 42.5771 29.2471Z" fill="#67D5B4"/>
<path d="M41.3408 40.3906C40.7076 41.2166 39.9256 41.917 39.0352 42.4559C38.8186 42.5798 38.5941 42.6891 38.363 42.7833L38.5233 44.3261L35.8973 42.8181C35.8694 42.8051 35.8426 42.79 35.8172 42.7728H35.7963C35.7037 42.7177 35.6153 42.656 35.5316 42.5882C35.3482 42.426 35.1918 42.2355 35.0684 42.024C35.076 42.4155 35.1608 42.8016 35.318 43.1602C35.4752 43.5188 35.7016 43.8428 35.9843 44.1137C36.068 44.1815 36.1565 44.2431 36.249 44.2983H36.2699L36.35 44.3436L38.976 45.8516L38.8158 44.3087C39.0468 44.2146 39.2714 44.1052 39.488 43.9813C40.5298 43.3454 41.4258 42.4969 42.1175 41.4912C41.8145 41.1575 41.5536 40.7879 41.3408 40.3906Z" fill="url(#paint0_linear_1886_31423)"/>
<path d="M41.4717 27.8633C40.5769 28.1013 39.7199 28.4635 38.9258 28.9395C36.9332 30.1448 35.2124 31.7506 33.8723 33.6551C33.74 33.8293 33.5827 33.983 33.4056 34.1113V35.7169L30.9677 34.2925L30.9294 34.2716C30.6925 34.1441 30.4831 33.9713 30.3129 33.7631C30.2685 34.1686 30.3466 34.5781 30.5372 34.9388C30.7278 35.2995 31.0221 35.5948 31.3821 35.7866L31.4204 35.8075L33.8584 37.2319V35.6263C34.0363 35.499 34.1937 35.3451 34.3251 35.1701C35.6669 33.2689 37.3874 31.6658 39.3785 30.4614C39.8458 30.1864 40.3323 29.9454 40.8343 29.7405C41.0189 29.1066 41.2523 28.4832 41.4717 27.8633Z" fill="url(#paint1_linear_1886_31423)"/>
<path d="M45.0542 17.3438C42.8842 17.7544 40.8071 18.557 38.9246 19.712C34.8324 22.0977 31.2312 25.6327 28.128 30.2439C27.9303 30.525 27.6766 30.7622 27.3827 30.9404V32.4937L24.8821 31.0623L24.8334 31.0275C24.5916 30.8985 24.3783 30.722 24.2065 30.5086C24.1639 30.917 24.2438 31.3288 24.4361 31.6916C24.6284 32.0545 24.9243 32.3519 25.2861 32.546L25.3279 32.5669L27.8216 34.0122V32.4729C28.1151 32.2881 28.3675 32.0451 28.5634 31.7589C31.6979 27.1512 35.2851 23.6162 39.3774 21.227C41.0227 20.2335 42.8086 19.4938 44.6746 19.0329C44.8174 18.4896 44.9498 17.9149 45.0542 17.3438Z" fill="url(#paint2_linear_1886_31423)"/>
<path d="M48.1301 6.62109C45.2533 7.0843 42.1746 8.25799 38.8834 10.1735C32.3567 13.9627 26.6589 19.7197 21.7482 27.2739L21.5915 29.4192L19.0595 27.953C18.7437 27.7758 18.4722 27.5293 18.2654 27.2321C18.2482 27.6866 18.3584 28.1368 18.5837 28.5319C18.8089 28.9271 19.1402 29.2513 19.5401 29.468L22.0721 30.9342L22.2288 28.7889C27.1116 21.2347 32.8094 15.4917 39.3361 11.6885C41.8165 10.1925 44.5089 9.0805 47.3221 8.39033C47.5728 7.7913 47.841 7.19923 48.1301 6.62109Z" fill="url(#paint3_linear_1886_31423)"/>
<path d="M46.4412 37.832C46.4412 40.5938 44.4456 43.993 41.9833 45.4175C40.5589 46.2429 39.2946 46.2289 38.4797 45.5359C37.8806 45.0344 37.5254 44.1637 37.5254 42.9969C37.5254 41.461 38.1418 39.7301 39.11 38.2499C39.8403 37.0982 40.8228 36.1276 41.9833 35.4115C43.1466 34.7358 44.2088 34.6209 44.9994 34.9831C45.0676 35.0126 45.1339 35.0463 45.1979 35.0841C45.9711 35.5543 46.4412 36.4911 46.4412 37.832Z" fill="url(#paint4_linear_1886_31423)"/>
<path d="M49.7832 28.0484C49.6753 28.226 49.5708 28.3967 49.4733 28.5743C49.1025 29.1943 48.5784 29.7084 47.9513 30.0671C47.3242 30.4257 46.6154 30.6169 45.893 30.6221C44.681 30.6221 43.3332 31.0505 41.8704 31.9038C39.8807 33.1041 38.1603 34.7024 36.8169 36.5986C36.4856 37.0353 36.0092 37.3395 35.4735 37.4564C34.9378 37.5732 34.3781 37.495 33.8949 37.2359L33.8566 37.215C33.5991 37.0773 33.3738 36.8865 33.1954 36.6552C33.0171 36.424 32.8899 36.1576 32.8221 35.8735C32.7543 35.5895 32.7475 35.2943 32.8021 35.0074C32.8568 34.7206 32.9716 34.4486 33.1391 34.2094C36.8343 28.8146 42.1943 24.698 46.9448 23.9144C47.4647 23.8256 47.9992 23.8876 48.485 24.0931C48.9708 24.2985 49.3876 24.6387 49.6862 25.0736C49.9848 25.5084 50.1526 26.0196 50.1697 26.5468C50.1869 27.074 50.0528 27.595 49.7832 28.0484Z" fill="url(#paint5_linear_1886_31423)"/>
<path d="M27.8206 34.0244L27.7788 34.0035C27.5253 33.8663 27.3028 33.6781 27.1255 33.4508C26.9482 33.2234 26.8198 32.9619 26.7485 32.6825C26.6772 32.4031 26.6645 32.1121 26.7111 31.8275C26.7578 31.543 26.8628 31.2712 27.0196 31.0293C30.6034 25.5683 34.7513 21.1452 39.4879 17.8749C44.9488 14.1065 49.863 12.5706 54.2339 13.114C54.675 13.1717 55.0949 13.338 55.456 13.5979C55.8171 13.8579 56.108 14.2034 56.3026 14.6034C56.4973 15.0035 56.5897 15.4456 56.5714 15.8901C56.5532 16.3346 56.4249 16.7677 56.1982 17.1505L55.5295 18.2789C55.0926 18.9921 54.453 19.5589 53.6925 19.9069C52.9319 20.2549 52.0849 20.3684 51.2596 20.2327C48.4734 19.8426 45.3389 20.6297 41.8562 22.6706C37.7639 25.0598 34.1627 28.5913 31.0596 33.2025C30.7172 33.7161 30.1965 34.0844 29.5982 34.2363C28.9999 34.3881 28.3665 34.3126 27.8206 34.0244Z" fill="url(#paint6_linear_1886_31423)"/>
<path d="M62.092 7.14346L61.6706 7.84001C61.2262 8.58762 60.5551 9.17408 59.7546 9.51417C58.9542 9.85426 58.0662 9.93027 57.2196 9.73115C52.7199 8.68632 47.5932 9.76946 41.8293 13.1234C35.2921 16.9405 29.5874 22.7009 24.6837 30.269C24.4083 30.688 23.9859 30.9886 23.4999 31.1118C23.0138 31.2349 22.4993 31.1715 22.0577 30.9342L22.0193 30.9133C21.7209 30.7542 21.4589 30.5347 21.2499 30.2688C21.0408 30.0029 20.8894 29.6965 20.8052 29.3689C20.7211 29.0414 20.706 28.6999 20.7609 28.3662C20.8158 28.0325 20.9396 27.7138 21.1243 27.4305C26.4494 19.2426 32.6348 12.7472 39.7222 8.11863C47.2937 3.16615 54.0468 1.36208 60.0162 2.50094C60.5055 2.59665 60.9646 2.80856 61.3548 3.11883C61.745 3.4291 62.0549 3.82863 62.2584 4.28374C62.4619 4.73885 62.553 5.23621 62.524 5.7339C62.4951 6.23159 62.3469 6.71503 62.092 7.14346Z" fill="url(#paint7_linear_1886_31423)"/>
</g>
<defs>
<linearGradient id="paint0_linear_1886_31423" x1="37.7385" y1="40.8107" x2="38.5653" y2="45.8561" gradientUnits="userSpaceOnUse">
<stop stop-color="#7AA7FF"/>
<stop offset="1" stop-color="#67D5B4"/>
</linearGradient>
<linearGradient id="paint1_linear_1886_31423" x1="34.5322" y1="28.5839" x2="36.0609" y2="37.2009" gradientUnits="userSpaceOnUse">
<stop stop-color="#7AA7FF"/>
<stop offset="1" stop-color="#67D5B4"/>
</linearGradient>
<linearGradient id="paint2_linear_1886_31423" x1="32.0964" y1="18.6259" x2="34.6953" y2="34.0003" gradientUnits="userSpaceOnUse">
<stop stop-color="#7AA7FF"/>
<stop offset="1" stop-color="#67D5B4"/>
</linearGradient>
<linearGradient id="paint3_linear_1886_31423" x1="29.5767" y1="8.49134" x2="33.4345" y2="30.8933" gradientUnits="userSpaceOnUse">
<stop stop-color="#7AA7FF"/>
<stop offset="1" stop-color="#67D5B4"/>
</linearGradient>
<linearGradient id="paint4_linear_1886_31423" x1="40.9026" y1="35.6478" x2="43.5688" y2="45.623" gradientUnits="userSpaceOnUse">
<stop stop-color="#7AA7FF"/>
<stop offset="1" stop-color="#67D5B4"/>
</linearGradient>
<linearGradient id="paint5_linear_1886_31423" x1="39.3587" y1="24.9238" x2="41.4448" y2="37.5132" gradientUnits="userSpaceOnUse">
<stop stop-color="#7AA7FF"/>
<stop offset="1" stop-color="#67D5B4"/>
</linearGradient>
<linearGradient id="paint6_linear_1886_31423" x1="38.0056" y1="14.6467" x2="40.9855" y2="34.4098" gradientUnits="userSpaceOnUse">
<stop stop-color="#7AA7FF"/>
<stop offset="1" stop-color="#67D5B4"/>
</linearGradient>
<linearGradient id="paint7_linear_1886_31423" x1="36.5621" y1="4.40275" x2="40.5151" y2="31.3367" gradientUnits="userSpaceOnUse">
<stop stop-color="#7AA7FF"/>
<stop offset="1" stop-color="#67D5B4"/>
</linearGradient>
<clipPath id="clip0_1886_31423">
<rect width="62.0279" height="45.3211" fill="white" transform="translate(0.503906 0.726562)"/>
</clipPath>
</defs>
</svg>
