<svg width="79" height="79" viewBox="0 0 79 79" fill="none" xmlns="http://www.w3.org/2000/svg">
<g clip-path="url(#clip0_1886_32592)">
<path d="M38.2401 75.6685C59.299 75.6685 76.3707 65.8912 76.3707 53.8303C76.3707 41.7695 59.299 31.9922 38.2401 31.9922C17.1811 31.9922 0.109375 41.7695 0.109375 53.8303C0.109375 65.8912 17.1811 75.6685 38.2401 75.6685Z" fill="#F5F5F5"/>
<path d="M35.6871 77.2782L6.87768 61.1626C6.40536 60.8986 6.40536 60.4683 6.87768 60.2043L48.5265 36.9051C48.7918 36.7749 49.085 36.707 49.3824 36.707C49.6797 36.707 49.9729 36.7749 50.2382 36.9051L79.0315 53.0168C79.5038 53.2828 79.5038 53.7111 79.0315 53.9751L37.3988 77.2782C37.1335 77.4084 36.8403 77.4763 36.5429 77.4763C36.2456 77.4763 35.9524 77.4084 35.6871 77.2782Z" fill="#E9E9EB"/>
<path d="M25.6319 4.75865L24.0938 5.61919C24.1017 5.55428 24.1058 5.48898 24.1059 5.42361V4.98943C24.1059 4.22277 23.5509 3.9118 22.8646 4.29513C22.5683 4.46977 22.3154 4.70548 22.1238 4.98552C22.0108 4.01937 21.2276 3.65951 20.2789 4.19148C19.2515 4.76647 18.4199 6.16289 18.4199 7.32071V7.96807C18.4131 8.22547 18.4669 8.481 18.5774 8.71518L17.2997 9.42903C17.0987 9.55579 16.9315 9.72671 16.8115 9.92789C16.6916 10.1291 16.6223 10.3548 16.6094 10.5869C16.6094 11.0132 16.9182 11.1853 17.2997 10.978L25.6319 6.3174C25.8322 6.19019 25.9989 6.01913 26.1185 5.81801C26.2381 5.61688 26.3071 5.39134 26.3202 5.15958C26.3202 4.71953 26.0114 4.54547 25.6319 4.75865Z" fill="#F5F5F5"/>
<path d="M8.65625 58.9477C8.68016 59.2518 8.77781 59.5461 8.94125 59.8068C9.10469 60.0675 9.32932 60.2871 9.59685 60.4478L35.7359 75.0711C36.025 75.2128 36.3444 75.2867 36.6684 75.2867C36.9924 75.2867 37.3119 75.2128 37.6009 75.0711L76.3291 53.4031C76.6103 53.2584 76.8456 53.0422 77.0097 52.7777C77.1738 52.5133 77.2605 52.2106 77.2605 51.902C77.2605 51.5935 77.1738 51.2907 77.0097 51.0263C76.8456 50.7618 76.6103 50.5457 76.3291 50.401L50.1921 35.7796C49.9029 35.6369 49.583 35.5625 49.2585 35.5625C48.934 35.5625 48.6141 35.6369 48.325 35.7796L9.59685 57.4456C9.32927 57.6068 9.10466 57.8267 8.94123 58.0877C8.77781 58.3487 8.68017 58.6433 8.65625 58.9477Z" fill="#535354"/>
<path d="M36.6596 73.33V75.2858C36.3348 75.2929 36.0137 75.2188 35.727 75.0706L9.59609 60.4473C9.32297 60.3077 9.09293 60.1004 8.92936 59.8465C8.7658 59.5927 8.67455 59.3015 8.66491 59.0024C8.65527 58.7033 8.72759 58.4071 8.87449 58.1438C9.02139 57.8806 9.23763 57.6598 9.50122 57.5039C9.0834 57.7953 9.11569 58.2217 9.59609 58.4818L35.7351 73.1051C36.0187 73.2544 36.3368 73.3318 36.6596 73.33Z" fill="#263238"/>
<path d="M7.78031 57.4786C7.52002 57.3079 7.30502 57.08 7.15279 56.8136C7.00057 56.5471 6.91542 56.2496 6.9043 55.9453V25.7325C6.9217 25.419 7.01523 25.1139 7.17727 24.842C7.33931 24.5701 7.56529 24.3392 7.83682 24.1679L46.5751 2.49007C46.8536 2.34598 47.1635 2.26784 47.4792 2.26206C47.795 2.25629 48.1077 2.32303 48.3917 2.45683C48.652 2.62754 48.867 2.85539 49.0192 3.12184C49.1714 3.38828 49.2565 3.68579 49.2677 3.99015V34.2127C49.2497 34.5263 49.1558 34.8314 48.9934 35.1032C48.831 35.3751 48.6048 35.606 48.3331 35.7773L9.59692 57.4453C9.31848 57.5899 9.00858 57.6683 8.69275 57.6741C8.37692 57.6798 8.06418 57.6128 7.78031 57.4786Z" fill="#E9E9EB"/>
<path d="M9.47978 57.4993C9.21248 57.6164 8.92189 57.6752 8.62855 57.6715C8.33522 57.6678 8.04631 57.6016 7.78226 57.4778C7.52232 57.3067 7.30757 57.0788 7.15539 56.8124C7.0032 56.546 6.91786 56.2487 6.90625 55.9445V25.7317C6.91362 25.4143 7.00614 25.1043 7.17471 24.832L8.92471 25.8099C8.7564 26.0822 8.6639 26.3922 8.65625 26.7096V56.9243C8.65625 57.4582 9.01554 57.6988 9.47978 57.4993Z" fill="#DDDDDF"/>
<path d="M8.65625 26.7132V56.9279C8.65625 57.5029 9.07407 57.7376 9.58878 57.4482L48.325 35.7821C48.5967 35.6108 48.8229 35.3799 48.9852 35.108C49.1476 34.8362 49.2416 34.5311 49.2595 34.2175V3.99301C49.2595 3.41606 48.8417 3.18332 48.325 3.47082L9.59685 25.1486C9.32426 25.3195 9.09705 25.5502 8.93364 25.822C8.77022 26.0939 8.67519 26.3992 8.65625 26.7132Z" fill="#DDDDDF"/>
<path d="M9.59716 58.49L35.7362 73.1114C36.025 73.2541 36.3445 73.3285 36.6687 73.3285C36.9929 73.3285 37.3124 73.2541 37.6012 73.1114L76.3294 51.4434C76.8441 51.1559 76.8441 50.6885 76.3294 50.401L50.1924 35.7796C49.9032 35.6369 49.5833 35.5625 49.2588 35.5625C48.9343 35.5625 48.6144 35.6369 48.3253 35.7796L9.59716 57.4456C9.07438 57.7351 9.07438 58.1986 9.59716 58.49Z" fill="white"/>
<path d="M10.0923 26.2975L47.5448 5.35115C47.8556 5.17904 48.1059 5.3179 48.1059 5.66407V33.5553C48.0956 33.7437 48.0394 33.9269 47.9418 34.0901C47.8443 34.2533 47.7082 34.3917 47.5448 34.4941L10.0923 55.4326C9.78349 55.6067 9.5332 55.4659 9.5332 55.1197V27.2362C9.5436 27.0482 9.59966 26.8651 9.69681 26.702C9.79396 26.5389 9.92947 26.4003 10.0923 26.2975Z" fill="#67D5B4"/>
<path opacity="0.4" d="M10.0923 26.2975L47.5448 5.35115C47.8556 5.17904 48.1059 5.3179 48.1059 5.66407V33.5553C48.0956 33.7437 48.0394 33.9269 47.9418 34.0901C47.8443 34.2533 47.7082 34.3917 47.5448 34.4941L10.0923 55.4326C9.78349 55.6067 9.5332 55.4659 9.5332 55.1197V27.2362C9.5436 27.0482 9.59966 26.8651 9.69681 26.702C9.79396 26.5389 9.92947 26.4003 10.0923 26.2975Z" fill="#535354"/>
<path d="M12.6254 57.7064L48.7962 37.4758C48.9405 37.4044 49.1003 37.3672 49.2624 37.3672C49.4245 37.3672 49.5843 37.4044 49.7287 37.4758L51.4262 38.4244C51.6846 38.5691 51.6846 38.8019 51.4262 38.9466L15.2494 59.1751C15.105 59.2466 14.9452 59.2838 14.7831 59.2838C14.621 59.2838 14.4613 59.2466 14.3169 59.1751L12.6254 58.2285C12.367 58.0838 12.367 57.8511 12.6254 57.7064Z" fill="#E9E9EB"/>
<path d="M16.9986 60.1554L53.1674 39.9248C53.3122 39.8536 53.4723 39.8164 53.6347 39.8164C53.797 39.8164 53.9571 39.8536 54.1019 39.9248L64.5454 45.7667C64.8018 45.9115 64.8018 46.1442 64.5454 46.2889L28.415 66.494C28.2705 66.5648 28.1108 66.6017 27.9488 66.6017C27.7868 66.6017 27.6271 66.5648 27.4825 66.494L17.0007 60.6775C16.7423 60.5328 16.7423 60.3001 16.9986 60.1554Z" fill="#DEDEDE"/>
<path d="M48.7831 48.5277L49.9215 47.8921C49.9699 47.8647 49.972 47.8217 49.9215 47.7943L48.7205 47.1215C48.6934 47.109 48.6638 47.1025 48.6337 47.1025C48.6037 47.1025 48.574 47.109 48.5469 47.1215L47.4085 47.7591C47.3601 47.7845 47.3581 47.8295 47.4085 47.8549L48.6095 48.5277C48.6366 48.5402 48.6663 48.5467 48.6963 48.5467C48.7263 48.5467 48.756 48.5402 48.7831 48.5277ZM46.8312 46.1632L45.6928 46.7988C45.6444 46.8262 45.6444 46.8692 45.6928 46.8966L46.9039 47.5694C46.931 47.5819 46.9607 47.5884 46.9907 47.5884C47.0207 47.5884 47.0504 47.5819 47.0775 47.5694L48.2159 46.9338C48.2644 46.9064 48.2644 46.8614 48.2159 46.836L47.0048 46.1632C46.9777 46.1507 46.9481 46.1442 46.918 46.1442C46.888 46.1442 46.8584 46.1507 46.8312 46.1632ZM43.1536 48.2265L41.226 49.3041C41.1775 49.3315 41.1755 49.3746 41.226 49.4019L42.427 50.0747C42.4541 50.0872 42.4837 50.0937 42.5138 50.0937C42.5438 50.0937 42.5734 50.0872 42.6006 50.0747L44.5282 48.9971C44.5766 48.9697 44.5766 48.9267 44.5282 48.8993L43.3171 48.2265C43.2916 48.2147 43.2637 48.2086 43.2354 48.2086C43.2071 48.2086 43.1791 48.2147 43.1536 48.2265ZM45.1721 47.1L44.0316 47.7356C43.9852 47.763 43.9832 47.808 44.0316 47.8334L45.2326 48.5062C45.2597 48.5187 45.2894 48.5252 45.3194 48.5252C45.3495 48.5252 45.3791 48.5187 45.4062 48.5062L46.5446 47.8706C46.5931 47.8432 46.5951 47.8002 46.5446 47.7728L45.3436 47.1C45.3167 47.0863 45.2869 47.0786 45.2565 47.0776C45.2261 47.0766 45.1959 47.0822 45.168 47.0941L45.1721 47.1ZM40.6992 49.5956L39.5608 50.2312C39.5123 50.2586 39.5123 50.3016 39.5608 50.329L40.7718 51.0018C40.799 51.0143 40.8286 51.0208 40.8586 51.0208C40.8887 51.0208 40.9183 51.0143 40.9454 51.0018L42.0838 50.3642C42.094 50.3607 42.1029 50.3542 42.1091 50.3456C42.1154 50.337 42.1187 50.3268 42.1187 50.3163C42.1187 50.3058 42.1154 50.2955 42.1091 50.2869C42.1029 50.2784 42.094 50.2719 42.0838 50.2683L40.8829 49.5956C40.8544 49.5815 40.8229 49.5741 40.791 49.5741C40.7591 49.5741 40.7276 49.5815 40.6992 49.5956ZM39.036 50.5265L37.8976 51.1602C37.8491 51.1876 37.8471 51.2306 37.8976 51.258L39.1086 51.9308C39.1357 51.9433 39.1654 51.9498 39.1954 51.9498C39.2255 51.9498 39.2551 51.9433 39.2822 51.9308L40.4206 51.2951C40.4691 51.2677 40.4711 51.2228 40.4206 51.1973L39.2196 50.5246C39.1912 50.5105 39.1597 50.5031 39.1278 50.5031C39.0959 50.5031 39.0644 50.5105 39.036 50.5246V50.5265ZM43.7551 53.2646L44.8935 52.627C44.942 52.5996 44.944 52.5566 44.8935 52.5292L43.6925 51.8584C43.6657 51.8448 43.636 51.8378 43.6058 51.8378C43.5755 51.8378 43.5458 51.8448 43.519 51.8584L42.3805 52.496C42.3321 52.5233 42.3301 52.5664 42.3805 52.5938L43.5916 53.2646C43.6173 53.2762 43.6453 53.2821 43.6736 53.2818C43.7019 53.2814 43.7298 53.2749 43.7551 53.2626V53.2646ZM42.0939 54.1936L43.2323 53.556C43.2808 53.5286 43.2808 53.4856 43.2323 53.4582L42.0213 52.7874C41.9945 52.7738 41.9647 52.7668 41.9345 52.7668C41.9042 52.7668 41.8745 52.7738 41.8477 52.7874L40.7093 53.425C40.6608 53.4523 40.6608 53.4954 40.7093 53.5227L41.9203 54.1936C41.9471 54.2071 41.9769 54.2142 42.0071 54.2142C42.0374 54.2142 42.0671 54.2071 42.0939 54.1936ZM40.4287 55.1245L41.5671 54.4869C41.6156 54.4596 41.6176 54.4165 41.5671 54.3911L40.3661 53.7183C40.3393 53.7048 40.3096 53.6977 40.2793 53.6977C40.2491 53.6977 40.2193 53.7048 40.1925 53.7183L39.0521 54.3559C39.0057 54.3833 39.0037 54.4263 39.0521 54.4537L40.2531 55.1245C40.2799 55.1381 40.3097 55.1451 40.3399 55.1451C40.3701 55.1451 40.3999 55.1381 40.4267 55.1245H40.4287ZM38.7615 56.0496L39.9019 55.412C39.9503 55.3846 39.9503 55.3416 39.9019 55.3162L38.7009 54.6434C38.6738 54.6309 38.6441 54.6244 38.6141 54.6244C38.5841 54.6244 38.5544 54.6309 38.5273 54.6434L37.3889 55.281C37.3405 55.3084 37.3405 55.3514 37.3889 55.3788L38.5899 56.0496C38.6164 56.0628 38.6458 56.0697 38.6757 56.0697C38.7055 56.0697 38.7349 56.0628 38.7615 56.0496ZM47.1199 49.4587L48.2583 48.823C48.3067 48.7956 48.3067 48.7526 48.2583 48.7252L47.0472 48.0525C47.0201 48.0399 46.9905 48.0335 46.9604 48.0335C46.9304 48.0335 46.9007 48.0399 46.8736 48.0525L45.7352 48.69C45.725 48.6936 45.7162 48.7 45.7099 48.7086C45.7037 48.7172 45.7003 48.7275 45.7003 48.738C45.7003 48.7485 45.7037 48.7587 45.7099 48.7673C45.7162 48.7759 45.725 48.7824 45.7352 48.7859L46.9463 49.4587C46.9731 49.4722 47.0029 49.4793 47.0331 49.4793C47.0633 49.4793 47.0931 49.4722 47.1199 49.4587ZM45.4203 52.3336L47.9596 50.9118C48.008 50.8844 48.01 50.8414 47.9596 50.814L45.0409 49.1829C45.0141 49.1694 44.9843 49.1623 44.9541 49.1623C44.9239 49.1623 44.8941 49.1694 44.8673 49.1829L43.5533 49.9183C43.5048 49.9456 43.5048 49.9887 43.5533 50.016L45.0994 50.8805C45.1458 50.9059 45.1458 50.949 45.0994 50.9763L44.0478 51.5631C43.9993 51.5904 43.9993 51.6335 44.0478 51.6589L45.2589 52.3317C45.2839 52.3436 45.3114 52.35 45.3394 52.3503C45.3673 52.3507 45.395 52.345 45.4203 52.3336ZM37.3707 51.4575L36.2404 52.0911C36.192 52.1185 36.192 52.1635 36.2404 52.1889L37.4515 52.8617C37.4786 52.8742 37.5082 52.8807 37.5383 52.8807C37.5683 52.8807 37.598 52.8742 37.6251 52.8617L38.7635 52.2261C38.8119 52.1987 38.8119 52.1557 38.7635 52.1283L37.5524 51.4555C37.5242 51.4417 37.4931 51.4346 37.4616 51.4346C37.43 51.4346 37.3989 51.4417 37.3707 51.4555V51.4575ZM35.7075 52.3884L34.5671 53.024C34.5207 53.0514 34.5187 53.0964 34.5671 53.1218L35.7681 53.7946C35.7952 53.8071 35.8248 53.8136 35.8549 53.8136C35.8849 53.8136 35.9146 53.8071 35.9417 53.7946L37.0801 53.159C37.1285 53.1316 37.1305 53.0886 37.0801 53.0612L35.8791 52.3884C35.8524 52.3759 35.8232 52.3692 35.7935 52.3689C35.7639 52.3685 35.7345 52.3745 35.7075 52.3864V52.3884ZM26.9394 62.576C26.9658 62.5896 26.9952 62.5966 27.0251 62.5966C27.055 62.5966 27.0845 62.5896 27.1109 62.576L28.2513 61.9404C28.2623 61.9374 28.272 61.9309 28.2788 61.9221C28.2857 61.9133 28.2894 61.9025 28.2894 61.8915C28.2894 61.8804 28.2857 61.8697 28.2788 61.8609C28.272 61.8521 28.2623 61.8456 28.2513 61.8426L27.0504 61.1698C27.0233 61.1573 26.9936 61.1508 26.9636 61.1508C26.9335 61.1508 26.9039 61.1573 26.8768 61.1698L25.7444 61.8054C25.7342 61.809 25.7254 61.8155 25.7191 61.824C25.7129 61.8326 25.7095 61.8429 25.7095 61.8534C25.7095 61.8639 25.7129 61.8741 25.7191 61.8827C25.7254 61.8913 25.7342 61.8978 25.7444 61.9013L26.9394 62.576ZM22.3918 59.8379L21.2534 60.4755C21.2049 60.5029 21.2049 60.5459 21.2534 60.5733L22.4644 61.2441C22.4912 61.2577 22.521 61.2647 22.5512 61.2647C22.5814 61.2647 22.6112 61.2577 22.638 61.2441L23.7784 60.6066C23.8269 60.5792 23.8269 60.5361 23.7784 60.5107L22.5674 59.8379C22.5407 59.8235 22.5107 59.8155 22.4801 59.8149C22.4495 59.8142 22.4191 59.8208 22.3918 59.834V59.8379ZM24.7836 61.8622C24.8108 61.8747 24.8404 61.8812 24.8704 61.8812C24.9005 61.8812 24.9301 61.8747 24.9572 61.8622L26.0956 61.2246C26.1441 61.1972 26.1441 61.1542 26.0956 61.1268L24.8846 60.456C24.8581 60.4424 24.8287 60.4354 24.7988 60.4354C24.7689 60.4354 24.7394 60.4424 24.713 60.456L23.5726 61.0935C23.5241 61.1209 23.5241 61.164 23.5726 61.1894L24.7836 61.8622ZM29.7046 63.0474L30.843 62.4098C30.8915 62.3824 30.8935 62.3394 30.843 62.3139L29.632 61.6412C29.6049 61.6286 29.5752 61.6222 29.5452 61.6222C29.5152 61.6222 29.4855 61.6286 29.4584 61.6412L28.32 62.2787C28.2715 62.3061 28.2695 62.3492 28.32 62.3765L29.521 63.0474C29.5494 63.062 29.5812 63.0694 29.6133 63.0687C29.6455 63.068 29.6769 63.0593 29.7046 63.0435V63.0474ZM27.8678 63.9803C27.8944 63.9933 27.9238 64.0001 27.9536 64.0001C27.9834 64.0001 28.0128 63.9933 28.0394 63.9803L29.1798 63.3427C29.2283 63.3153 29.2283 63.2723 29.1798 63.2468L27.9688 62.5741C27.9417 62.5616 27.912 62.5551 27.882 62.5551C27.8519 62.5551 27.8223 62.5616 27.7952 62.5741L26.6568 63.2116C26.6083 63.239 26.6083 63.2821 26.6568 63.3094L27.8678 63.9803ZM24.057 58.907L22.9186 59.5407C22.8701 59.568 22.8681 59.6111 22.9186 59.6385L24.1297 60.3093C24.1565 60.3228 24.1862 60.3299 24.2165 60.3299C24.2467 60.3299 24.2764 60.3228 24.3032 60.3093L25.4417 59.6717C25.4901 59.6443 25.4921 59.6013 25.4417 59.5759L24.2306 58.9031C24.2038 58.8895 24.174 58.8825 24.1438 58.8825C24.1136 58.8825 24.0838 58.8895 24.057 58.9031V58.907ZM32.3791 54.2523L31.2387 54.8898C31.2285 54.8934 31.2196 54.8998 31.2134 54.9084C31.2071 54.917 31.2038 54.9272 31.2038 54.9378C31.2038 54.9483 31.2071 54.9585 31.2134 54.9671C31.2196 54.9757 31.2285 54.9822 31.2387 54.9857L32.4497 55.6585C32.4769 55.671 32.5065 55.6775 32.5365 55.6775C32.5666 55.6775 32.5962 55.671 32.6233 55.6585L33.7617 55.0209C33.8102 54.9935 33.8102 54.9505 33.7617 54.9231L32.5507 54.2503C32.5242 54.2369 32.4949 54.2298 32.4651 54.2295C32.4353 54.2291 32.4058 54.2356 32.3791 54.2483V54.2523ZM25.7182 57.9682L24.5798 58.6058C24.5313 58.6332 24.5313 58.6762 24.5798 58.7016L25.7908 59.3744C25.8176 59.388 25.8474 59.395 25.8776 59.395C25.9079 59.395 25.9376 59.388 25.9644 59.3744L27.1028 58.7368C27.1513 58.7095 27.1513 58.6664 27.1028 58.639L25.8918 57.9682C25.8649 57.9556 25.8353 57.9494 25.8055 57.9501C25.7757 57.9507 25.7464 57.9583 25.7202 57.9721L25.7182 57.9682ZM34.0423 53.3115L32.9039 53.9491C32.8937 53.9526 32.8848 53.9591 32.8786 53.9677C32.8723 53.9763 32.869 53.9865 32.869 53.997C32.869 54.0075 32.8723 54.0178 32.8786 54.0263C32.8848 54.0349 32.8937 54.0414 32.9039 54.0449L34.1049 54.7177C34.132 54.7302 34.1616 54.7367 34.1917 54.7367C34.2217 54.7367 34.2513 54.7302 34.2785 54.7177L35.4189 54.0821C35.4299 54.0791 35.4395 54.0727 35.4464 54.0638C35.4532 54.055 35.457 54.0443 35.457 54.0332C35.457 54.0222 35.4532 54.0114 35.4464 54.0026C35.4395 53.9938 35.4299 53.9873 35.4189 53.9843L34.2219 53.3115C34.194 53.2981 34.1633 53.2911 34.1321 53.2911C34.101 53.2911 34.0702 53.2981 34.0423 53.3115ZM30.7139 55.1734L29.5795 55.8169C29.5311 55.8443 29.529 55.8873 29.5795 55.9127L30.7805 56.5855C30.8076 56.598 30.8372 56.6045 30.8673 56.6045C30.8973 56.6045 30.927 56.598 30.9541 56.5855L32.0925 55.9479C32.1409 55.9205 32.1429 55.8775 32.0925 55.8501L30.8814 55.1773C30.855 55.166 30.8263 55.1603 30.7974 55.1607C30.7685 55.161 30.74 55.1674 30.7139 55.1793V55.1734ZM29.0486 56.1044L27.9102 56.742C27.8618 56.7693 27.8618 56.8124 27.9102 56.8378L29.1213 57.5106C29.1484 57.5231 29.1781 57.5296 29.2081 57.5296C29.2381 57.5296 29.2678 57.5231 29.2949 57.5106L30.4333 56.873C30.4817 56.8456 30.4817 56.8026 30.4333 56.7752L29.2222 56.1044C29.1949 56.0917 29.1649 56.0857 29.1347 56.0867C29.1045 56.0877 29.0749 56.0958 29.0486 56.1102V56.1044ZM27.3854 57.0353L26.247 57.6729C26.1986 57.7003 26.1966 57.7433 26.247 57.7687L27.4581 58.4415C27.4849 58.4551 27.5147 58.4621 27.5449 58.4621C27.5751 58.4621 27.6049 58.4551 27.6317 58.4415L28.7701 57.8039C28.8185 57.7766 28.8206 57.7335 28.7701 57.7061L27.561 57.0412C27.534 57.0273 27.5038 57.0201 27.4732 57.0201C27.4426 57.0201 27.4125 57.0273 27.3854 57.0412V57.0353ZM35.433 57.9174L36.5714 57.2798C36.6199 57.2544 36.6219 57.2094 36.5714 57.184L35.3604 56.5112C35.3336 56.4976 35.3038 56.4906 35.2736 56.4906C35.2433 56.4906 35.2136 56.4976 35.1868 56.5112L34.0484 57.1468C33.9999 57.1742 33.9979 57.2172 34.0484 57.2446L35.2493 57.9174C35.2778 57.9314 35.3092 57.9388 35.3412 57.9388C35.3731 57.9388 35.4046 57.9314 35.433 57.9174ZM50.5109 44.1037L49.3725 44.7413C49.324 44.7687 49.322 44.8117 49.3725 44.8391L50.5735 45.51C50.6003 45.5235 50.63 45.5306 50.6603 45.5306C50.6905 45.5306 50.7203 45.5235 50.7471 45.51L51.8855 44.8724C51.9339 44.845 51.9359 44.802 51.8855 44.7765L50.6845 44.1037C50.6577 44.0902 50.6279 44.0831 50.5977 44.0831C50.5675 44.0831 50.5377 44.0902 50.5109 44.1037ZM48.4924 45.2322L47.354 45.8679C47.3056 45.8952 47.3036 45.9383 47.354 45.9656L48.5651 46.6384C48.5922 46.6509 48.6219 46.6574 48.6519 46.6574C48.6819 46.6574 48.7116 46.6509 48.7387 46.6384L49.8771 46.0008C49.9255 45.9754 49.9276 45.9304 49.8771 45.905L48.6761 45.2322C48.6482 45.2188 48.6175 45.2118 48.5863 45.2118C48.5551 45.2118 48.5244 45.2188 48.4965 45.2322H48.4924ZM52.1862 43.1728L51.0458 43.8104C50.9973 43.8378 50.9973 43.8808 51.0458 43.9082L52.2569 44.579C52.2837 44.5925 52.3134 44.5996 52.3437 44.5996C52.3739 44.5996 52.4036 44.5925 52.4304 44.579L53.5689 43.9414C53.6173 43.914 53.6173 43.871 53.5689 43.8436L52.3679 43.1728C52.3401 43.1579 52.3088 43.1501 52.277 43.1501C52.2453 43.1501 52.214 43.1579 52.1862 43.1728ZM43.2646 51.6159L44.403 50.9783C44.4515 50.9509 44.4535 50.9079 44.403 50.8825L43.2021 50.2097C43.1753 50.1961 43.1455 50.1891 43.1153 50.1891C43.085 50.1891 43.0553 50.1961 43.0285 50.2097L41.8921 50.8473C41.8436 50.8746 41.8416 50.9177 41.8921 50.945L43.0931 51.6159C43.1196 51.6291 43.149 51.636 43.1788 51.636C43.2087 51.636 43.2381 51.6291 43.2646 51.6159ZM54.0129 42.2419C53.9861 42.2283 53.9563 42.2212 53.9261 42.2212C53.8959 42.2212 53.8661 42.2283 53.8393 42.2419L52.7009 42.8794C52.6525 42.9068 52.6525 42.9498 52.7009 42.9772L53.912 43.6481C53.9384 43.6616 53.9679 43.6687 53.9978 43.6687C54.0277 43.6687 54.0571 43.6616 54.0836 43.6481L55.224 43.0105C55.235 43.0074 55.2446 43.001 55.2515 42.9922C55.2583 42.9834 55.2621 42.9726 55.2621 42.9616C55.2621 42.9505 55.2583 42.9398 55.2515 42.931C55.2446 42.9221 55.235 42.9157 55.224 42.9127L54.0129 42.2419ZM37.0982 56.9864L38.2367 56.3488C38.2851 56.3215 38.2851 56.2784 38.2367 56.253L37.0256 55.5802C36.999 55.5672 36.9696 55.5604 36.9398 55.5604C36.91 55.5604 36.8806 55.5672 36.854 55.5802L35.7136 56.2178C35.6651 56.2452 35.6651 56.2882 35.7136 56.3156L36.9247 56.9884C36.9519 57.0006 36.9817 57.0067 37.0117 57.0064C37.0417 57.0061 37.0713 56.9992 37.0982 56.9864ZM57.5089 45.5686L58.6473 44.931C58.6957 44.9037 58.6957 44.8606 58.6473 44.8352L57.4362 44.1624C57.4091 44.1499 57.3795 44.1434 57.3494 44.1434C57.3194 44.1434 57.2897 44.1499 57.2626 44.1624L56.1242 44.8C56.0758 44.8274 56.0758 44.8704 56.1242 44.8978L57.3353 45.5686C57.3621 45.5822 57.3919 45.5892 57.4221 45.5892C57.4523 45.5892 57.4821 45.5822 57.5089 45.5686ZM54.128 45.5393L55.2664 44.9017C55.3148 44.8743 55.3148 44.8313 55.2664 44.8059L54.0553 44.1331C54.0282 44.1206 53.9985 44.1141 53.9685 44.1141C53.9385 44.1141 53.9088 44.1206 53.8817 44.1331L52.7433 44.7707C52.6949 44.798 52.6949 44.8411 52.7433 44.8685L53.9544 45.5393C53.9812 45.5528 54.011 45.5599 54.0412 45.5599C54.0714 45.5599 54.1012 45.5528 54.128 45.5393ZM55.7306 43.2021C55.7038 43.1886 55.6741 43.1815 55.6438 43.1815C55.6136 43.1815 55.5838 43.1886 55.557 43.2021L54.4186 43.8397C54.3702 43.8671 54.3682 43.9101 54.4186 43.9375L55.6176 44.6083C55.6444 44.6219 55.6742 44.6289 55.7044 44.6289C55.7346 44.6289 55.7644 44.6219 55.7912 44.6083L56.9296 43.9708C56.978 43.9434 56.98 43.9003 56.9296 43.8749L55.7306 43.2021ZM56.0798 43.0066L58.9985 44.6377C59.0253 44.6512 59.0551 44.6583 59.0853 44.6583C59.1155 44.6583 59.1453 44.6512 59.1721 44.6377L60.3105 44.0001C60.3589 43.9727 60.361 43.9297 60.3105 43.9043L57.3918 42.2712C57.365 42.2577 57.3352 42.2506 57.305 42.2506C57.2748 42.2506 57.245 42.2577 57.2182 42.2712L56.0798 42.9088C56.0334 42.9459 56.0334 42.9792 56.0798 43.0066ZM52.2286 45.064L51.0882 45.7016C51.0772 45.7047 51.0676 45.7111 51.0607 45.7199C51.0538 45.7287 51.0501 45.7395 51.0501 45.7505C51.0501 45.7616 51.0538 45.7723 51.0607 45.7811C51.0676 45.79 51.0772 45.7964 51.0882 45.7994L52.2892 46.4702C52.316 46.4838 52.3457 46.4908 52.3759 46.4908C52.4062 46.4908 52.4359 46.4838 52.4627 46.4702L53.6012 45.8327C53.6496 45.8053 53.6496 45.7622 53.6012 45.7368L52.4002 45.064C52.3733 45.0518 52.344 45.0455 52.3144 45.0455C52.2847 45.0455 52.2554 45.0518 52.2286 45.064ZM39.7021 52.0716L38.5616 52.7092C38.5507 52.7122 38.541 52.7186 38.5341 52.7274C38.5273 52.7362 38.5236 52.747 38.5236 52.758C38.5236 52.7691 38.5273 52.7798 38.5341 52.7887C38.541 52.7975 38.5507 52.8039 38.5616 52.8069L39.7626 53.4797C39.7897 53.4922 39.8194 53.4987 39.8494 53.4987C39.8794 53.4987 39.9091 53.4922 39.9362 53.4797L41.0746 52.8421C41.123 52.8148 41.123 52.7717 41.0746 52.7463L39.8635 52.0735C39.8382 52.0624 39.8108 52.0566 39.783 52.0562C39.7552 52.0559 39.7277 52.0611 39.7021 52.0716ZM55.6701 46.5015C55.6972 46.514 55.7268 46.5205 55.7569 46.5205C55.7869 46.5205 55.8165 46.514 55.8437 46.5015L56.9821 45.8639C57.0305 45.8366 57.0325 45.7935 56.9821 45.7681L55.7831 45.0973C55.756 45.0848 55.7263 45.0783 55.6963 45.0783C55.6663 45.0783 55.6366 45.0848 55.6095 45.0973L54.4711 45.7349C54.4227 45.7622 54.4206 45.8053 54.4711 45.8327L55.6701 46.5015ZM41.3653 51.1406L40.2269 51.7782C40.1784 51.8056 40.1784 51.8486 40.2269 51.876L41.4379 52.5468C41.4647 52.5604 41.4945 52.5674 41.5247 52.5674C41.5549 52.5674 41.5847 52.5604 41.6115 52.5468L42.7499 51.9092C42.7984 51.8819 42.7984 51.8388 42.7499 51.8134L41.5389 51.1406C41.5117 51.1281 41.4821 51.1216 41.4521 51.1216C41.422 51.1216 41.3924 51.1281 41.3653 51.1406ZM28.6026 61.6431C28.6297 61.6556 28.6593 61.6621 28.6894 61.6621C28.7194 61.6621 28.749 61.6556 28.7761 61.6431L29.9146 61.0075C29.963 60.9801 29.965 60.9371 29.9146 60.9097L28.7136 60.2369C28.6865 60.2244 28.6568 60.2179 28.6268 60.2179C28.5968 60.2179 28.5671 60.2244 28.54 60.2369L27.4016 60.8725C27.3531 60.8999 27.3511 60.9449 27.4016 60.9703L28.6026 61.6431ZM26.3823 59.5211L25.2479 60.1567C25.2377 60.1602 25.2288 60.1667 25.2226 60.1753C25.2163 60.1839 25.213 60.1941 25.213 60.2046C25.213 60.2151 25.2163 60.2254 25.2226 60.234C25.2288 60.2426 25.2377 60.249 25.2479 60.2526L26.4489 60.9253C26.476 60.9379 26.5056 60.9444 26.5357 60.9444C26.5657 60.9444 26.5953 60.9379 26.6225 60.9253L27.7629 60.2878C27.7738 60.2847 27.7835 60.2783 27.7904 60.2695C27.7972 60.2607 27.8009 60.2499 27.8009 60.2389C27.8009 60.2278 27.7972 60.2171 27.7904 60.2083C27.7835 60.1994 27.7738 60.193 27.7629 60.19L26.5518 59.5172C26.5255 59.5065 26.4971 59.5013 26.4686 59.502C26.4401 59.5026 26.412 59.5092 26.3863 59.5211H26.3823ZM30.4373 60.7102L31.5757 60.0746C31.6242 60.0472 31.6242 60.0042 31.5757 59.9768L30.3647 59.304C30.3376 59.2915 30.3079 59.285 30.2779 59.285C30.2479 59.285 30.2182 59.2915 30.1911 59.304L29.0527 59.9396C29.0042 59.967 29.0042 60.01 29.0527 60.0374L30.2638 60.7102C30.2914 60.7233 30.3218 60.7302 30.3526 60.7302C30.3833 60.7302 30.4137 60.7233 30.4414 60.7102H30.4373ZM32.1005 59.7793L33.239 59.1436C33.2874 59.1163 33.2894 59.0713 33.239 59.0459L32.038 58.3731C32.0109 58.3606 31.9812 58.3541 31.9512 58.3541C31.9212 58.3541 31.8915 58.3606 31.8644 58.3731L30.726 59.0087C30.6775 59.0361 30.6755 59.0791 30.726 59.1065L31.937 59.7793C31.9633 59.7909 31.9919 59.7969 32.0208 59.7969C32.0497 59.7969 32.0783 59.7909 32.1046 59.7793H32.1005ZM33.7658 58.8483L34.9042 58.2107C34.9144 58.2072 34.9232 58.2007 34.9295 58.1921C34.9357 58.1836 34.9391 58.1733 34.9391 58.1628C34.9391 58.1523 34.9357 58.1421 34.9295 58.1335C34.9232 58.1249 34.9144 58.1184 34.9042 58.1149L33.6931 57.4421C33.666 57.4296 33.6363 57.4231 33.6063 57.4231C33.5763 57.4231 33.5466 57.4296 33.5195 57.4421L32.4053 58.0797C32.3569 58.1071 32.3569 58.1501 32.4053 58.1775L33.6164 58.8503C33.6658 58.8692 33.7209 58.8685 33.7698 58.8483H33.7658ZM28.0515 58.5921L26.9111 59.2297C26.9009 59.2332 26.892 59.2397 26.8858 59.2483C26.8795 59.2569 26.8762 59.2671 26.8762 59.2776C26.8762 59.2881 26.8795 59.2984 26.8858 59.3069C26.892 59.3155 26.9009 59.322 26.9111 59.3255L28.1121 59.9983C28.1389 60.0119 28.1686 60.0189 28.1989 60.0189C28.2291 60.0189 28.2589 60.0119 28.2857 59.9983L29.4241 59.3627C29.4725 59.3353 29.4745 59.2923 29.4241 59.2649L28.213 58.5921C28.1875 58.5813 28.16 58.5758 28.1323 58.5758C28.1045 58.5758 28.077 58.5813 28.0515 58.5921ZM29.7147 57.6612L28.5703 58.2968C28.5601 58.3003 28.5512 58.3068 28.545 58.3154C28.5387 58.324 28.5354 58.3342 28.5354 58.3447C28.5354 58.3552 28.5387 58.3655 28.545 58.374C28.5512 58.3826 28.5601 58.3891 28.5703 58.3926L29.7813 59.0654C29.8085 59.0779 29.8381 59.0844 29.8681 59.0844C29.8982 59.0844 29.9278 59.0779 29.9549 59.0654L31.0933 58.4298C31.1418 58.4024 31.1418 58.3594 31.0933 58.332L29.8823 57.6592C29.856 57.6476 29.8274 57.6416 29.7985 57.6416C29.7696 57.6416 29.741 57.6476 29.7147 57.6592V57.6612ZM36.3756 53.9452L35.2312 54.571C35.1827 54.5984 35.1827 54.6415 35.2312 54.6688L36.4422 55.3416C36.4694 55.3541 36.499 55.3606 36.529 55.3606C36.5591 55.3606 36.5887 55.3541 36.6158 55.3416L37.7542 54.704C37.7645 54.7005 37.7733 54.694 37.7795 54.6854C37.7858 54.6769 37.7892 54.6666 37.7892 54.6561C37.7892 54.6456 37.7858 54.6354 37.7795 54.6268C37.7733 54.6182 37.7645 54.6117 37.7542 54.6082L36.5432 53.9354C36.517 53.9222 36.4879 53.9153 36.4584 53.9153C36.4289 53.9153 36.3998 53.9222 36.3736 53.9354L36.3756 53.9452ZM34.7084 54.8761L33.57 55.5118C33.5215 55.5392 33.5195 55.5822 33.57 55.6096L34.7811 56.2823C34.8082 56.2949 34.8378 56.3013 34.8679 56.3013C34.8979 56.3013 34.9275 56.2949 34.9546 56.2823L36.0931 55.6467C36.1415 55.6193 36.1435 55.5744 36.0931 55.5489L34.8921 54.8761C34.8636 54.8621 34.8322 54.8547 34.8002 54.8547C34.7683 54.8547 34.7368 54.8621 34.7084 54.8761ZM38.0368 53.0123L36.8984 53.6499C36.85 53.6773 36.85 53.7203 36.8984 53.7477L38.0994 54.4205C38.1265 54.433 38.1562 54.4395 38.1862 54.4395C38.2162 54.4395 38.2459 54.433 38.273 54.4205L39.4134 53.7829C39.4236 53.7794 39.4325 53.7729 39.4387 53.7643C39.445 53.7557 39.4483 53.7455 39.4483 53.735C39.4483 53.7245 39.445 53.7142 39.4387 53.7056C39.4325 53.697 39.4236 53.6906 39.4134 53.687L38.2023 53.0143C38.1772 53.001 38.1494 52.9932 38.1209 52.9911C38.0924 52.9891 38.0637 52.993 38.0368 53.0025V53.0123ZM31.3759 56.738L30.2375 57.3737C30.1891 57.401 30.187 57.446 30.2375 57.4715L31.4385 58.1442C31.4656 58.1567 31.4953 58.1632 31.5253 58.1632C31.5553 58.1632 31.585 58.1567 31.6121 58.1442L32.7505 57.5086C32.7989 57.4812 32.801 57.4382 32.7505 57.4108L31.5495 56.738C31.5237 56.7246 31.4951 56.7167 31.4658 56.715C31.4366 56.7133 31.4073 56.7179 31.38 56.7283L31.3759 56.738ZM33.0391 55.8071L31.9048 56.4408C31.8563 56.4681 31.8563 56.5112 31.9048 56.5386L33.1158 57.2113C33.1429 57.2238 33.1726 57.2303 33.2026 57.2303C33.2327 57.2303 33.2623 57.2238 33.2894 57.2113L34.4278 56.5757C34.4763 56.5483 34.4763 56.5033 34.4278 56.4779L33.2168 55.8051C33.1902 55.7914 33.1609 55.7836 33.1309 55.7822C33.1008 55.7808 33.0709 55.786 33.0432 55.7973L33.0391 55.8071ZM31.3699 62.1125L32.5083 61.4749C32.5567 61.4475 32.5567 61.4045 32.5083 61.3791L31.2972 60.7063C31.2704 60.6928 31.2406 60.6857 31.2104 60.6857C31.1802 60.6857 31.1504 60.6928 31.1236 60.7063L29.9852 61.3439C29.9368 61.3713 29.9368 61.4143 29.9852 61.4417L31.1963 62.1125C31.2231 62.126 31.2528 62.1331 31.2831 62.1331C31.3133 62.1331 31.3431 62.126 31.3699 62.1125ZM22.1112 61.4378L20.9001 60.765C20.8735 60.7519 20.8442 60.7451 20.8143 60.7451C20.7845 60.7451 20.7551 60.7519 20.7286 60.765L19.5881 61.4026C19.5772 61.4056 19.5675 61.412 19.5606 61.4208C19.5538 61.4296 19.5501 61.4404 19.5501 61.4515C19.5501 61.4625 19.5538 61.4733 19.5606 61.4821C19.5675 61.4909 19.5772 61.4973 19.5881 61.5003L20.7992 62.1712C20.826 62.1847 20.8558 62.1918 20.886 62.1918C20.9162 62.1918 20.946 62.1847 20.9728 62.1712L22.1112 61.5258C22.1496 61.5062 22.1496 61.4632 22.1112 61.4378ZM24.4405 62.0538L23.2294 61.383C23.2026 61.3695 23.1729 61.3624 23.1426 61.3624C23.1124 61.3624 23.0826 61.3695 23.0558 61.383L21.3038 62.3609C21.2554 62.3883 21.2554 62.4313 21.3038 62.4587L22.5149 63.1315C22.5415 63.1445 22.5709 63.1513 22.6007 63.1513C22.6305 63.1513 22.6599 63.1445 22.6865 63.1315L24.4385 62.1536C24.4789 62.1242 24.4809 62.0812 24.4324 62.0538H24.4405ZM20.2906 60.1235L19.0795 59.4527C19.0527 59.4391 19.0229 59.432 18.9927 59.432C18.9625 59.432 18.9327 59.4391 18.9059 59.4527L17.5051 60.235C17.4566 60.2623 17.4566 60.3054 17.5051 60.3327L18.7162 61.0036C18.7426 61.0171 18.772 61.0242 18.8019 61.0242C18.8318 61.0242 18.8613 61.0171 18.8877 61.0036L20.3006 60.2213C20.3289 60.1939 20.3289 60.1567 20.2825 60.1235H20.2906ZM21.3644 59.5231C21.3915 59.5356 21.4211 59.5421 21.4512 59.5421C21.4812 59.5421 21.5108 59.5356 21.538 59.5231L22.6764 58.8855C22.7248 58.8581 22.7268 58.8151 22.6764 58.7877L21.4653 58.1149C21.4382 58.1024 21.4085 58.0959 21.3785 58.0959C21.3485 58.0959 21.3188 58.1024 21.2917 58.1149L20.1533 58.7525C20.1049 58.7799 20.1028 58.8229 20.1533 58.8483L21.3644 59.5231ZM26.5962 62.7696L25.3851 62.0969C25.3586 62.0838 25.3292 62.077 25.2994 62.077C25.2695 62.077 25.2402 62.0838 25.2136 62.0969L23.0235 63.3212C22.9751 63.3485 22.9731 63.3916 23.0235 63.419L24.2245 64.0917C24.2516 64.1043 24.2813 64.1107 24.3113 64.1107C24.3414 64.1107 24.371 64.1043 24.3981 64.0917L26.5881 62.8674C26.6346 62.84 26.6346 62.797 26.5881 62.7696H26.5962ZM27.5247 64.1719L26.3136 63.4991C26.287 63.4861 26.2577 63.4793 26.2278 63.4793C26.198 63.4793 26.1686 63.4861 26.1421 63.4991L24.7291 64.2815C24.6807 64.3088 24.6807 64.3519 24.7291 64.3792L25.9402 65.052C25.9673 65.0645 25.997 65.071 26.027 65.071C26.057 65.071 26.0867 65.0645 26.1138 65.052L27.5146 64.2697C27.5256 64.2669 27.5354 64.2607 27.5425 64.252C27.5495 64.2433 27.5535 64.2326 27.5537 64.2216C27.5539 64.2105 27.5504 64.1997 27.5438 64.1907C27.5371 64.1818 27.5275 64.1752 27.5166 64.1719H27.5247ZM33.7395 52.6016C33.7666 52.6141 33.7963 52.6206 33.8263 52.6206C33.8564 52.6206 33.886 52.6141 33.9131 52.6016L35.0515 51.964C35.1 51.9366 35.1 51.8936 35.0515 51.8682L33.8405 51.1954C33.8133 51.1829 33.7837 51.1764 33.7537 51.1764C33.7236 51.1764 33.694 51.1829 33.6669 51.1954L32.5285 51.833C32.48 51.8603 32.48 51.9034 32.5285 51.9308L33.7395 52.6016ZM30.4111 54.4635C30.4382 54.476 30.4679 54.4825 30.4979 54.4825C30.5279 54.4825 30.5576 54.476 30.5847 54.4635L31.7231 53.8259C31.7333 53.8224 31.7421 53.8159 31.7484 53.8073C31.7547 53.7987 31.758 53.7885 31.758 53.778C31.758 53.7675 31.7547 53.7572 31.7484 53.7487C31.7421 53.7401 31.7333 53.7336 31.7231 53.7301L30.512 53.0573C30.4852 53.0437 30.4554 53.0367 30.4252 53.0367C30.395 53.0367 30.3652 53.0437 30.3384 53.0573L29.202 53.7027C29.1536 53.7301 29.1536 53.7731 29.202 53.8005L30.4111 54.4635ZM23.0215 58.5921C23.0486 58.6046 23.0783 58.6111 23.1083 58.6111C23.1384 58.6111 23.168 58.6046 23.1951 58.5921L24.3335 57.9545C24.382 57.9271 24.382 57.8841 24.3335 57.8567L23.1224 57.184C23.0953 57.1714 23.0657 57.1649 23.0357 57.1649C23.0056 57.1649 22.976 57.1714 22.9489 57.184L21.8105 57.8215C21.8002 57.8251 21.7914 57.8315 21.7851 57.8401C21.7789 57.8487 21.7755 57.8589 21.7755 57.8695C21.7755 57.88 21.7789 57.8902 21.7851 57.8988C21.7914 57.9074 21.8002 57.9139 21.8105 57.9174L23.0215 58.5921ZM32.0662 53.5325C32.0933 53.545 32.123 53.5515 32.153 53.5515C32.1831 53.5515 32.2127 53.545 32.2398 53.5325L33.3782 52.8949C33.4267 52.8695 33.4287 52.8245 33.3782 52.7991L32.1672 52.1263C32.14 52.1138 32.1104 52.1073 32.0804 52.1073C32.0503 52.1073 32.0207 52.1138 31.9936 52.1263L30.8552 52.7639C30.8067 52.7913 30.8047 52.8343 30.8552 52.8617L32.0662 53.5325ZM28.7378 55.3944C28.7649 55.4069 28.7946 55.4134 28.8246 55.4134C28.8546 55.4134 28.8843 55.4069 28.9114 55.3944L30.0498 54.7568C30.0982 54.7314 30.1003 54.6864 30.0498 54.661L28.8387 53.9882C28.8116 53.9757 28.782 53.9692 28.7519 53.9692C28.7219 53.9692 28.6922 53.9757 28.6651 53.9882L27.5267 54.6238C27.4783 54.6512 27.4763 54.6943 27.5267 54.7216L28.7378 55.3944ZM28.3825 64.2639C28.3558 64.2503 28.326 64.2432 28.2958 64.2432C28.2655 64.2432 28.2358 64.2503 28.209 64.2639L26.4569 65.2417C26.4085 65.2691 26.4065 65.3141 26.4569 65.3395L27.6579 66.0123C27.685 66.0248 27.7147 66.0313 27.7447 66.0313C27.7747 66.0313 27.8044 66.0248 27.8315 66.0123L29.5835 65.0344C29.632 65.007 29.634 64.964 29.5835 64.9386L28.3825 64.2639ZM26.35 56.7302C26.3771 56.7427 26.4067 56.7492 26.4368 56.7492C26.4668 56.7492 26.4964 56.7427 26.5235 56.7302L27.662 56.0946C27.7104 56.0672 27.7104 56.0242 27.662 55.9968L26.4509 55.324C26.4238 55.3115 26.3941 55.305 26.3641 55.305C26.3341 55.305 26.3044 55.3115 26.2773 55.324L25.1389 55.9616C25.1287 55.9651 25.1198 55.9716 25.1136 55.9802C25.1073 55.9888 25.104 55.999 25.104 56.0095C25.104 56.02 25.1073 56.0303 25.1136 56.0388C25.1198 56.0474 25.1287 56.0539 25.1389 56.0574L26.35 56.7302ZM24.6847 57.6612C24.7115 57.6747 24.7413 57.6818 24.7715 57.6818C24.8017 57.6818 24.8315 57.6747 24.8583 57.6612L25.9967 57.0255C26.0452 56.9982 26.0472 56.9551 25.9967 56.9277L24.7978 56.2452C24.7707 56.2327 24.741 56.2262 24.711 56.2262C24.6809 56.2262 24.6513 56.2327 24.6242 56.2452L23.4858 56.8828C23.4373 56.9082 23.4353 56.9532 23.4858 56.9786L24.6847 57.6612ZM59.2165 47.0139C59.1894 47.0014 59.1597 46.9949 59.1297 46.9949C59.0997 46.9949 59.07 47.0014 59.0429 47.0139L56.2393 48.5786C56.1908 48.6059 56.1908 48.649 56.2393 48.6763L57.4503 49.3491C57.4775 49.3616 57.5071 49.3681 57.5371 49.3681C57.5672 49.3681 57.5968 49.3616 57.6239 49.3491L60.4256 47.7845C60.474 47.7591 60.476 47.7141 60.4256 47.6887L59.2165 47.0139ZM55.5369 49.0734C55.5101 49.0598 55.4803 49.0528 55.4501 49.0528C55.4198 49.0528 55.3901 49.0598 55.3633 49.0734L54.2249 49.7109C54.1764 49.7383 54.1764 49.7814 54.2249 49.8068L55.4359 50.4796C55.463 50.4921 55.4927 50.4986 55.5227 50.4986C55.5528 50.4986 55.5824 50.4921 55.6095 50.4796L56.7479 49.842C56.7964 49.8146 56.7964 49.7716 56.7479 49.7442L55.5369 49.0734ZM33.0331 61.1816L34.1715 60.544C34.2199 60.5166 34.2219 60.4736 34.1715 60.4462L32.9705 59.7754C32.9437 59.7618 32.9139 59.7547 32.8837 59.7547C32.8535 59.7547 32.8237 59.7618 32.7969 59.7754L31.6585 60.4129C31.6101 60.4403 31.608 60.4833 31.6585 60.5107L32.8595 61.1816C32.8863 61.1951 32.9161 61.2022 32.9463 61.2022C32.9765 61.2022 33.0063 61.1951 33.0331 61.1816ZM52.2084 50.9353C52.1816 50.9217 52.1518 50.9147 52.1216 50.9147C52.0914 50.9147 52.0616 50.9217 52.0348 50.9353L50.8964 51.5728C50.848 51.6002 50.848 51.6433 50.8964 51.6687L52.1075 52.3415C52.1343 52.355 52.1641 52.3621 52.1943 52.3621C52.2245 52.3621 52.2543 52.355 52.2811 52.3415L53.4215 51.7039C53.4325 51.7008 53.4421 51.6944 53.449 51.6856C53.4559 51.6768 53.4596 51.666 53.4596 51.655C53.4596 51.6439 53.4559 51.6332 53.449 51.6244C53.4421 51.6155 53.4325 51.6091 53.4215 51.6061L52.2084 50.9353ZM60.8878 46.083C60.8613 46.0695 60.8319 46.0624 60.802 46.0624C60.7721 46.0624 60.7427 46.0695 60.7162 46.083L59.5758 46.7186C59.5648 46.7217 59.5552 46.7281 59.5483 46.7369C59.5414 46.7457 59.5377 46.7565 59.5377 46.7675C59.5377 46.7786 59.5414 46.7893 59.5483 46.7981C59.5552 46.807 59.5648 46.8134 59.5758 46.8164L60.7768 47.4892C60.8039 47.5017 60.8335 47.5082 60.8636 47.5082C60.8936 47.5082 60.9232 47.5017 60.9504 47.4892L62.0767 46.8575C62.0869 46.854 62.0957 46.8475 62.102 46.8389C62.1082 46.8303 62.1116 46.8201 62.1116 46.8096C62.1116 46.7991 62.1082 46.7888 62.102 46.7802C62.0957 46.7717 62.0869 46.7652 62.0767 46.7616L60.8878 46.083ZM63.754 45.8248L60.8353 44.1918C60.8087 44.1787 60.7793 44.1719 60.7495 44.1719C60.7197 44.1719 60.6903 44.1787 60.6637 44.1918L59.5233 44.8293C59.4749 44.8567 59.4749 44.8997 59.5233 44.9271L62.442 46.5602C62.4691 46.5727 62.4988 46.5792 62.5288 46.5792C62.5588 46.5792 62.5885 46.5727 62.6156 46.5602L63.756 45.9226C63.7668 45.9187 63.776 45.9114 63.7821 45.9018C63.7882 45.8923 63.7909 45.8811 63.7897 45.87C63.7886 45.8588 63.7837 45.8483 63.7757 45.8402C63.7678 45.832 63.7573 45.8266 63.7459 45.8248H63.754ZM45.9916 54.4146C45.9648 54.401 45.935 54.394 45.9048 54.394C45.8746 54.394 45.8448 54.401 45.818 54.4146L44.4152 55.1969C44.4042 55.1999 44.3945 55.2063 44.3877 55.2152C44.3808 55.224 44.3771 55.2347 44.3771 55.2458C44.3771 55.2568 44.3808 55.2676 44.3877 55.2764C44.3945 55.2852 44.4042 55.2916 44.4152 55.2947L45.6161 55.9655C45.6429 55.9791 45.6727 55.9861 45.7029 55.9861C45.7332 55.9861 45.7629 55.9791 45.7897 55.9655L47.1905 55.1832C47.239 55.1558 47.241 55.1128 47.1905 55.0854L45.9916 54.4146ZM50.196 52.0677C50.1689 52.0551 50.1393 52.0486 50.1092 52.0486C50.0792 52.0486 50.0495 52.0551 50.0224 52.0677L48.2704 53.0455C48.2602 53.0491 48.2514 53.0556 48.2451 53.0641C48.2389 53.0727 48.2355 53.083 48.2355 53.0935C48.2355 53.104 48.2389 53.1142 48.2451 53.1228C48.2514 53.1314 48.2602 53.1379 48.2704 53.1414L49.4815 53.8142C49.5081 53.8272 49.5375 53.834 49.5673 53.834C49.5971 53.834 49.6265 53.8272 49.653 53.8142L51.4051 52.8363C51.4535 52.8089 51.4555 52.7659 51.4051 52.7404L50.196 52.0677ZM42.1343 56.5698C42.1075 56.5563 42.0777 56.5492 42.0475 56.5492C42.0173 56.5492 41.9875 56.5563 41.9607 56.5698L32.589 61.8133C32.5406 61.8387 32.5386 61.8837 32.589 61.9091L33.79 62.5819C33.8171 62.5944 33.8468 62.6009 33.8768 62.6009C33.9068 62.6009 33.9365 62.5944 33.9636 62.5819L43.3373 57.3385C43.3475 57.3349 43.3564 57.3285 43.3626 57.3199C43.3689 57.3113 43.3722 57.301 43.3722 57.2905C43.3722 57.28 43.3689 57.2698 43.3626 57.2612C43.3564 57.2526 43.3475 57.2461 43.3373 57.2426L42.1343 56.5698ZM32.2439 62.1066C32.2167 62.0941 32.1871 62.0876 32.1571 62.0876C32.127 62.0876 32.0974 62.0941 32.0703 62.1066L30.6695 62.8889C30.621 62.9163 30.621 62.9594 30.6695 62.9848L31.8805 63.6576C31.9073 63.6711 31.9371 63.6782 31.9673 63.6782C31.9976 63.6782 32.0273 63.6711 32.0541 63.6576L33.467 62.8753C33.5155 62.8479 33.5155 62.8048 33.467 62.7775L32.2439 62.1066ZM44.07 55.4922C44.0432 55.4787 44.0134 55.4716 43.9832 55.4716C43.953 55.4716 43.9232 55.4787 43.8964 55.4922L42.4956 56.2745C42.4472 56.3019 42.4451 56.3449 42.4956 56.3723L43.6966 57.0451C43.7237 57.0576 43.7533 57.0641 43.7834 57.0641C43.8134 57.0641 43.8431 57.0576 43.8702 57.0451L45.273 56.2628C45.3214 56.2354 45.3214 56.1924 45.273 56.167L44.07 55.4922ZM30.3162 63.1862C30.2898 63.1727 30.2603 63.1656 30.2304 63.1656C30.2005 63.1656 30.1711 63.1727 30.1447 63.1862L28.7418 63.9685C28.6934 63.9959 28.6934 64.0389 28.7418 64.0663L29.9529 64.7372C29.9797 64.7507 30.0095 64.7578 30.0397 64.7578C30.0699 64.7578 30.0997 64.7507 30.1265 64.7372L31.5273 63.9548C31.5757 63.9275 31.5757 63.8844 31.5273 63.8571L30.3162 63.1862ZM47.9253 53.335C47.8981 53.3225 47.8685 53.316 47.8385 53.316C47.8084 53.316 47.7788 53.3225 47.7517 53.335L46.3387 54.1173C46.2903 54.1447 46.2903 54.1877 46.3387 54.2131L47.5498 54.8859C47.5769 54.8984 47.6066 54.9049 47.6366 54.9049C47.6666 54.9049 47.6963 54.8984 47.7234 54.8859L49.1242 54.1036C49.1727 54.0762 49.1727 54.0332 49.1242 54.0058L47.9253 53.335ZM53.8817 50.0102C53.8549 49.9966 53.8251 49.9896 53.7949 49.9896C53.7647 49.9896 53.7349 49.9966 53.7081 50.0102L52.5677 50.6478C52.5213 50.6751 52.5193 50.7182 52.5677 50.7436L53.7687 51.4164C53.7958 51.4289 53.8254 51.4354 53.8555 51.4354C53.8855 51.4354 53.9152 51.4289 53.9423 51.4164L55.0726 50.769C55.121 50.7416 55.121 50.6986 55.0726 50.6712L53.8817 50.0102ZM57.5694 47.4677L58.7078 46.8301C58.7181 46.8266 58.7269 46.8201 58.7332 46.8115C58.7394 46.8029 58.7428 46.7927 58.7428 46.7822C58.7428 46.7717 58.7394 46.7614 58.7332 46.7529C58.7269 46.7443 58.7181 46.7378 58.7078 46.7343L57.4968 46.0615C57.47 46.0479 57.4402 46.0409 57.41 46.0409C57.3798 46.0409 57.35 46.0479 57.3232 46.0615L56.1848 46.6971C56.1363 46.7245 56.1363 46.7675 56.1848 46.7949L57.3959 47.4677C57.4224 47.4778 57.4509 47.4823 57.4795 47.481C57.508 47.4796 57.5359 47.4724 57.5614 47.4599L57.5694 47.4677ZM50.4564 47.6046L51.5948 46.969C51.6432 46.9416 51.6432 46.8986 51.5948 46.8712L50.3837 46.1984C50.3566 46.1859 50.327 46.1794 50.2969 46.1794C50.2669 46.1794 50.2373 46.1859 50.2101 46.1984L49.0717 46.834C49.0233 46.8614 49.0233 46.9044 49.0717 46.9318L50.2828 47.6046C50.3094 47.6147 50.3379 47.6192 50.3664 47.6179C50.395 47.6165 50.4229 47.6093 50.4483 47.5968L50.4564 47.6046ZM46.3569 53.7398L49.6853 51.8779C49.7338 51.8506 49.7338 51.8075 49.6853 51.7821L48.4743 51.1093C48.4475 51.0958 48.4177 51.0887 48.3875 51.0887C48.3573 51.0887 48.3275 51.0958 48.3007 51.1093L44.9722 52.9712C44.9238 52.9986 44.9238 53.0436 44.9722 53.069L46.1833 53.7418C46.2101 53.7516 46.2386 53.7558 46.2672 53.7541C46.2957 53.7524 46.3235 53.7449 46.3488 53.732L46.3569 53.7398ZM55.7306 48.4006C55.7577 48.4131 55.7874 48.4196 55.8174 48.4196C55.8474 48.4196 55.8771 48.4131 55.9042 48.4006L57.0426 47.763C57.0911 47.7376 57.0931 47.6926 57.0426 47.6672L55.8416 46.9944C55.8145 46.9819 55.7849 46.9754 55.7548 46.9754C55.7248 46.9754 55.6952 46.9819 55.6681 46.9944L54.5296 47.63C54.4812 47.6574 54.4792 47.7004 54.5296 47.7278L55.7306 48.4006ZM54.1885 47.4383L55.3269 46.8008C55.3371 46.7972 55.346 46.7907 55.3522 46.7822C55.3585 46.7736 55.3618 46.7633 55.3618 46.7528C55.3618 46.7423 55.3585 46.7321 55.3522 46.7235C55.346 46.7149 55.3371 46.7084 55.3269 46.7049L54.1159 46.0321C54.0887 46.0196 54.0591 46.0131 54.0291 46.0131C53.999 46.0131 53.9694 46.0196 53.9423 46.0321L52.8059 46.6619C52.7574 46.6893 52.7574 46.7323 52.8059 46.7597L54.017 47.4325C54.0428 47.4432 54.0708 47.4486 54.0989 47.4483C54.1271 47.4479 54.1548 47.4419 54.1805 47.4305L54.1885 47.4383ZM44.7018 54.6747L45.8402 54.0391C45.8886 54.0117 45.8906 53.9687 45.8402 53.9413L44.6392 53.2685C44.6121 53.256 44.5824 53.2495 44.5524 53.2495C44.5224 53.2495 44.4927 53.256 44.4656 53.2685L43.305 53.8983C43.2566 53.9237 43.2545 53.9687 43.305 53.9941L44.506 54.6669C44.5339 54.6794 44.5645 54.6856 44.5953 54.6849C44.6261 54.6842 44.6563 54.6767 44.6836 54.663L44.7018 54.6747ZM52.0611 50.462C52.0882 50.4745 52.1178 50.481 52.1479 50.481C52.1779 50.481 52.2075 50.4745 52.2347 50.462L53.3751 49.8244C53.3861 49.8213 53.3957 49.8149 53.4026 49.8061C53.4094 49.7973 53.4132 49.7865 53.4132 49.7755C53.4132 49.7644 53.4094 49.7537 53.4026 49.7449C53.3957 49.736 53.3861 49.7296 53.3751 49.7266L52.1741 49.0538C52.147 49.0413 52.1173 49.0348 52.0873 49.0348C52.0573 49.0348 52.0276 49.0413 52.0005 49.0538L50.8621 49.6914C50.8137 49.7188 50.8137 49.7618 50.8621 49.7872L52.0611 50.462ZM36.3615 59.3197L37.4999 58.6821C37.5484 58.6547 37.5504 58.6117 37.4999 58.5843L36.2989 57.9135C36.2721 57.8999 36.2424 57.8928 36.2121 57.8928C36.1819 57.8928 36.1521 57.8999 36.1253 57.9135L34.9869 58.551C34.9385 58.5784 34.9365 58.6214 34.9869 58.6469L36.198 59.3197C36.2235 59.3316 36.2514 59.3378 36.2798 59.3378C36.3081 59.3378 36.336 59.3316 36.3615 59.3197ZM38.0267 58.3887L39.1651 57.7511C39.2136 57.7238 39.2136 57.6807 39.1651 57.6533L37.9541 56.9806C37.9275 56.9675 37.8981 56.9607 37.8683 56.9607C37.8385 56.9607 37.8091 56.9675 37.7825 56.9806L36.6441 57.6142C36.5956 57.6416 36.5956 57.6846 36.6441 57.7101L37.8552 58.3828C37.8806 58.3982 37.9094 58.4075 37.9392 58.4099C37.9691 58.4123 37.9991 58.4077 38.0267 58.3965V58.3887ZM34.6983 60.2506L35.8367 59.613C35.8852 59.5856 35.8852 59.5426 35.8367 59.5152L34.6256 58.8444C34.5988 58.8309 34.5691 58.8238 34.5388 58.8238C34.5086 58.8238 34.4788 58.8309 34.452 58.8444L33.3136 59.482C33.2652 59.5094 33.2652 59.5524 33.3136 59.5798L34.5247 60.2506C34.5515 60.2641 34.5813 60.2712 34.6115 60.2712C34.6417 60.2712 34.6715 60.2641 34.6983 60.2506ZM41.3592 56.5346L42.4976 55.8971C42.5461 55.8697 42.5481 55.8266 42.4976 55.7993L41.2865 55.1265C41.2594 55.114 41.2298 55.1075 41.1998 55.1075C41.1697 55.1075 41.1401 55.114 41.113 55.1265L39.9725 55.7641C39.9623 55.7676 39.9535 55.7741 39.9472 55.7827C39.941 55.7912 39.9376 55.8015 39.9376 55.812C39.9376 55.8225 39.941 55.8327 39.9472 55.8413C39.9535 55.8499 39.9623 55.8564 39.9725 55.8599L41.1735 56.5327C41.2022 56.5455 41.2335 56.5517 41.2651 56.5507C41.2966 56.5497 41.3275 56.5415 41.3552 56.5268L41.3592 56.5346ZM39.694 57.4656L40.8344 56.828C40.8454 56.825 40.855 56.8186 40.8619 56.8097C40.8688 56.8009 40.8725 56.7902 40.8725 56.7791C40.8725 56.7681 40.8688 56.7573 40.8619 56.7485C40.855 56.7397 40.8454 56.7333 40.8344 56.7302L39.6233 56.0574C39.5962 56.0449 39.5666 56.0384 39.5365 56.0384C39.5065 56.0384 39.4769 56.0449 39.4497 56.0574L38.3113 56.695C38.2629 56.7224 38.2629 56.7654 38.3113 56.7908L39.5224 57.4636C39.5489 57.4752 39.5778 57.4806 39.6069 57.4796C39.6359 57.4786 39.6643 57.4711 39.6899 57.4578L39.694 57.4656ZM43.0244 55.6017L44.1628 54.9661C44.2113 54.9387 44.2113 54.8957 44.1628 54.8683L42.9518 54.1955C42.9247 54.183 42.895 54.1765 42.865 54.1765C42.8349 54.1765 42.8053 54.183 42.7782 54.1955L41.6398 54.8331C41.6296 54.8366 41.6207 54.8431 41.6145 54.8517C41.6082 54.8603 41.6049 54.8705 41.6049 54.881C41.6049 54.8915 41.6082 54.9018 41.6145 54.9104C41.6207 54.9189 41.6296 54.9254 41.6398 54.9289L42.8508 55.6017C42.878 55.6124 42.9072 55.6173 42.9365 55.6159C42.9658 55.6146 42.9944 55.6071 43.0204 55.5939L43.0244 55.6017ZM51.3808 42.2438C51.408 42.2563 51.4376 42.2628 51.4676 42.2628C51.4977 42.2628 51.5273 42.2563 51.5544 42.2438L52.6928 41.6062C52.7413 41.5788 52.7413 41.5358 52.6928 41.5084L52.3719 41.3305C52.3451 41.3169 52.3153 41.3099 52.2851 41.3099C52.2549 41.3099 52.2251 41.3169 52.1983 41.3305L51.0579 41.968C51.0095 41.9954 51.0095 42.0385 51.0579 42.0658L51.3808 42.2438ZM43.1496 47.3425C43.1767 47.355 43.2063 47.3615 43.2364 47.3615C43.2664 47.3615 43.2961 47.355 43.3232 47.3425L44.4616 46.7069C44.51 46.6795 44.51 46.6365 44.4616 46.6091L43.2505 45.9363C43.2234 45.9238 43.1937 45.9173 43.1637 45.9173C43.1337 45.9173 43.104 45.9238 43.0769 45.9363L41.9385 46.5719C41.8901 46.5993 41.8901 46.6423 41.9385 46.6697L43.1496 47.3425ZM46.478 45.4806C46.5051 45.4931 46.5348 45.4996 46.5648 45.4996C46.5948 45.4996 46.6245 45.4931 46.6516 45.4806L47.79 44.843C47.8002 44.8395 47.8091 44.833 47.8153 44.8244C47.8216 44.8159 47.8249 44.8056 47.8249 44.7951C47.8249 44.7846 47.8216 44.7744 47.8153 44.7658C47.8091 44.7572 47.8002 44.7507 47.79 44.7472L46.5789 44.0744C46.5521 44.0609 46.5224 44.0538 46.4921 44.0538C46.4619 44.0538 46.4321 44.0609 46.4054 44.0744L45.273 44.7061C45.2246 44.7335 45.2246 44.7765 45.273 44.8039L46.478 45.4806ZM41.117 48.4788C41.1441 48.4913 41.1738 48.4978 41.2038 48.4978C41.2338 48.4978 41.2635 48.4913 41.2906 48.4788L42.429 47.8412C42.4774 47.8138 42.4774 47.7708 42.429 47.7434L41.2179 47.0707C41.1908 47.0581 41.1612 47.0517 41.1311 47.0517C41.1011 47.0517 41.0714 47.0581 41.0443 47.0707L39.9059 47.7082C39.8575 47.7356 39.8575 47.7786 39.9059 47.8041L41.117 48.4788ZM44.8128 46.4116C44.8399 46.4241 44.8696 46.4306 44.8996 46.4306C44.9296 46.4306 44.9593 46.4241 44.9864 46.4116L46.1248 45.774C46.1732 45.7486 46.1752 45.7036 46.1248 45.6781L44.9137 45.0054C44.8866 44.9928 44.8569 44.9864 44.8269 44.9864C44.7969 44.9864 44.7672 44.9928 44.7401 45.0054L43.6017 45.641C43.5533 45.6684 43.5513 45.7114 43.6017 45.7388L44.8128 46.4116ZM37.7886 50.3407C37.8154 50.3542 37.8451 50.3613 37.8754 50.3613C37.9056 50.3613 37.9353 50.3542 37.9621 50.3407L39.1006 49.7031C39.149 49.6757 39.149 49.6327 39.1006 49.6053L37.8895 48.9345C37.8627 48.921 37.8329 48.9139 37.8027 48.9139C37.7725 48.9139 37.7427 48.921 37.7159 48.9345L36.5775 49.5721C36.529 49.5995 36.529 49.6425 36.5775 49.6679L37.7886 50.3407ZM39.4518 49.4098C39.4789 49.4223 39.5085 49.4288 39.5386 49.4288C39.5686 49.4288 39.5982 49.4223 39.6254 49.4098L40.7638 48.7722C40.8122 48.7448 40.8142 48.7018 40.7638 48.6744L39.5527 48.0036C39.5259 47.99 39.4961 47.983 39.4659 47.983C39.4357 47.983 39.4059 47.99 39.3791 48.0036L38.2589 48.6333C38.2104 48.6607 38.2084 48.7037 38.2589 48.7292L39.4518 49.4098ZM48.0524 44.1057C48.0789 44.1192 48.1083 44.1263 48.1382 44.1263C48.1681 44.1263 48.1975 44.1192 48.224 44.1057L49.3644 43.4681C49.4129 43.4407 49.4129 43.3977 49.3644 43.3703L49.0435 43.1924C49.0164 43.1798 48.9867 43.1734 48.9567 43.1734C48.9267 43.1734 48.897 43.1798 48.8699 43.1924L47.7315 43.8299C47.683 43.8573 47.683 43.9004 47.7315 43.9277L48.0524 44.1057ZM53.0441 41.3129C53.0712 41.3254 53.1008 41.3319 53.1309 41.3319C53.1609 41.3319 53.1905 41.3254 53.2176 41.3129L54.3561 40.6753C54.4045 40.6479 54.4065 40.6049 54.3561 40.5775L54.0371 40.3995C54.0103 40.386 53.9806 40.3789 53.9503 40.3789C53.9201 40.3789 53.8904 40.386 53.8636 40.3995L52.7251 41.0371C52.6767 41.0645 52.6747 41.1075 52.7251 41.1349L53.0441 41.3129ZM55.5691 42.7249C55.5959 42.7385 55.6257 42.7455 55.6559 42.7455C55.6862 42.7455 55.7159 42.7385 55.7427 42.7249L56.8811 42.0873C56.9296 42.06 56.9316 42.0169 56.8811 41.9896L55.6802 41.3187C55.6534 41.3052 55.6236 41.2981 55.5934 41.2981C55.5631 41.2981 55.5334 41.3052 55.5066 41.3187L54.3661 41.9563C54.3197 41.9837 54.3177 42.0267 54.3661 42.0521L55.5691 42.7249ZM59.2286 46.5367L60.367 45.8991C60.4155 45.8737 60.4175 45.8287 60.367 45.8033L59.166 45.1305C59.1389 45.118 59.1093 45.1115 59.0792 45.1115C59.0492 45.1115 59.0196 45.118 58.9925 45.1305L57.854 45.7681C57.8056 45.7955 57.8036 45.8385 57.854 45.8659L59.055 46.5387C59.0823 46.5491 59.1116 46.5536 59.1409 46.5519C59.1702 46.5502 59.1987 46.5424 59.2246 46.5289L59.2286 46.5367ZM49.7156 43.1748C49.7424 43.1883 49.7722 43.1954 49.8024 43.1954C49.8326 43.1954 49.8624 43.1883 49.8892 43.1748L51.0276 42.5372C51.0761 42.5098 51.0781 42.4668 51.0276 42.4394L50.7087 42.2614C50.6819 42.2479 50.6521 42.2408 50.6219 42.2408C50.5917 42.2408 50.5619 42.2479 50.5351 42.2614L49.3947 42.899C49.3483 42.9264 49.3462 42.9694 49.3947 42.9968L49.7156 43.1748ZM36.1233 51.2717C36.1501 51.2852 36.1799 51.2923 36.2101 51.2923C36.2403 51.2923 36.2701 51.2852 36.2969 51.2717L37.4353 50.6341C37.4838 50.6067 37.4858 50.5637 37.4353 50.5363L36.2404 49.8576C36.2136 49.8441 36.1838 49.837 36.1536 49.837C36.1234 49.837 36.0936 49.8441 36.0668 49.8576L34.9284 50.4952C34.88 50.5226 34.8779 50.5656 34.9284 50.593L36.1233 51.2717Z" fill="#898989"/>
<path d="M42.216 60.7424L52.4738 55.0041C52.6471 54.9192 52.8387 54.875 53.0329 54.875C53.2271 54.875 53.4187 54.9192 53.592 55.0041L59.4738 58.2938C59.7826 58.4678 59.7826 58.7475 59.4738 58.9196L49.218 64.6539C49.0446 64.7398 48.8526 64.7845 48.6579 64.7845C48.4632 64.7845 48.2712 64.7398 48.0978 64.6539L42.216 61.3702C41.9072 61.1981 41.9072 60.9164 42.216 60.7424Z" fill="#E9E9EB"/>
<path d="M40.4778 17.2366C37.2725 20.0274 34.5032 19.8808 32.7714 18.588C31.0415 21.817 28.2742 25.0597 25.0669 25.8576L23.2362 30.6492C23.2362 30.6492 24.2171 31.7445 24.2171 34.3652C24.2084 35.4636 24.0558 36.5565 23.763 37.6177C23.4299 38.9104 23 40.2482 23 42.4817C23 43.9974 23.2018 45.4701 23.9971 46.8098C24.4763 47.621 25.1676 48.2956 26.0014 48.7656L23.218 47.201C22.337 46.7311 21.6049 46.0373 21.1006 45.1943C20.3094 43.8527 20.1035 42.3819 20.1035 40.8662C20.1035 38.6327 20.5334 37.295 20.8685 36.0002C21.1605 34.9396 21.3131 33.8475 21.3227 32.7497C21.3227 30.129 20.3417 29.0338 20.3417 29.0338L22.1704 24.2421C25.3777 23.4442 28.1471 20.2015 29.8749 16.9725C31.6067 18.2653 34.376 18.412 37.5834 15.6211L40.4778 17.2366Z" fill="#67D5B4"/>
<path opacity="0.8" d="M30.8979 17.5418L29.8887 16.9727C30.1983 17.2039 30.5375 17.3952 30.8979 17.5418Z" fill="white"/>
<path opacity="0.85" d="M37.5916 15.6211C34.9515 17.9172 32.6061 18.2242 30.8984 17.5417L32.7716 18.588C34.5034 19.8808 37.2727 20.0274 40.478 17.2366L37.5916 15.6211Z" fill="white"/>
<path opacity="0.65" d="M29.8822 16.9727C28.1544 20.2016 25.3851 23.4443 22.1777 24.2423L25.0661 25.8577C28.2735 25.0598 31.0408 21.8171 32.7706 18.5881L29.8822 16.9727Z" fill="white"/>
<path opacity="0.55" d="M22.1783 24.2422L20.3496 29.0338L23.236 30.6493L25.0667 25.8577L22.1783 24.2422Z" fill="white"/>
<path opacity="0.4" d="M23.9969 46.8073C23.2056 45.4676 22.9997 43.9949 22.9997 42.4791C22.9997 40.2457 23.4297 38.9079 23.7627 37.6151C24.0556 36.554 24.2082 35.4611 24.2169 34.3627C24.2169 31.742 23.2359 30.6467 23.2359 30.6467L20.3495 29.0312C20.3495 29.0312 21.3305 30.1265 21.3305 32.7472C21.321 33.8449 21.1684 34.9371 20.8763 35.9977C20.5413 37.2924 20.1113 38.6302 20.1113 40.8637C20.1113 42.3794 20.3132 43.8501 21.1084 45.1918C21.6108 46.0331 22.34 46.726 23.2177 47.1965L26.0012 48.7611C25.1676 48.2916 24.4763 47.6178 23.9969 46.8073Z" fill="white"/>
<path opacity="0.05" d="M23.9969 46.8073C23.2056 45.4676 22.9997 43.9949 22.9997 42.4791C22.9997 40.2457 23.4297 38.9079 23.7627 37.6151C24.0556 36.554 24.2082 35.4611 24.2169 34.3627C24.2169 31.742 23.2359 30.6467 23.2359 30.6467L20.3495 29.0312C20.3495 29.0312 21.3305 30.1265 21.3305 32.7472C21.321 33.8449 21.1684 34.9371 20.8763 35.9977C20.5413 37.2924 20.1113 38.6302 20.1113 40.8637C20.1113 42.3794 20.3132 43.8501 21.1084 45.1918C21.6108 46.0331 22.34 46.726 23.2177 47.1965L26.0012 48.7611C25.1676 48.2916 24.4763 47.6178 23.9969 46.8073Z" fill="#535354"/>
<path d="M32.7734 50.0913C27.9836 50.1422 25.2405 48.9179 23.9971 46.8096C23.2059 45.4699 23 43.9972 23 42.4814C23 40.2479 23.4299 38.9102 23.763 37.6155C24.055 36.5555 24.2076 35.464 24.2171 34.3669C24.2171 31.7442 23.2362 30.651 23.2362 30.651L25.0669 25.8593C28.2722 25.0614 31.0415 21.8187 32.7734 18.5897C34.5032 19.8825 37.2725 20.0272 40.4778 17.2383L42.3086 19.9764C41.6809 21.5099 41.3484 23.1419 41.3276 24.7915C41.3103 25.723 41.464 26.6502 41.7817 27.5296C42.1168 28.4488 42.5447 29.3074 42.5447 31.5408C42.5395 33.3974 42.2021 35.2389 41.5476 36.9838C40.3042 40.4924 37.5611 44.7853 32.7734 50.0913Z" fill="#67D5B4"/>
<path opacity="0.75" d="M32.7734 50.0913C27.9836 50.1422 25.2405 48.9179 23.9971 46.8096C23.2059 45.4699 23 43.9972 23 42.4814C23 40.2479 23.4299 38.9102 23.763 37.6155C24.055 36.5555 24.2076 35.464 24.2171 34.3669C24.2171 31.7442 23.2362 30.651 23.2362 30.651L25.0669 25.8593C28.2722 25.0614 31.0415 21.8187 32.7734 18.5897C34.5032 19.8825 37.2725 20.0272 40.4778 17.2383L42.3086 19.9764C41.6809 21.5099 41.3484 23.1419 41.3276 24.7915C41.3103 25.723 41.464 26.6502 41.7817 27.5296C42.1168 28.4488 42.5447 29.3074 42.5447 31.5408C42.5395 33.3974 42.2021 35.2389 41.5476 36.9838C40.3042 40.4924 37.5611 44.7853 32.7734 50.0913Z" fill="white"/>
<path opacity="0.75" d="M32.2011 48.8881C28.4912 48.8451 26.0932 47.9454 25.0719 46.2126C24.4966 45.2347 24.2383 44.0867 24.2383 42.4829C24.238 41.0846 24.4418 39.6933 24.8438 38.3504C24.8822 38.2017 24.9225 38.0551 24.9589 37.9103C25.2779 36.7548 25.4435 35.5646 25.4514 34.3684C25.4514 32.4576 24.9791 31.2079 24.6036 30.5156L26.0165 26.8387C29.4479 25.6828 31.9286 22.3991 33.2426 20.2458C33.9504 20.5374 34.712 20.6864 35.4811 20.6839C37.0333 20.6839 38.6097 20.1245 40.1821 19.0195L40.9188 20.1265C40.3802 21.6293 40.0947 23.2062 40.0731 24.7969C40.0552 25.8663 40.2328 26.9304 40.5979 27.9398C40.6362 28.0454 40.6766 28.151 40.717 28.2566C41.0117 29.039 41.2922 29.7763 41.2922 31.5502C41.2854 33.2727 40.9713 34.9811 40.3637 36.6C39.1466 40.046 36.3995 44.1786 32.2011 48.8881Z" fill="#67D5B4"/>
<path opacity="0.4" d="M32.2011 48.8881C28.4912 48.8451 26.0932 47.9454 25.0719 46.2126C24.4966 45.2347 24.2383 44.0867 24.2383 42.4829C24.238 41.0846 24.4418 39.6933 24.8438 38.3504C24.8822 38.2017 24.9225 38.0551 24.9589 37.9103C25.2779 36.7548 25.4435 35.5646 25.4514 34.3684C25.4514 32.4576 24.9791 31.2079 24.6036 30.5156L26.0165 26.8387C29.4479 25.6828 31.9286 22.3991 33.2426 20.2458C33.9504 20.5374 34.712 20.6864 35.4811 20.6839C37.0333 20.6839 38.6097 20.1245 40.1821 19.0195L40.9188 20.1265C40.3802 21.6293 40.0947 23.2062 40.0731 24.7969C40.0552 25.8663 40.2328 26.9304 40.5979 27.9398C40.6362 28.0454 40.6766 28.151 40.717 28.2566C41.0117 29.039 41.2922 29.7763 41.2922 31.5502C41.2854 33.2727 40.9713 34.9811 40.3637 36.6C39.1466 40.046 36.3995 44.1786 32.2011 48.8881Z" fill="white"/>
<path opacity="0.15" d="M32.2011 48.8881C28.4912 48.8451 26.0932 47.9454 25.0719 46.2126C24.4966 45.2347 24.2383 44.0867 24.2383 42.4829C24.238 41.0846 24.4418 39.6933 24.8438 38.3504C24.8822 38.2017 24.9225 38.0551 24.9589 37.9103C25.2779 36.7548 25.4435 35.5646 25.4514 34.3684C25.4514 32.4576 24.9791 31.2079 24.6036 30.5156L26.0165 26.8387C29.4479 25.6828 31.9286 22.3991 33.2426 20.2458C33.9504 20.5374 34.712 20.6864 35.4811 20.6839C37.0333 20.6839 38.6097 20.1245 40.1821 19.0195L40.9188 20.1265C40.3802 21.6293 40.0947 23.2062 40.0731 24.7969C40.0552 25.8663 40.2328 26.9304 40.5979 27.9398C40.6362 28.0454 40.6766 28.151 40.717 28.2566C41.0117 29.039 41.2922 29.7763 41.2922 31.5502C41.2854 33.2727 40.9713 34.9811 40.3637 36.6C39.1466 40.046 36.3995 44.1786 32.2011 48.8881Z" fill="#535354"/>
<path opacity="0.8" d="M25.9258 47.2109C27.1893 48.2905 29.2905 48.8557 32.2052 48.889L30.3442 47.8622C28.8445 47.8818 27.3517 47.6617 25.9258 47.2109Z" fill="white"/>
<path opacity="0.15" d="M39.9554 19.5847L40.9222 20.1265L40.1855 19.0195L39.7656 19.2992L39.9554 19.5847Z" fill="#535354"/>
<path d="M39.637 27.3957C39.2729 26.3861 39.0953 25.3222 39.1122 24.2528C39.1319 22.6625 39.4154 21.0855 39.9519 19.5824L39.7642 19.2969C38.3311 20.2161 36.896 20.6816 35.483 20.6816C34.7145 20.6866 33.9529 20.5402 33.2446 20.2513C31.9306 22.4026 29.4499 25.6883 26.0185 26.8442L24.6056 30.521C24.981 31.2134 25.4533 32.4631 25.4533 34.3739C25.4454 35.5701 25.2799 36.7603 24.9608 37.9158C24.9245 38.0606 24.8841 38.2072 24.8458 38.3559C24.4438 39.6988 24.2399 41.0901 24.2402 42.4884C24.2402 44.0922 24.4986 45.2421 25.0739 46.2181C25.3778 46.7224 25.7909 47.1568 26.2849 47.4913C27.5243 48.0389 29.1754 48.3257 31.2382 48.3518C35.4346 43.6423 38.1797 39.5098 39.4049 36.0637C40.0125 34.4449 40.3266 32.7364 40.3334 31.0139C40.3334 29.24 40.0548 28.5027 39.7581 27.7204L39.637 27.3957Z" fill="#455A64"/>
<path d="M26.0185 26.839L24.6056 30.5158C24.981 31.2082 25.4533 32.4579 25.4533 34.3687C25.4454 35.5648 25.2799 36.7551 24.9608 37.9106C24.9245 38.0553 24.8841 38.202 24.8458 38.3507C24.4438 39.6936 24.2399 41.0849 24.2402 42.4832C24.2402 44.0869 24.4986 45.2369 25.0739 46.2129C25.3778 46.7172 25.7909 47.1516 26.2849 47.4861C27.5243 48.0337 29.1754 48.3205 31.2382 48.3466V34.797L33.2466 34.2103V20.2539C32.6535 21.2318 31.982 22.163 31.2382 23.0389C29.8919 24.5996 28.1379 26.1212 26.0185 26.839Z" fill="#535354"/>
<path d="M36.0862 29.7838C36.0648 29.746 36.039 29.7106 36.0095 29.6782V29.6665C35.9505 29.6045 35.8825 29.5511 35.8077 29.508L35.1356 29.1325C35.0142 29.0666 34.8836 29.0179 34.748 28.9878C34.6669 28.9702 34.5846 28.9578 34.5018 28.9507V27.0223C34.5018 26.0542 34.1243 25.2894 33.4663 24.9198C32.8083 24.5502 32.0534 24.6167 31.2803 25.0548C29.8432 25.8586 28.7189 27.8202 28.7189 29.5198V31.7885L27.3584 32.5454C27.3189 32.5681 27.2811 32.5936 27.2454 32.6216L27.2091 32.649C27.1542 32.6919 27.1094 32.7457 27.0777 32.8068C27.046 32.8678 27.0282 32.9347 27.0254 33.003V40.8124C27.0261 40.8461 27.0309 40.8795 27.0395 40.9122C27.0827 41.0432 27.172 41.1553 27.2918 41.229L27.3665 41.2759L27.6955 41.4578L28.0407 41.6534C28.1756 41.7253 28.3214 41.7761 28.4726 41.804C28.8856 41.8924 29.3175 41.8385 29.6938 41.6514L35.7915 38.2425C35.8862 38.2019 35.9678 38.1375 36.0282 38.056C36.0885 37.9745 36.1253 37.8789 36.1347 37.779V29.9716C36.134 29.9062 36.1174 29.8418 36.0862 29.7838ZM30.0208 29.5198C30.0208 28.2759 30.8928 26.7387 31.9242 26.1617C32.2754 25.9661 32.5923 25.9153 32.7921 26.0268C33.0263 26.1598 33.1676 26.5314 33.1676 27.0223V29.2988L31.4317 30.2767L30.0188 31.059L30.0208 29.5198Z" fill="#263238"/>
<path d="M36.8456 30.3169C36.8361 30.2171 36.7993 30.1215 36.739 30.04C36.6787 29.9585 36.597 29.8941 36.5024 29.8534L35.8363 29.4779C35.5804 29.3512 35.2971 29.2852 35.0098 29.2852C34.7224 29.2852 34.4391 29.3512 34.1832 29.4779L28.0814 32.8907C27.9868 32.9314 27.9051 32.9958 27.8448 33.0773C27.7845 33.1588 27.7477 33.2544 27.7383 33.3543V41.1637C27.7477 41.2635 27.7845 41.3591 27.8448 41.4406C27.9051 41.5221 27.9868 41.5865 28.0814 41.6272L28.7536 42.0027C29.0095 42.1294 29.2927 42.1954 29.5801 42.1954C29.8675 42.1954 30.1508 42.1294 30.4067 42.0027L36.5085 38.5899C36.6033 38.5495 36.6852 38.4852 36.7456 38.4037C36.806 38.3221 36.8426 38.2263 36.8516 38.1263V30.3169H36.8456Z" fill="#7AA7FF"/>
<path opacity="0.4" d="M28.7467 34.1933L28.0746 33.8158C27.6184 33.5616 27.6184 33.1469 28.0746 32.8907L34.1763 29.4779C34.4323 29.3512 34.7155 29.2852 35.0029 29.2852C35.2903 29.2852 35.5736 29.3512 35.8295 29.4779L36.5016 29.8534C36.9598 30.1096 36.9598 30.5243 36.5016 30.7785L30.3998 34.1933C30.1435 34.3186 29.8604 34.3839 29.5733 34.3839C29.2861 34.3839 29.003 34.3186 28.7467 34.1933Z" fill="white"/>
<path opacity="0.1" d="M29.5792 34.3842V42.1956C29.2913 42.1997 29.0071 42.1324 28.7536 42L28.0795 41.6225C27.9845 41.5819 27.9025 41.5172 27.8421 41.4353C27.7817 41.3534 27.7452 41.2573 27.7363 41.157V33.3555C27.7455 33.4552 27.7822 33.5506 27.8426 33.6319C27.9029 33.7131 27.9848 33.777 28.0795 33.817L28.7536 34.1945C29.0076 34.3248 29.2918 34.3901 29.5792 34.3842Z" fill="#535354"/>
<path d="M34.0178 38.2449L32.5605 39.0604L32.7866 36.5062C32.613 36.4162 32.502 36.1972 32.502 35.8823C32.502 35.319 32.8552 34.6658 33.2892 34.4233C33.7231 34.1808 34.0784 34.437 34.0784 35.01C34.0697 35.3431 33.9708 35.6682 33.7917 35.9527L34.0178 38.2449Z" fill="#455A64"/>
<path d="M34.014 38.2471L32.6939 37.5078L32.5566 39.0627L34.014 38.2471Z" fill="#535354"/>
<path d="M33.2854 34.4243C32.9686 34.6313 32.7321 34.9348 32.6133 35.2868L33.788 35.9439C33.9671 35.6594 34.0659 35.3344 34.0746 35.0012C34.0746 34.438 33.7214 34.1798 33.2854 34.4243Z" fill="#535354"/>
<path d="M35.195 30.4907V27.3615C35.195 26.3934 34.8175 25.6287 34.1595 25.261C33.5318 24.9089 32.7567 24.9559 31.9735 25.394C30.5384 26.1978 29.4121 28.1594 29.4121 29.859V32.998C29.4181 33.0551 29.4401 33.1095 29.4757 33.1553C29.5112 33.2011 29.5591 33.2367 29.614 33.2581C29.7583 33.3296 29.9181 33.3668 30.0802 33.3668C30.2423 33.3668 30.4021 33.3296 30.5465 33.2581C30.6013 33.2365 30.649 33.2009 30.6845 33.1551C30.7201 33.1093 30.7421 33.055 30.7483 32.998V29.8649C30.7483 28.621 31.6203 27.0838 32.6517 26.5068C33.0029 26.3112 33.3198 26.2604 33.5197 26.3719C33.7538 26.5049 33.8951 26.8765 33.8951 27.3674V30.4966C33.9017 30.5532 33.9239 30.6071 33.9594 30.6526C33.9949 30.698 34.0424 30.7333 34.097 30.7548C34.2413 30.8251 34.4006 30.8617 34.5622 30.8617C34.7238 30.8617 34.8831 30.8251 35.0275 30.7548C35.082 30.7333 35.1295 30.698 35.165 30.6526C35.2005 30.6071 35.2227 30.5532 35.2293 30.4966L35.195 30.4907Z" fill="#E9E9EB"/>
<path d="M43.0391 44.2219L43.9272 43.7252L44.2784 43.3125L43.3903 43.8093L43.0391 44.2219Z" fill="#67D5B4"/>
<path opacity="0.4" d="M43.0391 44.2219L43.9272 43.7252L44.2784 43.3125L43.3903 43.8093L43.0391 44.2219Z" fill="#535354"/>
<path d="M45.4551 45.5758L46.3432 45.079L47.086 44.4414L46.1979 44.9382L45.4551 45.5758Z" fill="#67D5B4"/>
<path opacity="0.4" d="M45.4551 45.5758L46.3432 45.079L47.086 44.4414L46.1979 44.9382L45.4551 45.5758Z" fill="#535354"/>
<path d="M53.0089 47.2914C53.2168 47.5634 53.3438 47.8854 53.3763 48.2224C53.1668 47.9512 53.0395 47.6288 53.0089 47.2914ZM55.0738 47.3168C54.7751 45.3454 53.6811 43.3955 52.3771 42.666C51.7534 42.3159 51.1661 42.3022 50.7099 42.5663L49.8743 43.0337C49.8581 43.041 49.8426 43.0495 49.8278 43.0591C49.7915 43.0787 49.7552 43.1021 49.7188 43.1256C49.6503 43.1715 49.5862 43.2232 49.5271 43.2801L49.4988 43.3055C49.4717 43.3315 49.4461 43.359 49.4221 43.3877C49.3918 43.4209 49.3616 43.4561 49.3333 43.4933C49.2728 43.5702 49.2182 43.6512 49.1698 43.7358C49.1456 43.7788 49.1194 43.8238 49.0971 43.8708L41.7924 39.7852L40.9062 40.28V40.8276L40.9809 40.8706L41.0516 40.9097V41.0271L40.9062 41.1073V41.428L41.9781 43.6282L43.0398 44.215L43.391 43.8004L44.3275 44.3421L44.8665 45.2359L45.4579 45.5664L46.1986 44.9288L47.111 45.4393L47.4158 46.6617L48.9417 47.5144C49.0199 47.8258 49.1163 48.1327 49.2304 48.4336C49.2304 48.4649 49.2526 48.4962 49.2667 48.5314C49.7733 49.8222 50.5807 50.9291 51.487 51.4376C51.5957 51.5005 51.7099 51.5542 51.8281 51.598C51.8909 51.6221 51.9549 51.643 52.0199 51.6606C52.0757 51.6758 52.1323 51.6882 52.1894 51.6978C52.3683 51.7291 52.5515 51.7291 52.7304 51.6978L52.8051 51.6802C52.8402 51.6734 52.8746 51.6635 52.908 51.6508L52.9867 51.6215C53.0152 51.6111 53.0429 51.5987 53.0695 51.5843L53.1442 51.5472L53.1825 51.5257L53.2007 51.5159L54.0383 51.0485C54.7125 50.669 55.1505 49.7107 55.1505 48.3553C55.1507 48.0078 55.1251 47.6608 55.0738 47.3168Z" fill="#67D5B4"/>
<path d="M52.7485 48.9512C52.3973 48.7556 52.1127 48.1689 52.1127 47.6506C52.1127 47.1323 52.3973 46.8683 52.7485 47.0639C53.0997 47.2594 53.3823 47.8462 53.3823 48.3645C53.3823 48.8827 53.0977 49.1468 52.7485 48.9512ZM54.1856 47.809C53.8869 45.8396 52.7929 43.8975 51.491 43.1602C50.8854 42.8238 50.3283 42.7983 49.8762 43.0311C49.8601 43.0384 49.8446 43.0469 49.8298 43.0565C49.7935 43.0761 49.7571 43.0995 49.7208 43.123C49.6523 43.1689 49.5881 43.2206 49.529 43.2775L49.5008 43.3029C49.4737 43.3289 49.4481 43.3563 49.4241 43.3851C49.3938 43.4183 49.3635 43.4535 49.3353 43.4907C49.2748 43.5676 49.2201 43.6486 49.1718 43.7332C49.1475 43.7762 49.1213 43.8212 49.0991 43.8681C48.9682 44.1334 48.8738 44.4142 48.8185 44.7033L40.9082 40.2773V40.825L40.9829 40.868L41.0535 40.9071V41.0245L40.9082 41.1046V41.4254L41.98 43.6256L43.0417 44.2124L43.3929 43.7977L44.3295 44.3395L44.8684 45.2333L45.4598 45.5638L46.2006 44.9262L47.1129 45.4367L47.4177 46.659L48.9437 47.5117C49.0219 47.8232 49.1182 48.1301 49.2323 48.431C49.2323 48.4623 49.2545 48.4935 49.2687 48.5287C49.7753 49.8196 50.5827 50.9265 51.489 51.435C51.5977 51.4979 51.7118 51.5516 51.8301 51.5954C51.8928 51.6195 51.9568 51.6404 52.0218 51.658C52.0777 51.6732 52.1342 51.6856 52.1914 51.6951C52.3702 51.7265 52.5535 51.7265 52.7323 51.6951L52.807 51.6775C52.8421 51.6707 52.8766 51.6609 52.9099 51.6482L52.9887 51.6189C53.0172 51.6085 53.0448 51.5961 53.0714 51.5817L53.1461 51.5445L53.1845 51.523L53.2026 51.5133C53.8485 51.1221 54.2643 50.1716 54.2643 48.8495C54.2637 48.5013 54.2374 48.1536 54.1856 47.809Z" fill="#67D5B4"/>
<path opacity="0.4" d="M53.3829 48.3573C53.3829 48.8795 53.0983 49.1396 52.7491 48.9441C52.3999 48.7485 52.1133 48.1618 52.1133 47.6435C52.1133 47.1252 52.3979 46.8612 52.7491 47.0567C52.8502 47.1163 52.938 47.1947 53.0075 47.2875C53.0395 47.6264 53.1666 47.9503 53.3748 48.2243C53.3805 48.2685 53.3832 48.3129 53.3829 48.3573Z" fill="#535354"/>
<path opacity="0.4" d="M55.1552 48.3602C55.1552 49.7155 54.7172 50.6738 54.0431 51.0533L53.2054 51.5207C53.8513 51.1295 54.2671 50.179 54.2671 48.8569C54.2661 48.5067 54.2391 48.157 54.1864 47.8106C53.8876 45.8411 52.7936 43.899 51.4917 43.1617C50.8862 42.8253 50.3291 42.7999 49.877 43.0326L50.7126 42.5652C51.1768 42.3012 51.7561 42.3149 52.3798 42.6649C53.6838 43.3944 54.7778 45.3444 55.0765 47.3158C55.1287 47.6616 55.155 48.0106 55.1552 48.3602Z" fill="white"/>
<path d="M54.2668 48.8563C54.2668 50.1785 53.851 51.1231 53.2051 51.5201L54.0427 51.0527C54.7169 50.6733 55.1549 49.7149 55.1549 48.3596C55.1549 48.3087 55.1549 48.2579 55.1549 48.207L54.2668 48.7038C54.2648 48.7546 54.2668 48.8075 54.2668 48.8563Z" fill="#67D5B4"/>
<path opacity="0.1" d="M54.2668 48.8563C54.2668 50.1785 53.851 51.1231 53.2051 51.5201L54.0427 51.0527C54.7169 50.6733 55.1549 49.7149 55.1549 48.3596C55.1549 48.3087 55.1549 48.2579 55.1549 48.207L54.2668 48.7038C54.2648 48.7546 54.2668 48.8075 54.2668 48.8563Z" fill="#535354"/>
<path opacity="0.15" d="M48.8469 45.2715V45.5512L40.9062 41.1077L41.0516 41.0275V40.9102L48.8469 45.2715Z" fill="#535354"/>
<path opacity="0.15" d="M48.8469 45.3848V45.5491L40.9062 41.1056L41.0516 41.0254V41.0234L48.8469 45.3848Z" fill="#535354"/>
<path opacity="0.15" d="M49.1777 46.0111C49.1777 47.916 50.2132 50.04 51.4909 50.7539C52.7686 51.4677 53.802 50.5035 53.802 48.6025C53.802 46.7015 52.7665 44.5736 51.4909 43.8598C50.2152 43.1459 49.1777 44.116 49.1777 46.0111Z" stroke="#535354" stroke-width="0.147347" stroke-miterlimit="10"/>
<path opacity="0.5" d="M49.0971 43.8708C48.9662 44.136 48.8719 44.4168 48.8166 44.7059L40.9062 40.28L41.7924 39.7852L49.0971 43.8708Z" fill="white"/>
</g>
<defs>
<clipPath id="clip0_1886_32592">
<rect width="78.78" height="78.78" fill="white" transform="translate(0.109375 0.109375)"/>
</clipPath>
</defs>
</svg>
