<svg width="101" height="101" viewBox="0 0 101 101" fill="none" xmlns="http://www.w3.org/2000/svg">
<path d="M64.1846 39.1935L64.6542 38.9375L76.7861 45.4838L76.3165 45.7398L64.1846 39.1935Z" fill="#D1DCE6"/>
<path d="M38.9805 25.6115L39.4403 25.3555L51.5722 31.8926L51.1124 32.1486L38.9805 25.6115Z" fill="#D1DCE6"/>
<path d="M51.5811 32.4044L52.0507 32.1484L64.1826 38.6947L63.713 38.9416L51.5811 32.4044Z" fill="#D1DCE6"/>
<path d="M26.4658 32.4123L26.9257 32.1562L39.0576 38.6934L38.5977 38.9494L26.4658 32.4123Z" fill="#D1DCE6"/>
<path d="M39.0674 39.1961L39.5272 38.9492L51.6689 45.4955L51.1993 45.7423L39.0674 39.1961Z" fill="#D1DCE6"/>
<path d="M76.7832 45.9865L77.2528 45.7305L89.3848 52.2767L88.9151 52.5327L76.7832 45.9865Z" fill="#D1DCE6"/>
<path d="M51.667 45.9982L52.1366 45.7422L64.2686 52.2885L63.7989 52.5353L51.667 45.9982Z" fill="#D1DCE6"/>
<path d="M26.5449 46.0099L27.0145 45.7539L39.1465 52.3002L38.6768 52.547L26.5449 46.0099Z" fill="#D1DCE6"/>
<path d="M39.3213 79.9982L39.7909 79.7422L51.9228 86.2793L51.4532 86.5353L39.3213 79.9982Z" fill="#D1DCE6"/>
<path d="M64.2705 52.7912L64.7401 52.5352L76.8721 59.0814L76.4024 59.3374L64.2705 52.7912Z" fill="#D1DCE6"/>
<path d="M39.1455 52.799L39.6151 52.543L51.7471 59.0892L51.2774 59.3452L39.1455 52.799Z" fill="#D1DCE6"/>
<path d="M14.0293 52.8107L14.4989 52.5547L26.6309 59.101L26.1612 59.3478L14.0293 52.8107Z" fill="#D1DCE6"/>
<path d="M76.8818 59.5828L77.3417 59.3359L89.4736 65.8731L89.004 66.1291L76.8818 59.5828Z" fill="#D1DCE6"/>
<path d="M51.7461 59.5906L52.2157 59.3438L64.3477 65.8809L63.878 66.1369L51.7461 59.5906Z" fill="#D1DCE6"/>
<path d="M26.6338 59.5998L27.1034 59.3438L39.2353 65.89L38.7657 66.1369L26.6338 59.5998Z" fill="#D1DCE6"/>
<path d="M64.3594 66.3966L64.8192 66.1406L76.9511 72.6777L76.4913 72.9337L64.3594 66.3966Z" fill="#D1DCE6"/>
<path d="M39.2354 66.3966L39.705 66.1406L51.8369 72.6869L51.3673 72.9429L39.2354 66.3966Z" fill="#D1DCE6"/>
<path d="M14.1084 66.4044L14.578 66.1484L26.71 72.6947L26.2501 72.9416L14.1084 66.4044Z" fill="#D1DCE6"/>
<path d="M76.9609 73.1857L77.4306 72.9297L89.5527 79.4668L89.0929 79.7228L76.9609 73.1857Z" fill="#D1DCE6"/>
<path d="M51.8457 73.1974L52.3055 72.9414L64.4375 79.4785L63.9776 79.7345L51.8457 73.1974Z" fill="#D1DCE6"/>
<path d="M26.7109 73.1974L27.1806 72.9414L39.3125 79.4877L38.8429 79.7437L26.7109 73.1974Z" fill="#D1DCE6"/>
<path d="M64.4453 79.9904L64.9052 79.7344L77.0371 86.2715L76.5773 86.5275L64.4453 79.9904Z" fill="#D1DCE6"/>
<path d="M14.1982 79.9982L14.6679 79.7422L26.7998 86.2884L26.3302 86.5444L14.1982 79.9982Z" fill="#D1DCE6"/>
<g style="mix-blend-mode:multiply" opacity="0.2">
<path d="M92.4769 41.9294C92.475 48.1603 90.496 54.2508 86.7902 59.4308C83.0843 64.6108 77.8181 68.6476 71.6573 71.0308C65.4965 73.414 58.7179 74.0366 52.1784 72.8199C45.639 71.6032 39.6325 68.6018 34.9183 64.1952C30.2042 59.7887 26.9941 54.1748 25.694 48.0634C24.3939 41.9521 25.0621 35.6177 27.6142 29.8612C30.1663 24.1048 34.4877 19.1847 40.0319 15.7232C45.5761 12.2616 52.0941 10.4141 58.7619 10.4141C63.191 10.4117 67.5771 11.2253 71.6694 12.8083C75.7617 14.3914 79.4799 16.7128 82.6112 19.6399C85.7426 22.567 88.2257 26.0422 89.9186 29.8668C91.6114 33.6915 92.4808 37.7905 92.4769 41.9294Z" fill="#87839C"/>
</g>
<path d="M86.7462 53.9248H82.8327V53.0105H86.7462V53.9248ZM78.9192 53.9248H75.0057V53.0105H78.9192V53.9248ZM71.0921 53.9248H69.9376V53.0105H71.0921V53.9248ZM87.4605 49.9751H86.4821V46.3179H87.4605V49.9751ZM87.4605 42.6608H86.4821V39.0037H87.4605V42.6608ZM87.4605 35.3466H86.4821V31.6894H87.4605V35.3466ZM87.4605 28.0323H86.4821V24.3752H87.4605V28.0323ZM15.1581 26.0117H14.1797V22.3546H15.1581V26.0117ZM87.4605 20.718H86.4821V17.0609H87.4605V20.718ZM15.1581 18.6975H14.1797V14.6289H14.6689V15.086H15.1287L15.1581 18.6975ZM85.1711 15.5432H81.2575V14.6289H85.1711V15.5432ZM77.344 15.5432H73.4305V14.6289H77.344V15.5432ZM69.5169 15.5432H65.6034V14.6289H69.5169V15.5432ZM61.6899 15.5432H57.7764V14.6289H61.6899V15.5432ZM53.8628 15.5432H49.9493V14.6289H53.8628V15.5432ZM46.0358 15.5432H42.1223V14.6289H46.0358V15.5432ZM38.2087 15.5432H34.2952V14.6289H38.2087V15.5432ZM30.3817 15.5432H26.4682V14.6289H30.3817V15.5432ZM22.5546 15.5432H18.6411V14.6289H22.5546V15.5432Z" fill="white"/>
<path d="M52.5139 43.3341L78.5976 29.1719L78.4508 75.5534L52.377 89.7157L52.5139 43.3341Z" fill="#22292B"/>
<path d="M54.7561 46.1143L76.3294 34.4023L76.212 72.7748L54.6387 84.4867L54.7561 46.1143Z" fill="#1B2022"/>
<path d="M30.5205 31.4669L56.6042 17.3047L78.5982 29.1721L52.5145 43.3343L30.5205 31.4669Z" fill="#262D30"/>
<path d="M52.5148 43.3322L52.3778 89.7138L30.3838 77.8464L30.5208 31.4648L52.5148 43.3322Z" fill="#121517"/>
<path d="M10.2659 90.5861L8.67117 89.7175L8.52441 43.3359L10.1192 44.2045L10.2659 90.5861Z" fill="#171C1E"/>
<path d="M10.1192 44.2047L8.52441 43.3361L30.5282 31.4688L32.123 32.3373L10.1192 44.2047Z" fill="#1B2022"/>
<path d="M32.122 32.3359L32.2589 78.7175L10.2649 90.5849L10.1182 44.2033L32.122 32.3359Z" fill="#343E42"/>
<path d="M12.3887 45.0068V54.6891L30.5377 44.8971V35.2148L12.3887 45.0068Z" fill="#D6D6D6"/>
<path d="M12.3887 55.9365V65.6188L30.5377 55.8268V46.1445L12.3887 55.9365Z" fill="#D6D6D6"/>
<path d="M12.3887 66.8441V76.5263L30.5377 66.7252V57.043L12.3887 66.8441Z" fill="#D6D6D6"/>
<path d="M12.3887 77.7581V87.4404L30.5377 77.6393V67.957L12.3887 77.7581Z" fill="#D6D6D6"/>
<path d="M51.306 60.7541L33.2451 51.0078V51.9221L51.306 61.6683V60.7541Z" fill="#262D30"/>
<path d="M51.306 56.9416L33.2451 47.1953V52.3336L51.306 62.0798V56.9416Z" fill="#262D30"/>
<path d="M50.8998 57.656C50.8944 57.5326 50.8568 57.4123 50.7903 57.3055C50.7238 57.1988 50.6304 57.1088 50.5183 57.0435C50.3128 56.9246 50.1465 57.0435 50.1465 57.2446C50.1532 57.3679 50.1903 57.4882 50.2547 57.596C50.3192 57.7038 50.4094 57.7963 50.5183 57.8663C50.7335 57.9577 50.8998 57.8846 50.8998 57.656Z" fill="#121517"/>
<path d="M34.4106 48.8134C34.4046 48.6899 34.3679 48.5694 34.3033 48.4615C34.2388 48.3535 34.1482 48.2612 34.0388 48.1917C33.8236 48.0819 33.6572 48.1917 33.6572 48.4019C33.6632 48.5242 33.7 48.6434 33.7646 48.7498C33.8292 48.8563 33.9198 48.947 34.029 49.0145C34.2345 49.0877 34.4106 48.9871 34.4106 48.8134Z" fill="#121517"/>
<path d="M50.8998 61.1181C50.8935 60.9936 50.8556 60.8723 50.7893 60.7642C50.7229 60.6561 50.63 60.5643 50.5183 60.4963C50.3128 60.3866 50.1465 60.4963 50.1465 60.7066C50.1525 60.8289 50.1893 60.9481 50.2539 61.0545C50.3185 61.161 50.4091 61.2517 50.5183 61.3192C50.7335 61.4381 50.8998 61.3466 50.8998 61.1181Z" fill="#121517"/>
<path d="M34.4106 52.2224C34.4046 52.1002 34.3678 51.981 34.3032 51.8745C34.2386 51.7681 34.148 51.6774 34.0388 51.6099C33.8236 51.491 33.6572 51.6099 33.6572 51.811C33.664 51.9343 33.701 52.0546 33.7655 52.1624C33.83 52.2702 33.9201 52.3627 34.029 52.4327C34.2345 52.5424 34.4106 52.4693 34.4106 52.2224Z" fill="#121517"/>
<path d="M51.306 59.1369L33.2451 49.3906V50.3049L51.306 60.0512V59.1369Z" fill="#DCF4F4"/>
<path d="M46.4167 55.7794L38.1494 51.3086L37.1025 51.976L38.1494 53.6674L46.4167 58.1291L47.6201 57.5623L46.4167 55.7794Z" fill="#DCF4F4"/>
<path d="M51.306 63.2527L33.2451 53.5156V58.6448L51.306 68.391V63.2527Z" fill="#262D30"/>
<path d="M50.8998 63.9646C50.8944 63.8412 50.8568 63.7209 50.7903 63.6141C50.7238 63.5074 50.6304 63.4174 50.5183 63.352C50.3128 63.2332 50.1465 63.352 50.1465 63.5532C50.1532 63.6765 50.1903 63.7968 50.2547 63.9046C50.3192 64.0124 50.4094 64.1049 50.5183 64.1749C50.7335 64.2846 50.8998 64.1932 50.8998 63.9646Z" fill="#121517"/>
<path d="M34.4106 55.0751C34.4038 54.9517 34.3668 54.8315 34.3023 54.7237C34.2378 54.6159 34.1477 54.5234 34.0388 54.4534C33.8236 54.3437 33.6572 54.4534 33.6572 54.6637C33.6632 54.7859 33.7 54.9051 33.7646 55.0116C33.8292 55.118 33.9198 55.2087 34.029 55.2762C34.2345 55.3951 34.4106 55.2945 34.4106 55.0751Z" fill="#121517"/>
<path d="M50.8998 67.4266C50.8935 67.3022 50.8556 67.1809 50.7893 67.0728C50.7229 66.9647 50.63 66.8729 50.5183 66.8049C50.3128 66.6952 50.1465 66.8049 50.1465 67.0152C50.1525 67.1375 50.1893 67.2567 50.2539 67.3631C50.3185 67.4696 50.4091 67.5603 50.5183 67.6278C50.7335 67.7466 50.8998 67.6461 50.8998 67.4266Z" fill="#121517"/>
<path d="M34.4106 58.5349C34.4046 58.4127 34.3678 58.2935 34.3032 58.187C34.2386 58.0806 34.148 57.9899 34.0388 57.9224C33.8236 57.8035 33.6572 57.9224 33.6572 58.1235C33.664 58.2468 33.701 58.3671 33.7655 58.4749C33.83 58.5827 33.9201 58.6752 34.029 58.7452C34.2345 58.8732 34.4106 58.7635 34.4106 58.5349Z" fill="#121517"/>
<path d="M51.306 65.3634L33.2451 55.6172V56.5315L51.306 66.2777V65.3634Z" fill="#DCF4F4"/>
<path d="M46.4167 62.006L38.1494 57.5352L37.1025 58.2026L38.1494 59.8849L46.4167 64.3557L47.6201 63.7888L46.4167 62.006Z" fill="#DCF4F4"/>
<path d="M51.306 69.5588L33.2451 59.8125V64.9508L51.306 74.697V69.5588Z" fill="#262D30"/>
<path d="M50.8998 70.2732C50.8944 70.1498 50.8568 70.0295 50.7903 69.9227C50.7238 69.816 50.6304 69.726 50.5183 69.6606C50.3128 69.5418 50.1465 69.6606 50.1465 69.8618C50.1525 69.9853 50.1892 70.1058 50.2537 70.2137C50.3183 70.3216 50.4089 70.414 50.5183 70.4835C50.7335 70.5932 50.8998 70.5018 50.8998 70.2732Z" fill="#121517"/>
<path d="M34.4106 61.3876C34.4038 61.2642 34.3668 61.144 34.3023 61.0362C34.2378 60.9284 34.1477 60.8359 34.0388 60.7659C33.8236 60.6562 33.6572 60.7659 33.6572 60.9762C33.6632 61.0984 33.7 61.2176 33.7646 61.3241C33.8292 61.4305 33.9198 61.5212 34.029 61.5887C34.2345 61.7076 34.4106 61.6162 34.4106 61.3876Z" fill="#121517"/>
<path d="M50.8998 73.7392C50.8935 73.6147 50.8556 73.4934 50.7893 73.3853C50.7229 73.2772 50.63 73.1854 50.5183 73.1174C50.3128 73.0077 50.1465 73.1174 50.1465 73.3277C50.1525 73.45 50.1893 73.5692 50.2539 73.6756C50.3185 73.7821 50.4091 73.8728 50.5183 73.9403C50.7335 74.0592 50.8998 73.9677 50.8998 73.7392Z" fill="#121517"/>
<path d="M34.4106 64.8396C34.4046 64.7174 34.3678 64.5982 34.3032 64.4917C34.2386 64.3853 34.148 64.2946 34.0388 64.227C33.8236 64.1082 33.6572 64.227 33.6572 64.4282C33.664 64.5515 33.701 64.6718 33.7655 64.7796C33.83 64.8874 33.9201 64.9799 34.029 65.0499C34.2345 65.1596 34.4106 65.0682 34.4106 64.8396Z" fill="#121517"/>
<path d="M51.306 71.6681L33.2451 61.9219V62.8362L51.306 72.5824V71.6681Z" fill="#DCF4F4"/>
<path d="M46.4167 68.3146L38.1494 63.8438L37.1025 64.5112L38.1494 66.2026L46.4167 70.6643L47.6201 70.0974L46.4167 68.3146Z" fill="#DCF4F4"/>
<path d="M51.306 75.8699L33.2451 66.1328V71.2619L51.306 81.0082V75.8699Z" fill="#262D30"/>
<path d="M50.8998 76.5818C50.8944 76.4583 50.8568 76.338 50.7903 76.2313C50.7238 76.1245 50.6304 76.0346 50.5183 75.9692C50.3128 75.8595 50.1465 75.9692 50.1465 76.1703C50.1525 76.2938 50.1892 76.4143 50.2537 76.5222C50.3183 76.6302 50.4089 76.7225 50.5183 76.792C50.7335 76.9018 50.8998 76.8103 50.8998 76.5818Z" fill="#121517"/>
<path d="M34.4106 67.6962C34.4038 67.5728 34.3668 67.4526 34.3023 67.3448C34.2378 67.237 34.1477 67.1445 34.0388 67.0745C33.8236 66.9648 33.6572 67.0745 33.6572 67.2848C33.6632 67.407 33.7 67.5262 33.7646 67.6327C33.8292 67.7391 33.9198 67.8298 34.029 67.8973C34.2345 68.0162 34.4106 67.9248 34.4106 67.6962Z" fill="#121517"/>
<path d="M50.8998 80.0438C50.8935 79.9194 50.8556 79.7981 50.7893 79.69C50.7229 79.5819 50.63 79.4901 50.5183 79.4221C50.3128 79.3124 50.1465 79.4221 50.1465 79.6324C50.1525 79.7547 50.1893 79.8739 50.2539 79.9803C50.3185 80.0868 50.4091 80.1774 50.5183 80.245C50.7335 80.3638 50.8998 80.2724 50.8998 80.0438Z" fill="#121517"/>
<path d="M34.4106 71.1521C34.4046 71.0299 34.3678 70.9107 34.3032 70.8042C34.2386 70.6978 34.148 70.6071 34.0388 70.5395C33.8236 70.4207 33.6572 70.5395 33.6572 70.7407C33.664 70.864 33.701 70.9843 33.7655 71.0921C33.83 71.1999 33.9201 71.2924 34.029 71.3624C34.2345 71.4721 34.4106 71.3807 34.4106 71.1521Z" fill="#121517"/>
<path d="M51.306 77.9806L33.2451 68.2344V69.1487L51.306 78.8949V77.9806Z" fill="#DCF4F4"/>
<path d="M46.4167 74.6258L38.1494 70.1641L37.1025 70.8223L38.1494 72.5138L46.4167 76.9755L47.6201 76.4086L46.4167 74.6258Z" fill="#DCF4F4"/>
<path d="M51.306 44.3244L33.2451 34.5781V39.7164L51.306 49.4626V44.3244Z" fill="#262D30"/>
<path d="M35.401 38.1618L34.041 37.4212V35.9492L35.401 36.6898V38.1618Z" fill="#121517"/>
<path d="M37.2203 39.1423L35.8506 38.4017V36.9297L37.2203 37.6703V39.1423Z" fill="#121517"/>
<path d="M39.0309 40.1188L37.6611 39.3874V37.9062L39.0309 38.6468V40.1188Z" fill="#121517"/>
<path d="M40.8385 41.094L39.4785 40.3626V38.8906L40.8385 39.6221V41.094Z" fill="#121517"/>
<path d="M42.6598 42.0758L41.29 41.3444V39.8633L42.6598 40.6039V42.0758Z" fill="#121517"/>
<path d="M44.4713 43.0563L43.1113 42.3249V40.8438L44.4713 41.5843V43.0563Z" fill="#121517"/>
<path d="M46.2887 44.0329L44.9189 43.3015V41.8203L46.2887 42.5609V44.0329Z" fill="#121517"/>
<path d="M48.0992 45.0094L46.7393 44.278V42.7969L48.0992 43.5374V45.0094Z" fill="#121517"/>
<path d="M35.401 40.0524L34.041 39.3118V37.8398L35.401 38.5804V40.0524Z" fill="#121517"/>
<path d="M37.2203 41.0329L35.8506 40.3014V38.8203L37.2203 39.5609V41.0329Z" fill="#121517"/>
<path d="M39.0309 42.0133L37.6611 41.2819V39.8008L39.0309 40.5414V42.0133Z" fill="#121517"/>
<path d="M40.8385 42.9886L39.4785 42.2572V40.7852L40.8385 41.5166V42.9886Z" fill="#121517"/>
<path d="M42.6598 43.9651L41.29 43.2337V41.7617L42.6598 42.4931V43.9651Z" fill="#121517"/>
<path d="M44.4713 44.9456L43.1113 44.2142V42.7422L44.4713 43.4736V44.9456Z" fill="#121517"/>
<path d="M46.2887 45.9352L44.9189 45.1947V43.7227L46.2887 44.4541V45.9352Z" fill="#121517"/>
<path d="M48.0992 46.9157L46.7393 46.1751V44.7031L48.0992 45.4346V46.9157Z" fill="#121517"/>
<path d="M50.2127 44.9546C50.2086 44.8743 50.1843 44.796 50.1417 44.7262C50.0991 44.6563 50.0395 44.5967 49.9677 44.5523C49.8305 44.4792 49.7227 44.5523 49.7227 44.6895C49.7268 44.7697 49.7511 44.848 49.7937 44.9179C49.8363 44.9878 49.8959 45.0473 49.9677 45.0917C50.1049 45.1557 50.2127 45.1557 50.2127 44.9546Z" fill="#1764FF"/>
<path style="mix-blend-mode:color-dodge" d="M52.9328 46.4297C52.8812 45.4705 52.5886 44.5361 52.0786 43.7021C51.5687 42.8682 50.8558 42.1583 49.9976 41.6297C48.3637 40.7154 47.0625 41.4651 47.0625 43.2297C47.1164 44.1885 47.41 45.1221 47.9197 45.9556C48.4294 46.7892 49.1411 47.4996 49.9976 48.0297C51.6022 48.9074 52.9328 48.1943 52.9328 46.4297Z" fill="url(#paint0_radial_1886_30539)"/>
<path style="mix-blend-mode:color-dodge" d="M50.1177 44.9092C50.1542 44.4928 50.1041 44.0737 49.9701 43.6749C49.8915 43.6292 49.8226 44.1046 49.8226 44.7446C49.7871 45.161 49.8371 45.5799 49.9701 45.9789C50.0488 46.0703 50.1177 45.54 50.1177 44.9092Z" fill="url(#paint1_radial_1886_30539)"/>
<path style="mix-blend-mode:color-dodge" d="M50.0467 44.729C49.5282 44.1347 49.0684 43.6959 49.0684 43.7507C49.2903 44.1821 49.5806 44.5797 49.9293 44.9302C50.4381 45.5153 50.9077 45.9633 50.9077 45.9084C50.6867 45.4766 50.3963 45.0789 50.0467 44.729Z" fill="url(#paint2_radial_1886_30539)"/>
<path style="mix-blend-mode:color-dodge" d="M49.8989 44.6467C49.3804 44.6924 48.9988 44.8021 49.0379 44.9027C49.0771 45.0032 49.5271 45.049 50.0163 45.0032C50.5055 44.9575 50.9066 44.8478 50.8675 44.7472C50.8284 44.6467 50.4077 44.6101 49.8989 44.6467Z" fill="url(#paint3_radial_1886_30539)"/>
<path style="mix-blend-mode:color-dodge" d="M50.2818 45.0114C50.2732 44.9004 50.2379 44.7926 50.1785 44.696C50.1192 44.5995 50.0372 44.5166 49.9387 44.4537C49.7525 44.3531 49.5957 44.4537 49.5957 44.6457C49.6028 44.7558 49.6376 44.8628 49.6971 44.9581C49.7567 45.0534 49.8395 45.1343 49.9387 45.1943C50.1544 45.2948 50.2818 45.2126 50.2818 45.0114Z" fill="url(#paint4_radial_1886_30539)"/>
<path d="M50.2127 47.1226C50.2086 47.0423 50.1843 46.964 50.1417 46.8941C50.0991 46.8242 50.0395 46.7647 49.9677 46.7203C49.8305 46.6471 49.7227 46.7203 49.7227 46.8574C49.7268 46.9377 49.7511 47.016 49.7937 47.0859C49.8363 47.1557 49.8959 47.2153 49.9677 47.2597C50.1049 47.3328 50.2127 47.278 50.2127 47.1226Z" fill="#E81515"/>
<path style="mix-blend-mode:color-dodge" d="M52.9328 48.5915C52.8812 47.6323 52.5886 46.6979 52.0786 45.864C51.5687 45.03 50.8558 44.3201 49.9976 43.7915C48.3637 42.8772 47.0625 43.6178 47.0625 45.3915C47.1164 46.3503 47.41 47.2839 47.9197 48.1174C48.4294 48.951 49.1411 49.6614 49.9976 50.1915C51.6022 51.0692 52.9328 50.3561 52.9328 48.5915Z" fill="url(#paint5_radial_1886_30539)"/>
<path style="mix-blend-mode:color-dodge" d="M50.1177 47.0663C50.1523 46.6499 50.1022 46.2312 49.9701 45.832C49.8915 45.832 49.8226 46.2709 49.8226 46.9109C49.7871 47.3273 49.8371 47.7462 49.9701 48.1452C50.0488 48.1909 50.1177 47.7063 50.1177 47.0663Z" fill="url(#paint6_radial_1886_30539)"/>
<path style="mix-blend-mode:color-dodge" d="M50.0467 46.897C49.5282 46.3027 49.0684 45.8638 49.0684 45.9187C49.2903 46.35 49.5806 46.7476 49.9293 47.0981C50.4381 47.6924 50.9077 48.1313 50.9077 48.0764C50.6867 47.6446 50.3963 47.2468 50.0467 46.897Z" fill="url(#paint7_radial_1886_30539)"/>
<path style="mix-blend-mode:color-dodge" d="M49.8989 46.8107C49.3804 46.8107 48.9988 46.9753 49.0379 47.0667C49.0771 47.1582 49.5271 47.213 50.0163 47.1673C50.5055 47.1216 50.9066 47.0119 50.8675 46.9113C50.8284 46.8107 50.4077 46.7742 49.8989 46.8107Z" fill="url(#paint8_radial_1886_30539)"/>
<path style="mix-blend-mode:color-dodge" d="M50.2818 47.1794C50.2732 47.0683 50.2379 46.9605 50.1785 46.864C50.1192 46.7674 50.0372 46.6846 49.9387 46.6217C49.7525 46.5211 49.5957 46.6217 49.5957 46.8137C49.6028 46.9238 49.6376 47.0308 49.6971 47.1261C49.7567 47.2214 49.8395 47.3023 49.9387 47.3622C50.1544 47.4628 50.2818 47.3805 50.2818 47.1794Z" fill="url(#paint9_radial_1886_30539)"/>
<path d="M51.306 50.633L33.2451 40.8867V46.025L51.306 55.7712V50.633Z" fill="#262D30"/>
<path d="M35.401 44.4704L34.041 43.7298V42.2578L35.401 42.9984V44.4704Z" fill="#121517"/>
<path d="M37.2203 45.4508L35.8506 44.7103V43.2383L37.2203 43.9788V45.4508Z" fill="#121517"/>
<path d="M39.0309 46.4274L37.6611 45.696V44.2148L39.0309 44.9554V46.4274Z" fill="#121517"/>
<path d="M40.8385 47.404L39.4785 46.6634V45.1914L40.8385 45.932V47.404Z" fill="#121517"/>
<path d="M42.6598 48.3831L41.29 47.6517V46.1797L42.6598 46.9111V48.3831Z" fill="#121517"/>
<path d="M44.4713 49.3636L43.1113 48.6322V47.1602L44.4713 47.8916V49.3636Z" fill="#121517"/>
<path d="M46.2887 50.3362L44.9189 49.6048V48.1328L46.2887 48.8642V50.3362Z" fill="#121517"/>
<path d="M48.0992 51.3167L46.7393 50.5853V49.1133L48.0992 49.8447V51.3167Z" fill="#121517"/>
<path d="M35.401 46.3649L34.041 45.6335V44.1523L35.401 44.8929V46.3649Z" fill="#121517"/>
<path d="M37.2203 47.3401L35.8506 46.6087V45.1367L37.2203 45.8681V47.3401Z" fill="#121517"/>
<path d="M39.0309 48.3206L37.6611 47.5892V46.1172L39.0309 46.8486V48.3206Z" fill="#121517"/>
<path d="M40.8385 49.3011L39.4785 48.5697V47.0977L40.8385 47.8291V49.3011Z" fill="#121517"/>
<path d="M42.6598 50.2776L41.29 49.5462V48.0742L42.6598 48.8056V50.2776Z" fill="#121517"/>
<path d="M44.4713 51.2542L43.1113 50.5228V49.0508L44.4713 49.7822V51.2542Z" fill="#121517"/>
<path d="M46.2887 52.2399L44.9189 51.4993V50.0273L46.2887 50.7679V52.2399Z" fill="#121517"/>
<path d="M48.0992 53.2204L46.7393 52.4798V51.0078L48.0992 51.7392V53.2204Z" fill="#121517"/>
<path d="M50.2127 51.5523C50.2086 51.472 50.1843 51.3937 50.1417 51.3238C50.0991 51.2539 50.0395 51.1944 49.9677 51.15C49.8305 51.0768 49.7227 51.15 49.7227 51.2871C49.7268 51.3674 49.7511 51.4457 49.7937 51.5155C49.8363 51.5854 49.8959 51.645 49.9677 51.6894C50.1049 51.7351 50.2127 51.6803 50.2127 51.5523Z" fill="#1764FF"/>
<path style="mix-blend-mode:color-dodge" d="M52.9328 52.9925C52.8797 52.0349 52.5863 51.1023 52.0765 50.2701C51.5666 49.4379 50.8545 48.7293 49.9976 48.2017C48.3637 47.2874 47.0625 48.028 47.0625 49.8017C47.1156 50.7593 47.4089 51.6919 47.9188 52.5241C48.4287 53.3564 49.1408 54.0649 49.9976 54.5925C51.6022 55.4794 52.9328 54.7662 52.9328 52.9925Z" fill="url(#paint10_radial_1886_30539)"/>
<path style="mix-blend-mode:color-dodge" d="M50.1177 51.4726C50.1532 51.0562 50.1031 50.6373 49.9701 50.2383C49.8915 50.2383 49.8226 50.6771 49.8226 51.3171C49.7871 51.7335 49.8371 52.1524 49.9701 52.5514C50.0488 52.5971 50.1177 52.1126 50.1177 51.4726Z" fill="url(#paint11_radial_1886_30539)"/>
<path style="mix-blend-mode:color-dodge" d="M50.0467 51.3033C49.5282 50.6999 49.0684 50.2702 49.0684 50.325C49.2893 50.7541 49.5797 51.1489 49.9293 51.4953C50.4381 52.0896 50.9077 52.5284 50.9077 52.4736C50.6852 52.0453 50.3949 51.6508 50.0467 51.3033Z" fill="url(#paint12_radial_1886_30539)"/>
<path style="mix-blend-mode:color-dodge" d="M49.8989 51.217C49.3804 51.2627 48.9988 51.3724 49.0379 51.473C49.0771 51.5736 49.5271 51.6101 50.0163 51.5736C50.5055 51.537 50.9066 51.4181 50.8675 51.3176C50.8284 51.217 50.4077 51.1713 49.8989 51.217Z" fill="url(#paint13_radial_1886_30539)"/>
<path style="mix-blend-mode:color-dodge" d="M50.2818 51.5571C50.2747 51.447 50.2399 51.34 50.1804 51.2447C50.1208 51.1494 50.038 51.0685 49.9387 51.0086C49.7525 50.908 49.5957 51.0086 49.5957 51.1914C49.6021 51.3029 49.6364 51.4115 49.696 51.5084C49.7556 51.6053 49.8387 51.6877 49.9387 51.7491C50.1544 51.868 50.2818 51.7857 50.2818 51.5571Z" fill="url(#paint14_radial_1886_30539)"/>
<path d="M50.2127 53.6929C50.2086 53.6126 50.1843 53.5343 50.1417 53.4644C50.0991 53.3946 50.0395 53.335 49.9677 53.2906C49.8305 53.2174 49.7227 53.2906 49.7227 53.4277C49.7268 53.508 49.7511 53.5863 49.7937 53.6562C49.8363 53.7261 49.8959 53.7856 49.9677 53.83C50.1049 53.9032 50.2127 53.8483 50.2127 53.6929Z" fill="#E81515"/>
<path style="mix-blend-mode:color-dodge" d="M52.9328 55.2126C52.8812 54.2534 52.5886 53.319 52.0786 52.4851C51.5687 51.6511 50.8558 50.9412 49.9976 50.4126C48.3637 49.4983 47.0625 50.2389 47.0625 52.0126C47.1156 52.9703 47.4089 53.9029 47.9188 54.7351C48.4287 55.5673 49.1408 56.2758 49.9976 56.8035C51.6022 57.6446 52.9328 56.9315 52.9328 55.2126Z" fill="url(#paint15_radial_1886_30539)"/>
<path style="mix-blend-mode:color-dodge" d="M50.1177 53.6396C50.1532 53.2232 50.1031 52.8043 49.9701 52.4053C49.8915 52.3596 49.8226 52.8442 49.8226 53.4842C49.7871 53.9006 49.8371 54.3195 49.9701 54.7185C50.0488 54.7642 50.1177 54.2979 50.1177 53.6396Z" fill="url(#paint16_radial_1886_30539)"/>
<path style="mix-blend-mode:color-dodge" d="M50.0467 53.4673C49.5282 52.873 49.0684 52.4341 49.0684 52.489C49.2893 52.9181 49.5797 53.3128 49.9293 53.6593C50.4381 54.2536 50.9077 54.6924 50.9077 54.6376C50.6852 54.2093 50.3949 53.8148 50.0467 53.4673Z" fill="url(#paint17_radial_1886_30539)"/>
<path style="mix-blend-mode:color-dodge" d="M49.8989 53.3867C49.3804 53.3867 48.9988 53.5421 49.0379 53.6427C49.0771 53.7433 49.5271 53.789 50.0163 53.7433C50.5055 53.6976 50.9066 53.5879 50.8675 53.4873C50.8284 53.3867 50.4077 53.3867 49.8989 53.3867Z" fill="url(#paint18_radial_1886_30539)"/>
<path style="mix-blend-mode:color-dodge" d="M50.2818 53.7499C50.2754 53.6383 50.2411 53.5298 50.1815 53.4329C50.1219 53.336 50.0387 53.2536 49.9387 53.1922C49.7525 53.0916 49.5957 53.1922 49.5957 53.375C49.6021 53.4865 49.6364 53.5951 49.696 53.692C49.7556 53.7889 49.8387 53.8713 49.9387 53.9327C50.1544 54.0333 50.2818 53.951 50.2818 53.7499Z" fill="url(#paint19_radial_1886_30539)"/>
<path d="M51.306 82.172L33.2451 72.4258V77.564L51.306 87.3103V82.172Z" fill="#262D30"/>
<path d="M49.9384 82.0377L48.4121 81.2148V85.1463L49.9384 85.9783V82.0377Z" fill="#101314"/>
<path d="M44.6943 79.3606L41.583 77.6875V81.3172L44.6943 82.9903V79.3606Z" fill="#101314"/>
<path d="M34.2674 77.8336L33.7969 77.5867V73.125L34.2674 73.3719V77.8336Z" fill="#101314"/>
<path d="M35.2263 78.3544L34.7559 78.0984V73.6367L35.2263 73.8927V78.3544Z" fill="#101314"/>
<path d="M36.1716 78.8661L35.7012 78.6101V74.1484L36.1716 74.4044V78.8661Z" fill="#101314"/>
<path d="M37.1228 79.3779L36.6523 79.1219V74.6602L37.1228 74.9162V79.3779Z" fill="#101314"/>
<path d="M38.0828 79.8935L37.6123 79.6375V75.1758L38.0828 75.4318V79.8935Z" fill="#101314"/>
<path d="M39.032 80.4L38.5615 80.1531V75.6914L39.032 75.9383V80.4Z" fill="#101314"/>
<path d="M39.9812 80.9247L39.5107 80.6687V76.207L39.9812 76.4539V80.9247Z" fill="#101314"/>
<path d="M40.9314 81.4365L40.4707 81.1805V76.7188L40.9314 76.9748V81.4365Z" fill="#101314"/>
<path d="M46.6141 81.0731C46.6093 80.9917 46.5847 80.9124 46.5422 80.8412C46.4998 80.7699 46.4406 80.7085 46.3691 80.6617C46.2221 80.5885 46.1143 80.6617 46.1143 80.7988C46.1178 80.8803 46.143 80.9597 46.1874 81.0299C46.2319 81.1001 46.2943 81.1589 46.3691 81.2011C46.3918 81.2213 46.4209 81.2341 46.4521 81.2377C46.4832 81.2414 46.5148 81.2356 46.5422 81.2213C46.5695 81.207 46.5913 81.1849 46.6043 81.1582C46.6172 81.1316 46.6207 81.1017 46.6141 81.0731Z" fill="#1764FF"/>
<path style="mix-blend-mode:color-dodge" d="M49.3019 82.5313C49.248 81.5725 48.9544 80.6389 48.4447 79.8053C47.935 78.9718 47.2233 78.2614 46.3668 77.7313C44.7231 76.817 43.4316 77.5667 43.4316 79.3313C43.484 80.2904 43.777 81.2245 44.2868 82.0583C44.7967 82.8921 45.5092 83.6022 46.3668 84.1313C48.0007 85.009 49.3019 84.2958 49.3019 82.5313Z" fill="url(#paint20_radial_1886_30539)"/>
<path style="mix-blend-mode:color-dodge" d="M46.5168 81.0147C46.5533 80.5982 46.5032 80.1792 46.3692 79.7804C46.2807 79.7347 46.2118 80.2101 46.2118 80.8501C46.1704 81.2672 46.224 81.6878 46.3692 82.0844C46.4479 82.1301 46.5168 81.6547 46.5168 81.0147Z" fill="url(#paint21_radial_1886_30539)"/>
<path style="mix-blend-mode:color-dodge" d="M46.4364 80.8149C45.9276 80.2207 45.458 79.7818 45.458 79.8367C45.676 80.2679 45.9631 80.6656 46.3092 81.0161C46.818 81.6104 47.2876 82.0492 47.2876 81.9944C47.0695 81.5631 46.7825 81.1654 46.4364 80.8149Z" fill="url(#paint22_radial_1886_30539)"/>
<path style="mix-blend-mode:color-dodge" d="M46.2905 80.7577C45.7817 80.7577 45.4001 80.9132 45.4393 81.0046C45.4784 81.096 45.9285 81.1509 46.4177 81.1052C46.9069 81.0595 47.308 80.9497 47.2689 80.8492C47.2297 80.7486 46.7992 80.712 46.2905 80.7577Z" fill="url(#paint23_radial_1886_30539)"/>
<path style="mix-blend-mode:color-dodge" d="M46.7017 81.1157C46.6964 81.0063 46.6635 80.8995 46.6056 80.8041C46.5477 80.7088 46.4664 80.6276 46.3684 80.5672C46.1724 80.4666 46.0254 80.5672 46.0254 80.75C46.0309 80.8605 46.065 80.9681 46.1247 81.0636C46.1845 81.1591 46.2681 81.2397 46.3684 81.2986C46.5547 81.3992 46.7017 81.3169 46.7017 81.1157Z" fill="url(#paint24_radial_1886_30539)"/>
<path d="M46.6141 83.2372C46.6079 83.1561 46.5827 83.0772 46.5404 83.0062C46.4981 82.9351 46.4396 82.8735 46.3691 82.8257C46.2221 82.7526 46.1143 82.8257 46.1143 82.9629C46.1195 83.0452 46.1453 83.1253 46.1895 83.1967C46.2337 83.2681 46.2952 83.329 46.3691 83.3743C46.4965 83.4475 46.6141 83.3835 46.6141 83.2372Z" fill="#E81515"/>
<path style="mix-blend-mode:color-dodge" d="M49.3019 84.6992C49.248 83.7405 48.9544 82.8069 48.4447 81.9733C47.935 81.1397 47.2233 80.4294 46.3668 79.8993C44.7231 78.985 43.4316 79.7347 43.4316 81.4992C43.484 82.4583 43.777 83.3925 44.2868 84.2263C44.7967 85.0601 45.5092 85.7702 46.3668 86.2992C48.0007 87.2135 49.3019 86.4638 49.3019 84.6992Z" fill="url(#paint25_radial_1886_30539)"/>
<path style="mix-blend-mode:color-dodge" d="M46.5162 83.1796C46.5527 82.7632 46.5026 82.3441 46.3686 81.9453C46.2801 81.9453 46.2112 82.375 46.2112 83.015C46.171 83.4321 46.2246 83.8525 46.3686 84.2493C46.4473 84.295 46.5162 83.8196 46.5162 83.1796Z" fill="url(#paint26_radial_1886_30539)"/>
<path style="mix-blend-mode:color-dodge" d="M46.4364 82.9985C45.9276 82.4043 45.458 81.9654 45.458 82.0203C45.676 82.4515 45.9631 82.8492 46.3092 83.1997C46.818 83.794 47.2876 84.2328 47.2876 84.178C47.0695 83.7467 46.7825 83.349 46.4364 82.9985Z" fill="url(#paint27_radial_1886_30539)"/>
<path style="mix-blend-mode:color-dodge" d="M46.2905 82.9257C45.7817 82.9257 45.4001 83.0811 45.4393 83.1726C45.4784 83.264 45.9285 83.3189 46.4177 83.2731C46.9069 83.2274 47.308 83.1177 47.2689 83.0171C47.2297 82.9166 46.7992 82.88 46.2905 82.9257Z" fill="url(#paint28_radial_1886_30539)"/>
<path style="mix-blend-mode:color-dodge" d="M46.7017 83.2837C46.6964 83.1742 46.6635 83.0675 46.6056 82.9721C46.5477 82.8768 46.4664 82.7956 46.3684 82.7351C46.1724 82.6346 46.0254 82.7351 46.0254 82.918C46.0309 83.0285 46.065 83.136 46.1247 83.2315C46.1845 83.3271 46.2681 83.4077 46.3684 83.4666C46.5547 83.558 46.7017 83.4848 46.7017 83.2837Z" fill="url(#paint29_radial_1886_30539)"/>
<path d="M73.623 48.3656C73.6356 48.1321 73.7079 47.9048 73.8339 47.7027C73.9599 47.5007 74.1359 47.3298 74.3471 47.2045C74.7384 46.985 75.0613 47.1587 75.0613 47.5884C75.0467 47.8205 74.9745 48.0462 74.8506 48.2477C74.7266 48.4492 74.5543 48.621 74.3471 48.7496C73.9459 48.9599 73.623 48.8136 73.623 48.3656Z" fill="#121517"/>
<path d="M71.4268 49.5569C71.4398 49.3245 71.5113 49.0983 71.6354 48.8966C71.7595 48.6949 71.9327 48.5233 72.141 48.3958C72.5421 48.1763 72.865 48.3958 72.865 48.7798C72.8508 49.0129 72.7778 49.2397 72.652 49.4415C72.5262 49.6433 72.3511 49.8144 72.141 49.9409C71.7496 50.1512 71.4268 49.9775 71.4268 49.5569Z" fill="#121517"/>
<path d="M69.2227 50.7406C69.2357 50.5082 69.3072 50.282 69.4313 50.0803C69.5554 49.8785 69.7286 49.707 69.9369 49.5795C70.338 49.36 70.6609 49.5337 70.6609 49.9635C70.6467 50.1966 70.5737 50.4234 70.4479 50.6252C70.3221 50.827 70.147 50.9981 69.9369 51.1246C69.5455 51.3349 69.2227 51.1612 69.2227 50.7406Z" fill="#121517"/>
<path d="M67.0234 51.9319C67.0365 51.6995 67.108 51.4733 67.2321 51.2716C67.3562 51.0699 67.5294 50.8983 67.7377 50.7708C68.1388 50.5513 68.4617 50.7708 68.4617 51.1548C68.4491 51.3883 68.3768 51.6156 68.2508 51.8176C68.1248 52.0197 67.9489 52.1905 67.7377 52.3159C67.3463 52.5262 67.0234 52.3525 67.0234 51.9319Z" fill="#121517"/>
<path d="M64.8203 53.1103C64.8349 52.8795 64.9071 52.6551 65.0311 52.455C65.1551 52.255 65.3275 52.0849 65.5345 51.9583C65.9357 51.7388 66.2488 51.9583 66.2488 52.3423C66.238 52.5751 66.1676 52.8022 66.0433 53.0043C65.919 53.2064 65.7445 53.3775 65.5345 53.5034C65.1432 53.7137 64.8203 53.54 64.8203 53.1103Z" fill="#121517"/>
<path d="M62.6191 54.2991C62.6299 54.0662 62.7003 53.8392 62.8246 53.6371C62.9489 53.435 63.1234 53.2638 63.3334 53.138C63.7247 52.9185 64.0476 53.1379 64.0476 53.5219C64.0345 53.7543 63.963 53.9805 63.8389 54.1823C63.7149 54.384 63.5416 54.5556 63.3334 54.6831C62.9322 54.9025 62.6191 54.7288 62.6191 54.2991Z" fill="#121517"/>
<path d="M60.4072 55.4893C60.4213 55.2573 60.4944 55.0318 60.6203 54.8315C60.7462 54.6312 60.9213 54.4618 61.1312 54.3373C61.5226 54.1178 61.8454 54.2915 61.8454 54.7213C61.8309 54.9533 61.7587 55.179 61.6348 55.3805C61.5108 55.582 61.3384 55.7538 61.1312 55.8824C60.7301 56.1293 60.4072 55.919 60.4072 55.4893Z" fill="#121517"/>
<path d="M58.207 56.6858C58.2196 56.4523 58.2919 56.225 58.4179 56.023C58.5439 55.8209 58.7198 55.6501 58.931 55.5247C59.3224 55.3052 59.6453 55.5247 59.6453 55.9087C59.6307 56.1407 59.5585 56.3664 59.4346 56.5679C59.3106 56.7694 59.1382 56.9412 58.931 57.0698C58.5299 57.2801 58.207 57.1064 58.207 56.6858Z" fill="#121517"/>
<path d="M56.0049 57.8733C56.018 57.6409 56.0894 57.4147 56.2135 57.213C56.3376 57.0113 56.5108 56.8397 56.7191 56.7122C57.1202 56.4927 57.4431 56.7122 57.4431 57.0962C57.4289 57.3293 57.356 57.5561 57.2301 57.7579C57.1043 57.9597 56.9292 58.1308 56.7191 58.2573C56.3277 58.4676 56.0049 58.2939 56.0049 57.8733Z" fill="#121517"/>
<path d="M73.623 50.8796C73.6402 50.6483 73.7145 50.4239 73.8402 50.224C73.9658 50.0242 74.1393 49.8542 74.3471 49.7276C74.7384 49.5173 75.0613 49.7276 75.0613 50.1207C75.0459 50.3526 74.9735 50.578 74.8496 50.7794C74.7257 50.9808 74.5537 51.1528 74.3471 51.2818C73.9459 51.483 73.623 51.3093 73.623 50.8796Z" fill="#121517"/>
<path d="M71.4268 52.0684C71.4421 51.8365 71.5145 51.6111 71.6384 51.4097C71.7623 51.2083 71.9343 51.0363 72.141 50.9073C72.5421 50.697 72.865 50.9073 72.865 51.3004C72.8508 51.5336 72.7778 51.7603 72.652 51.9621C72.5262 52.1639 72.3511 52.335 72.141 52.4615C71.7496 52.6718 71.4268 52.4707 71.4268 52.0684Z" fill="#121517"/>
<path d="M69.2227 53.2559C69.238 53.024 69.3104 52.7986 69.4343 52.5972C69.5582 52.3958 69.7302 52.2238 69.9369 52.0948C70.338 51.8845 70.6609 52.0948 70.6609 52.4879C70.6452 52.7207 70.5716 52.9469 70.4459 53.1485C70.3202 53.3501 70.1459 53.5215 69.9369 53.649C69.5455 53.8593 69.2227 53.6856 69.2227 53.2559Z" fill="#121517"/>
<path d="M67.0234 54.4434C67.0388 54.2115 67.1112 53.9861 67.2351 53.7847C67.359 53.5833 67.531 53.4113 67.7377 53.2823C68.1388 53.072 68.4617 53.2823 68.4617 53.6754C68.446 53.9082 68.3723 54.1344 68.2467 54.336C68.121 54.5376 67.9467 54.709 67.7377 54.8365C67.3463 55.0468 67.0234 54.8731 67.0234 54.4434Z" fill="#121517"/>
<path d="M64.8203 55.6309C64.8357 55.399 64.9081 55.1736 65.032 54.9722C65.1559 54.7708 65.3278 54.5988 65.5345 54.4698C65.9357 54.2595 66.2488 54.4698 66.2488 54.8629C66.2349 55.0951 66.1631 55.321 66.0391 55.5227C65.9151 55.7243 65.7423 55.896 65.5345 56.024C65.1432 56.2343 64.8203 56.0606 64.8203 55.6309Z" fill="#121517"/>
<path d="M62.6191 56.8223C62.633 56.5901 62.7048 56.3642 62.8288 56.1625C62.9528 55.9609 63.1256 55.7892 63.3334 55.6612C63.7247 55.4509 64.0476 55.6612 64.0476 56.0543C64.0322 56.2862 63.9598 56.5116 63.8359 56.713C63.712 56.9144 63.54 57.0864 63.3334 57.2154C62.9322 57.4257 62.6191 57.252 62.6191 56.8223Z" fill="#121517"/>
<path d="M60.4072 58.0098C60.4229 57.777 60.4965 57.5508 60.6222 57.3492C60.7479 57.1476 60.9222 56.9762 61.1312 56.8487C61.5226 56.6384 61.8454 56.8487 61.8454 57.2418C61.8309 57.4738 61.7587 57.6995 61.6348 57.901C61.5108 58.1025 61.3384 58.2744 61.1312 58.4029C60.7301 58.6132 60.4072 58.4395 60.4072 58.0098Z" fill="#121517"/>
<path d="M58.207 59.2012C58.2227 58.9684 58.2963 58.7422 58.422 58.5406C58.5477 58.339 58.722 58.1676 58.931 58.0401C59.3224 57.8298 59.6453 58.0401 59.6453 58.4332C59.6299 58.6651 59.5575 58.8905 59.4336 59.0919C59.3097 59.2933 59.1377 59.4653 58.931 59.5943C58.5299 59.7863 58.207 59.6309 58.207 59.2012Z" fill="#121517"/>
<path d="M56.0049 60.3887C56.0202 60.1568 56.0927 59.9314 56.2165 59.73C56.3404 59.5286 56.5124 59.3566 56.7191 59.2276C57.1202 59.0173 57.4431 59.2276 57.4431 59.6207C57.4274 59.8535 57.3538 60.0797 57.2281 60.2813C57.1024 60.4829 56.9281 60.6543 56.7191 60.7818C56.3277 60.9921 56.0049 60.8184 56.0049 60.3887Z" fill="#121517"/>
<path d="M73.623 53.385C73.6356 53.1514 73.7079 52.9241 73.8339 52.7221C73.9599 52.5201 74.1359 52.3492 74.3471 52.2238C74.7384 52.0136 75.0613 52.2238 75.0613 52.6078C75.0482 52.8402 74.9767 53.0664 74.8526 53.2682C74.7285 53.4699 74.5553 53.6415 74.3471 53.769C73.9459 54.0067 73.623 53.833 73.623 53.385Z" fill="#121517"/>
<path d="M71.4268 54.592C71.4398 54.3596 71.5113 54.1334 71.6354 53.9317C71.7595 53.73 71.9327 53.5584 72.141 53.4309C72.5421 53.2206 72.865 53.4309 72.865 53.8149C72.8524 54.0484 72.7801 54.2757 72.6541 54.4777C72.5281 54.6798 72.3522 54.8506 72.141 54.976C71.7496 55.2137 71.4268 55.0217 71.4268 54.592Z" fill="#121517"/>
<path d="M69.2227 55.7795C69.2357 55.5471 69.3072 55.3209 69.4313 55.1192C69.5554 54.9175 69.7286 54.7459 69.9369 54.6184C70.338 54.4081 70.6609 54.6184 70.6609 55.0024C70.6483 55.2359 70.576 55.4632 70.45 55.6652C70.324 55.8673 70.1481 56.0381 69.9369 56.1635C69.5455 56.3829 69.2227 56.2092 69.2227 55.7795Z" fill="#121517"/>
<path d="M67.0234 56.9709C67.0365 56.7385 67.108 56.5123 67.2321 56.3106C67.3562 56.1089 67.5294 55.9373 67.7377 55.8098C68.1388 55.5995 68.4617 55.8098 68.4617 56.1938C68.4491 56.4273 68.3768 56.6546 68.2508 56.8566C68.1248 57.0587 67.9489 57.2295 67.7377 57.3549C67.3463 57.5743 67.0234 57.4006 67.0234 56.9709Z" fill="#121517"/>
<path d="M64.8203 58.1584C64.8349 57.9264 64.907 57.7007 65.031 57.4992C65.1549 57.2977 65.3273 57.1258 65.5345 56.9973C65.9357 56.787 66.2488 56.9973 66.2488 57.3813C66.238 57.6142 66.1676 57.8412 66.0433 58.0433C65.919 58.2454 65.7445 58.4166 65.5345 58.5424C65.1432 58.7618 64.8203 58.5881 64.8203 58.1584Z" fill="#121517"/>
<path d="M62.6191 59.3459C62.6314 59.1134 62.7026 58.8869 62.8268 58.685C62.9509 58.4832 63.1245 58.3117 63.3334 58.1848C63.7247 57.9745 64.0476 58.1848 64.0476 58.5688C64.0345 58.8011 63.963 59.0274 63.8389 59.2291C63.7149 59.4308 63.5416 59.6024 63.3334 59.7299C62.9322 59.9493 62.6191 59.7848 62.6191 59.3459Z" fill="#121517"/>
<path d="M60.4072 60.5373C60.4214 60.3041 60.4944 60.0774 60.6202 59.8756C60.746 59.6738 60.9211 59.5027 61.1312 59.3762C61.5226 59.1659 61.8454 59.3762 61.8454 59.7602C61.8324 59.9925 61.7609 60.2188 61.6368 60.4205C61.5127 60.6222 61.3395 60.7938 61.1312 60.9213C60.7301 61.1407 60.4072 60.967 60.4072 60.5373Z" fill="#121517"/>
<path d="M58.207 61.7248C58.2196 61.4913 58.2919 61.264 58.4179 61.062C58.5439 60.8599 58.7198 60.6891 58.931 60.5637C59.3224 60.3534 59.6453 60.5637 59.6453 60.9477C59.6322 61.18 59.5607 61.4063 59.4366 61.608C59.3125 61.8097 59.1393 61.9813 58.931 62.1088C58.5299 62.3283 58.207 62.1545 58.207 61.7248Z" fill="#121517"/>
<path d="M56.0049 62.9123C56.018 62.68 56.0894 62.4537 56.2135 62.252C56.3376 62.0503 56.5108 61.8787 56.7191 61.7512C57.1202 61.5409 57.4431 61.7512 57.4431 62.1352C57.4305 62.3687 57.3582 62.596 57.2322 62.798C57.1062 63.0001 56.9303 63.1709 56.7191 63.2963C56.3277 63.5157 56.0049 63.342 56.0049 62.9123Z" fill="#121517"/>
<path d="M73.623 55.9281C73.6356 55.6946 73.7079 55.4673 73.8339 55.2652C73.9599 55.0632 74.1359 54.8923 74.3471 54.767C74.7384 54.5475 75.0613 54.7212 75.0613 55.1509C75.0482 55.3833 74.9767 55.6095 74.8526 55.8113C74.7285 56.013 74.5553 56.1846 74.3471 56.3121C73.9459 56.5224 73.623 56.3487 73.623 55.9281Z" fill="#121517"/>
<path d="M71.4268 57.1155C71.4398 56.8831 71.5113 56.6569 71.6354 56.4552C71.7595 56.2535 71.9327 56.0819 72.141 55.9544C72.5421 55.7349 72.865 55.9544 72.865 56.3384C72.8524 56.5719 72.7801 56.7992 72.6541 57.0012C72.5281 57.2032 72.3522 57.3741 72.141 57.4995C71.7496 57.7098 71.4268 57.5361 71.4268 57.1155Z" fill="#121517"/>
<path d="M69.2227 58.303C69.2357 58.0706 69.3072 57.8444 69.4313 57.6427C69.5554 57.4409 69.7286 57.2694 69.9369 57.1419C70.338 56.9224 70.6609 57.1419 70.6609 57.5259C70.6483 57.7594 70.576 57.9867 70.45 58.1887C70.324 58.3907 70.1481 58.5616 69.9369 58.687C69.5455 58.8699 69.2227 58.7236 69.2227 58.303Z" fill="#121517"/>
<path d="M67.0234 59.4905C67.0365 59.2581 67.108 59.0319 67.2321 58.8302C67.3562 58.6284 67.5294 58.4569 67.7377 58.3294C68.1388 58.1099 68.4617 58.3294 68.4617 58.7134C68.4491 58.9469 68.3768 59.1742 68.2508 59.3762C68.1248 59.5782 67.9489 59.7491 67.7377 59.8745C67.3463 60.0848 67.0234 59.9111 67.0234 59.4905Z" fill="#121517"/>
<path d="M64.8203 60.7014C64.8334 60.4691 64.9049 60.2429 65.029 60.0411C65.153 59.8394 65.3262 59.6678 65.5345 59.5403C65.9357 59.3209 66.2488 59.5403 66.2488 59.9243C66.238 60.1572 66.1676 60.3842 66.0433 60.5863C65.919 60.7884 65.7445 60.9596 65.5345 61.0854C65.1432 61.2774 64.8203 61.1037 64.8203 60.7014Z" fill="#121517"/>
<path d="M62.6191 61.8695C62.6299 61.6366 62.7003 61.4096 62.8246 61.2075C62.9489 61.0054 63.1234 60.8342 63.3334 60.7084C63.7247 60.4889 64.0476 60.6626 64.0476 61.0924C64.0345 61.3247 63.963 61.5509 63.8389 61.7527C63.7149 61.9544 63.5416 62.126 63.3334 62.2535C62.9322 62.4638 62.6191 62.2992 62.6191 61.8695Z" fill="#121517"/>
<path d="M60.4072 63.0608C60.4198 62.8273 60.4921 62.6 60.6181 62.398C60.7441 62.1959 60.92 62.0251 61.1312 61.8997C61.5226 61.6802 61.8454 61.8997 61.8454 62.2837C61.8324 62.516 61.7609 62.7423 61.6368 62.944C61.5127 63.1457 61.3395 63.3173 61.1312 63.4448C60.7301 63.6551 60.4072 63.4448 60.4072 63.0608Z" fill="#121517"/>
<path d="M58.207 64.2483C58.2196 64.0148 58.2919 63.7875 58.4179 63.5855C58.5439 63.3834 58.7198 63.2126 58.931 63.0872C59.3224 62.8677 59.6453 63.0872 59.6453 63.4712C59.6322 63.7035 59.5607 63.9297 59.4366 64.1315C59.3125 64.3332 59.1393 64.5048 58.931 64.6323C58.5299 64.8426 58.207 64.6689 58.207 64.2483Z" fill="#121517"/>
<path d="M56.0049 65.4358C56.018 65.2034 56.0894 64.9772 56.2135 64.7755C56.3376 64.5738 56.5108 64.4022 56.7191 64.2747C57.1202 64.0552 57.4431 64.2747 57.4431 64.6587C57.4305 64.8922 57.3582 65.1195 57.2322 65.3215C57.1062 65.5236 56.9303 65.6944 56.7191 65.8198C56.3277 66.0301 56.0049 65.8564 56.0049 65.4358Z" fill="#121517"/>
<path d="M73.623 58.4423C73.6372 58.2103 73.7102 57.9849 73.8361 57.7846C73.962 57.5842 74.1372 57.4148 74.3471 57.2903C74.7384 57.0709 75.0613 57.2903 75.0613 57.6743C75.0527 57.9126 74.9835 58.1456 74.8592 58.3539C74.735 58.5622 74.5594 58.7398 74.3471 58.872C73.9459 59.0457 73.623 58.872 73.623 58.4423Z" fill="#121517"/>
<path d="M71.4268 59.6298C71.4413 59.399 71.5135 59.1746 71.6376 58.9746C71.7616 58.7745 71.934 58.6044 72.141 58.4778C72.5421 58.2584 72.865 58.4778 72.865 58.8618C72.8508 59.095 72.7778 59.3217 72.652 59.5235C72.5262 59.7253 72.3511 59.8964 72.141 60.0229C71.7496 60.2332 71.4268 60.0595 71.4268 59.6298Z" fill="#121517"/>
<path d="M69.2227 60.8184C69.238 60.5865 69.3104 60.3611 69.4343 60.1597C69.5582 59.9583 69.7302 59.7863 69.9369 59.6573C70.338 59.447 70.6609 59.6573 70.6609 60.0504C70.6452 60.2832 70.5716 60.5094 70.4459 60.711C70.3202 60.9126 70.1459 61.084 69.9369 61.2115C69.5455 61.4218 69.2227 61.2481 69.2227 60.8184Z" fill="#121517"/>
<path d="M67.0234 62.0087C67.038 61.7779 67.1102 61.5535 67.2342 61.3535C67.3583 61.1534 67.5307 60.9833 67.7377 60.8567C68.1388 60.6373 68.4617 60.8567 68.4617 61.2407C68.446 61.4735 68.3723 61.6997 68.2467 61.9013C68.121 62.1029 67.9467 62.2743 67.7377 62.4018C67.3463 62.6121 67.0234 62.4384 67.0234 62.0087Z" fill="#121517"/>
<path d="M64.8203 63.1973C64.8357 62.9654 64.9081 62.74 65.032 62.5386C65.1559 62.3372 65.3278 62.1652 65.5345 62.0362C65.9357 61.8259 66.2488 62.0362 66.2488 62.4293C66.2349 62.6615 66.1631 62.8874 66.0391 63.0891C65.9151 63.2907 65.7423 63.4624 65.5345 63.5904C65.1432 63.8007 64.8203 63.627 64.8203 63.1973Z" fill="#121517"/>
<path d="M62.6191 64.3564C62.6314 64.1251 62.7026 63.8998 62.8268 63.6995C62.9511 63.4991 63.1247 63.3293 63.3334 63.2044C63.7247 62.9849 64.0476 63.2044 64.0476 63.5884C64.033 63.8204 63.9609 64.0461 63.8369 64.2476C63.713 64.4491 63.5406 64.6209 63.3334 64.7495C62.9322 64.9872 62.6191 64.8135 62.6191 64.3564Z" fill="#121517"/>
<path d="M60.4072 65.5751C60.4213 65.3432 60.4944 65.1177 60.6203 64.9174C60.7462 64.717 60.9213 64.5476 61.1312 64.4231C61.5226 64.2037 61.8454 64.4231 61.8454 64.8071C61.8309 65.0391 61.7587 65.2648 61.6348 65.4663C61.5108 65.6679 61.3384 65.8397 61.1312 65.9682C60.7301 66.1877 60.4072 66.0048 60.4072 65.5751Z" fill="#121517"/>
<path d="M58.207 66.7637C58.2227 66.5309 58.2963 66.3047 58.422 66.1031C58.5477 65.9015 58.722 65.7301 58.931 65.6026C59.3224 65.3923 59.6453 65.6026 59.6453 65.9957C59.6299 66.2276 59.5575 66.453 59.4336 66.6544C59.3097 66.8558 59.1377 67.0278 58.931 67.1568C58.5299 67.3671 58.207 67.1934 58.207 66.7637Z" fill="#121517"/>
<path d="M56.0049 67.9501C56.0195 67.7193 56.0916 67.4949 56.2157 67.2949C56.3397 67.0949 56.5121 66.9247 56.7191 66.7981C57.1202 66.5787 57.4431 66.7981 57.4431 67.1821C57.4274 67.4149 57.3538 67.6411 57.2281 67.8427C57.1024 68.0443 56.9281 68.2157 56.7191 68.3432C56.3277 68.5535 56.0049 68.3798 56.0049 67.9501Z" fill="#121517"/>
<path d="M73.623 60.9658C73.6342 60.7294 73.7057 60.499 73.8317 60.2938C73.9576 60.0886 74.1344 59.9146 74.3471 59.7863C74.7384 59.5761 75.0613 59.7863 75.0613 60.1703C75.0482 60.4027 74.9767 60.6289 74.8526 60.8307C74.7285 61.0324 74.5553 61.204 74.3471 61.3315C73.9459 61.6149 73.623 61.3955 73.623 60.9658Z" fill="#121517"/>
<path d="M71.4268 62.1504C71.4398 61.9181 71.5113 61.6918 71.6354 61.4901C71.7595 61.2884 71.9327 61.1168 72.141 60.9893C72.5421 60.779 72.865 60.9893 72.865 61.3824C72.8509 61.6144 72.7778 61.8398 72.6519 62.0402C72.526 62.2405 72.3509 62.4099 72.141 62.5344C71.7496 62.7538 71.4268 62.5801 71.4268 62.1504Z" fill="#121517"/>
<path d="M69.2227 63.342C69.2373 63.11 69.3094 62.8843 69.4333 62.6828C69.5573 62.4813 69.7297 62.3094 69.9369 62.1809C70.338 61.9706 70.6609 62.1809 70.6609 62.5649C70.6483 62.7984 70.576 63.0257 70.45 63.2277C70.324 63.4298 70.1481 63.6006 69.9369 63.726C69.5455 63.9454 69.2227 63.7717 69.2227 63.342Z" fill="#121517"/>
<path d="M67.0234 64.5295C67.038 64.2975 67.1102 64.0718 67.2341 63.8703C67.3581 63.6688 67.5304 63.4969 67.7377 63.3684C68.1388 63.1581 68.4617 63.3684 68.4617 63.7524C68.4491 63.9859 68.3768 64.2132 68.2508 64.4152C68.1248 64.6173 67.9489 64.7881 67.7377 64.9135C67.3463 65.1329 67.0234 64.9592 67.0234 64.5295Z" fill="#121517"/>
<path d="M64.8203 65.717C64.8349 65.485 64.907 65.2593 65.031 65.0578C65.1549 64.8563 65.3273 64.6844 65.5345 64.5559C65.9357 64.3456 66.2488 64.5559 66.2488 64.9399C66.238 65.1727 66.1676 65.3998 66.0433 65.6019C65.919 65.804 65.7445 65.9752 65.5345 66.101C65.1432 66.3204 64.8203 66.1833 64.8203 65.717Z" fill="#121517"/>
<path d="M62.6191 66.9043C62.6314 66.6718 62.7026 66.4453 62.8268 66.2435C62.9509 66.0416 63.1245 65.8702 63.3334 65.7432C63.7247 65.5329 64.0476 65.7432 64.0476 66.1363C64.033 66.3671 63.9608 66.5915 63.8368 66.7916C63.7128 66.9916 63.5404 67.1617 63.3334 67.2883C62.9322 67.5078 62.6191 67.334 62.6191 66.9043Z" fill="#121517"/>
<path d="M60.4072 68.0957C60.4198 67.8622 60.4921 67.6349 60.6181 67.4329C60.7441 67.2308 60.92 67.06 61.1312 66.9346C61.5226 66.7243 61.8454 66.9346 61.8454 67.3277C61.8309 67.5585 61.7587 67.7829 61.6347 67.983C61.5106 68.183 61.3382 68.3531 61.1312 68.4797C60.7301 68.6992 60.4072 68.5254 60.4072 68.0957Z" fill="#121517"/>
<path d="M58.207 69.2832C58.2196 69.0497 58.2919 68.8224 58.4179 68.6204C58.5439 68.4183 58.7198 68.2475 58.931 68.1221C59.3224 67.9118 59.6453 68.1221 59.6453 68.5152C59.6307 68.746 59.5585 68.9704 59.4345 69.1705C59.3104 69.3705 59.138 69.5406 58.931 69.6672C58.5299 69.8867 58.207 69.7129 58.207 69.2832Z" fill="#121517"/>
<path d="M56.0049 70.4707C56.0195 70.2387 56.0916 70.013 56.2155 69.8115C56.3395 69.61 56.5119 69.4382 56.7191 69.3096C57.1202 69.0993 57.4431 69.3096 57.4431 69.7027C57.429 69.9347 57.3559 70.1602 57.23 70.3605C57.1041 70.5608 56.929 70.7302 56.7191 70.8547C56.3277 71.0742 56.0049 70.9004 56.0049 70.4707Z" fill="#121517"/>
<path d="M73.623 63.4865C73.6356 63.253 73.7079 63.0257 73.8339 62.8237C73.9599 62.6217 74.1359 62.4508 74.3471 62.3254C74.7384 62.1151 75.0613 62.3254 75.0613 62.7094C75.0482 62.9418 74.9767 63.168 74.8526 63.3697C74.7285 63.5715 74.5553 63.743 74.3471 63.8705C73.9459 64.0808 73.623 63.9163 73.623 63.4865Z" fill="#121517"/>
<path d="M71.4268 64.678C71.4398 64.4456 71.5113 64.2194 71.6354 64.0177C71.7595 63.8159 71.9327 63.6444 72.141 63.5169C72.5421 63.2974 72.865 63.5169 72.865 63.9009C72.8524 64.1344 72.7801 64.3617 72.6541 64.5637C72.5281 64.7657 72.3522 64.9366 72.141 65.062C71.7496 65.2723 71.4268 65.0986 71.4268 64.678Z" fill="#121517"/>
<path d="M69.2227 65.8654C69.2357 65.6331 69.3072 65.4069 69.4313 65.2051C69.5554 65.0034 69.7286 64.8318 69.9369 64.7043C70.338 64.494 70.6609 64.7043 70.6609 65.0883C70.6483 65.3218 70.576 65.5491 70.45 65.7512C70.324 65.9532 70.1481 66.1241 69.9369 66.2494C69.5455 66.4597 69.2227 66.2952 69.2227 65.8654Z" fill="#121517"/>
<path d="M67.0234 67.1C67.0365 66.8676 67.108 66.6414 67.2321 66.4396C67.3562 66.2379 67.5294 66.0663 67.7377 65.9388C68.1388 65.7194 68.4617 65.8931 68.4617 66.3228C68.4491 66.5563 68.3768 66.7837 68.2508 66.9857C68.1248 67.1877 67.9489 67.3586 67.7377 67.484C67.3463 67.6485 67.0234 67.484 67.0234 67.1Z" fill="#121517"/>
<path d="M64.8203 68.2444C64.8334 68.012 64.9049 67.7858 65.029 67.584C65.153 67.3823 65.3262 67.2107 65.5345 67.0832C65.9357 66.8729 66.2488 67.0832 66.2488 67.4672C66.238 67.7001 66.1676 67.9271 66.0433 68.1292C65.919 68.3313 65.7445 68.5025 65.5345 68.6283C65.1432 68.8386 64.8203 68.6649 64.8203 68.2444Z" fill="#121517"/>
<path d="M62.6191 69.428C62.6299 69.1951 62.7003 68.968 62.8246 68.7659C62.9489 68.5639 63.1234 68.3927 63.3334 68.2668C63.7247 68.0565 64.0476 68.2668 64.0476 68.6508C64.0345 68.8832 63.963 69.1094 63.8389 69.3111C63.7149 69.5129 63.5416 69.6844 63.3334 69.8119C62.9322 70.0222 62.6191 69.8394 62.6191 69.428Z" fill="#121517"/>
<path d="M60.417 70.6194C60.4277 70.3865 60.4982 70.1594 60.6225 69.9573C60.7468 69.7553 60.9213 69.5841 61.1312 69.4582C61.5226 69.2479 61.8454 69.4582 61.8454 69.8422C61.8324 70.0746 61.7609 70.3008 61.6368 70.5025C61.5127 70.7043 61.3395 70.8758 61.1312 71.0033C60.7301 71.2228 60.417 71.0399 60.417 70.6194Z" fill="#121517"/>
<path d="M58.207 71.8069C58.2196 71.5733 58.2919 71.346 58.4179 71.144C58.5439 70.942 58.7198 70.7711 58.931 70.6457C59.3224 70.4354 59.6453 70.6457 59.6453 71.0297C59.6322 71.2621 59.5607 71.4883 59.4366 71.69C59.3125 71.8918 59.1393 72.0633 58.931 72.1909C58.5299 72.4011 58.207 72.2274 58.207 71.8069Z" fill="#121517"/>
<path d="M56.0049 72.9984C56.018 72.766 56.0894 72.5398 56.2135 72.3381C56.3376 72.1364 56.5108 71.9648 56.7191 71.8373C57.1202 71.6178 57.4431 71.7915 57.4431 72.2213C57.4305 72.4548 57.3582 72.6821 57.2322 72.8841C57.1062 73.0862 56.9303 73.257 56.7191 73.3824C56.3277 73.6018 56.0049 73.419 56.0049 72.9984Z" fill="#121517"/>
<path d="M73.623 66.0101C73.6356 65.7766 73.7079 65.5493 73.8339 65.3473C73.9599 65.1452 74.1359 64.9744 74.3471 64.849C74.7384 64.6296 75.0613 64.8033 75.0613 65.233C75.0459 65.4648 74.9735 65.6903 74.8496 65.8917C74.7257 66.0931 74.5537 66.265 74.3471 66.3941C73.9459 66.6044 73.623 66.4307 73.623 66.0101Z" fill="#121517"/>
<path d="M71.4268 67.1923C71.4413 66.9615 71.5135 66.7371 71.6376 66.5371C71.7616 66.337 71.934 66.1669 72.141 66.0403C72.5421 65.8209 72.865 66.0403 72.865 66.4243C72.8524 66.6578 72.7801 66.8851 72.6541 67.0872C72.5281 67.2892 72.3522 67.4601 72.141 67.5854C71.7496 67.7957 71.4268 67.622 71.4268 67.1923Z" fill="#121517"/>
<path d="M69.2227 68.3798C69.2372 68.149 69.3094 67.9246 69.4335 67.7246C69.5575 67.5245 69.7299 67.3544 69.9369 67.2278C70.338 67.0084 70.6609 67.2278 70.6609 67.6118C70.6467 67.845 70.5737 68.0717 70.4479 68.2735C70.3221 68.4753 70.147 68.6464 69.9369 68.7729C69.5455 68.9832 69.2227 68.8095 69.2227 68.3798Z" fill="#121517"/>
<path d="M67.0234 69.5673C67.038 69.3365 67.1102 69.1121 67.2342 68.9121C67.3583 68.712 67.5307 68.5419 67.7377 68.4153C68.1388 68.1959 68.4617 68.4153 68.4617 68.7993C68.4475 69.0325 68.3745 69.2592 68.2487 69.461C68.1229 69.6628 67.9478 69.8339 67.7377 69.9604C67.3463 70.1707 67.0234 69.997 67.0234 69.5673Z" fill="#121517"/>
<path d="M64.8203 70.7548C64.8349 70.524 64.9071 70.2996 65.0311 70.0996C65.1551 69.8995 65.3275 69.7294 65.5345 69.6028C65.9357 69.3834 66.2488 69.6028 66.2488 69.9868C66.2349 70.219 66.1631 70.4449 66.0391 70.6466C65.9151 70.8482 65.7423 71.0199 65.5345 71.1479C65.1432 71.3582 64.8203 71.1845 64.8203 70.7548Z" fill="#121517"/>
<path d="M62.6191 71.9463C62.6314 71.715 62.7026 71.4898 62.8268 71.2894C62.9511 71.089 63.1247 70.9193 63.3334 70.7943C63.7247 70.5749 64.0476 70.7486 64.0476 71.1783C64.033 71.4103 63.9609 71.636 63.8369 71.8375C63.713 72.039 63.5406 72.2109 63.3334 72.3394C62.9322 72.5863 62.6191 72.376 62.6191 71.9463Z" fill="#121517"/>
<path d="M60.417 73.1337C60.4292 72.9024 60.5005 72.6772 60.6247 72.4768C60.7489 72.2764 60.9226 72.1067 61.1312 71.9817C61.5226 71.7623 61.8454 71.9817 61.8454 72.3657C61.8308 72.5977 61.7587 72.8234 61.6348 73.0249C61.5108 73.2264 61.3384 73.3983 61.1312 73.5268C60.7301 73.7371 60.417 73.5634 60.417 73.1337Z" fill="#121517"/>
<path d="M58.207 74.3212C58.2211 74.0893 58.2942 73.8638 58.4201 73.6635C58.546 73.4631 58.7211 73.2937 58.931 73.1692C59.3224 72.9498 59.6453 73.1692 59.6453 73.5532C59.6307 73.7852 59.5585 74.0109 59.4346 74.2124C59.3106 74.4139 59.1382 74.5858 58.931 74.7143C58.5299 74.9246 58.207 74.7509 58.207 74.3212Z" fill="#121517"/>
<path d="M56.0049 75.5087C56.0195 75.2779 56.0916 75.0535 56.2157 74.8535C56.3397 74.6534 56.5121 74.4833 56.7191 74.3567C57.1202 74.1373 57.4431 74.3567 57.4431 74.7407C57.4289 74.9739 57.356 75.2006 57.2301 75.4024C57.1043 75.6042 56.9292 75.7753 56.7191 75.9018C56.3277 76.1121 56.0049 75.9384 56.0049 75.5087Z" fill="#121517"/>
<defs>
<radialGradient id="paint0_radial_1886_30539" cx="0" cy="0" r="1" gradientUnits="userSpaceOnUse" gradientTransform="translate(49.4612 44.8251) rotate(28.2385) scale(3.38163 2.81915)">
<stop offset="0.09" stop-color="#0051F1"/>
<stop offset="0.25" stop-color="#003DB7"/>
<stop offset="0.44" stop-color="#002877"/>
<stop offset="0.62" stop-color="#001743"/>
<stop offset="0.77" stop-color="#000A1F"/>
<stop offset="0.89" stop-color="#000308"/>
<stop offset="0.97"/>
</radialGradient>
<radialGradient id="paint1_radial_1886_30539" cx="0" cy="0" r="1" gradientUnits="userSpaceOnUse" gradientTransform="translate(49.0609 43.7198) rotate(28.4661) scale(0.170527 1.02076)">
<stop offset="0.24" stop-color="#0051F1"/>
<stop offset="0.37" stop-color="#003DB7"/>
<stop offset="0.53" stop-color="#002877"/>
<stop offset="0.67" stop-color="#001743"/>
<stop offset="0.8" stop-color="#000A1F"/>
<stop offset="0.9" stop-color="#000308"/>
<stop offset="0.97"/>
</radialGradient>
<radialGradient id="paint2_radial_1886_30539" cx="0" cy="0" r="1" gradientUnits="userSpaceOnUse" gradientTransform="translate(45.9345 8.90786) rotate(-51.2501) scale(0.118171 1.39165)">
<stop offset="0.24" stop-color="#0051F1"/>
<stop offset="0.37" stop-color="#003DB7"/>
<stop offset="0.53" stop-color="#002877"/>
<stop offset="0.67" stop-color="#001743"/>
<stop offset="0.8" stop-color="#000A1F"/>
<stop offset="0.9" stop-color="#000308"/>
<stop offset="0.97"/>
</radialGradient>
<radialGradient id="paint3_radial_1886_30539" cx="0" cy="0" r="1" gradientUnits="userSpaceOnUse" gradientTransform="translate(53.5521 24.8983) rotate(-113.173) scale(0.189457 0.888712)">
<stop offset="0.24" stop-color="#0051F1"/>
<stop offset="0.37" stop-color="#003DB7"/>
<stop offset="0.53" stop-color="#002877"/>
<stop offset="0.67" stop-color="#001743"/>
<stop offset="0.8" stop-color="#000A1F"/>
<stop offset="0.9" stop-color="#000308"/>
<stop offset="0.97"/>
</radialGradient>
<radialGradient id="paint4_radial_1886_30539" cx="0" cy="0" r="1" gradientUnits="userSpaceOnUse" gradientTransform="translate(49.4602 44.824) rotate(28.1958) scale(0.38701 0.322317)">
<stop offset="0.22" stop-color="#DAE6FF"/>
<stop offset="0.31" stop-color="#BAC4D9"/>
<stop offset="0.49" stop-color="#797F8D"/>
<stop offset="0.66" stop-color="#454950"/>
<stop offset="0.8" stop-color="#1F2125"/>
<stop offset="0.9" stop-color="#09090A"/>
<stop offset="0.97"/>
</radialGradient>
<radialGradient id="paint5_radial_1886_30539" cx="0" cy="0" r="1" gradientUnits="userSpaceOnUse" gradientTransform="translate(49.4612 46.987) rotate(28.2385) scale(3.38163 2.81915)">
<stop offset="0.09" stop-color="#DE0404"/>
<stop offset="0.21" stop-color="#B70303"/>
<stop offset="0.41" stop-color="#760202"/>
<stop offset="0.59" stop-color="#430101"/>
<stop offset="0.76" stop-color="#1F0101"/>
<stop offset="0.89" stop-color="#080000"/>
<stop offset="0.97"/>
</radialGradient>
<radialGradient id="paint6_radial_1886_30539" cx="0" cy="0" r="1" gradientUnits="userSpaceOnUse" gradientTransform="translate(49.0609 45.8861) rotate(28.4661) scale(0.170527 1.02076)">
<stop offset="0.24" stop-color="#F10028"/>
<stop offset="0.37" stop-color="#B7001E"/>
<stop offset="0.53" stop-color="#770014"/>
<stop offset="0.67" stop-color="#43000B"/>
<stop offset="0.8" stop-color="#1F0005"/>
<stop offset="0.9" stop-color="#080001"/>
<stop offset="0.97"/>
</radialGradient>
<radialGradient id="paint7_radial_1886_30539" cx="0" cy="0" r="1" gradientUnits="userSpaceOnUse" gradientTransform="translate(45.9307 11.0136) rotate(-51.25) scale(0.119109 1.40269)">
<stop offset="0.24" stop-color="#F10028"/>
<stop offset="0.37" stop-color="#B7001E"/>
<stop offset="0.53" stop-color="#770014"/>
<stop offset="0.67" stop-color="#43000B"/>
<stop offset="0.8" stop-color="#1F0005"/>
<stop offset="0.9" stop-color="#080001"/>
<stop offset="0.97"/>
</radialGradient>
<radialGradient id="paint8_radial_1886_30539" cx="0" cy="0" r="1" gradientUnits="userSpaceOnUse" gradientTransform="translate(53.5663 27.0221) rotate(-113.173) scale(0.189456 0.888711)">
<stop offset="0.24" stop-color="#F10028"/>
<stop offset="0.37" stop-color="#B7001E"/>
<stop offset="0.53" stop-color="#770014"/>
<stop offset="0.67" stop-color="#43000B"/>
<stop offset="0.8" stop-color="#1F0005"/>
<stop offset="0.9" stop-color="#080001"/>
<stop offset="0.97"/>
</radialGradient>
<radialGradient id="paint9_radial_1886_30539" cx="0" cy="0" r="1" gradientUnits="userSpaceOnUse" gradientTransform="translate(49.4602 46.9919) rotate(28.1958) scale(0.38701 0.322317)">
<stop offset="0.22" stop-color="#FF8296"/>
<stop offset="0.31" stop-color="#D96F80"/>
<stop offset="0.49" stop-color="#8D4853"/>
<stop offset="0.66" stop-color="#50292F"/>
<stop offset="0.8" stop-color="#251316"/>
<stop offset="0.9" stop-color="#0A0506"/>
<stop offset="0.97"/>
</radialGradient>
<radialGradient id="paint10_radial_1886_30539" cx="0" cy="0" r="1" gradientUnits="userSpaceOnUse" gradientTransform="translate(49.4612 51.388) rotate(28.2385) scale(3.38163 2.81914)">
<stop offset="0.09" stop-color="#0051F1"/>
<stop offset="0.25" stop-color="#003DB7"/>
<stop offset="0.44" stop-color="#002877"/>
<stop offset="0.62" stop-color="#001743"/>
<stop offset="0.77" stop-color="#000A1F"/>
<stop offset="0.89" stop-color="#000308"/>
<stop offset="0.97"/>
</radialGradient>
<radialGradient id="paint11_radial_1886_30539" cx="0" cy="0" r="1" gradientUnits="userSpaceOnUse" gradientTransform="translate(49.0609 50.2923) rotate(28.4661) scale(0.170527 1.02076)">
<stop offset="0.24" stop-color="#0051F1"/>
<stop offset="0.37" stop-color="#003DB7"/>
<stop offset="0.53" stop-color="#002877"/>
<stop offset="0.67" stop-color="#001743"/>
<stop offset="0.8" stop-color="#000A1F"/>
<stop offset="0.9" stop-color="#000308"/>
<stop offset="0.97"/>
</radialGradient>
<radialGradient id="paint12_radial_1886_30539" cx="0" cy="0" r="1" gradientUnits="userSpaceOnUse" gradientTransform="translate(45.9163 15.2836) rotate(-51.25) scale(0.119109 1.40269)">
<stop offset="0.24" stop-color="#0051F1"/>
<stop offset="0.37" stop-color="#003DB7"/>
<stop offset="0.53" stop-color="#002877"/>
<stop offset="0.67" stop-color="#001743"/>
<stop offset="0.8" stop-color="#000A1F"/>
<stop offset="0.9" stop-color="#000308"/>
<stop offset="0.97"/>
</radialGradient>
<radialGradient id="paint13_radial_1886_30539" cx="0" cy="0" r="1" gradientUnits="userSpaceOnUse" gradientTransform="translate(53.5709 31.3407) rotate(-113.173) scale(0.189456 0.888711)">
<stop offset="0.24" stop-color="#0051F1"/>
<stop offset="0.37" stop-color="#003DB7"/>
<stop offset="0.53" stop-color="#002877"/>
<stop offset="0.67" stop-color="#001743"/>
<stop offset="0.8" stop-color="#000A1F"/>
<stop offset="0.9" stop-color="#000308"/>
<stop offset="0.97"/>
</radialGradient>
<radialGradient id="paint14_radial_1886_30539" cx="0" cy="0" r="1" gradientUnits="userSpaceOnUse" gradientTransform="translate(49.4602 51.388) rotate(28.1957) scale(0.38701 0.322317)">
<stop offset="0.22" stop-color="#DAE6FF"/>
<stop offset="0.31" stop-color="#BAC4D9"/>
<stop offset="0.49" stop-color="#797F8D"/>
<stop offset="0.66" stop-color="#454950"/>
<stop offset="0.8" stop-color="#1F2125"/>
<stop offset="0.9" stop-color="#09090A"/>
<stop offset="0.97"/>
</radialGradient>
<radialGradient id="paint15_radial_1886_30539" cx="0" cy="0" r="1" gradientUnits="userSpaceOnUse" gradientTransform="translate(49.4612 53.5532) rotate(28.2385) scale(3.38163 2.81914)">
<stop offset="0.09" stop-color="#DE0404"/>
<stop offset="0.21" stop-color="#B70303"/>
<stop offset="0.41" stop-color="#760202"/>
<stop offset="0.59" stop-color="#430101"/>
<stop offset="0.76" stop-color="#1F0101"/>
<stop offset="0.89" stop-color="#080000"/>
<stop offset="0.97"/>
</radialGradient>
<radialGradient id="paint16_radial_1886_30539" cx="0" cy="0" r="1" gradientUnits="userSpaceOnUse" gradientTransform="translate(49.0609 52.4594) rotate(28.4661) scale(0.170527 1.02076)">
<stop offset="0.24" stop-color="#F10028"/>
<stop offset="0.37" stop-color="#B7001E"/>
<stop offset="0.53" stop-color="#770014"/>
<stop offset="0.67" stop-color="#43000B"/>
<stop offset="0.8" stop-color="#1F0005"/>
<stop offset="0.9" stop-color="#080001"/>
<stop offset="0.97"/>
</radialGradient>
<radialGradient id="paint17_radial_1886_30539" cx="0" cy="0" r="1" gradientUnits="userSpaceOnUse" gradientTransform="translate(45.9051 17.3767) rotate(-51.2501) scale(0.118171 1.39165)">
<stop offset="0.24" stop-color="#F10028"/>
<stop offset="0.37" stop-color="#B7001E"/>
<stop offset="0.53" stop-color="#770014"/>
<stop offset="0.67" stop-color="#43000B"/>
<stop offset="0.8" stop-color="#1F0005"/>
<stop offset="0.9" stop-color="#080001"/>
<stop offset="0.97"/>
</radialGradient>
<radialGradient id="paint18_radial_1886_30539" cx="0" cy="0" r="1" gradientUnits="userSpaceOnUse" gradientTransform="translate(53.5918 33.4681) rotate(-113.173) scale(0.189456 0.888711)">
<stop offset="0.24" stop-color="#F10028"/>
<stop offset="0.37" stop-color="#B7001E"/>
<stop offset="0.53" stop-color="#770014"/>
<stop offset="0.67" stop-color="#43000B"/>
<stop offset="0.8" stop-color="#1F0005"/>
<stop offset="0.9" stop-color="#080001"/>
<stop offset="0.97"/>
</radialGradient>
<radialGradient id="paint19_radial_1886_30539" cx="0" cy="0" r="1" gradientUnits="userSpaceOnUse" gradientTransform="translate(49.4602 53.5533) rotate(28.1957) scale(0.38701 0.322317)">
<stop offset="0.22" stop-color="#FF8296"/>
<stop offset="0.31" stop-color="#D96F80"/>
<stop offset="0.49" stop-color="#8D4853"/>
<stop offset="0.66" stop-color="#50292F"/>
<stop offset="0.8" stop-color="#251316"/>
<stop offset="0.9" stop-color="#0A0506"/>
<stop offset="0.97"/>
</radialGradient>
<radialGradient id="paint20_radial_1886_30539" cx="0" cy="0" r="1" gradientUnits="userSpaceOnUse" gradientTransform="translate(45.8426 80.9313) rotate(28.2385) scale(3.38163 2.81915)">
<stop offset="0.09" stop-color="#0051F1"/>
<stop offset="0.25" stop-color="#003DB7"/>
<stop offset="0.44" stop-color="#002877"/>
<stop offset="0.62" stop-color="#001743"/>
<stop offset="0.77" stop-color="#000A1F"/>
<stop offset="0.89" stop-color="#000308"/>
<stop offset="0.97"/>
</radialGradient>
<radialGradient id="paint21_radial_1886_30539" cx="0" cy="0" r="1" gradientUnits="userSpaceOnUse" gradientTransform="translate(45.4218 79.7893) rotate(28.4664) scale(0.170525 1.02075)">
<stop offset="0.24" stop-color="#0051F1"/>
<stop offset="0.37" stop-color="#003DB7"/>
<stop offset="0.53" stop-color="#002877"/>
<stop offset="0.67" stop-color="#001743"/>
<stop offset="0.8" stop-color="#000A1F"/>
<stop offset="0.9" stop-color="#000308"/>
<stop offset="0.97"/>
</radialGradient>
<radialGradient id="paint22_radial_1886_30539" cx="0" cy="0" r="1" gradientUnits="userSpaceOnUse" gradientTransform="translate(42.1924 43.7965) rotate(-51.2502) scale(0.118171 1.39164)">
<stop offset="0.24" stop-color="#0051F1"/>
<stop offset="0.37" stop-color="#003DB7"/>
<stop offset="0.53" stop-color="#002877"/>
<stop offset="0.67" stop-color="#001743"/>
<stop offset="0.8" stop-color="#000A1F"/>
<stop offset="0.9" stop-color="#000308"/>
<stop offset="0.97"/>
</radialGradient>
<radialGradient id="paint23_radial_1886_30539" cx="0" cy="0" r="1" gradientUnits="userSpaceOnUse" gradientTransform="translate(50.0699 60.3239) rotate(-113.173) scale(0.187963 0.881707)">
<stop offset="0.24" stop-color="#0051F1"/>
<stop offset="0.37" stop-color="#003DB7"/>
<stop offset="0.53" stop-color="#002877"/>
<stop offset="0.67" stop-color="#001743"/>
<stop offset="0.8" stop-color="#000A1F"/>
<stop offset="0.9" stop-color="#000308"/>
<stop offset="0.97"/>
</radialGradient>
<radialGradient id="paint24_radial_1886_30539" cx="0" cy="0" r="1" gradientUnits="userSpaceOnUse" gradientTransform="translate(45.8433 80.9329) rotate(28.1955) scale(0.387012 0.322317)">
<stop offset="0.22" stop-color="#DAE6FF"/>
<stop offset="0.31" stop-color="#BAC4D9"/>
<stop offset="0.49" stop-color="#797F8D"/>
<stop offset="0.66" stop-color="#454950"/>
<stop offset="0.8" stop-color="#1F2125"/>
<stop offset="0.9" stop-color="#09090A"/>
<stop offset="0.97"/>
</radialGradient>
<radialGradient id="paint25_radial_1886_30539" cx="0" cy="0" r="1" gradientUnits="userSpaceOnUse" gradientTransform="translate(45.8426 83.0992) rotate(28.2385) scale(3.38163 2.81915)">
<stop offset="0.09" stop-color="#DE0404"/>
<stop offset="0.21" stop-color="#B70303"/>
<stop offset="0.41" stop-color="#760202"/>
<stop offset="0.59" stop-color="#430101"/>
<stop offset="0.76" stop-color="#1F0101"/>
<stop offset="0.89" stop-color="#080000"/>
<stop offset="0.97"/>
</radialGradient>
<radialGradient id="paint26_radial_1886_30539" cx="0" cy="0" r="1" gradientUnits="userSpaceOnUse" gradientTransform="translate(45.4212 81.9543) rotate(28.4665) scale(0.170525 1.02075)">
<stop offset="0.24" stop-color="#F10028"/>
<stop offset="0.37" stop-color="#B7001E"/>
<stop offset="0.53" stop-color="#770014"/>
<stop offset="0.67" stop-color="#43000B"/>
<stop offset="0.8" stop-color="#1F0005"/>
<stop offset="0.9" stop-color="#080001"/>
<stop offset="0.97"/>
</radialGradient>
<radialGradient id="paint27_radial_1886_30539" cx="0" cy="0" r="1" gradientUnits="userSpaceOnUse" gradientTransform="translate(42.188 45.9003) rotate(-51.2502) scale(0.118171 1.39164)">
<stop offset="0.24" stop-color="#F10028"/>
<stop offset="0.37" stop-color="#B7001E"/>
<stop offset="0.53" stop-color="#770014"/>
<stop offset="0.67" stop-color="#43000B"/>
<stop offset="0.8" stop-color="#1F0005"/>
<stop offset="0.9" stop-color="#080001"/>
<stop offset="0.97"/>
</radialGradient>
<radialGradient id="paint28_radial_1886_30539" cx="0" cy="0" r="1" gradientUnits="userSpaceOnUse" gradientTransform="translate(50.084 62.4512) rotate(-113.173) scale(0.187966 0.881709)">
<stop offset="0.24" stop-color="#F10028"/>
<stop offset="0.37" stop-color="#B7001E"/>
<stop offset="0.53" stop-color="#770014"/>
<stop offset="0.67" stop-color="#43000B"/>
<stop offset="0.8" stop-color="#1F0005"/>
<stop offset="0.9" stop-color="#080001"/>
<stop offset="0.97"/>
</radialGradient>
<radialGradient id="paint29_radial_1886_30539" cx="0" cy="0" r="1" gradientUnits="userSpaceOnUse" gradientTransform="translate(45.8433 83.1008) rotate(28.1956) scale(0.387012 0.322318)">
<stop offset="0.22" stop-color="#FF8296"/>
<stop offset="0.31" stop-color="#D96F80"/>
<stop offset="0.49" stop-color="#8D4853"/>
<stop offset="0.66" stop-color="#50292F"/>
<stop offset="0.8" stop-color="#251316"/>
<stop offset="0.9" stop-color="#0A0506"/>
<stop offset="0.97"/>
</radialGradient>
</defs>
</svg>
