<svg width="101" height="101" viewBox="0 0 101 101" fill="none" xmlns="http://www.w3.org/2000/svg">
<g clip-path="url(#clip0_1886_31952)">
<path d="M76.8869 75.53C73.3263 73.4666 70.4067 68.4682 70.4067 64.3652C70.3347 63.1127 70.723 61.8771 71.4986 60.8906C69.5344 61.027 68.2051 62.6694 68.2051 65.4443C68.2051 69.5474 71.1069 74.5457 74.6853 76.6091C76.9284 77.9017 78.9045 77.7238 80.0617 76.4016C78.9401 76.4339 77.8345 76.1304 76.8869 75.53Z" fill="#7AA7FF"/>
<path d="M83.1834 74.1786C83.1777 73.653 83.1401 73.1283 83.0707 72.6073L85.6877 72.2753C85.4072 70.9233 85.0101 69.5981 84.5008 68.3145L81.5337 67.4133C81.009 66.2959 80.3875 65.2265 79.6763 64.2174L80.3884 61.2053C79.5265 60.122 78.5714 59.1161 77.534 58.1992L75.9258 60.2745C75.5084 59.9517 75.0703 59.6566 74.6143 59.391C74.193 59.1484 73.7547 58.9364 73.3029 58.7566L71.6947 54.8314C70.7667 54.5626 69.7975 54.4642 68.8344 54.5409L69.5524 58.3771C68.8498 58.5563 68.2083 58.9208 67.695 59.4325L64.7279 56.8948C64.1745 57.6773 63.772 58.556 63.541 59.4859L66.158 62.8359C66.088 63.313 66.0523 63.7945 66.0512 64.2767C66.0549 64.8021 66.0906 65.3269 66.158 65.848L63.541 66.1741C63.8199 67.5265 64.217 68.8518 64.7279 70.1348L67.695 71.042C68.2187 72.1599 68.8403 73.2293 69.5524 74.2379L68.8344 77.2499C69.6983 78.3333 70.6554 79.3392 71.6947 80.2561L73.3029 78.1808C73.7193 78.5049 74.1575 78.8001 74.6143 79.0643C75.0352 79.3062 75.4736 79.5163 75.9258 79.6928L77.534 83.6239C78.46 83.8927 79.4272 83.9912 80.3884 83.9144L79.6763 80.0782C80.3769 79.8942 81.0173 79.5304 81.5337 79.0228L84.5008 81.5605C85.0525 80.7771 85.4548 79.8987 85.6877 78.9694L83.0707 75.6194C83.1427 75.1424 83.1804 74.6609 83.1834 74.1786ZM74.6856 76.6096C71.125 74.5462 68.2053 69.5478 68.2053 65.4448C68.2053 61.3417 71.1072 59.6875 74.6856 61.7568C78.2639 63.8261 81.1598 68.7948 81.1598 72.9453C81.1598 77.0958 78.258 78.673 74.6856 76.6096Z" fill="#F0F4F8"/>
<path d="M75.7951 57.3158L74.1928 53.3906L71.6826 54.8314L73.2849 58.7566L75.7951 57.3158Z" fill="#7AA7FF"/>
<path d="M73.291 58.7572C73.7428 58.937 74.1811 59.149 74.6025 59.3916C75.0585 59.6572 75.4966 59.9524 75.914 60.2751L77.5221 58.1999C77.5221 58.1999 77.2551 58.0279 77.1186 57.9508C76.6958 57.707 76.2555 57.495 75.8012 57.3164L73.291 58.7572Z" fill="#D1EBFF"/>
<path d="M74.1928 53.3783C73.2647 53.1095 72.2956 53.0111 71.3325 53.0877L68.8223 54.5641C69.7854 54.4874 70.7546 54.5859 71.6826 54.8547L74.1928 53.3783Z" fill="#D1EBFF"/>
<path d="M82.8861 59.7639C82.0221 58.6806 81.065 57.6747 80.0257 56.7578L77.5215 58.1986C78.5589 59.1155 79.514 60.1214 80.3759 61.2048L82.8861 59.7639Z" fill="#D1EBFF"/>
<path d="M80.3762 61.2025L79.6641 64.2146L82.1743 62.7738L82.8864 59.7617L80.3762 61.2025Z" fill="#7AA7FF"/>
<path d="M79.6641 64.2142C80.3753 65.2234 80.9968 66.2927 81.5215 67.4101L84.0257 65.9693C83.5056 64.8496 82.8839 63.7798 82.1683 62.7734L79.6641 64.2142Z" fill="#7AA7FF"/>
<path d="M81.5156 67.4096L84.5006 68.3108L87.0108 66.8759L84.0258 65.9688L81.5156 67.4096Z" fill="#D1EBFF"/>
<path d="M84.5 68.3119C85.0093 69.5955 85.4064 70.9207 85.6869 72.2727L88.197 70.8318C87.9166 69.4798 87.5195 68.1547 87.0102 66.8711L84.5 68.3119Z" fill="#7AA7FF"/>
<path d="M69.5406 58.3739L69.3329 57.2592L67.2084 55.4805L64.6982 56.9213L67.6654 59.459C68.1801 58.9337 68.8284 58.5586 69.5406 58.3739Z" fill="#72B5E8"/>
<path d="M85.6869 78.9682C85.454 79.8974 85.0517 80.7758 84.5 81.5592L87.0102 80.1184C87.5635 79.3359 87.966 78.4572 88.197 77.5273L85.6869 78.9682Z" fill="#7AA7FF"/>
<path d="M85.5803 74.1786C85.6523 73.7017 85.69 73.2202 85.693 72.7378C85.693 72.5836 85.693 72.4295 85.693 72.2812L83.0879 72.6074C83.1573 73.1283 83.1949 73.6531 83.2006 74.1786C83.1976 74.661 83.1599 75.1425 83.0879 75.6194L85.5803 74.1786Z" fill="#7AA7FF"/>
<path d="M83.0703 75.6205L85.6873 78.9705L88.1975 77.5297L85.5805 74.1797L83.0703 75.6205Z" fill="#D1EBFF"/>
<path d="M81.5215 79.0195C81.005 79.5271 80.3647 79.891 79.6641 80.0749L80.3762 83.9112L82.8864 82.4704L82.382 79.7488L81.5215 79.0195Z" fill="#7AA7FF"/>
<path d="M66.0632 64.6953L63.5352 66.1717L66.1522 65.8456C66.0632 65.4543 66.0632 65.0748 66.0632 64.6953Z" fill="#D1EBFF"/>
<path d="M73.2908 78.1797L71.6826 80.2549L74.2106 78.82C73.8961 78.6185 73.5934 78.405 73.2908 78.1797Z" fill="#72B5E8"/>
<g style="mix-blend-mode:color-dodge">
<path d="M69.2323 58.5494V58.5078C69.1147 58.5552 68.9997 58.6088 68.8877 58.6682C69.0004 58.6226 69.1154 58.5829 69.2323 58.5494Z" fill="white"/>
<path d="M65.8136 65.8906L63.6357 66.1693C63.6385 66.2108 63.6385 66.2524 63.6357 66.2938L65.7958 66.0211C65.8195 65.9796 65.8195 65.9321 65.8136 65.8906Z" fill="white"/>
<path d="M80.2341 61.3715L79.522 64.3777C80.2342 65.3883 80.8557 66.4597 81.3794 67.5795L84.3466 68.4807C84.8393 69.7247 85.2264 71.008 85.5037 72.3169L85.8005 72.2636C85.52 70.9116 85.1229 69.5864 84.6136 68.3028L81.6465 67.4016C81.124 66.283 80.5024 65.2135 79.789 64.2057L80.5012 61.1936C79.6393 60.1103 78.6842 59.1044 77.6468 58.1875L77.5459 58.5136C78.5209 59.389 79.4201 60.345 80.2341 61.3715Z" fill="white"/>
<path d="M74.7033 76.5563C71.1427 74.4929 68.229 69.4945 68.229 65.3974C68.229 63.5831 68.8225 62.2549 69.7363 61.5078C68.6504 62.2075 67.9561 63.6068 67.9561 65.5694C67.9561 69.6724 70.8579 74.6708 74.4363 76.7342C76.2165 77.7777 77.8722 77.8667 79.0472 77.1789L78.7801 77.2441C77.6882 77.6473 76.264 77.4575 74.7033 76.5563Z" fill="white"/>
<path d="M80.1445 79.9483C80.5736 79.7955 80.9746 79.5731 81.3314 79.2902L81.2186 79.1953C80.9039 79.5029 80.5411 79.7573 80.1445 79.9483Z" fill="white"/>
<path d="M67.5878 59.5035C67.481 59.5035 67.5878 59.4146 67.7006 59.3257L64.8225 56.8828C64.7453 56.9955 64.6682 57.1141 64.8225 57.1318L67.5878 59.5035Z" fill="white"/>
<g style="mix-blend-mode:color-dodge">
<path d="M79.593 80.2495L80.2754 83.9197C80.1983 83.9197 80.3526 83.9197 80.5009 83.9197L79.7947 80.125C79.6523 80.1606 79.5099 80.2139 79.593 80.2495Z" fill="white"/>
</g>
<path d="M83.3082 74.1674C83.3028 73.6857 83.2711 73.2048 83.2132 72.7266H82.9521C83.0196 73.2477 83.0553 73.7724 83.059 74.2978C83.0579 74.78 83.0222 75.2615 82.9521 75.7386L85.5691 79.0887C85.3666 79.8781 85.0444 80.6319 84.6137 81.324V81.5315C85.1654 80.7481 85.5678 79.8697 85.8006 78.9404L83.1776 75.5904C83.2548 75.1197 83.2984 74.6442 83.3082 74.1674Z" fill="white"/>
<path d="M71.5701 54.9324L73.1842 58.8635C73.6354 59.0424 74.0736 59.2524 74.4956 59.492C74.9499 59.7603 75.3878 60.0553 75.8071 60.3754L75.8605 60.1264C75.4986 59.857 75.1222 59.6076 74.733 59.3793C74.3123 59.1356 73.8739 58.9235 73.4215 58.7449L71.8134 54.8197C70.8874 54.5509 69.9202 54.4524 68.959 54.5292V54.6952C69.8362 54.6518 70.7151 54.7317 71.5701 54.9324Z" fill="white"/>
<path d="M72.9827 78.3516L71.6416 80.0888L71.8078 80.243L73.1667 78.4642L72.9827 78.3516Z" fill="white"/>
</g>
<path d="M75.1013 45.2908C69.7189 42.1898 65.3572 34.6715 65.3572 28.4991C65.3572 26.2104 65.9506 24.4435 66.9951 23.2695C64.0279 23.483 62.0459 25.9496 62.0459 30.1178C62.0459 36.2902 66.4076 43.8085 71.79 46.9154C75.1665 48.8602 78.1396 48.5934 79.8843 46.6012C78.1943 46.6552 76.5273 46.1985 75.1013 45.2908Z" fill="#7AA7FF"/>
<path d="M84.5715 43.2572C84.5631 42.464 84.5076 41.672 84.4054 40.8855L88.3398 40.3874C87.921 38.3628 87.3253 36.3787 86.5595 34.4581L82.0851 33.0825C81.2986 31.4009 80.3652 29.7918 79.296 28.2739L80.3523 23.7321C79.0525 22.102 77.6129 20.5883 76.0499 19.2081L73.6347 22.3328C73.0053 21.8491 72.3474 21.4036 71.6645 20.9987C71.0282 20.638 70.3679 20.321 69.6884 20.05L67.2732 14.1208C65.8773 13.7167 64.4194 13.57 62.9708 13.6879L64.0509 19.4512C62.9945 19.7267 62.0301 20.277 61.2558 21.0461L56.7695 17.2218C55.9397 18.3989 55.336 19.7198 54.9893 21.1173L58.9415 26.1987C58.8326 26.915 58.7771 27.6383 58.7753 28.3628C58.7806 29.1561 58.8361 29.9483 58.9415 30.7346L55.0011 31.2326C55.42 33.2572 56.0157 35.2412 56.7814 37.1619L61.2558 38.5553C62.0444 40.2389 62.9797 41.85 64.0509 43.3698L62.9708 47.8938C64.2656 49.5153 65.6971 51.0228 67.2494 52.4001L69.6647 49.2813C70.2947 49.7651 70.9548 50.2087 71.6408 50.6094C72.2739 50.9724 72.9323 51.2895 73.611 51.5581L76.0262 57.4874C77.4222 57.8909 78.88 58.0376 80.3285 57.9202L79.2544 52.1511C80.3086 51.8776 81.2711 51.3292 82.0435 50.562L86.5358 54.3805C87.3657 53.2034 87.9694 51.8825 88.3161 50.4849L84.3816 45.4451C84.4961 44.7211 84.5596 43.99 84.5715 43.2572ZM71.7891 46.9155C66.4068 43.8086 62.0451 36.2903 62.0451 30.1179C62.0451 23.9455 66.4068 21.4671 71.7891 24.5681C77.1715 27.6691 81.5332 35.1934 81.5332 41.3598C81.5332 47.5262 77.1656 50.0165 71.7891 46.9155Z" fill="#F0F4F8"/>
<path d="M73.4629 17.8959L71.0476 11.9844L67.2734 14.1545L69.6887 20.06L73.4629 17.8959Z" fill="#7AA7FF"/>
<path d="M69.6885 20.0587C70.368 20.3297 71.0282 20.6467 71.6646 21.0074C72.3474 21.4123 73.0053 21.8578 73.6348 22.3415L76.05 19.2168C76.05 19.2168 75.6465 18.9618 75.4566 18.8432C74.8214 18.4802 74.161 18.1631 73.4805 17.8945L69.6885 20.0587Z" fill="#E9E9EB"/>
<path d="M71.0472 11.9839C69.6533 11.5801 68.1974 11.4334 66.7508 11.5511L62.9707 13.7212C64.4192 13.6033 65.8771 13.75 67.273 14.154L71.0472 11.9839Z" fill="#E9E9EB"/>
<path d="M84.1263 21.5787C82.8284 19.9489 81.3908 18.4351 79.8299 17.0547L76.0557 19.2189C77.6147 20.597 79.0521 22.1066 80.3521 23.731L84.1263 21.5787Z" fill="#E9E9EB"/>
<path d="M80.3524 23.7423L79.2783 28.2723L83.0525 26.1022L84.1266 21.5781L80.3524 23.7423Z" fill="#7AA7FF"/>
<path d="M79.2783 28.2717C80.3476 29.7896 81.2809 31.3987 82.0674 33.0803L85.8416 30.9161C85.0551 29.2326 84.1218 27.6215 83.0525 26.1016L79.2783 28.2717Z" fill="#7AA7FF"/>
<path d="M82.0674 33.0822L86.5596 34.44L90.3338 32.2758L85.8416 30.918L82.0674 33.0822Z" fill="#E9E9EB"/>
<path d="M86.5596 34.4399C87.3254 36.3605 87.9211 38.3446 88.3398 40.3692L92.114 38.205C91.6978 36.1701 91.102 34.176 90.3338 32.2461L86.5596 34.4399Z" fill="#7AA7FF"/>
<path d="M64.0509 19.4873L63.7364 17.8034L60.5437 15.0938L56.7695 17.2579L61.2558 21.0823C62.0301 20.3132 62.9945 19.7629 64.0509 19.4873Z" fill="#7AA7FF"/>
<path d="M88.3398 50.467C87.9932 51.8645 87.3895 53.1855 86.5596 54.3625L90.3338 52.1924C91.1626 51.0147 91.7662 49.694 92.114 48.2969L88.3398 50.467Z" fill="#7AA7FF"/>
<path d="M88.1804 43.2563C88.2864 42.5397 88.3419 41.8165 88.3466 41.0922C88.3466 40.8609 88.3466 40.6297 88.3169 40.3984L84.4062 40.8965C84.5085 41.6831 84.5639 42.475 84.5724 43.2682C84.5675 43.9945 84.512 44.7197 84.4062 45.4383L88.1804 43.2563Z" fill="#7AA7FF"/>
<path d="M84.4062 45.424L88.3407 50.4639L92.1148 48.2997L88.1804 43.2539L84.4062 45.424Z" fill="#E9E9EB"/>
<path d="M82.085 50.543C81.3126 51.3101 80.3501 51.8585 79.2959 52.132L80.37 57.9012L84.1264 55.7489L83.3609 51.6636L82.085 50.543Z" fill="#7AA7FF"/>
<path d="M58.7813 28.9961L54.9834 31.2196L58.9415 30.7215C58.8466 30.1404 58.8051 29.5653 58.7813 28.9961Z" fill="#D1EBFF"/>
<path d="M69.689 49.2812L67.25 52.4L71.0539 50.2418C70.6088 49.9394 70.1459 49.6251 69.689 49.2812Z" fill="#72B5E8"/>
<g style="mix-blend-mode:color-dodge">
<path d="M63.5886 19.7469V19.6875C63.4106 19.7588 63.2385 19.842 63.0664 19.9251C63.2326 19.8598 63.4047 19.7944 63.5886 19.7469Z" fill="white"/>
<path d="M58.4436 30.793L55.1738 31.2021C55.1738 31.2673 55.1738 31.3325 55.2154 31.3918L58.4614 30.9827L58.4436 30.793Z" fill="white"/>
<path d="M80.1389 23.9919L79.0648 28.516C80.1372 30.0351 81.0725 31.6462 81.8598 33.3305L86.3461 34.6883C87.0887 36.5565 87.6704 38.4846 88.0849 40.4516L88.5299 40.3804C88.1112 38.3558 87.5155 36.3718 86.7496 34.4512L82.2574 33.0934C81.4709 31.4117 80.5376 29.8026 79.4683 28.2847L80.5424 23.7311C79.2426 22.101 77.803 20.5873 76.2401 19.207L76.0977 19.7051C77.5605 21.0205 78.9122 22.4543 80.1389 23.9919Z" fill="white"/>
<path d="M71.819 46.8567C66.4366 43.7497 62.075 36.2314 62.075 30.065C62.075 27.3375 62.9295 25.3216 64.3478 24.2188C62.7099 25.2742 61.707 27.3731 61.707 30.3259C61.707 36.4983 66.0687 44.0166 71.4511 47.1235C74.169 48.6888 76.6198 48.8252 78.3882 47.7876C78.2577 47.8291 78.1212 47.8528 77.9847 47.8824C76.3053 48.4754 74.163 48.1908 71.819 46.8567Z" fill="white"/>
<path d="M80.0029 51.9372C80.6474 51.7086 81.2492 51.3739 81.7832 50.947L81.6171 50.8047C81.1422 51.2649 80.5974 51.6471 80.0029 51.9372Z" fill="white"/>
<path d="M61.1142 21.1851C60.948 21.1851 61.1142 21.0547 61.2803 20.9243L56.9602 17.2422C56.8356 17.4141 56.7228 17.5979 56.9602 17.6217L61.1142 21.1851Z" fill="white"/>
<g style="mix-blend-mode:color-dodge">
<path d="M79.172 52.393L80.1987 57.9131C80.08 57.9131 80.3174 57.9131 80.5429 57.8835L79.4747 52.1914C79.2611 52.2566 79.0415 52.3337 79.172 52.393Z" fill="white"/>
</g>
<path d="M84.7627 43.2384C84.757 42.5147 84.7074 41.792 84.6143 41.0742H84.2227C84.3281 41.8605 84.3836 42.6526 84.3888 43.4459C84.3871 44.1704 84.3315 44.8938 84.2227 45.6101L88.163 50.6559C87.8565 51.8434 87.3703 52.9771 86.721 54.0178L86.7506 54.3261C87.5806 53.1491 88.1843 51.8281 88.5309 50.4306L84.5965 45.3907C84.7014 44.678 84.7569 43.9588 84.7627 43.2384Z" fill="white"/>
<path d="M67.1074 14.3104L69.5227 20.2396C70.2043 20.5057 70.8649 20.8229 71.4988 21.1883C72.1839 21.5904 72.8438 22.034 73.4749 22.5165L73.5461 22.1429C73.0043 21.7336 72.4396 21.3555 71.8548 21.0104C71.2184 20.6497 70.5582 20.3328 69.8787 20.0617L67.4635 14.1325C66.0676 13.7284 64.6097 13.5817 63.1611 13.6996L63.2086 13.9427C64.519 13.8853 65.831 14.009 67.1074 14.3104Z" fill="white"/>
<path d="M69.2326 49.543L67.209 52.1518C67.2921 52.2289 67.3751 52.3119 67.4642 52.3831L69.5115 49.7386L69.2326 49.543Z" fill="white"/>
</g>
<path d="M95.4199 51.361H95.319C95.246 51.333 95.1867 51.2778 95.1535 51.2071C95.1203 51.1364 95.1159 51.0555 95.141 50.9816C95.2597 50.6673 95.3665 50.3412 95.4614 50.0092C95.4723 49.9702 95.4908 49.9338 95.5158 49.902C95.5408 49.8702 95.5718 49.8437 95.6071 49.8238C95.6424 49.804 95.6812 49.7913 95.7214 49.7865C95.7615 49.7817 95.8023 49.7848 95.8412 49.7957C95.8802 49.8066 95.9166 49.8251 95.9485 49.85C95.9803 49.875 96.0069 49.906 96.0267 49.9412C96.0465 49.9765 96.0592 50.0153 96.0641 50.0554C96.0689 50.0955 96.0658 50.1362 96.0549 50.1752C95.954 50.5191 95.8472 50.857 95.7225 51.1832C95.6976 51.2411 95.6548 51.2896 95.6004 51.3216C95.5459 51.3536 95.4827 51.3674 95.4199 51.361ZM96.1439 48.6336H96.0964C96.0577 48.6271 96.0208 48.6131 95.9876 48.5923C95.9544 48.5714 95.9256 48.5443 95.903 48.5123C95.8804 48.4803 95.8643 48.4442 95.8558 48.406C95.8472 48.3678 95.8463 48.3282 95.8531 48.2897C95.9184 47.9161 95.9777 47.5307 96.0193 47.1038C96.0321 47.0321 96.0703 46.9675 96.127 46.9217C96.1837 46.876 96.255 46.8522 96.3278 46.8548C96.4056 46.8637 96.4767 46.903 96.5256 46.9641C96.5745 47.0252 96.5973 47.1031 96.5889 47.1809C96.5415 47.59 96.4821 47.9873 96.4168 48.3668C96.409 48.4358 96.3775 48.5 96.3278 48.5486C96.2781 48.5972 96.2131 48.6272 96.1439 48.6336ZM96.4465 45.6689C96.4075 45.6674 96.3693 45.6582 96.3338 45.6419C96.2984 45.6256 96.2666 45.6024 96.2401 45.5738C96.2137 45.5451 96.1931 45.5116 96.1797 45.475C96.1662 45.4384 96.1601 45.3996 96.1617 45.3606C96.1617 45.0997 96.1617 44.8329 96.1617 44.5602V44.1866C96.1609 44.148 96.1678 44.1096 96.1821 44.0736C96.1963 44.0377 96.2176 44.0049 96.2447 43.9773C96.2718 43.9497 96.3041 43.9278 96.3398 43.9128C96.3755 43.8979 96.4138 43.8901 96.4525 43.8902C96.5297 43.8916 96.6034 43.9225 96.6586 43.9765C96.7138 44.0305 96.7462 44.1036 96.7492 44.1807V44.5602C96.7492 44.8388 96.7492 45.1116 96.7492 45.3784C96.7461 45.4565 96.7129 45.5304 96.6564 45.5846C96.6 45.6388 96.5248 45.669 96.4465 45.6689ZM96.3694 42.7043C96.295 42.7032 96.2237 42.6748 96.169 42.6245C96.1142 42.5742 96.08 42.5055 96.0727 42.4316C96.0727 42.0462 96.0074 41.6548 95.9599 41.2457C95.9505 41.1671 95.9727 41.0879 96.0216 41.0257C96.0706 40.9634 96.1423 40.9231 96.221 40.9137C96.2997 40.9042 96.3789 40.9264 96.4413 40.9753C96.5036 41.0243 96.5439 41.0959 96.5533 41.1746C96.6008 41.5718 96.6424 41.9691 96.672 42.3604C96.6753 42.3994 96.6708 42.4386 96.6588 42.4758C96.6468 42.513 96.6276 42.5475 96.6022 42.5772C96.5768 42.607 96.5458 42.6315 96.511 42.6492C96.4761 42.6669 96.4381 42.6776 96.399 42.6806L96.3694 42.7043ZM95.9896 39.7397C95.9196 39.7397 95.8518 39.7154 95.7977 39.6711C95.7436 39.6268 95.7066 39.5651 95.6929 39.4966C95.6276 39.1112 95.5505 38.7317 95.4674 38.3463C95.4515 38.2685 95.4669 38.1876 95.5102 38.121C95.5535 38.0545 95.6212 38.0076 95.6988 37.9905C95.737 37.9827 95.7763 37.9825 95.8146 37.9899C95.8529 37.9973 95.8893 38.0122 95.9218 38.0337C95.9543 38.0552 95.9823 38.0828 96.0041 38.1151C96.0259 38.1474 96.0411 38.1836 96.0489 38.2218C96.132 38.6131 96.2092 39.0044 96.2804 39.4076C96.288 39.4463 96.2877 39.4861 96.2795 39.5246C96.2713 39.5631 96.2553 39.5996 96.2326 39.6317C96.2098 39.6639 96.1807 39.6911 96.1471 39.7117C96.1135 39.7323 96.0761 39.7458 96.0371 39.7515L95.9896 39.7397ZM95.3427 36.8521C95.2762 36.8517 95.2117 36.8294 95.1592 36.7887C95.1066 36.748 95.0689 36.6911 95.052 36.6268C94.9511 36.2533 94.8443 35.8738 94.7315 35.4943C94.7095 35.4157 94.7196 35.3315 94.7597 35.2604C94.7997 35.1892 94.8665 35.1369 94.9452 35.1148C95.0238 35.0928 95.1081 35.1029 95.1793 35.143C95.2505 35.183 95.3029 35.2497 95.3249 35.3283C95.4377 35.7078 95.5505 36.0932 95.6513 36.4786C95.6714 36.554 95.6608 36.6344 95.6219 36.7021C95.583 36.7698 95.5189 36.8194 95.4436 36.8403L95.3427 36.8521ZM94.4645 34.0179C94.4028 34.0175 94.3428 33.9978 94.2928 33.9617C94.2428 33.9255 94.2053 33.8747 94.1856 33.8163C94.055 33.4487 93.9245 33.0811 93.782 32.7135C93.7677 32.6769 93.7609 32.6379 93.7618 32.5986C93.7627 32.5594 93.7714 32.5207 93.7875 32.4848C93.8035 32.449 93.8264 32.4167 93.8551 32.3898C93.8837 32.3629 93.9173 32.3419 93.9541 32.3281C94.0274 32.3011 94.1083 32.304 94.1794 32.3362C94.2504 32.3684 94.306 32.4272 94.3339 32.5C94.4763 32.8756 94.6128 33.2491 94.7434 33.6207C94.7575 33.6572 94.764 33.6962 94.7626 33.7353C94.7612 33.7744 94.7519 33.8129 94.7353 33.8483C94.7187 33.8837 94.695 33.9155 94.6658 33.9416C94.6366 33.9676 94.6025 33.9876 94.5654 34.0001C94.5364 34.0284 94.5021 34.0506 94.4645 34.0654V34.0179ZM93.3904 31.2549C93.3318 31.2546 93.2746 31.237 93.226 31.2043C93.1775 31.1716 93.1397 31.1252 93.1174 31.0711C92.9631 30.7094 92.797 30.3536 92.6367 29.992C92.6208 29.9569 92.6118 29.9191 92.6105 29.8806C92.6092 29.8421 92.6154 29.8038 92.6289 29.7677C92.6424 29.7316 92.6629 29.6986 92.6892 29.6704C92.7155 29.6423 92.747 29.6196 92.7821 29.6036C92.8172 29.5876 92.8551 29.5787 92.8936 29.5774C92.9321 29.5761 92.9705 29.5823 93.0066 29.5958C93.0427 29.6093 93.0757 29.6297 93.1039 29.656C93.1321 29.6823 93.1548 29.7138 93.1708 29.7489C93.3429 30.1105 93.5031 30.4722 93.6634 30.8398C93.6931 30.9131 93.693 30.995 93.6631 31.0681C93.6331 31.1413 93.5757 31.1998 93.5031 31.2312C93.47 31.2613 93.4318 31.2853 93.3904 31.3023V31.2549ZM92.1264 28.563C92.0714 28.5637 92.0173 28.549 91.9701 28.5208C91.923 28.4925 91.8846 28.4517 91.8593 28.4029C91.6813 28.0531 91.4973 27.7033 91.3075 27.3594C91.2887 27.3251 91.277 27.2875 91.2728 27.2487C91.2687 27.2099 91.2722 27.1707 91.2832 27.1332C91.2942 27.0958 91.3125 27.0609 91.3371 27.0305C91.3616 27.0001 91.3919 26.9749 91.4261 26.9562C91.4604 26.9375 91.4981 26.9257 91.5369 26.9216C91.5757 26.9174 91.615 26.921 91.6525 26.932C91.69 26.943 91.7249 26.9613 91.7553 26.9858C91.7857 27.0103 91.811 27.0405 91.8297 27.0748C92.0196 27.4246 92.2095 27.7803 92.3875 28.1361C92.4057 28.1706 92.4168 28.2084 92.4201 28.2473C92.4234 28.2862 92.4188 28.3254 92.4066 28.3624C92.3945 28.3995 92.3749 28.4338 92.3492 28.4631C92.3235 28.4925 92.2921 28.5164 92.2569 28.5334C92.222 28.5714 92.1766 28.5982 92.1264 28.6104V28.563ZM90.6903 25.966C90.639 25.9669 90.5883 25.9542 90.5435 25.9292C90.4987 25.9042 90.4613 25.8678 90.4351 25.8237C90.2334 25.4857 90.0257 25.1478 89.8417 24.8157C89.821 24.7826 89.8071 24.7458 89.8007 24.7073C89.7943 24.6688 89.7955 24.6295 89.8044 24.5915C89.8132 24.5535 89.8294 24.5176 89.8521 24.4859C89.8748 24.4542 89.9035 24.4272 89.9366 24.4066C89.9698 24.386 90.0066 24.372 90.0451 24.3656C90.0836 24.3592 90.123 24.3605 90.161 24.3693C90.1991 24.3781 90.235 24.3943 90.2667 24.417C90.2985 24.4397 90.3255 24.4684 90.3461 24.5015L90.9692 25.5213C91.0081 25.589 91.0188 25.6693 90.9987 25.7448C90.9788 25.8203 90.9297 25.8849 90.8624 25.9245C90.8175 25.9737 90.7565 26.0053 90.6903 26.0134V25.966ZM89.088 23.4698C89.0401 23.4684 88.9932 23.4559 88.951 23.4333C88.9087 23.4106 88.8724 23.3785 88.8447 23.3393C88.6271 23.0191 88.4016 22.699 88.1682 22.3788C88.1452 22.3473 88.1287 22.3115 88.1195 22.2736C88.1104 22.2357 88.1088 22.1963 88.1148 22.1578C88.1209 22.1192 88.1345 22.0822 88.1549 22.049C88.1752 22.0157 88.2019 21.9867 88.2335 21.9637C88.2651 21.9408 88.3009 21.9242 88.3388 21.9151C88.3768 21.9059 88.4162 21.9043 88.4547 21.9104C88.4933 21.9164 88.5303 21.93 88.5636 21.9504C88.5969 21.9707 88.6259 21.9974 88.6489 22.029C88.8803 22.3551 89.1118 22.6752 89.3373 23.0073C89.3793 23.0724 89.3947 23.1511 89.3804 23.2272C89.366 23.3033 89.323 23.3711 89.2601 23.4164C89.2155 23.4681 89.155 23.5036 89.088 23.5172V23.4698ZM87.3078 21.0981C87.2633 21.097 87.2197 21.0864 87.1797 21.067C87.1398 21.0476 87.1045 21.0197 87.0763 20.9854C86.833 20.6771 86.5838 20.3925 86.3345 20.0723C86.2834 20.0118 86.2584 19.9334 86.2651 19.8544C86.2718 19.7755 86.3096 19.7024 86.3702 19.6513C86.4307 19.6002 86.5092 19.5753 86.5882 19.5819C86.6672 19.5886 86.7403 19.6264 86.7915 19.6869C87.0467 19.9952 87.2959 20.2798 87.5451 20.6178C87.593 20.68 87.6142 20.7585 87.6042 20.8363C87.5942 20.9141 87.5538 20.9848 87.4917 21.0328C87.4505 21.0827 87.3943 21.118 87.3315 21.1336L87.3078 21.0981ZM85.391 18.8331C85.3498 18.8334 85.309 18.8251 85.2712 18.8087C85.2334 18.7924 85.1994 18.7684 85.1714 18.7382C84.9044 18.4477 84.6373 18.1453 84.3644 17.8785C84.31 17.8231 84.2796 17.7485 84.2796 17.6709C84.2796 17.5933 84.31 17.5188 84.3644 17.4634C84.392 17.4356 84.4248 17.4136 84.4609 17.3985C84.4971 17.3835 84.5359 17.3757 84.575 17.3757C84.6142 17.3757 84.653 17.3835 84.6891 17.3985C84.7253 17.4136 84.7581 17.4356 84.7857 17.4634C85.0666 17.748 85.3396 18.0386 85.6046 18.335C85.6323 18.3621 85.6542 18.3944 85.6692 18.43C85.6842 18.4656 85.6919 18.5039 85.6919 18.5426C85.6919 18.5812 85.6842 18.6195 85.6692 18.6551C85.6542 18.6907 85.6323 18.723 85.6046 18.7501C85.5593 18.8129 85.4911 18.8554 85.4147 18.8687L85.391 18.8331ZM83.314 16.7223C83.2368 16.7215 83.1627 16.6919 83.1063 16.6393C82.8215 16.3724 82.5129 16.1056 82.234 15.8507C82.1792 15.7942 82.1486 15.7188 82.1486 15.6402C82.1486 15.5616 82.1792 15.4861 82.234 15.4297C82.2616 15.4019 82.2944 15.3798 82.3305 15.3648C82.3667 15.3497 82.4055 15.342 82.4446 15.342C82.4838 15.342 82.5226 15.3497 82.5587 15.3648C82.5949 15.3798 82.6277 15.4019 82.6553 15.4297C82.952 15.6906 83.2487 15.9574 83.5395 16.2301C83.5673 16.2577 83.5894 16.2905 83.6045 16.3266C83.6195 16.3627 83.6273 16.4015 83.6273 16.4406C83.6273 16.4798 83.6195 16.5185 83.6045 16.5546C83.5894 16.5908 83.5673 16.6236 83.5395 16.6511C83.4884 16.7112 83.4162 16.7493 83.3377 16.7578L83.314 16.7223ZM81.0887 14.8368C81.0218 14.8359 80.9571 14.813 80.9047 14.7715C80.5961 14.5284 80.3113 14.2913 79.9671 14.066C79.9045 14.0187 79.8627 13.949 79.8505 13.8716C79.8383 13.7942 79.8567 13.7151 79.9018 13.6509C79.9242 13.6186 79.9529 13.5913 79.9862 13.5704C80.0195 13.5495 80.0567 13.5356 80.0955 13.5296C80.1344 13.5235 80.174 13.5253 80.2121 13.5349C80.2502 13.5446 80.286 13.5618 80.3172 13.5857C80.6377 13.8169 80.9581 14.06 81.2726 14.3091C81.3036 14.3328 81.3294 14.3625 81.3486 14.3964C81.3678 14.4304 81.38 14.4678 81.3845 14.5065C81.3889 14.5452 81.3855 14.5845 81.3744 14.6218C81.3634 14.6592 81.3449 14.694 81.3201 14.7241C81.2922 14.7587 81.257 14.7868 81.217 14.8062C81.177 14.8257 81.1332 14.8361 81.0887 14.8368ZM78.6734 13.1173C78.6199 13.1099 78.569 13.0895 78.5251 13.058C78.1927 12.8445 77.8604 12.6429 77.5222 12.4651C77.4843 12.448 77.4505 12.4231 77.4229 12.3922C77.3953 12.3612 77.3744 12.3248 77.3618 12.2853C77.3491 12.2458 77.3449 12.2041 77.3494 12.1628C77.3539 12.1216 77.367 12.0818 77.3879 12.0459C77.4087 12.01 77.4369 11.9789 77.4705 11.9546C77.5042 11.9303 77.5426 11.9134 77.5832 11.9048C77.6238 11.8963 77.6658 11.8963 77.7064 11.905C77.747 11.9137 77.7853 11.9307 77.8189 11.9551C78.1631 12.1508 78.5073 12.3583 78.8455 12.5481C78.9115 12.5906 78.958 12.6575 78.9747 12.7342C78.9913 12.8109 78.9769 12.8911 78.9345 12.9572C78.9084 13.0026 78.8701 13.04 78.824 13.0651C78.778 13.0902 78.7258 13.1021 78.6734 13.0995V13.1173Z" fill="#0FBAB8"/>
<path d="M100.102 47.9027C100.063 47.9019 100.025 47.8935 99.9893 47.8779C99.9536 47.8623 99.9213 47.8398 99.8943 47.8117C99.8673 47.7836 99.8461 47.7505 99.8319 47.7142C99.8177 47.678 99.8108 47.6393 99.8116 47.6003C99.8116 47.4047 99.8116 47.209 99.8116 47.0074C99.8116 46.9288 99.8428 46.8534 99.8985 46.7978C99.9541 46.7422 100.03 46.7109 100.108 46.7109C100.187 46.7109 100.262 46.7422 100.318 46.7978C100.374 46.8534 100.405 46.9288 100.405 47.0074C100.405 47.2031 100.405 47.4047 100.405 47.6003C100.405 47.64 100.397 47.6794 100.382 47.716C100.367 47.7527 100.344 47.7861 100.316 47.8141C100.288 47.8422 100.255 47.8645 100.218 47.8797C100.181 47.8949 100.142 47.9027 100.102 47.9027Z" fill="#A8CFF0"/>
<path d="M96.1556 59.9888C96.0831 59.9879 96.0135 59.9605 95.9598 59.9117C95.9055 59.8563 95.875 59.7818 95.875 59.7042C95.875 59.6266 95.9055 59.5521 95.9598 59.4967C96.2328 59.1844 96.4939 58.8524 96.7431 58.5006C96.7888 58.4361 96.8582 58.3924 96.9361 58.379C97.014 58.3657 97.094 58.3838 97.1585 58.4294C97.2231 58.475 97.2668 58.5444 97.2802 58.6222C97.2935 58.7001 97.2754 58.78 97.2297 58.8445C96.9686 59.2121 96.6897 59.5619 96.4049 59.888C96.3736 59.9225 96.335 59.9495 96.2918 59.967C96.2487 59.9844 96.2021 59.9919 96.1556 59.9888ZM97.9775 57.3088C97.9327 57.3203 97.8857 57.3203 97.841 57.3088C97.7707 57.2721 97.7176 57.2093 97.6932 57.1339C97.6688 57.0585 97.675 56.9765 97.7104 56.9056C97.9063 56.538 98.0843 56.1467 98.2504 55.7553C98.2646 55.718 98.2861 55.6839 98.3138 55.6552C98.3414 55.6264 98.3746 55.6034 98.4113 55.5878C98.448 55.5721 98.4875 55.564 98.5275 55.5639C98.5674 55.5639 98.6069 55.5719 98.6437 55.5874C98.6805 55.603 98.7137 55.6258 98.7414 55.6545C98.7692 55.6833 98.7908 55.7173 98.8051 55.7545C98.8193 55.7918 98.8259 55.8316 98.8244 55.8714C98.8229 55.9113 98.8134 55.9505 98.7964 55.9866C98.6243 56.3898 98.4403 56.793 98.2386 57.1724C98.2107 57.2159 98.172 57.2514 98.1262 57.2753C98.0804 57.2992 98.0291 57.3108 97.9775 57.3088ZM99.1643 54.3027C99.1369 54.3084 99.1086 54.3084 99.0812 54.3027C99.0434 54.2925 99.008 54.2747 98.9772 54.2505C98.9464 54.2263 98.9208 54.1962 98.9019 54.1618C98.8831 54.1275 98.8714 54.0897 98.8675 54.0507C98.8637 54.0118 98.8677 53.9724 98.8795 53.935C98.9982 53.5319 99.1109 53.1168 99.2059 52.6958C99.2143 52.6584 99.23 52.6229 99.2522 52.5916C99.2744 52.5602 99.3026 52.5336 99.3351 52.5132C99.3677 52.4928 99.404 52.479 99.4419 52.4727C99.4798 52.4664 99.5186 52.4677 99.556 52.4764C99.5942 52.4849 99.6305 52.5008 99.6626 52.5232C99.6947 52.5457 99.722 52.5743 99.7429 52.6074C99.7639 52.6404 99.7781 52.6773 99.7847 52.7159C99.7913 52.7545 99.7902 52.794 99.7815 52.8322C99.6865 53.2591 99.5738 53.686 99.4492 54.1011C99.4305 54.159 99.3941 54.2096 99.3452 54.2458C99.2962 54.282 99.2371 54.3019 99.1762 54.3027H99.1643ZM99.8408 51.1364H99.7993C99.7609 51.1314 99.724 51.1187 99.6906 51.0992C99.6572 51.0796 99.628 51.0537 99.6048 51.0227C99.5816 50.9918 99.5648 50.9566 99.5554 50.9191C99.546 50.8816 99.5442 50.8426 99.55 50.8044C99.6034 50.3893 99.6509 49.9624 99.6925 49.5296C99.7 49.4519 99.7379 49.3804 99.7978 49.3304C99.8578 49.2805 99.9351 49.2562 100.013 49.2628C100.052 49.2657 100.089 49.2764 100.124 49.2943C100.159 49.3121 100.189 49.3366 100.214 49.3665C100.239 49.3963 100.258 49.4309 100.269 49.4681C100.28 49.5052 100.284 49.5443 100.28 49.583C100.244 50.0277 100.197 50.4605 100.138 50.8874C100.125 50.9551 100.091 51.0166 100.039 51.0619C99.9871 51.1072 99.9214 51.1335 99.8527 51.1364H99.8408Z" fill="#A8CFF0"/>
<path d="M94.2865 61.7054C94.2389 61.7062 94.1918 61.6952 94.1493 61.6735C94.1069 61.6518 94.0705 61.62 94.0432 61.5809C93.9982 61.5167 93.9798 61.4376 93.992 61.3602C94.0041 61.2828 94.0459 61.2131 94.1085 61.1658L94.5654 60.816C94.5958 60.7915 94.6308 60.7732 94.6682 60.7621C94.7057 60.7511 94.745 60.7475 94.7838 60.7517C94.8227 60.7558 94.8603 60.7675 94.8947 60.7862C94.929 60.8049 94.9593 60.8301 94.9838 60.8605C95.0084 60.8908 95.0267 60.9257 95.0377 60.9632C95.0488 61.0006 95.0523 61.0399 95.0482 61.0787C95.0441 61.1175 95.0323 61.1551 95.0136 61.1894C94.995 61.2237 94.9697 61.254 94.9393 61.2785C94.785 61.403 94.6248 61.5275 94.4586 61.6461C94.4098 61.685 94.349 61.7059 94.2865 61.7054Z" fill="#A8CFF0"/>
<path d="M53.0907 20.1721C53.012 20.1721 52.9365 20.1409 52.8809 20.0853C52.8252 20.0297 52.7939 19.9543 52.7939 19.8756C52.7939 19.68 52.7939 19.4784 52.7939 19.2827C52.797 19.2056 52.8294 19.1326 52.8845 19.0786C52.9397 19.0245 53.0134 18.9936 53.0907 18.9922C53.1296 18.993 53.1681 19.0014 53.2038 19.017C53.2395 19.0326 53.2717 19.0551 53.2987 19.0832C53.3257 19.1113 53.347 19.1444 53.3611 19.1807C53.3753 19.2169 53.3822 19.2556 53.3814 19.2946C53.3814 19.4902 53.3814 19.6859 53.3814 19.8875C53.3784 19.963 53.3466 20.0346 53.2926 20.0875C53.2385 20.1404 53.1663 20.1707 53.0907 20.1721Z" fill="#A8CFF0"/>
<path d="M96.5057 30.8874C96.4471 30.8871 96.3899 30.8695 96.3413 30.8368C96.2927 30.8041 96.2549 30.7577 96.2327 30.7036C96.0784 30.336 95.9182 29.9683 95.7579 29.6067C95.7391 29.5709 95.7277 29.5316 95.7246 29.4912C95.7215 29.4509 95.7267 29.4103 95.7399 29.372C95.753 29.3338 95.7739 29.2986 95.8012 29.2687C95.8285 29.2388 95.8616 29.2148 95.8986 29.1982C95.9355 29.1815 95.9754 29.1726 96.0159 29.172C96.0564 29.1714 96.0966 29.1791 96.134 29.1946C96.1715 29.2101 96.2053 29.2331 96.2335 29.2621C96.2617 29.2912 96.2836 29.3257 96.298 29.3636C96.4641 29.7371 96.6243 30.1047 96.7786 30.4783C96.7941 30.514 96.8022 30.5525 96.8024 30.5914C96.8027 30.6303 96.7952 30.6689 96.7802 30.7049C96.7653 30.7408 96.7432 30.7734 96.7154 30.8007C96.6876 30.828 96.6547 30.8494 96.6184 30.8637C96.5831 30.8801 96.5446 30.8882 96.5057 30.8874ZM95.2713 28.1481C95.216 28.1469 95.162 28.1308 95.1151 28.1016C95.0681 28.0724 95.0298 28.0311 95.0043 27.982C94.8322 27.6204 94.6542 27.2646 94.4761 26.9088C94.4579 26.8743 94.4468 26.8365 94.4435 26.7976C94.4402 26.7587 94.4448 26.7196 94.457 26.6825C94.4692 26.6454 94.4887 26.6112 94.5144 26.5818C94.5401 26.5525 94.5715 26.5286 94.6067 26.5116C94.6412 26.4934 94.6791 26.4823 94.718 26.479C94.7569 26.4757 94.7961 26.4803 94.8332 26.4925C94.8703 26.5046 94.9046 26.5241 94.934 26.5498C94.9634 26.5755 94.9873 26.6069 95.0043 26.642C95.1883 26.9978 95.3663 27.3595 95.5384 27.7212C95.5556 27.7562 95.5657 27.7943 95.5682 27.8332C95.5706 27.8721 95.5654 27.9112 95.5527 27.9481C95.54 27.985 95.5202 28.0191 95.4943 28.0483C95.4684 28.0775 95.437 28.1013 95.4019 28.1184C95.3609 28.1374 95.3165 28.1475 95.2713 28.1481ZM93.9005 25.474C93.847 25.4748 93.7943 25.4608 93.7483 25.4336C93.7022 25.4064 93.6645 25.367 93.6394 25.3198L93.046 24.2822C93.0068 24.2136 92.996 24.1323 93.0159 24.0559C93.0359 23.9794 93.085 23.9138 93.1528 23.8731C93.2225 23.8359 93.3038 23.8269 93.38 23.8478C93.4562 23.8688 93.5214 23.9181 93.5623 23.9857C93.7581 24.3355 93.9599 24.6854 94.1557 25.0352C94.1755 25.0689 94.1884 25.1062 94.1934 25.145C94.1985 25.1837 94.1957 25.2231 94.1852 25.2608C94.1746 25.2984 94.1566 25.3335 94.1322 25.3641C94.1077 25.3946 94.0774 25.4199 94.0429 25.4384C94 25.4639 93.9505 25.4763 93.9005 25.474ZM92.3873 22.8829C92.3361 22.8832 92.2857 22.8702 92.2409 22.8453C92.1962 22.8204 92.1587 22.7843 92.1321 22.7406C91.9244 22.4026 91.7108 22.0646 91.4912 21.7326C91.4536 21.6667 91.4427 21.5888 91.4608 21.5151C91.4789 21.4414 91.5246 21.3774 91.5885 21.3363C91.6524 21.2953 91.7296 21.2803 91.8043 21.2944C91.8789 21.3086 91.9453 21.3508 91.9897 21.4124C92.2093 21.7504 92.4229 22.0884 92.6365 22.4323C92.6572 22.4653 92.6712 22.5022 92.6777 22.5406C92.6841 22.5791 92.6829 22.6185 92.6741 22.6565C92.6652 22.6945 92.649 22.7304 92.6263 22.7621C92.6035 22.7939 92.5747 22.8208 92.5416 22.8414C92.4952 22.8696 92.4416 22.884 92.3873 22.8829ZM90.7376 20.3748C90.6897 20.3734 90.6427 20.3609 90.6005 20.3383C90.5583 20.3156 90.5219 20.2835 90.4943 20.2444C90.2687 19.9182 90.0373 19.5921 89.8059 19.272C89.7829 19.2404 89.7663 19.2047 89.7572 19.1667C89.748 19.1288 89.7464 19.0895 89.7525 19.0509C89.7585 19.0124 89.7721 18.9754 89.7925 18.9421C89.8129 18.9088 89.8396 18.8799 89.8712 18.8569C89.9027 18.8339 89.9385 18.8174 89.9765 18.8082C90.0144 18.7991 90.0538 18.7975 90.0924 18.8036C90.1309 18.8096 90.1679 18.8232 90.2013 18.8435C90.2346 18.8639 90.2636 18.8906 90.2866 18.9221C90.518 19.2482 90.7554 19.5743 90.9809 19.9064C91.0036 19.9382 91.0199 19.9743 91.0286 20.0125C91.0373 20.0506 91.0384 20.0901 91.0318 20.1287C91.0252 20.1673 91.011 20.2042 90.99 20.2373C90.9691 20.2704 90.9417 20.299 90.9096 20.3214C90.8589 20.3559 90.799 20.3745 90.7376 20.3748ZM88.9573 17.9557C88.912 17.9562 88.8672 17.9456 88.8269 17.925C88.7866 17.9043 88.7519 17.8741 88.7258 17.8371C88.4766 17.5228 88.2333 17.2441 87.9781 16.9062C87.9533 16.8761 87.9349 16.8413 87.9238 16.8039C87.9128 16.7665 87.9093 16.7273 87.9138 16.6886C87.9182 16.6499 87.9304 16.6124 87.9496 16.5785C87.9688 16.5446 87.9947 16.5149 88.0256 16.4911C88.0554 16.466 88.0898 16.4472 88.127 16.4356C88.1642 16.4241 88.2034 16.4202 88.2421 16.4241C88.2808 16.4279 88.3184 16.4395 88.3526 16.4582C88.3867 16.4768 88.4168 16.5022 88.441 16.5326C88.6962 16.841 88.9454 17.1552 89.1946 17.4754C89.2271 17.52 89.2468 17.5726 89.2515 17.6276C89.2562 17.6826 89.2458 17.7378 89.2213 17.7872C89.1969 17.8367 89.1594 17.8786 89.1128 17.9082C89.0663 17.9379 89.0125 17.9543 88.9573 17.9557ZM53.1915 17.8015C53.1527 17.7985 53.1149 17.7878 53.0804 17.77C53.0458 17.7522 53.0151 17.7277 52.9902 17.6978C52.9653 17.6679 52.9467 17.6334 52.9354 17.5962C52.9241 17.559 52.9204 17.52 52.9245 17.4813C52.9245 17.0722 53.0016 16.669 53.0491 16.2955C53.0609 16.2183 53.102 16.1487 53.1639 16.1012C53.2259 16.0537 53.3038 16.032 53.3814 16.0405C53.4592 16.0508 53.5298 16.0916 53.5777 16.1538C53.6255 16.2161 53.6467 16.2947 53.6366 16.3725C53.5891 16.7579 53.5476 17.1493 53.5119 17.5584C53.4989 17.6317 53.4586 17.6975 53.3993 17.7425C53.3399 17.7875 53.2657 17.8086 53.1915 17.8015ZM87.0583 15.6432C87.0158 15.6429 86.9738 15.6337 86.935 15.6164C86.8962 15.599 86.8614 15.5739 86.8328 15.5424C86.5717 15.2401 86.3106 14.9495 86.0436 14.6531C86.011 14.626 85.9846 14.5923 85.9661 14.5543C85.9476 14.5162 85.9375 14.4746 85.9365 14.4323C85.9354 14.39 85.9434 14.348 85.96 14.309C85.9766 14.2701 86.0013 14.2352 86.0325 14.2065C86.0637 14.1779 86.1006 14.1563 86.1409 14.1432C86.1811 14.13 86.2237 14.1256 86.2658 14.1303C86.3079 14.135 86.3485 14.1486 86.3849 14.1702C86.4213 14.1919 86.4526 14.221 86.4768 14.2558C86.7497 14.5463 87.0168 14.8487 87.2838 15.1511C87.3386 15.2075 87.3692 15.283 87.3692 15.3616C87.3692 15.4402 87.3386 15.5157 87.2838 15.5721C87.2202 15.6227 87.1391 15.6461 87.0583 15.6373V15.6432ZM53.601 14.8369H53.5416C53.5031 14.8298 53.4663 14.8151 53.4336 14.7935C53.4009 14.7719 53.3729 14.7439 53.3512 14.7113C53.3296 14.6786 53.3148 14.6419 53.3078 14.6033C53.3007 14.5648 53.3015 14.5252 53.3102 14.487C53.3933 14.0838 53.4882 13.6866 53.595 13.3012C53.6052 13.2623 53.6229 13.2257 53.6471 13.1936C53.6714 13.1615 53.7018 13.1345 53.7365 13.1141C53.7712 13.0938 53.8096 13.0804 53.8495 13.0749C53.8893 13.0693 53.9299 13.0717 53.9689 13.0818C54.0079 13.0919 54.0444 13.1096 54.0766 13.1339C54.1087 13.1581 54.1357 13.1884 54.1561 13.2231C54.1765 13.2578 54.1898 13.2962 54.1954 13.336C54.2009 13.3759 54.1986 13.4164 54.1885 13.4553C54.0876 13.8289 53.9986 14.2143 53.9155 14.6116C53.8987 14.6805 53.8578 14.7411 53.8 14.7825C53.7423 14.8238 53.6717 14.8431 53.601 14.8369ZM85.0525 13.4376C84.9723 13.4374 84.8955 13.4054 84.8389 13.3486C84.56 13.064 84.2455 12.7557 83.9903 12.5067C83.9336 12.4516 83.9012 12.3763 83.9001 12.2974C83.899 12.2185 83.9293 12.1423 83.9844 12.0857C84.0395 12.0291 84.1148 11.9966 84.1938 11.9955C84.2728 11.9944 84.349 12.0247 84.4057 12.0798L85.2602 12.9336C85.2879 12.9606 85.3098 12.9929 85.3248 13.0285C85.3398 13.0642 85.3475 13.1024 85.3475 13.1411C85.3475 13.1797 85.3398 13.218 85.3248 13.2536C85.3098 13.2893 85.2879 13.3216 85.2602 13.3486C85.2055 13.4045 85.1308 13.4364 85.0525 13.4376ZM54.4436 11.9493C54.4085 11.9576 54.3719 11.9576 54.3368 11.9493C54.3002 11.9361 54.2667 11.9158 54.2381 11.8894C54.2096 11.8631 54.1866 11.8313 54.1705 11.7959C54.1545 11.7605 54.1457 11.7223 54.1447 11.6835C54.1437 11.6446 54.1505 11.606 54.1647 11.5698C54.3071 11.1844 54.4674 10.805 54.6335 10.4433C54.6682 10.3724 54.7288 10.3176 54.8028 10.29C54.8767 10.2625 54.9584 10.2643 55.0311 10.295C55.0668 10.3116 55.0987 10.335 55.1252 10.364C55.1517 10.393 55.1722 10.427 55.1854 10.4639C55.1987 10.5009 55.2045 10.5401 55.2024 10.5793C55.2004 10.6185 55.1906 10.6569 55.1735 10.6923C55.0133 11.0421 54.859 11.4097 54.7225 11.7774C54.6969 11.8293 54.6571 11.873 54.6078 11.9034C54.5585 11.9338 54.5016 11.9497 54.4436 11.9493ZM82.845 11.3564C82.7826 11.3497 82.7242 11.3226 82.6788 11.2793L81.7768 10.5026C81.7162 10.4515 81.6784 10.3784 81.6718 10.2994C81.6651 10.2205 81.6901 10.1421 81.7412 10.0816C81.7924 10.021 81.8655 9.98329 81.9445 9.97662C82.0235 9.96994 82.102 9.99491 82.1626 10.046C82.4652 10.3069 82.756 10.5678 83.0764 10.8405C83.1308 10.896 83.1612 10.9705 83.1612 11.0481C83.1612 11.1257 83.1308 11.2002 83.0764 11.2556C83.0477 11.2888 83.0122 11.3155 82.9723 11.3339C82.9323 11.3523 82.889 11.362 82.845 11.3623V11.3564ZM80.5366 9.44123C80.4717 9.43953 80.4091 9.41662 80.3585 9.37601C80.0381 9.13291 79.7236 8.89574 79.4031 8.6645C79.371 8.64203 79.3437 8.61343 79.3227 8.58036C79.3018 8.54729 79.2876 8.51039 79.2809 8.4718C79.2743 8.43321 79.2754 8.39369 79.2842 8.35553C79.2929 8.31737 79.3091 8.28131 79.3319 8.24945C79.3792 8.18691 79.4489 8.14515 79.5264 8.13299C79.6039 8.12082 79.6831 8.13919 79.7473 8.18423C80.0737 8.4214 80.4001 8.65857 80.7205 8.9076C80.7826 8.95565 80.823 9.02631 80.833 9.1041C80.843 9.18189 80.8218 9.26048 80.7739 9.32265C80.7466 9.36022 80.711 9.391 80.6698 9.4126C80.6286 9.43419 80.583 9.44602 80.5366 9.44716V9.44123ZM55.7551 9.24556C55.7008 9.24672 55.6472 9.23232 55.6008 9.20406C55.567 9.18404 55.5376 9.1574 55.5144 9.12572C55.4912 9.09405 55.4747 9.05801 55.4658 9.01977C55.457 8.98154 55.4559 8.94191 55.4628 8.90326C55.4697 8.86462 55.4843 8.82777 55.5059 8.79494C55.7181 8.44563 55.9479 8.10723 56.1942 7.78104C56.2424 7.71943 56.3125 7.67884 56.39 7.66778C56.4674 7.65673 56.5461 7.67607 56.6096 7.72174C56.6408 7.7451 56.6671 7.77437 56.6869 7.80787C56.7068 7.84137 56.7198 7.87845 56.7253 7.91699C56.7308 7.95553 56.7287 7.99478 56.719 8.03249C56.7094 8.07021 56.6924 8.10565 56.669 8.13679C56.4375 8.44511 56.218 8.77122 56.0103 9.10919C55.9832 9.15251 55.9456 9.18827 55.901 9.21315C55.8564 9.23804 55.8062 9.25123 55.7551 9.25149V9.24556ZM78.0857 7.72174C78.0301 7.71528 77.977 7.69489 77.9314 7.66245C77.5991 7.44307 77.2609 7.23554 76.9226 7.02802C76.8763 6.98114 76.8469 6.92018 76.8391 6.85477C76.8314 6.78935 76.8456 6.72322 76.8796 6.66679C76.9136 6.61037 76.9655 6.56687 77.027 6.54316C77.0885 6.51946 77.1562 6.5169 77.2193 6.53589L78.2519 7.17625C78.3169 7.21972 78.3621 7.2871 78.3777 7.36372C78.3933 7.44035 78.3779 7.52001 78.335 7.58537C78.309 7.62791 78.2723 7.6629 78.2286 7.68683C78.1848 7.71076 78.1356 7.7228 78.0857 7.72174ZM57.6125 6.90351C57.5335 6.9031 57.4574 6.87354 57.3989 6.8205C57.3711 6.79294 57.349 6.76015 57.3339 6.72402C57.3189 6.68789 57.3111 6.64914 57.3111 6.61001C57.3111 6.57087 57.3189 6.53212 57.3339 6.49599C57.349 6.45987 57.3711 6.42708 57.3989 6.39952C57.6994 6.10696 58.0164 5.83179 58.3484 5.57535C58.4098 5.52582 58.4883 5.50267 58.5668 5.51101C58.6452 5.51935 58.7172 5.55849 58.7667 5.61982C58.8163 5.68115 58.8395 5.75964 58.8311 5.83804C58.8228 5.91643 58.7836 5.9883 58.7222 6.03783C58.4177 6.28296 58.1265 6.54422 57.8499 6.8205C57.8184 6.85021 57.781 6.87296 57.7401 6.88726C57.6992 6.90156 57.6557 6.9071 57.6125 6.90351ZM75.4984 6.19199C75.4506 6.19229 75.4035 6.18002 75.3619 6.15642C75.0058 5.97261 74.6498 5.79473 74.2937 5.62871C74.2221 5.5949 74.1669 5.53406 74.1402 5.45955C74.1135 5.38505 74.1175 5.303 74.1513 5.23145C74.1851 5.1599 74.246 5.10471 74.3206 5.07803C74.3952 5.05134 74.4773 5.05534 74.5489 5.08915C74.9109 5.2611 75.2729 5.43898 75.6349 5.62871C75.7136 5.6468 75.7818 5.69538 75.8247 5.76376C75.8675 5.83215 75.8814 5.91474 75.8633 5.99336C75.8452 6.07199 75.7966 6.14021 75.7282 6.18302C75.6597 6.22583 75.5771 6.23972 75.4984 6.22164V6.19199ZM59.9922 5.09508C59.9397 5.09479 59.8882 5.08031 59.8433 5.05317C59.7984 5.02603 59.7616 4.98724 59.737 4.94092C59.7169 4.90759 59.7037 4.87058 59.6982 4.83207C59.6928 4.79356 59.6951 4.75434 59.705 4.71674C59.715 4.67914 59.7324 4.64392 59.7562 4.61317C59.7801 4.58242 59.8099 4.55677 59.8438 4.53773C60.2021 4.33701 60.5705 4.15494 60.9476 3.99224C60.9837 3.97141 61.0238 3.95843 61.0653 3.95412C61.1067 3.94982 61.1486 3.9543 61.1883 3.96728C61.2279 3.98025 61.2643 4.00142 61.2952 4.0294C61.3261 4.05739 61.3507 4.09157 61.3675 4.12971C61.3843 4.16785 61.3928 4.20909 61.3926 4.25075C61.3924 4.29241 61.3833 4.33355 61.3661 4.37149C61.3489 4.40943 61.3238 4.44331 61.2926 4.47093C61.2614 4.49856 61.2247 4.5193 61.1849 4.5318C60.8289 4.69189 60.4728 4.86384 60.1405 5.05357C60.0962 5.08167 60.0446 5.09611 59.9922 5.09508ZM72.7686 4.94092C72.7332 4.94657 72.6972 4.94657 72.6618 4.94092C72.2879 4.79269 71.9141 4.66224 71.5462 4.53773C71.5072 4.52566 71.471 4.50604 71.4396 4.47999C71.4082 4.45394 71.3823 4.42197 71.3633 4.38591C71.3249 4.31308 71.317 4.22799 71.3414 4.14936C71.3658 4.07073 71.4205 4.00501 71.4934 3.96665C71.5663 3.92829 71.6514 3.92043 71.7301 3.9448C72.1099 4.06932 72.4897 4.21162 72.8754 4.35985C72.9541 4.374 73.024 4.41881 73.0696 4.48442C73.1152 4.55002 73.1329 4.63105 73.1187 4.70968C73.1046 4.7883 73.0597 4.85809 72.9941 4.90368C72.9284 4.94927 72.8473 4.96693 72.7686 4.95278V4.94092ZM69.9083 4.0456H69.8371C69.4415 3.95468 69.0459 3.8776 68.6502 3.81436C68.5751 3.79477 68.5107 3.74655 68.4708 3.68004C68.4308 3.61353 68.4186 3.53404 68.4366 3.4586C68.4424 3.42022 68.4557 3.38339 68.476 3.35026C68.4962 3.31713 68.5229 3.28839 68.5544 3.26573C68.5859 3.24307 68.6217 3.22696 68.6595 3.21833C68.6974 3.2097 68.7366 3.20874 68.7749 3.2155C69.1725 3.28072 69.5701 3.36373 69.9617 3.4586C70.0404 3.46725 70.1124 3.50678 70.162 3.56849C70.2115 3.63021 70.2344 3.70905 70.2258 3.78768C70.2171 3.8663 70.1776 3.93827 70.1158 3.98776C70.054 4.03724 69.9751 4.06018 69.8964 4.05153L69.9083 4.0456ZM62.7872 3.97445C62.722 3.9751 62.6584 3.95382 62.6068 3.91403C62.5551 3.87425 62.5183 3.81826 62.5024 3.75507C62.4816 3.68195 62.4897 3.60365 62.525 3.53634C62.5604 3.46903 62.6202 3.41785 62.6922 3.39338C63.0839 3.29258 63.4874 3.20957 63.8791 3.14435C63.9173 3.13759 63.9566 3.13855 63.9944 3.14718C64.0323 3.1558 64.068 3.17192 64.0996 3.19458C64.1311 3.21724 64.1578 3.24598 64.178 3.27911C64.1982 3.31223 64.2116 3.34907 64.2174 3.38745C64.2242 3.42601 64.2233 3.46554 64.2147 3.50375C64.2061 3.54196 64.1901 3.57809 64.1674 3.61007C64.1448 3.64204 64.1161 3.66922 64.0829 3.69004C64.0497 3.71086 64.0127 3.7249 63.9741 3.73135C63.5824 3.79064 63.1967 3.87365 62.8228 3.96852L62.7872 3.97445ZM66.9412 3.6009C66.5377 3.6009 66.146 3.57126 65.7543 3.6009C65.7143 3.60112 65.6746 3.5929 65.638 3.57678C65.6014 3.56066 65.5685 3.53701 65.5416 3.50735C65.5148 3.4777 65.4945 3.44272 65.482 3.40469C65.4696 3.36666 65.4653 3.32644 65.4695 3.28665C65.4687 3.24772 65.4756 3.20901 65.4898 3.17274C65.504 3.13647 65.5252 3.10335 65.5522 3.07527C65.5792 3.04719 65.6114 3.0247 65.6472 3.00908C65.6829 2.99347 65.7213 2.98503 65.7603 2.98426C66.1675 2.96358 66.5755 2.96358 66.9827 2.98426C67.022 2.98573 67.0605 2.99513 67.0961 3.0119C67.1316 3.02867 67.1633 3.05246 67.1894 3.08183C67.2155 3.1112 67.2353 3.14554 67.2477 3.18278C67.2601 3.22002 67.2649 3.25939 67.2616 3.29851C67.2636 3.34028 67.2564 3.38197 67.2408 3.42074C67.2251 3.4595 67.2012 3.49443 67.1708 3.52314C67.1404 3.55185 67.1041 3.57366 67.0645 3.58708C67.0249 3.6005 66.9828 3.60522 66.9412 3.6009Z" fill="#A8CFF0"/>
<path d="M97.3897 33.145C97.3281 33.1445 97.2681 33.1256 97.2173 33.0907C97.1666 33.0559 97.1274 33.0066 97.1049 32.9493C97.0396 32.7655 96.9743 32.5817 96.9031 32.392C96.8761 32.3188 96.879 32.238 96.9112 32.1669C96.9434 32.0959 97.0023 32.0404 97.0752 32.0125C97.1118 31.9982 97.1509 31.9913 97.1902 31.9923C97.2295 31.9932 97.2682 32.0019 97.3041 32.0179C97.3399 32.0339 97.3723 32.0569 97.3992 32.0855C97.4262 32.114 97.4471 32.1477 97.461 32.1844C97.5262 32.3742 97.5974 32.558 97.6686 32.7774C97.6954 32.8513 97.6916 32.9328 97.6582 33.0039C97.6249 33.0751 97.5646 33.1301 97.4906 33.1569L97.3897 33.145Z" fill="#A8CFF0"/>
<path d="M89.2068 61.4534C89.1474 61.4535 89.0892 61.4361 89.0396 61.4034C88.99 61.3707 88.9512 61.3242 88.9279 61.2696C88.8567 61.0857 88.7795 60.9079 88.7083 60.7241C88.6927 60.6887 88.6843 60.6506 88.6836 60.6119C88.683 60.5733 88.69 60.5349 88.7044 60.499C88.7188 60.4631 88.7402 60.4304 88.7673 60.4029C88.7945 60.3754 88.8269 60.3535 88.8626 60.3387C88.929 60.3205 88.9996 60.3259 89.0624 60.3541C89.1251 60.3822 89.1762 60.4312 89.2068 60.4928L89.4323 61.0442C89.4617 61.1182 89.4607 61.2007 89.4296 61.274C89.3985 61.3473 89.3398 61.4053 89.2661 61.4356C89.2469 61.4433 89.2271 61.4493 89.2068 61.4534Z" fill="#0FBAB8"/>
<path d="M86.5187 85.1478C86.4669 85.1474 86.4161 85.1336 86.3713 85.1076C86.3265 85.0816 86.2894 85.0443 86.2635 84.9995C86.2243 84.9309 86.2135 84.8497 86.2334 84.7732C86.2534 84.6968 86.3025 84.6311 86.3703 84.5904C86.6885 84.4145 86.9939 84.2164 87.2842 83.9975C87.3469 83.9511 87.4252 83.9308 87.5026 83.9408C87.58 83.9507 87.6506 83.9901 87.6996 84.0508C87.7478 84.114 87.7692 84.1935 87.7592 84.2723C87.7492 84.351 87.7086 84.4227 87.6462 84.4718C87.3344 84.7121 87.0073 84.932 86.667 85.13C86.6201 85.1493 86.5688 85.1554 86.5187 85.1478ZM88.7143 83.3334C88.6416 83.3336 88.5715 83.306 88.5185 83.2563C88.4888 83.2313 88.4645 83.2006 88.4469 83.166C88.4293 83.1315 88.4188 83.0937 88.4161 83.055C88.4133 83.0164 88.4183 82.9775 88.4308 82.9408C88.4433 82.9041 88.463 82.8702 88.4888 82.8413C88.734 82.5629 88.9619 82.2699 89.1713 81.9637C89.1933 81.9312 89.2216 81.9034 89.2545 81.8819C89.2874 81.8603 89.3242 81.8456 89.3628 81.8384C89.4015 81.8312 89.4412 81.8318 89.4796 81.8401C89.518 81.8484 89.5544 81.8642 89.5867 81.8867C89.6512 81.9321 89.6953 82.001 89.7097 82.0785C89.7241 82.156 89.7077 82.2361 89.6638 82.3017C89.4406 82.6256 89.1988 82.9364 88.9398 83.2326C88.9112 83.264 88.8764 83.2892 88.8376 83.3065C88.7988 83.3239 88.7568 83.333 88.7143 83.3334ZM90.275 80.9617C90.23 80.9603 90.1857 80.9502 90.1445 80.932C90.0747 80.8964 90.0214 80.8351 89.996 80.761C89.9705 80.6868 89.9748 80.6058 90.008 80.5348C90.1682 80.2087 90.3106 79.8589 90.4471 79.509C90.4574 79.4686 90.476 79.4307 90.5019 79.3979C90.5278 79.3652 90.5603 79.3382 90.5973 79.3189C90.6344 79.2996 90.6751 79.2883 90.7168 79.2857C90.7585 79.2832 90.8002 79.2895 90.8393 79.3042C90.8784 79.3189 90.914 79.3417 90.9436 79.371C90.9733 79.4004 90.9965 79.4357 91.0115 79.4747C91.0266 79.5136 91.0333 79.5552 91.0311 79.5969C91.029 79.6386 91.018 79.6794 90.999 79.7165C90.8625 80.0842 90.7082 80.4459 90.5421 80.7957C90.5152 80.8423 90.4762 80.8807 90.4291 80.9068C90.3821 80.9329 90.3288 80.9457 90.275 80.9439V80.9617ZM91.2245 78.2639H91.1533C91.0782 78.2443 91.0138 78.1961 90.9738 78.1296C90.9339 78.0631 90.9216 77.9836 90.9397 77.9081C91.0228 77.5524 91.0999 77.1848 91.1652 76.8053C91.1797 76.728 91.2237 76.6594 91.288 76.614C91.3522 76.5686 91.4316 76.55 91.5094 76.5622C91.5867 76.5767 91.6554 76.6207 91.7008 76.6849C91.7462 76.749 91.7648 76.8284 91.7527 76.9061C91.6815 77.2974 91.6043 77.6769 91.5153 78.0445C91.4949 78.1048 91.4557 78.157 91.4033 78.1934C91.3509 78.2297 91.2882 78.2482 91.2245 78.2461V78.2639ZM91.6755 75.4415C91.6365 75.4386 91.5985 75.4279 91.5636 75.4101C91.5288 75.3924 91.4977 75.368 91.4724 75.3382C91.447 75.3084 91.4278 75.274 91.4158 75.2368C91.4038 75.1995 91.3993 75.1603 91.4025 75.1214C91.4322 74.7538 91.45 74.3802 91.4619 73.9948C91.4679 73.9172 91.503 73.8448 91.5603 73.792C91.6175 73.7392 91.6926 73.71 91.7705 73.7102C91.8092 73.711 91.8473 73.7194 91.8827 73.7351C91.9181 73.7508 91.95 73.7734 91.9765 73.8016C92.0031 73.8297 92.0237 73.8629 92.0372 73.8991C92.0508 73.9354 92.0569 73.974 92.0553 74.0126C92.0553 74.4099 92.0553 74.7953 91.996 75.1984C91.978 75.2679 91.9359 75.3286 91.8772 75.3699C91.8185 75.4112 91.747 75.4303 91.6755 75.4238V75.4415ZM91.723 72.5836C91.6468 72.5823 91.5738 72.5522 91.5188 72.4994C91.4638 72.4467 91.4308 72.3751 91.4263 72.299C91.4263 71.9255 91.3907 71.546 91.3551 71.1725C91.35 71.0935 91.3755 71.0156 91.4263 70.9549C91.4771 70.8942 91.5494 70.8553 91.6281 70.8464C91.667 70.8431 91.7063 70.8476 91.7435 70.8596C91.7808 70.8716 91.8153 70.8908 91.8451 70.9161C91.8748 70.9415 91.8993 70.9725 91.9171 71.0073C91.9348 71.0421 91.9455 71.0801 91.9485 71.1191C91.9841 71.5144 92.0078 71.9097 92.0197 72.305C92.0213 72.3439 92.0152 72.3828 92.0017 72.4194C91.9883 72.4559 91.9677 72.4895 91.9413 72.5181C91.9148 72.5468 91.883 72.5699 91.8476 72.5862C91.8121 72.6026 91.7738 72.6118 91.7349 72.6133L91.723 72.5836ZM91.456 69.7317C91.3859 69.7312 91.3182 69.7059 91.265 69.6603C91.2118 69.6147 91.1764 69.5518 91.1652 69.4826C91.1118 69.1091 91.0465 68.7355 90.9812 68.362C90.9674 68.285 90.9845 68.2056 91.029 68.1412C91.0735 68.0768 91.1416 68.0325 91.2186 68.0181C91.2955 68.0058 91.3742 68.0236 91.4383 68.0678C91.5024 68.1119 91.547 68.1791 91.5628 68.2553C91.634 68.6347 91.6933 69.0142 91.7527 69.3937C91.7585 69.4327 91.7565 69.4724 91.7468 69.5106C91.7371 69.5489 91.7199 69.5847 91.6961 69.6162C91.6724 69.6477 91.6425 69.6741 91.6084 69.6939C91.5743 69.7138 91.5366 69.7266 91.4975 69.7317H91.456ZM90.9219 66.9212C90.8548 66.9229 90.7893 66.9014 90.7363 66.8603C90.6833 66.8193 90.6461 66.7612 90.6311 66.6959C90.5421 66.3283 90.4531 65.9607 90.3522 65.593C90.3421 65.5541 90.3397 65.5136 90.3452 65.4737C90.3508 65.4339 90.3642 65.3955 90.3845 65.3608C90.4049 65.3261 90.432 65.2958 90.4641 65.2716C90.4962 65.2473 90.5328 65.2296 90.5718 65.2195C90.6107 65.2094 90.6513 65.207 90.6912 65.2126C90.731 65.2181 90.7694 65.2315 90.8042 65.2518C90.8389 65.2722 90.8692 65.2992 90.8935 65.3313C90.9178 65.3634 90.9355 65.3999 90.9456 65.4389C91.0465 65.8124 91.1474 66.186 91.2305 66.5595C91.2401 66.5973 91.2421 66.6366 91.2362 66.6752C91.2303 66.7138 91.2167 66.7507 91.1962 66.7839C91.1757 66.8171 91.1488 66.8459 91.1169 66.8684C91.0851 66.891 91.049 66.9069 91.0109 66.9153L90.9219 66.9212ZM90.1504 64.1641C90.087 64.1645 90.0251 64.1445 89.9738 64.1072C89.9225 64.0698 89.8846 64.017 89.8656 63.9566C89.7528 63.6008 89.6282 63.2391 89.5036 62.8834C89.4867 62.8459 89.4777 62.8054 89.4773 62.7643C89.4769 62.7232 89.485 62.6824 89.5012 62.6447C89.5174 62.6069 89.5413 62.5729 89.5713 62.5448C89.6013 62.5167 89.6369 62.4952 89.6757 62.4816C89.7145 62.468 89.7557 62.4626 89.7967 62.4657C89.8378 62.4689 89.8777 62.4805 89.9139 62.4999C89.9502 62.5193 89.982 62.546 90.0074 62.5783C90.0328 62.6106 90.0512 62.6479 90.0614 62.6877C90.192 63.0494 90.3166 63.4111 90.4293 63.7787C90.4537 63.8534 90.4473 63.9347 90.4117 64.0047C90.3761 64.0748 90.3142 64.1278 90.2394 64.1522L90.1504 64.1641Z" fill="#0FBAB8"/>
<path d="M84.3759 86.0302C84.3369 86.0353 84.2973 86.0326 84.2594 86.0224C84.2214 86.0122 84.1859 85.9946 84.1548 85.9706C84.1236 85.9467 84.0975 85.9168 84.0779 85.8828C84.0583 85.8488 84.0456 85.8112 84.0406 85.7723C84.0355 85.7334 84.0382 85.6938 84.0484 85.6559C84.0586 85.618 84.0762 85.5825 84.1002 85.5514C84.1242 85.5203 84.1541 85.4942 84.1881 85.4746C84.2222 85.455 84.2598 85.4424 84.2987 85.4373L84.8506 85.2713C84.8884 85.2532 84.9296 85.2433 84.9716 85.2423C85.0135 85.2413 85.0551 85.2491 85.0938 85.2654C85.1324 85.2816 85.1672 85.3058 85.1958 85.3365C85.2244 85.3671 85.2462 85.4035 85.2597 85.4431C85.2732 85.4828 85.2781 85.5248 85.2742 85.5665C85.2702 85.6082 85.2575 85.6486 85.2368 85.6851C85.2161 85.7215 85.1879 85.7531 85.154 85.7779C85.1202 85.8026 85.0815 85.8199 85.0405 85.8286C84.8506 85.8958 84.6528 85.9551 84.4471 86.0065L84.3759 86.0302Z" fill="#0FBAB8"/>
<path d="M100.702 48.3529C100.639 48.3529 100.578 48.3328 100.528 48.2954C100.477 48.258 100.441 48.2054 100.423 48.1454L100.019 46.8528L99.5801 48.0801C99.5544 48.1537 99.5008 48.2142 99.4308 48.2486C99.3609 48.283 99.2802 48.2885 99.2062 48.2639C99.1321 48.2371 99.0715 48.1824 99.0371 48.1115C99.0028 48.0407 98.9974 47.9592 99.0222 47.8845L99.7522 45.8211C99.7717 45.7618 99.8094 45.7101 99.86 45.6735C99.9107 45.6369 99.9715 45.6172 100.034 45.6172C100.097 45.6172 100.157 45.6369 100.208 45.6735C100.259 45.7101 100.296 45.7618 100.316 45.8211L100.986 47.9556C100.998 47.9926 101.003 48.0316 100.999 48.0702C100.996 48.1089 100.984 48.1465 100.966 48.1807C100.948 48.215 100.923 48.2453 100.893 48.2697C100.863 48.2942 100.828 48.3124 100.791 48.3232L100.702 48.3529Z" fill="#A8CFF0"/>
<path d="M71.6766 29.2619C70.1218 28.3666 68.7095 28.2421 67.665 28.7698C68.266 28.6458 68.8857 28.6428 69.4879 28.7609C70.0901 28.879 70.6627 29.1158 71.1722 29.4576C74.4123 31.3253 77.0412 35.8553 77.0412 39.5729C77.0412 41.5059 76.3231 42.834 75.1837 43.4032C76.6198 43.006 77.5575 41.5829 77.5575 39.3713C77.5456 35.6596 74.9167 31.1297 71.6766 29.2619Z" fill="white"/>
<path d="M70.347 33.7192C70.347 34.241 69.9791 34.4485 69.5221 34.1876C69.2822 34.0321 69.0824 33.8221 68.9391 33.5748C68.7957 33.3275 68.7129 33.0499 68.6973 32.7646C68.6973 32.2428 69.0652 32.0353 69.5221 32.2962C69.7621 32.4517 69.9618 32.6616 70.1052 32.9089C70.2485 33.1562 70.3314 33.4338 70.347 33.7192Z" fill="#7AA7FF"/>
<path d="M73.6829 35.6416C73.6829 36.1634 73.315 36.3769 72.8581 36.11C72.6169 35.9573 72.4161 35.7487 72.2725 35.5021C72.1289 35.2555 72.0469 34.9779 72.0332 34.693C72.0332 34.1712 72.4011 33.9577 72.8581 34.2245C73.0992 34.3773 73.3001 34.5858 73.4436 34.8325C73.5872 35.0791 73.6693 35.3566 73.6829 35.6416Z" fill="#7AA7FF"/>
<path d="M68.0742 35.8672L68.8457 35.9976C69.2002 37.3464 70.0469 38.5139 71.2194 39.2706C72.246 39.8635 73.1895 39.6678 73.5575 38.7844L74.3171 39.5611C73.8245 40.747 72.5843 40.9901 71.2194 40.2074C69.6667 39.2024 68.5452 37.6547 68.0742 35.8672Z" fill="#7AA7FF"/>
<path d="M69.7654 34.0254C69.5258 33.8696 69.3263 33.6595 69.183 33.4123C69.0397 33.1651 68.9567 32.8876 68.9406 32.6024C68.9358 32.4604 68.9729 32.3202 69.0474 32.1992C68.8397 32.2467 68.6973 32.4482 68.6973 32.7921C68.7129 33.0775 68.7957 33.3551 68.9391 33.6024C69.0824 33.8497 69.2822 34.0596 69.5221 34.2152C69.8307 34.393 70.1156 34.3515 70.2342 34.1499C70.0678 34.1695 69.9002 34.125 69.7654 34.0254Z" fill="#898989"/>
<path d="M73.1014 35.9453C72.8614 35.7898 72.6617 35.5798 72.5183 35.3325C72.375 35.0852 72.2921 34.8076 72.2765 34.5223C72.2715 34.3821 72.3087 34.2437 72.3833 34.125C72.1756 34.1724 72.0332 34.374 72.0332 34.7179C72.0469 35.0029 72.1289 35.2804 72.2725 35.5271C72.4161 35.7737 72.6169 35.9822 72.8581 36.135C73.1666 36.3129 73.4515 36.2714 73.5702 36.0698C73.4037 36.0894 73.2361 36.0449 73.1014 35.9453Z" fill="#898989"/>
<path d="M73.636 38.88L73.541 38.7852C73.4617 38.9763 73.3422 39.1482 73.1904 39.2891C73.3711 39.1924 73.5244 39.0517 73.636 38.88Z" fill="#B08100"/>
<path d="M71.4449 40.0355C69.9626 39.0745 68.8742 37.6146 68.3769 35.9206L68.0742 35.8672C68.5408 37.6519 69.6556 39.1991 71.2016 40.2074C72.2282 40.8003 73.1836 40.8003 73.8067 40.2608C73.4279 40.4335 73.0102 40.5037 72.5956 40.4641C72.181 40.4246 71.7842 40.2767 71.4449 40.0355Z" fill="#898989"/>
<path d="M74.7746 68.6327C74.7746 50.0919 61.6658 27.4955 45.489 18.1687C37.6914 13.6506 30.6059 13.0577 25.36 15.7496V15.72L20.8203 18.2458L22.927 21.8627C21.8755 25.0237 21.3639 28.339 21.4137 31.6697C21.4137 50.2164 34.5285 72.8069 50.6993 82.1396C53.6337 83.8908 56.8442 85.1318 60.1941 85.8098L62.3423 89.4978L65.3807 87.8672C71.1488 85.0746 74.7746 78.3864 74.7746 68.6327Z" fill="#7AA7FF"/>
<path d="M62.9015 89.217C74.2644 82.58 74.1475 61.2559 62.6404 41.5883C51.1333 21.9207 32.5935 11.3573 21.2306 17.9944C9.86769 24.6314 9.9846 45.9555 21.4917 65.6231C32.9988 85.2907 51.5386 95.8541 62.9015 89.217Z" fill="#5D94FF"/>
<path d="M62.2453 89.5764C73.6081 82.9394 73.4912 61.6153 61.9841 41.9477C50.477 22.2801 31.9372 11.7167 20.5743 18.3537C9.21144 24.9907 9.32835 46.3148 20.8355 65.9824C32.3426 85.65 50.8824 96.2134 62.2453 89.5764Z" fill="#67D5B4"/>
<path d="M59.1904 84.3536C68.8868 78.69 68.7866 60.4926 58.9666 43.7086C49.1466 26.9246 33.3255 17.9097 23.6291 23.5733C13.9327 29.2369 14.0329 47.4343 23.8529 64.2183C33.6729 81.0023 49.4941 90.0172 59.1904 84.3536Z" fill="#F8F9FC"/>
<path d="M63.2383 80.5061C65.25 77.5415 66.4013 73.4503 66.4013 68.3808C66.4013 68.3037 66.4013 68.2266 66.4013 68.1495L41.4121 53.9727L63.2383 80.5061Z" fill="#EB4680"/>
<path d="M42.4327 82.103C28.6296 74.1282 17.4435 54.8581 17.4435 39.0388C17.4435 31.1173 20.2445 25.5616 24.7783 22.9883C19.6511 25.2829 16.4229 31.0462 16.4229 39.5487C16.4229 55.368 27.6089 74.65 41.412 82.613C48.3017 86.5856 54.5386 86.9888 59.0605 84.4214C54.6454 86.3958 48.818 85.791 42.4327 82.103Z" fill="#5D94FF"/>
<path d="M42.7776 54.7534C42.7776 55.619 42.1842 55.9392 41.4127 55.5301C41.0133 55.2712 40.6813 54.9211 40.444 54.5087C40.2067 54.0964 40.0709 53.6335 40.0479 53.1584C40.0479 52.2927 40.6413 51.9725 41.4127 52.3757C41.8116 52.6366 42.1431 52.988 42.3803 53.4012C42.6175 53.8143 42.7536 54.2777 42.7776 54.7534Z" fill="#03336E"/>
<path d="M41.7919 29.6171C41.6764 29.5346 41.5819 29.4262 41.5159 29.3005C41.4499 29.1749 41.4144 29.0356 41.4121 28.8937V27.6249C41.4121 27.3462 41.5842 27.2157 41.7919 27.3403C41.908 27.4208 42.0031 27.528 42.0691 27.6528C42.1352 27.7777 42.1704 27.9165 42.1717 28.0577V29.3325C42.1717 29.6112 42.0055 29.7357 41.7919 29.6171Z" fill="#72B5E8"/>
<path d="M41.7919 80.5858C41.6764 80.5033 41.5819 80.3949 41.5159 80.2693C41.4499 80.1437 41.4144 80.0043 41.4121 79.8625V78.5936C41.4121 78.3149 41.5842 78.1845 41.7919 78.309C41.908 78.3896 42.0031 78.4967 42.0691 78.6216C42.1352 78.7464 42.1704 78.8852 42.1717 79.0264V80.3012C42.1717 80.5799 42.0055 80.7044 41.7919 80.5858Z" fill="#72B5E8"/>
<path d="M20.5593 41.7147C20.5593 41.9518 20.4168 42.0645 20.2329 41.9578L18.8977 41.187C18.802 41.1191 18.723 41.0306 18.6665 40.9279C18.6099 40.8252 18.5774 40.7111 18.5713 40.594C18.5713 40.3509 18.7196 40.2383 18.8977 40.345L20.2329 41.1158C20.3293 41.1843 20.4088 41.2738 20.4654 41.3775C20.5219 41.4813 20.554 41.5966 20.5593 41.7147Z" fill="#72B5E8"/>
<path d="M65.0124 67.3592C65.0124 67.5964 64.87 67.709 64.686 67.6082L63.3508 66.8315C63.2552 66.7637 63.1761 66.6751 63.1196 66.5724C63.0631 66.4697 63.0305 66.3556 63.0244 66.2386C63.0244 65.9955 63.1728 65.8828 63.3508 65.9895L64.686 66.7604C64.7824 66.8288 64.8619 66.9183 64.9185 67.0221C64.975 67.1259 65.0072 67.2412 65.0124 67.3592Z" fill="#72B5E8"/>
<path d="M31.1751 26.7566C30.9971 26.7566 30.7657 26.5669 30.6588 26.3001L30.0654 24.7229C29.9645 24.4561 30.0239 24.2248 30.2078 24.207C30.3859 24.207 30.6173 24.3968 30.7241 24.6695L31.3175 26.2467C31.4184 26.5135 31.3591 26.7448 31.1751 26.7566Z" fill="#72B5E8"/>
<path d="M53.4055 83.7176C53.2215 83.7176 52.9901 83.5278 52.8892 83.261L52.2958 81.6838C52.189 81.417 52.2543 81.1858 52.4323 81.168C52.6162 81.168 52.8477 81.3577 52.9545 81.6245L53.5479 83.2017C53.6488 83.4745 53.6013 83.6998 53.4055 83.7176Z" fill="#72B5E8"/>
<path d="M23.4075 55.5294C23.5084 55.7962 23.4491 56.0274 23.2651 56.0393L22.2029 56.1282C22.0189 56.1282 21.7875 55.9444 21.6806 55.6717C21.5798 55.4049 21.6391 55.1736 21.8231 55.1618L22.8853 55.0669C23.0693 55.055 23.3007 55.2566 23.4075 55.5294Z" fill="#72B5E8"/>
<path d="M61.9093 52.2506C62.0161 52.5174 61.9509 52.7486 61.7728 52.7664L60.7047 52.8554C60.5266 52.8554 60.2952 52.6656 60.1884 52.3988C60.0816 52.132 60.1468 51.9008 60.3249 51.883L61.393 51.794C61.5651 51.7762 61.8025 51.9838 61.9093 52.2506Z" fill="#72B5E8"/>
<path d="M23.4074 31.1846C23.3005 31.3329 23.0691 31.2676 22.8851 31.0423L21.8229 29.726C21.7409 29.64 21.6843 29.5331 21.6591 29.4169C21.634 29.3008 21.6414 29.1801 21.6805 29.0679C21.7873 28.9196 22.0187 28.9849 22.2027 29.2102L23.2649 30.5265C23.3469 30.6125 23.4036 30.7194 23.4287 30.8356C23.4538 30.9517 23.4465 31.0724 23.4074 31.1846Z" fill="#72B5E8"/>
<path d="M61.909 78.8741C61.8081 79.0223 61.5708 78.963 61.3927 78.7377L60.3246 77.4155C60.2402 77.3285 60.1825 77.2192 60.1583 77.1004C60.1341 76.9817 60.1444 76.8585 60.1881 76.7455C60.2949 76.5972 60.5263 76.6565 60.7044 76.8818L61.7725 78.2041C61.8569 78.2911 61.9147 78.4004 61.9388 78.5191C61.963 78.6379 61.9527 78.761 61.909 78.8741Z" fill="#72B5E8"/>
<path d="M31.1757 68.925C31.2611 69.0114 31.32 69.1204 31.3452 69.2392C31.3704 69.3579 31.3611 69.4814 31.3181 69.595L30.7247 70.4607C30.6179 70.6089 30.3865 70.5496 30.2084 70.3243C30.1231 70.2367 30.0645 70.1266 30.0393 70.007C30.0141 69.8873 30.0233 69.763 30.066 69.6484L30.6594 68.7827C30.7663 68.6345 30.9977 68.6997 31.1757 68.925Z" fill="#72B5E8"/>
<path d="M53.405 37.6039C53.49 37.6905 53.5482 37.7998 53.5724 37.9187C53.5966 38.0376 53.5859 38.1609 53.5415 38.2739L52.948 39.1395C52.8412 39.2878 52.6098 39.2285 52.4258 39.0032C52.3409 38.9152 52.2829 38.8049 52.2588 38.6851C52.2346 38.5654 52.2452 38.4412 52.2893 38.3272L52.8828 37.4616C53.0074 37.3133 53.221 37.3667 53.405 37.6039Z" fill="#72B5E8"/>
<path d="M42.0703 55.3364L40.7529 54.5716V33.4219L42.0703 34.1808V55.3364Z" fill="#03336E"/>
<path d="M41.6438 53.6875L41.2402 54.2567L59.0964 76.3729L59.5 75.8037L41.6438 53.6875Z" fill="#03336E"/>
<path d="M42.0944 54.356C42.0944 54.7888 41.7917 54.9489 41.4119 54.7473C41.2126 54.6175 41.0468 54.4424 40.9282 54.2363C40.8096 54.0302 40.7415 53.7989 40.7295 53.5615C40.7295 53.1286 41.0321 52.9685 41.4119 53.1761C41.6118 53.3039 41.7782 53.4777 41.8969 53.683C42.0157 53.8883 42.0834 54.1191 42.0944 54.356Z" fill="#EB4680"/>
<path d="M46.6647 51.8369L45.9467 50.5977L43.0389 52.2579L43.2288 52.578L25.1768 62.8594L25.5209 63.4523L43.567 53.171L43.7569 53.4911L46.6647 51.8369Z" fill="#EB4680"/>
<path style="mix-blend-mode:multiply" d="M30.6014 49.4201C35.8046 46.3808 35.7521 36.6178 30.484 27.6138C25.2159 18.6097 16.7272 13.7742 11.5239 16.8134C6.32063 19.8526 6.37317 29.6156 11.6413 38.6197C16.9094 47.6238 25.3981 52.4593 30.6014 49.4201Z" fill="url(#paint0_radial_1886_31952)"/>
<path d="M26.564 37.5087C26.564 31.5795 22.3685 24.3517 17.1997 21.3693C14.7074 19.9285 12.4523 19.7387 10.7611 20.5926L7.7168 22.2053L8.38737 23.3912C8.05467 24.3927 7.89219 25.4429 7.90669 26.4981C7.90669 32.4274 12.0963 39.6492 17.265 42.6376C18.2037 43.2011 19.2309 43.6021 20.3034 43.8234L20.9917 45.0093L23.1221 43.8886C24.9736 43.017 26.564 40.6275 26.564 37.5087Z" fill="#0BA19F"/>
<path d="M20.9372 44.8027C24.5563 42.7004 24.5343 35.9165 20.8882 29.6504C17.2421 23.3844 11.3525 20.0091 7.73351 22.1114C4.11447 24.2137 4.13642 30.9976 7.78253 37.2636C11.4286 43.5296 17.3182 46.905 20.9372 44.8027Z" fill="#3ECFCD"/>
<path d="M20.9678 45.0184C24.6008 42.8964 24.5625 36.077 20.8822 29.7869C17.202 23.4968 11.2735 20.1178 7.64055 22.2398C4.00759 24.3618 4.04591 31.1812 7.72613 37.4713C11.4064 43.7614 17.3349 47.1404 20.9678 45.0184Z" fill="#0FBAB8"/>
<path d="M16.4048 29.6612C14.7848 26.8745 12.6247 26.9634 11.8354 27.9773V26.7915C12.0966 26.7915 12.2805 26.6195 12.2805 26.2697C12.2647 26.0127 12.1888 25.763 12.0589 25.5406C11.9291 25.3182 11.7489 25.1293 11.5328 24.989C11.1233 24.7518 10.791 24.9415 10.791 25.41C10.8104 25.7967 10.9659 26.1642 11.2302 26.4476V38.4069C10.969 38.4069 10.791 38.5848 10.791 38.9287L12.2805 39.7884C12.2587 39.4028 12.101 39.0374 11.8354 38.7567V33.0291C12.6247 32.0152 14.8026 31.9203 16.4048 34.713C18.0961 37.6242 20.6775 37.0076 20.6775 37.0076V31.9381C20.6775 31.9381 18.0961 32.5547 16.4048 29.6612Z" fill="white"/>
</g>
<defs>
<radialGradient id="paint0_radial_1886_31952" cx="0" cy="0" r="1" gradientUnits="userSpaceOnUse" gradientTransform="translate(-2.05985 42.1535) rotate(-150.217) scale(11.7759 10.1121)">
<stop offset="0.06" stop-color="#7F9BB0"/>
<stop offset="1" stop-color="white"/>
</radialGradient>
<clipPath id="clip0_1886_31952">
<rect width="101" height="101" fill="white"/>
</clipPath>
</defs>
</svg>
