<svg width="38" height="52" viewBox="0 0 38 52" fill="none" xmlns="http://www.w3.org/2000/svg">
<path d="M19 0C8.52334 0 0 8.44818 0 18.8323C0 31.7194 17.0031 50.6384 17.7271 51.4375C18.407 52.1882 19.5942 52.1868 20.2729 51.4375C20.9969 50.6384 38 31.7194 38 18.8323C37.9998 8.44818 29.4766 0 19 0ZM19 28.3074C13.7289 28.3074 9.44072 24.0569 9.44072 18.8323C9.44072 13.6078 13.729 9.35737 19 9.35737C24.271 9.35737 28.5592 13.6079 28.5592 18.8325C28.5592 24.057 24.271 28.3074 19 28.3074Z" fill="#0015D4"/>
</svg>