<svg width="72" height="19" viewBox="0 0 72 19" fill="none" xmlns="http://www.w3.org/2000/svg">
<path d="M6.80089 18.5H0.829293V0.0538103H6.99003C8.79742 0.0538103 10.3496 0.423095 11.6466 1.16166C12.9436 1.89423 13.9374 2.94804 14.6279 4.32309C15.3244 5.69215 15.6727 7.33441 15.6727 9.24988C15.6727 11.1714 15.3214 12.8226 14.6189 14.2037C13.9224 15.5848 12.9136 16.6476 11.5926 17.3921C10.2716 18.1307 8.67433 18.5 6.80089 18.5ZM3.61243 16.0681H6.64777C8.05285 16.0681 9.22075 15.8039 10.1515 15.2755C11.0822 14.7411 11.7787 13.9695 12.2411 12.9607C12.7034 11.946 12.9346 10.709 12.9346 9.24988C12.9346 7.80277 12.7034 6.57483 12.2411 5.56605C11.7847 4.55727 11.1032 3.79169 10.1965 3.26928C9.2898 2.74688 8.16394 2.48568 6.8189 2.48568H3.61243V16.0681ZM25.7595 18.7792C24.4625 18.7792 23.3306 18.482 22.3639 17.8875C21.3971 17.2931 20.6465 16.4614 20.1121 15.3926C19.5777 14.3238 19.3105 13.0748 19.3105 11.6457C19.3105 10.2106 19.5777 8.95566 20.1121 7.88083C20.6465 6.806 21.3971 5.97136 22.3639 5.37691C23.3306 4.78245 24.4625 4.48522 25.7595 4.48522C27.0565 4.48522 28.1883 4.78245 29.1551 5.37691C30.1218 5.97136 30.8724 6.806 31.4068 7.88083C31.9412 8.95566 32.2084 10.2106 32.2084 11.6457C32.2084 13.0748 31.9412 14.3238 31.4068 15.3926C30.8724 16.4614 30.1218 17.2931 29.1551 17.8875C28.1883 18.482 27.0565 18.7792 25.7595 18.7792ZM25.7685 16.5185C26.6091 16.5185 27.3057 16.2963 27.8581 15.852C28.4105 15.4076 28.8188 14.8162 29.083 14.0776C29.3532 13.339 29.4883 12.5254 29.4883 11.6367C29.4883 10.754 29.3532 9.94342 29.083 9.20485C28.8188 8.46028 28.4105 7.86282 27.8581 7.41247C27.3057 6.96212 26.6091 6.73695 25.7685 6.73695C24.9218 6.73695 24.2193 6.96212 23.6609 7.41247C23.1084 7.86282 22.6971 8.46028 22.4269 9.20485C22.1627 9.94342 22.0306 10.754 22.0306 11.6367C22.0306 12.5254 22.1627 13.339 22.4269 14.0776C22.6971 14.8162 23.1084 15.4076 23.6609 15.852C24.2193 16.2963 24.9218 16.5185 25.7685 16.5185ZM38.9221 0.0538103V18.5H36.229V0.0538103H38.9221ZM49.3872 18.7792C48.0902 18.7792 46.9583 18.482 45.9916 17.8875C45.0248 17.2931 44.2742 16.4614 43.7398 15.3926C43.2054 14.3238 42.9382 13.0748 42.9382 11.6457C42.9382 10.2106 43.2054 8.95566 43.7398 7.88083C44.2742 6.806 45.0248 5.97136 45.9916 5.37691C46.9583 4.78245 48.0902 4.48522 49.3872 4.48522C50.6842 4.48522 51.816 4.78245 52.7828 5.37691C53.7495 5.97136 54.5001 6.806 55.0345 7.88083C55.5689 8.95566 55.8361 10.2106 55.8361 11.6457C55.8361 13.0748 55.5689 14.3238 55.0345 15.3926C54.5001 16.4614 53.7495 17.2931 52.7828 17.8875C51.816 18.482 50.6842 18.7792 49.3872 18.7792ZM49.3962 16.5185C50.2368 16.5185 50.9334 16.2963 51.4858 15.852C52.0382 15.4076 52.4465 14.8162 52.7107 14.0776C52.9809 13.339 53.116 12.5254 53.116 11.6367C53.116 10.754 52.9809 9.94342 52.7107 9.20485C52.4465 8.46028 52.0382 7.86282 51.4858 7.41247C50.9334 6.96212 50.2368 6.73695 49.3962 6.73695C48.5495 6.73695 47.847 6.96212 47.2886 7.41247C46.7361 7.86282 46.3248 8.46028 46.0546 9.20485C45.7904 9.94342 45.6583 10.754 45.6583 11.6367C45.6583 12.5254 45.7904 13.339 46.0546 14.0776C46.3248 14.8162 46.7361 15.4076 47.2886 15.852C47.847 16.2963 48.5495 16.5185 49.3962 16.5185ZM62.5498 10.2857V18.5H59.8567V4.66536H62.4417V6.91709H62.6129C62.9311 6.18453 63.4295 5.59607 64.108 5.15173C64.7925 4.70739 65.6542 4.48522 66.693 4.48522C67.6357 4.48522 68.4614 4.68337 69.1699 5.07968C69.8785 5.46998 70.4279 6.05242 70.8182 6.82702C71.2085 7.60162 71.4036 8.55935 71.4036 9.70023V18.5H68.7106V10.0245C68.7106 9.02171 68.4494 8.23811 67.9269 7.67367C67.4045 7.10323 66.687 6.81801 65.7743 6.81801C65.1498 6.81801 64.5944 6.95312 64.108 7.22333C63.6276 7.49353 63.2463 7.88984 62.9641 8.41224C62.6879 8.92864 62.5498 9.55312 62.5498 10.2857Z" fill="black"/>
</svg>
